<?xml version="1.0" encoding="UTF-8" standalone="no"?>
<svg id="svg2" xmlns:rdf="http://www.w3.org/1999/02/22-rdf-syntax-ns#" xmlns="http://www.w3.org/2000/svg" height="3526pt" width="3526pt" version="1.1" xmlns:cc="http://creativecommons.org/ns#" xmlns:dc="http://purl.org/dc/elements/1.1/" viewBox="0 0 3526 3526">
<path id="path4" d="m490.46 20.295c-11.15-0.066-22.35 0.423-33.56 1.492-52.1 4.538-103.18 19.626-149.64 43.514-0.22 9.7 14.61 2.324 20.21 4.724 115.62-4.175 222.88 63.055 290.6 153.16 3.93 7.31 13.73 14.04 13.52 22.64-61.73 6.13-92.73 73.56-90.45 129.21 2.31 7.75-6.59 31.91 9.18 26.58 46.4-16.41 98.04 3.08 132.42 35.67 71.34 70.56 115.48 171.81 107.61 273.06-4 59.49-13.16 120.06-39.7 174.06-92.8 210.2-213.64 406.2-326.85 605.7-90.05 150.9-172.65 307.8-224.58 476.4-0.01 1.7-3.78 7.5-2.57 3 31.14-169.9 72.84-337.6 117.16-504.4 39.11-150.1 83.98-299 112.14-451.7 19.15-109.59 28.26-226.2-12.14-332.19-19.43-49.03-48.76-94.36-86.07-131.67-4.25-5.42-12.06-3.33-17-0.14-35.3 24.59-54.44 65.37-63.92 106.17-13.86 58.78-10.56 119.95-3.04 179.4 12.8 84.84 22.76 170.33 22.57 256.23-2.84 145.7-28.36 291.1-50.3 433.9 2.88-100.7-12.79-207.8-74.2-290.7-29.13-38.7-67.95-70.2-111.82-90.8-3.092-1.4-10.831-4.4-8.331 1.9 66.575 75.1 97.481 174.1 117.24 270.6 35.46 185.8 24.02 376.8 3.36 563.7-13.36 135.7-17.7 272.4-8.11 408.5 2.45 112.9 22.72 226.1 65.47 330.8 25.31 65.8 57.02 129.7 101.24 185 92.43 132.1 224.91 234 373.7 295.1 143.21 59.1 299.46 83.6 454 78.4-2.6 118.2 8.9 237.5 42.7 351.1 45 157.4 130.7 304.7 253 414.5 65.5 55.7 134.6 109.4 214.4 143.1 115.1 52.3 240.4 82.9 367.1 85.3 70.5 4.1 141.1 7.6 211.8 4.6 167-0.5 332.1-33.5 499.3-31.6 137.3 0.2 277.5 12 407.3 59.9 49.3 19.3 97 44.4 136.6 80.1 5.7 2.4 3.6-4.4 2.2-7.5-21.8-47.4-56.3-88.7-99.1-118.5-83.4-57.2-188.7-73.2-287.8-67.3 10.8-5.9 26.8-3.7 39.2-7.2 155.3-22.3 311.3-51.6 469-42.1 116.2 2.9 231 40.9 347.5 21.1 44-7.7 90.1-23.7 118.9-59.8 4.5-6.3 11.7-13.4 8.5-21.9-81.2-85.8-203.1-123.7-319.3-117-137.5 4.9-271.1 41.8-403.6 75.6-232.3 62.7-464.7 126.9-701.6 169.9-4.4 1 0.2-2 2.1-2.1 158.9-48.8 308.4-123.9 450.8-209 210.9-119.1 417.2-247.9 639.4-345.6 19-7.8 37.5-17 57.9-20.8 84.9-20.9 177.9-27.2 260 7.7 42.2 19.5 83.7 42.6 116.7 75.8 33.6 32.5 57.6 80.8 46.4 128.3 0.1 6.7-6.7 14.1-2.2 20.4 55.2 4.7 126.3-9.1 149-67.3 3.9-7.3 3-17.3 7.6-23.5 102.7 67.5 180.5 184.8 173.8 311.2 1.2 4.2-3.4 15.4 4.7 13.8 57.7-108.3 60.6-245.8 0.3-353.7-40.5-76.5-107.3-137.3-184.4-175.7-100.9-51.6-217.7-65.1-329.6-56-163.1 11.1-318 69.9-465.2 137.6-4 1.5 0.7-2.8 2.3-3 121.9-57.8 240.1-127.9 336.6-223.2 3.7-2 10.6-12.3 1.9-10.8-66 17.3-137 11.5-200.6-12.5-85.5-37.2-178.4 15-238 75.7-37.2-13.4-81.6-7.5-108.6 23.4-69.1 78-97.7 182.2-160.4 264.6-38.8 49.5-84.8 93.1-134.1 132.2-52.7 44.6-112 80.7-175.1 108.6 27.4-33.8 52.9-73.1 52.5-118.4 1-9.2-6.3-20.6 1.5-27.8 32.3-35.6 59.8-77.5 69.6-125.2 11.5-53.5-3.8-111-38.7-152.7 5.6-36.9 2-76.7-17-109.6-22.5-40.3-61.8-68.3-103.2-86.6-6.5-4.1-16.9-3.2-19.8-11.6-14-38.1-39.3-73.9-76.4-92.4-47.8-24.4-105.4-19.6-154.4-1.5-8.5 0.9-4.3 9.2 0.4 11.7 72.4 62.4 123 151.3 131.7 247.1 13.4 138.2-55 273.6-157.4 363.3-86.1 76.9-194.2 126.2-306.3 151.2-103.9 24.1-213.1 28.7-317.8 7.1-166.8-34.1-315.7-142.4-404.7-286.6 79.7 68.8 185.8 109.5 291.7 101.3 8.2-1.3-0.7-9.6-3.4-12.2-56.1-59.1-39.3-155.7-99.6-211.6-39.9-36.7-98.7-30.7-144.6-55.4-60.4-28-105.3-82.2-131-142.7-23-55.9-37.4-116.8-33.5-177.5-3.1-6.9 2.8-5.9 6.1-6.9 170-20.5 337.3-78 478.1-176.7 81.9-59.7 157.2-128.5 223.5-205.2 131.1-150.4 223.4-337.9 246.6-537.2 2.5-29.4 6.1-59.1 2.5-88.6-4.9-0.6-2.5 8-4.5 10.5-17.3 143-71.2 280.1-149 400.9-94.1 145.5-222.8 266.8-367.7 361-129.2 80.3-278.6 127.2-429.7 141.1 12.9-140.4 54.5-278.9 124-401.8 68.8-114.1 155.7-217.6 256.7-304.5 148.1-128.8 332.8-217.8 528.3-241.5 12.1-3.1-7.1-5.6-10.6-4.6-249.4 4.2-485.5 125.2-661.7 297-90.5 88.7-173.5 187.8-228.4 302.9-55.5 112.2-88.3 234.7-104.1 358.6-58.8 3.7-117.5-8.8-172.29-29.3-72.14-27.3-135.66-82.9-162.38-156.4-11.59-31.6-13.67-66.2-28.22-96.8-12.49-26.3-35.45-46.3-61.7-58.3-55.56-23.5-121.36-26-168.21-67.9-2.75-2.8-10.44-11.6-12.24-3.9-7 101.9 29.13 204.9 94.41 282.9 2.38 1.4 7.71 10.4 1.21 6.4-65.28-42.6-123.22-96.5-170.02-158.9-80.59-105-122.96-237-124.97-368.9 0.85-169.1 46.85-343.3 154.26-476.7 87.96-110.5 225.53-189.9 369.85-179.7 99.09 5.4 192.6 55.9 256.9 130.5 3.1 4.5 12.1 12.3 13.8 2.3 23-59.6 22.6-135.4-22.5-184.8-20.3-23.7-49.4-36.4-76.8-49.6-22.4-65.2-74.23-128.1-146.23-137.4-19.43-5.4-39.72 3-58.77-0.9-48.29-39.6-116.9-51.6-175.59-29.8-39.3 13.5-73.53 38.4-104.18 65.9-52.82-9.1-104.12 16.7-142.13 51.6 14.89-33.6 32.56-66.1 50.85-98 66.15-94.4 141.31-187.5 242.24-246.5 48.61-27.2 98.72-51.6 147.29-78.9 31.57-19.2 64.73-39.4 84.66-71.6 13.82-23.4 13.23-52.3 4.95-77.4-3.65-9.1 6.9-13.8 11.27-20.2 54.9-57.3 97.74-143.84 64.34-222.82-25.19-63.64-30.35-134.9-13.38-201.29 1.82-4.1-2.16-7.79-5.57-4.33-98.19 97.13-168.51 218.22-229.26 341.04 68.16-152.35 129.64-312.12 136.82-480.8 6.9-120.34-13.61-246.2-78.97-349.29-67.51-112.04-193.05-190.04-324.68-190.82zm2075.7 1812.4c-0.3-0.1-0.7 0-1 0.1-142.6 41.9-289.7 71.4-438.5 76.4-55.1 3.5-110.6 3.7-165.5 10.8-61.8 4.7-123.3 30.7-161 81.4 26.7-60.5 95.4-85.1 154.8-101.5 12.9-3.6-5.8-9.4-10.7-9.2-189.4-33.3-397.1-5.6-557.1 106.5-91.6 63.2-171.3 144.6-228.2 240.5-76.8 127.7-110.1 277.4-114.9 425.2-5.2 156.4 15.4 312.7 47.2 465.7-1.1 4.4 5.9 15.6 7.3 6.2 28.4-168.6 94.1-330.3 188.5-472.7 94-145.9 228.5-262.9 379.7-346.6 107.7-59.5 224.8-104 347-121.7 62.7-8.1 127.4-8.7 189.2 5.7 6.8 21.1 8.4 43.5 10.7 65.5 7.3 123.3-24 245.7-71.2 358.8-89.2 210-238.8 397.7-436.5 514.6-133.8 82.7-283.4 140.4-438.6 166.4-5 1.3-1 6.8 2.9 6.3 151.9 32.1 307.2 53.4 462.7 48.1 136.3-3.9 274.1-30.8 395.6-94.3 137.3-72 250.8-187.8 322.6-324.9 74.9-149.1 89.5-323.4 60.1-486.1-0.7-3.2-1.3-12.4-7-9.5-16.8 59.3-39.4 129.8-100.3 157.1 32.4-28.2 59.7-64.1 69.4-106.8 21.4-88.3 15.7-180.3 23.7-270.2 9.4-131.1 35.3-261.1 73.8-386.7-0.8-2-2.3-5.1-4.7-5.1zm-2425.2 902.4c-0.27 0-0.56 0-0.88 0.1-1.49 3-1.38 6.2-0.99 9.6 15.8 150 57.99 302.2 151.53 423.3 32.12 40.6 69.49 77 112 106.7 130.89 94 301.41 117.7 457.41 100-115.31 27.1-235.2 11.5-351.79 27.3-85.15 14.7-154.8 80.2-188.49 157.9-2.07 4.5-4.68 12.3 0.53 15.8 77.22 44.2 168.97 65.4 257.46 50.6-51.06 20.2-105.03 33.4-155.28 56.1-92.34 37.8-174.83 104.5-221.08 193.9-60.81 121.1-78.16 261.3-70.13 394.9 75.14 3.9 150.96-4.3 224.74-19 115.59-23.1 230.83-77.3 300.4-175.9 56.35-76.1 82.79-168.2 111.66-257 3.4-2.5 0.94 2.8 1.03 4.6-12.51 86.2 7.86 175.6 50.97 250.8 1.88 4.6 7.09 4.7 11.31 3.3 82.17-33.1 150.57-107 164.16-196.3 12.91-115.2 0.66-232.8 26.01-346.6-13.9 131.8-1.6 275.5 62.2 396.1 48 95.7 128.1 173.2 221.4 224.8 106 59.1 226.3 88.3 346.3 101.1 2.5 0.5 13.6 0.3 8.2-4.3-169.4-80.2-310.1-213.7-414.7-367.9-106.4-163.7-152.9-363.9-137.9-557.9-0.1-9.4 4.2-22.5 0.1-30.5-186.08 12.6-377.99-22.2-542.09-113-63.63-34.6-121.73-78.6-175.75-126.7-100.18-89.5-187.62-195.6-244.5-317.9-0.99-1.5-1.92-3.9-3.83-3.9z" transform="scale(.8)"/>
</svg>
