<?xml version="1.0" encoding="UTF-8" standalone="no"?>
<svg
   version="1.1"
   id="Layer_1"
   x="0px"
   y="0px"
   viewBox="0 0 1596.8647 1599.9964"
   enable-background="new 0 0 1679.741 1683.041"
   xml:space="preserve"
   sodipodi:docname="Decorative-Corner-Ornament-Line-Art-2.svg"
   width="1596.8646"
   height="1599.9965"
   inkscape:version="1.2.2 (b0a8486541, 2022-12-01)"
   xmlns:inkscape="http://www.inkscape.org/namespaces/inkscape"
   xmlns:sodipodi="http://sodipodi.sourceforge.net/DTD/sodipodi-0.dtd"
   xmlns="http://www.w3.org/2000/svg"
   xmlns:svg="http://www.w3.org/2000/svg"><defs
   id="defs287" /><sodipodi:namedview
   id="namedview285"
   pagecolor="#ffffff"
   bordercolor="#000000"
   borderopacity="0.25"
   inkscape:showpageshadow="2"
   inkscape:pageopacity="0.0"
   inkscape:pagecheckerboard="0"
   inkscape:deskcolor="#d1d1d1"
   showgrid="false"
   inkscape:zoom="0.60842249"
   inkscape:cx="798.78704"
   inkscape:cy="800.43064"
   inkscape:window-width="2560"
   inkscape:window-height="1368"
   inkscape:window-x="0"
   inkscape:window-y="40"
   inkscape:window-maximized="1"
   inkscape:current-layer="g282" />
<g
   id="g282"
   transform="translate(-41.436416,-41.529732)">
	<path
   d="m 1637.229,1327.846 c -0.797,-10.274 -2.313,-20.421 -4.229,-30.443 -2.8,-14.641 -6.717,-29.062 -11.646,-43.198 -7.296,-20.924 -16.617,-40.824 -28.716,-59.397 -6.636,-10.187 -14.116,-19.714 -22.026,-28.965 -9.157,-10.71 -19.432,-20.164 -30.313,-29.012 -8.561,-6.96 -17.788,-12.988 -27.002,-19.048 -22.97,-15.107 -47.751,-26.174 -74.05,-34.018 -7.878,-2.35 -15.862,-4.267 -23.881,-5.965 -7.833,-1.659 -15.771,-2.962 -23.725,-3.881 -8.889,-1.027 -17.845,-1.485 -26.777,-2.113 -5.958,-0.419 -11.949,-1.205 -17.883,-0.93 -9.505,0.442 -18.983,1.411 -28.51,1.726 -6.143,0.202 -12.368,0.574 -18.37,1.792 -8.779,1.781 -17.671,2.802 -26.465,4.504 -13.21,2.556 -26.31,5.554 -39.235,9.134 -23.025,6.379 -45.766,13.758 -68.786,20.193 -16.907,4.727 -33.799,9.478 -50.92,13.371 -8.737,1.987 -17.424,4.421 -26.274,5.624 -9.974,1.355 -19.828,3.452 -29.927,4.154 -17.385,1.209 -34.662,1.989 -51.738,-2.557 -15.493,-4.124 -27.869,-12.384 -35.871,-26.596 -4.088,-7.26 -5.796,-15.223 -7.75,-23.243 -2.672,-10.973 -0.984,-21.291 3.193,-31.193 6.649,-15.762 18.747,-25.791 35.202,-30.376 13.316,-3.711 26.57,-2.619 38.832,3.358 13.586,6.623 22.065,17.754 25.681,32.787 3.507,14.581 0.106,26.691 -10.478,37.129 -1.599,1.576 -3.85,2.567 -5.377,4.909 2.76,-0.14 4.416,-1.251 6.027,-2.553 10.437,-8.436 13.771,-19.922 14.198,-32.71 0.109,-3.284 -1.541,-6.124 -1.977,-9.281 -1.137,-8.229 -5.16,-15.273 -10.461,-21.362 -11.085,-12.733 -25.636,-18.729 -42.242,-18.62 -19.76,0.13 -36.39,7.747 -48.236,24.021 -6.023,8.273 -9.707,17.761 -10.368,28.023 -0.513,7.976 -0.09,15.915 1.894,23.873 4.799,19.255 15.267,33.838 33.087,42.865 9.269,4.695 19.199,6.912 29.489,8.175 17.608,2.162 35.034,0.935 52.456,-1.691 7.555,-1.139 15.08,-2.43 22.604,-3.748 8.837,-1.548 17.544,-3.633 26.243,-5.664 14.705,-3.433 29.275,-7.477 43.822,-11.549 14.369,-4.023 28.59,-8.578 42.969,-12.566 12.947,-3.591 25.691,-7.915 38.817,-10.851 8.013,-1.792 16.031,-3.563 24.071,-5.241 8.967,-1.871 18.013,-2.967 27.041,-4.317 7.399,-1.106 14.939,-1.1 22.269,-2.218 13.236,-2.019 26.454,-1.175 39.69,-1.384 -16.118,1.476 -32.197,2.864 -47.996,6.827 -14.731,3.696 -28.961,8.536 -42.723,14.944 -19.146,8.915 -36.583,20.452 -51.675,35.109 -17.326,16.827 -30.674,36.553 -39.817,59.071 -5.721,14.089 -9.766,28.651 -11.156,43.685 -1.027,11.105 -0.085,22.393 0.018,33.599 0.01,0.53 0.393,1.046 1.393,0.829 1.013,-2.354 0.512,-4.969 0.578,-7.522 0.3,-11.719 -0.708,-23.437 2.027,-35.113 2.128,-9.083 4.146,-18.15 7.305,-26.94 8.151,-22.68 20.904,-42.517 37.48,-59.871 8.925,-9.344 19.193,-17.147 29.952,-24.334 22.555,-15.069 47.441,-24.546 73.793,-29.964 12.929,-2.658 26.161,-3.963 39.491,-4.189 19.675,-0.334 39.264,0.497 58.548,4.254 22.028,4.291 43.416,10.915 63.854,20.384 18.565,8.602 35.795,19.325 51.858,31.983 9.731,7.668 18.04,16.809 26.757,25.522 10.768,10.763 19.526,23.123 27.344,36.106 10.436,17.331 18.909,35.564 25.32,54.833 4.791,14.399 8.566,29.018 11.182,43.887 2.291,13.022 4.103,26.162 3.986,39.498 -0.098,11.215 0.568,22.513 -0.843,33.608 -1.808,14.219 -4.155,28.391 -8.252,42.24 -6.358,21.49 -15.601,41.602 -27.622,60.45 -7.04,11.038 -15.277,21.162 -23.849,31.074 -8.482,9.807 -17.893,18.615 -27.875,26.72 -12.312,9.996 -25.211,19.274 -39.088,27.104 -15.32,8.644 -31.074,16.339 -47.414,22.874 -12.155,4.861 -24.59,8.863 -37.104,12.638 -14.296,4.313 -28.891,7.5 -43.533,10.269 -8.76,1.657 -17.587,3.233 -26.522,4.09 -4.453,0.427 -9.023,0.319 -13.355,1.299 -9.746,2.206 -19.723,2.519 -29.52,2.66 -24.269,0.351 -48.569,1.375 -72.84,-0.773 -15.424,-1.365 -30.78,-3.079 -46.106,-5.324 -18.1,-2.652 -36.003,-6.155 -53.857,-10.107 -17.87,-3.956 -35.504,-8.737 -53.091,-13.736 -23.354,-6.639 -46.402,-14.233 -69.271,-22.383 -27.102,-9.659 -53.902,-20.118 -80.478,-31.114 -34.523,-14.284 -68.737,-29.305 -102.81,-44.633 -21.292,-9.579 -42.366,-19.642 -63.655,-29.225 -25.718,-11.578 -51.389,-23.257 -77.244,-34.535 -22.776,-9.935 -45.597,-19.735 -68.708,-28.859 -17.712,-6.993 -35.55,-13.626 -53.605,-19.703 -14.689,-4.944 -29.47,-9.483 -44.433,-13.54 -18.024,-4.887 -36.157,-9.045 -54.652,-11.708 -5.385,-0.775 -10.815,-0.723 -16.155,-1.53 -20.554,-3.107 -41.001,-1.288 -61.41,1.265 -7.018,0.878 -13.933,2.573 -20.904,3.842 -4.776,0.869 -4.73,0.811 -6.163,-3.708 -1.184,-3.734 -2.313,-7.506 -3.824,-11.112 -4.393,-10.483 -12.223,-17.772 -22.197,-22.82 -2.803,-1.419 -3.686,-2.959 -3.076,-6.156 1.185,-6.213 2.926,-12.347 3.307,-18.696 0.594,-9.875 2.167,-19.652 2.66,-29.547 0.636,-12.769 -1.523,-25.336 -2.201,-38.006 -0.258,-4.832 -0.739,-9.718 -1.803,-14.425 -1.687,-7.461 -2.839,-15.018 -4.441,-22.495 -3.683,-17.187 -8.216,-34.149 -13.481,-50.869 -7.681,-24.391 -16.29,-48.478 -25.794,-72.246 -9.019,-22.556 -18.254,-45.023 -28.079,-67.228 -15.576,-35.199 -31.64,-70.182 -47.494,-105.258 -7.619,-16.855 -15.255,-33.702 -22.839,-50.572 -6.741,-14.995 -13.572,-29.952 -20.086,-45.045 -6.737,-15.609 -13.067,-31.393 -19.706,-47.044 -9.34,-22.018 -17.783,-44.384 -26.096,-66.8 -3.765,-10.152 -7.279,-20.398 -10.873,-30.613 -6.754,-19.197 -12.687,-38.656 -18.226,-58.229 -3.049,-10.775 -5.66,-21.676 -8.447,-32.524 -3.624,-14.104 -6.178,-28.421 -9.252,-42.63 -1.89,-8.734 -3.007,-17.64 -4.35,-26.487 -0.952,-6.267 -1.684,-12.567 -2.546,-18.848 -1.346,-9.806 -1.002,-19.761 -2.647,-29.546 -0.432,-2.567 -0.668,-5.204 -0.637,-7.804 0.304,-25.763 -1.082,-51.517 1.646,-77.295 1.293,-12.219 2.597,-24.462 4.145,-36.648 1.336,-10.518 3.63,-20.92 5.866,-31.319 3.972,-18.474 8.964,-36.629 15.376,-54.382 7.057,-19.54 15.515,-38.459 26.027,-56.418 10.411,-17.785 22.274,-34.461 36.131,-49.802 8.304,-9.193 17.239,-17.661 26.596,-25.65 9.788,-8.357 20.348,-15.731 31.545,-22.227 13.632,-7.908 27.887,-14.315 42.72,-19.51 9.525,-3.336 19.331,-5.571 29.183,-7.757 11.169,-2.478 22.517,-3.878 33.803,-4.467 27.162,-1.417 53.968,1.682 80.477,8.116 20.99,5.094 41.149,12.18 60.471,21.737 21.914,10.84 41.885,24.512 59.588,41.4 11.247,10.729 21.405,22.427 30.425,35.102 16.633,23.371 28.523,49.03 36.812,76.412 3.952,13.056 6.615,26.411 8.605,39.889 0.898,6.086 1.662,12.228 1.901,18.368 0.342,8.774 0.06,17.571 0.199,26.355 0.236,14.828 -1.659,29.412 -4.616,43.903 -2.81,13.769 -7.223,27.004 -12.612,39.966 -9.082,21.844 -22.137,41.076 -38.243,58.254 -9.771,10.422 -21.239,18.872 -33.429,26.218 -11.37,6.851 -23.331,12.649 -36.13,16.359 -9.452,2.74 -18.887,5.759 -28.861,6.168 -1.74,0.071 -3.228,0.788 -4.261,2.266 9.67,1.14 18.821,-1.614 28.01,-3.871 14.595,-3.584 28.298,-9.44 41.349,-16.837 17.419,-9.873 32.412,-22.792 45.395,-37.872 12.609,-14.645 22.587,-31.082 30.372,-48.835 8.297,-18.922 13.921,-38.552 16.589,-59.05 0.398,-3.058 0.348,-6.343 2.361,-10.03 1.364,5.486 -0.149,9.879 -0.337,14.3 -0.514,12.116 -1.652,24.175 -3.337,36.194 -1.037,7.397 -2.613,14.688 -3.813,22.044 -1.834,11.244 -4.537,22.281 -7.569,33.222 -4.684,16.904 -9.833,33.68 -14.722,50.528 -4.054,13.971 -7.734,28.049 -11.681,42.047 -5.982,21.216 -10.769,42.698 -14.46,64.381 -2.625,15.422 -4.279,31.014 -3.989,46.799 0.233,12.681 2.422,24.868 6.43,36.768 2.769,8.22 7.203,15.584 13.144,21.964 16.045,17.232 48.961,26.67 74.607,15.216 14.366,-6.416 24.097,-17.272 29.691,-31.905 3.885,-10.162 4.915,-20.56 3.264,-31.373 -3.39,-22.208 -19.963,-41.044 -42.696,-44.358 -7.094,-1.034 -14.633,-0.575 -21.544,1.323 -6.592,1.811 -14.481,4.829 -16.135,12.24 0.011,0.007 0.023,0.014 0.034,0.021 1.023,-2.297 7.862,-5.412 9.721,-6.332 3.887,-1.925 8.053,-3.285 12.323,-4.048 8.267,-1.477 17.006,-0.705 24.758,2.593 14.729,6.266 24.449,17.254 28.223,32.698 4.566,18.68 1.188,35.978 -11.47,50.986 -8.069,9.567 -18.577,15.275 -30.677,17.065 -12.926,1.912 -25.704,0.12 -37.698,-5.598 -8.178,-3.899 -15.807,-8.567 -21.272,-16.027 -8.78,-11.985 -12.862,-25.749 -13.637,-40.309 -1.023,-19.24 0.167,-38.437 3.685,-57.434 2.954,-15.951 6.161,-31.85 10.278,-47.549 4.26,-16.244 8.644,-32.453 13.442,-48.549 4.958,-16.632 9.603,-33.358 14.719,-49.94 5.351,-17.344 9.396,-35.015 12.383,-52.854 2.766,-16.525 5.289,-33.144 5.688,-49.997 0.38,-16.069 0.597,-32.129 -0.879,-48.141 -0.701,-7.604 -1.766,-15.181 -2.941,-22.749 -2.875,-18.522 -7.213,-36.637 -13.632,-54.237 -6.807,-18.664 -15.422,-36.454 -26.039,-53.273 -9.086,-14.394 -18.456,-28.624 -30.2,-40.987 -11.051,-11.634 -22.422,-22.943 -35.428,-32.57 -12.822,-9.491 -26.277,-17.879 -40.484,-24.97 -20.296,-10.13 -41.725,-17.455 -63.8,-22.469 -17.806,-4.044 -35.821,-7.217 -54.246,-7.35 -22.052,-0.16 -43.97,0.142 -65.647,5.254 -13.303,3.137 -26.335,6.905 -39.005,11.952 -30.273,12.058 -56.722,30.064 -80.011,52.644 -13.286,12.882 -24.633,27.497 -35.267,42.668 -12.51,17.847 -22.41,37.122 -31.26,56.927 -5.098,11.408 -9.467,23.172 -13.253,35.106 -4.008,12.633 -7.764,25.363 -10.571,38.311 -3.043,14.033 -6.159,28.096 -7.63,42.397 -0.782,7.607 -2.345,15.083 -2.895,22.751 -0.588,8.199 -0.543,16.451 -1.487,24.592 -1.383,11.917 -1.35,23.848 -1.676,35.795 -0.43,15.74 2.057,31.298 2.45,46.986 0.13,5.177 0.453,10.485 1.419,15.595 1.978,10.466 2.957,21.069 4.536,31.582 3.111,20.704 7.568,41.114 12.309,61.448 4.743,20.342 10.511,40.45 16.844,60.37 4.696,14.773 9.33,29.576 14.497,44.187 10.465,29.592 21.811,58.865 33.928,87.814 11.251,26.88 22.973,53.571 34.918,80.151 12.944,28.801 26.459,57.344 39.588,86.062 11.497,25.145 22.879,50.344 34.163,75.585 5.109,11.428 9.77,23.056 14.787,34.526 10.109,23.115 19.452,46.533 27.995,70.267 7.527,20.911 14.348,42.036 20.392,63.445 4.626,16.386 8.503,32.929 10.879,49.698 2.269,16.018 3.778,32.245 2.842,48.514 -0.781,13.581 -1.032,27.217 -4.217,40.569 -1.349,5.654 -2.003,6.353 -7.898,5.756 -3.875,-0.393 -4.6,-1.336 -3.65,-5.015 4.039,-15.649 5.156,-31.679 5.494,-47.708 0.248,-11.731 -0.47,-23.5 -2.039,-35.187 -0.621,-4.628 -1.381,-9.236 -1.96,-13.861 -1.697,-13.573 -5.158,-26.776 -8.817,-39.865 -4.421,-15.815 -9.99,-31.3 -16.304,-46.495 -6.891,-16.583 -14.37,-32.893 -23.529,-48.344 -8.765,-14.784 -18.394,-28.971 -29.573,-42.13 -8.377,-9.861 -17.187,-19.187 -27.021,-27.582 -14.564,-12.432 -30.214,-23.167 -47.592,-31.336 -16.033,-7.537 -32.896,-12.19 -50.409,-14.285 -12.189,-1.458 -24.315,-0.012 -35.97,3.782 -14.878,4.843 -25.135,14.398 -28.507,30.254 -0.66,3.103 -1.17,6.242 -1.956,9.312 -1.514,5.912 -1.507,11.925 -0.577,17.821 2.584,16.386 10.329,30.212 21.607,42.244 9.265,9.884 19.986,18.03 31.01,25.703 18.255,12.708 37.669,23.599 56.791,34.929 20.258,12.002 40.466,24.081 59.935,37.334 11.113,7.565 21.527,16.032 31.836,24.684 17.564,14.74 31.845,31.964 42.226,52.39 5.198,10.228 8.296,21.182 10.46,32.398 2.285,11.847 1.112,23.851 1.388,35.789 0.104,4.518 -1.5,7.898 -5.965,9.74 -6.199,2.558 -11.015,7.044 -15.275,12.05 -8.116,9.539 -11.758,20.695 -11.004,33.181 0.702,11.64 5.309,21.674 13.276,30.125 1.749,1.855 1.375,2.967 -0.205,4.64 -14.351,15.191 -30.9,27 -50.878,33.709 -17.494,5.875 -35.292,7.396 -53.539,4.537 -8.73,-1.368 -17.037,-3.965 -25.257,-7.092 -9.95,-3.785 -18.622,-9.642 -26.336,-16.732 -13.788,-12.674 -22.356,-28.258 -24.553,-47.113 -0.283,-2.431 -0.608,-5.046 -2.437,-7.17 -0.11,5.136 -0.206,10.295 0.788,15.235 4.618,22.952 18.16,40.007 37.197,52.546 17.377,11.446 36.961,16.731 57.851,16.934 12.412,0.12 24.539,-1.37 36.425,-5.148 8.41,-2.673 16.417,-6.158 24.23,-10.193 1.368,-0.706 2.657,-2.151 4.482,-1.341 0.239,1.169 -0.283,1.979 -0.781,2.749 -4.904,7.582 -8.498,15.768 -11.352,24.309 -5.021,15.02 -7.631,30.337 -6.231,46.24 1.426,16.205 5.336,31.681 13.372,45.908 10.865,19.237 26.254,33.236 47.337,40.755 10.763,3.839 21.7,2.448 32.643,2.107 0.198,-0.01 0.38,-0.522 0.725,-1.027 -1.809,-1.393 -3.899,-0.748 -5.826,-0.822 -7.415,-0.284 -14.729,0.029 -22.147,-2.076 -17.128,-4.859 -30.51,-14.949 -41.237,-28.511 -8.778,-11.098 -14.427,-24.071 -17.318,-37.96 -3.777,-18.143 -3.771,-36.201 1.339,-54.3 6.658,-23.586 19.804,-42.846 37.32,-59.512 2.338,-2.224 4.453,-2.728 7.505,-1.293 13.66,6.425 27.441,6.178 41.146,0.065 5.165,-2.304 9.69,-5.649 13.676,-9.618 2.386,-2.376 5.117,-3.64 8.348,-4.155 11.652,-1.856 23.374,-2.364 35.166,-2.332 13.446,0.036 26.427,2.716 38.917,7.184 19.84,7.098 36.655,19.175 51.586,33.88 10.12,9.967 19.452,20.666 27.874,32.108 13.746,18.675 26.055,38.309 37.978,58.17 11.541,19.224 22.688,38.681 34.554,57.716 10.821,17.359 22.798,33.72 37.959,47.584 13.03,11.916 28.147,18.776 45.985,19.098 7.349,0.132 14.4,-1.592 21.522,-3.153 12.778,-2.802 21.149,-10.725 26.364,-22.204 5.103,-11.233 7.04,-23.242 6.488,-35.496 -0.659,-14.62 -3.807,-28.807 -8.802,-42.585 -9.119,-25.151 -23.459,-47.082 -41.471,-66.648 -21.331,-23.171 -46.194,-41.835 -73.952,-56.662 -20.969,-11.2 -42.77,-20.464 -65.195,-28.352 -18.543,-6.523 -37.456,-11.739 -56.79,-14.949 -20.229,-3.358 -40.618,-5.372 -61.278,-4.068 -14.009,0.884 -27.865,2.195 -41.504,5.553 -4.249,1.046 -8.544,1.905 -12.859,2.858 -0.469,-2.782 0.884,-4.757 1.255,-6.913 0.671,-3.904 2.895,-5.532 6.646,-6.392 14.967,-3.432 30.113,-5.549 45.432,-5.954 16.434,-0.434 32.796,0.342 49.135,2.88 10.326,1.604 20.669,3.193 30.8,5.568 18.884,4.427 37.478,9.96 55.923,16.048 20.757,6.851 41.279,14.312 61.595,22.328 24.67,9.734 48.998,20.301 73.248,31.032 15.538,6.875 30.97,13.99 46.433,21.035 22.265,10.144 44.52,20.307 66.768,30.487 18.339,8.391 36.572,17.019 55.014,25.177 19.818,8.766 39.613,17.585 59.604,25.965 17.573,7.366 35.147,14.731 52.921,21.585 17.251,6.653 34.629,12.983 52.038,19.216 21.974,7.867 44.264,14.789 66.708,21.175 16.159,4.598 32.445,8.743 48.89,12.228 8.398,1.78 16.755,3.772 25.191,5.346 9.163,1.709 18.361,3.343 27.613,4.429 5.388,0.633 10.629,2.217 16.031,2.409 6.73,0.24 13.482,0.88 20.056,1.858 15.792,2.351 31.687,2.181 47.502,2.535 19.937,0.446 39.89,-0.67 59.818,-2.592 14.683,-1.417 29.342,-3.005 43.821,-5.553 16.513,-2.906 32.86,-6.745 49.055,-11.31 22.017,-6.206 43.316,-14.179 63.859,-24.107 23.622,-11.415 45.761,-25.251 65.781,-42.328 14.961,-12.761 28.658,-26.684 40.605,-42.374 12.079,-15.863 21.949,-32.938 29.847,-51.195 11.541,-26.679 17.654,-54.648 19.21,-83.59 0.664,-12.309 0.197,-24.621 -0.761,-36.96 z m -1300.583,23.101 c -6.552,0 -11.03,-4.367 -11.014,-10.748 0.018,-6.81 3.908,-10.622 10.863,-10.646 6.639,-0.023 11.089,4.198 11.143,10.568 0.055,6.345 -4.491,10.823 -10.992,10.826 z"
   id="path252" />
	<path
   d="m 531.287,972.066 c 0.646,1.736 -0.286,3.271 -0.893,4.729 -3.248,7.802 -5.158,15.977 -6.53,24.25 -1.401,8.445 -2.553,16.913 -3.278,25.488 -1.233,14.573 -0.583,29.114 -0.871,43.665 -0.097,4.892 0.813,9.666 1.014,14.51 0.512,12.342 -0.436,24.695 -1.54,36.905 -2.075,22.961 -9.781,44.053 -25.53,61.538 -7.317,8.124 -16.26,14.299 -25.394,20.127 -11.54,7.362 -24.077,12.75 -36.836,17.609 -18.709,7.124 -36.889,15.419 -54.152,25.541 -9.493,5.566 -18.537,11.897 -26.266,19.915 -3.115,3.231 -5.386,7.104 -8.302,10.382 -1.723,-0.341 -1.689,-1.62 -1.494,-2.65 1.925,-10.198 1.024,-20.507 1.117,-30.757 0.196,-21.672 0.22,-43.352 -0.125,-65.022 -0.184,-11.553 -1.4,-23.087 -1.928,-34.64 -0.349,-7.64 -0.63,-15.296 0.315,-22.939 0.663,-5.361 0.627,-10.762 1.545,-16.141 4.064,-23.825 15.259,-42.85 35.731,-56.367 15.278,-10.088 32.009,-16.866 49.029,-23.073 24.562,-8.959 49.219,-17.637 72.122,-30.524 10.443,-5.876 20.504,-12.216 28.952,-20.843 0.85,-0.87 1.599,-2.153 3.314,-1.703 z"
   id="path254" />
	<path
   d="m 706.92,1152.198 c 0.122,1.845 -1.227,2.761 -2.19,3.804 -13.091,14.194 -22.151,30.899 -30.16,48.263 -9.088,19.703 -15.778,40.337 -23.487,60.574 -6.475,16.998 -13.829,33.568 -25.141,47.941 -8.707,11.063 -19.917,19.008 -33.274,23.816 -15.714,5.656 -31.973,6.607 -48.508,6.655 -20.936,0.061 -41.717,-2.571 -62.659,-2.7 -11.913,-0.074 -23.891,-0.785 -35.819,-0.517 -11.188,0.251 -22.369,1.075 -33.575,1.144 -2.025,0.012 -4.042,0.681 -6.07,0.998 -1.056,0.165 -2.227,0.685 -2.98,-0.593 -0.186,-0.905 0.342,-1.447 0.952,-1.866 15.765,-10.84 25.279,-26.669 34.275,-42.913 8.984,-16.222 16.04,-33.312 22.713,-50.569 5.824,-15.063 12.861,-29.552 22.819,-42.273 14.032,-17.925 31.282,-31.316 54.22,-36.348 14.842,-3.256 29.819,-4.667 44.934,-5.046 7.658,-0.192 15.326,0.067 22.986,-0.06 8.973,-0.148 17.871,1.764 26.846,1.003 13.012,-1.103 26.186,-0.411 39.056,-2.739 10.247,-1.853 20.632,-3.479 30.323,-7.698 1.451,-0.631 2.961,-1.617 4.739,-0.876 z"
   id="path256" />
	<path
   d="m 468.667,1344.414 c 1.596,-1.52 3.353,-1.433 4.986,-1.437 9.708,-0.021 19.413,-0.518 29.092,1.063 6.794,1.109 13.737,1.298 20.538,2.376 9.197,1.457 18.38,3.115 27.462,5.159 10.366,2.332 20.651,5.025 30.915,7.823 20.015,5.455 39.723,11.809 59.128,19.089 22.379,8.396 44.689,16.981 66.975,25.623 21.416,8.305 42.963,16.242 64.866,23.157 11.38,3.593 22.937,6.592 34.628,9.091 6.76,1.445 13.61,2.228 20.374,3.5 10.209,1.919 20.503,2.268 30.725,1.601 21.768,-1.421 42.612,-6.483 59.989,-20.55 12.296,-9.955 19.925,-22.84 22.104,-38.947 2.371,-17.526 -1.247,-33.71 -8.758,-49.4 -4.957,-10.355 -11.207,-19.792 -18.569,-28.569 -7.567,-9.021 -13.129,-19.299 -15.479,-30.771 -2.789,-13.614 -2.268,-27.068 5.639,-39.438 4.623,-7.234 11.282,-11.515 19.113,-13.761 10.334,-2.963 20.761,-1.72 30.923,1.432 8.861,2.749 16.868,7.212 23.667,13.504 6.336,5.864 11.387,12.851 15.666,20.343 9.098,15.929 14.479,33.142 17.124,51.215 1.026,7.012 1.494,14.107 2.153,21.17 0.315,3.379 -0.256,6.707 -0.811,10.031 -1.046,6.262 -1.032,12.63 -2.176,18.907 -3.36,18.439 -9.687,35.649 -20.493,51.051 -13.062,18.618 -29.83,32.828 -50.799,41.844 -8.768,3.77 -17.944,6.284 -27.292,8.216 -13.611,2.813 -27.381,3.758 -41.218,3.177 -9.858,-0.414 -19.693,-1.018 -29.502,-2.679 -9.375,-1.588 -18.776,-2.919 -28.112,-4.858 -16.277,-3.379 -32.289,-7.679 -48.147,-12.583 -24.275,-7.507 -48.107,-16.292 -71.682,-25.736 -22.536,-9.028 -44.874,-18.531 -67.044,-28.449 -12.6,-5.637 -25.678,-10.22 -38.607,-15.104 -18.365,-6.938 -37.315,-12.029 -56.363,-16.578 -15.768,-3.766 -31.806,-6.425 -47.931,-8.36 -3.703,-0.444 -7.491,0.297 -11.163,-0.688 -0.702,-0.19 -1.484,-0.338 -1.921,-1.464 z"
   id="path258" />
	<path
   d="m 338.709,1209.731 c -1.539,-2.916 -0.763,-5.795 -1.359,-8.416 -0.58,-2.55 -1.371,-5.103 -1.534,-7.688 -0.566,-8.966 -2.213,-17.761 -3.871,-26.557 -4.605,-24.435 -11.125,-48.373 -19.3,-71.836 -7.072,-20.299 -15.664,-39.998 -24.278,-59.686 -9.136,-20.881 -17.848,-41.937 -25.96,-63.248 -6.448,-16.938 -12.619,-33.966 -18.188,-51.204 -3.098,-9.588 -5.699,-19.338 -8.471,-29.03 -4.108,-14.364 -7.268,-28.974 -9.627,-43.691 -2.926,-18.255 -5.145,-36.687 -3.714,-55.229 1.679,-21.752 5.889,-42.965 16.784,-62.243 11.782,-20.847 28.033,-37.076 49.617,-47.945 11.459,-5.771 23.445,-9.869 35.909,-12.291 10.226,-1.987 20.602,-3.049 31.174,-2.782 10.333,0.26 20.495,1.363 30.538,3.394 20.606,4.168 39.667,12.051 56.018,25.541 10.079,8.316 16.681,19.008 19.952,31.735 2.066,8.037 3.059,16.086 1.585,24.356 -2.412,13.528 -10.164,22.525 -22.897,27.385 -14.703,5.612 -28.933,3.468 -43.052,-2.372 -8.614,-3.563 -15.655,-9.372 -22.885,-14.977 -15.735,-12.199 -32.926,-21.828 -52.887,-24.161 -30.269,-3.536 -52.786,7.111 -68.326,35.264 -7.257,13.148 -11.015,27.559 -11.742,42.344 -0.729,14.823 -0.126,29.707 2.475,44.523 5.128,29.213 14.441,57.143 24.74,84.786 10.04,26.948 20.622,53.694 30.839,80.577 7.829,20.599 15.023,41.441 21.181,62.589 4.897,16.82 9.056,33.857 12.443,51.093 1.8,9.161 3.3,18.386 4.437,27.583 1.597,12.929 2.942,25.993 1.948,39.106 -0.069,0.918 -0.034,1.89 -1.549,3.08 z"
   id="path260" />
	<path
   d="m 1243.117,1583.214 c -3.677,-0.403 -8.437,1.23 -13.311,0.986 -15.64,-0.784 -31.266,-1.165 -46.81,-3.808 -16.969,-2.886 -33.691,-6.567 -50.093,-11.699 -9.079,-2.841 -18.081,-5.943 -26.849,-9.67 -0.688,-0.292 -1.378,-0.581 -2.053,-0.9 -0.697,-0.329 -1.361,-0.811 -1.169,-1.657 0.277,-1.22 1.361,-1.214 2.255,-0.992 4.53,1.12 9.007,2.471 13.564,3.46 9.461,2.055 18.906,4.287 28.462,5.778 8.456,1.32 17.05,1.77 25.589,2.536 5.02,0.45 10.047,0.868 15.079,1.118 7.118,0.353 14.146,-1.004 21.236,-1.321 15.945,-0.714 31.386,-4.259 46.566,-8.946 20.378,-6.293 38.824,-16.358 55.906,-29.052 17.03,-12.654 32.084,-27.292 45.835,-43.471 13.928,-16.388 26.79,-33.561 39.63,-50.768 11.731,-15.721 23.597,-31.348 37.189,-45.513 12.234,-12.749 25.734,-24.014 42.541,-30.35 14.849,-5.598 30.182,-8.032 46.151,-6.392 7.947,0.817 15.398,2.806 22.504,6.297 16.454,8.084 27.013,20.853 30.632,38.993 2.537,12.714 -3.589,26.682 -14.774,32.51 -6.841,3.565 -14.376,5.304 -22.217,4.105 -5.547,-0.848 -11.089,-1.412 -16.702,-1.698 -16.411,-0.837 -31.375,3.819 -45.514,11.602 -13.309,7.325 -25.277,16.541 -36.666,26.559 -10.791,9.493 -21.888,18.643 -32.536,28.291 -8.585,7.778 -17.467,15.208 -26.44,22.491 -10.128,8.221 -20.54,16.142 -31.489,23.288 -5.63,3.674 -11.323,7.251 -17,10.854 -12.689,8.052 -26.247,14.255 -40.528,18.881 -13.727,4.447 -27.864,6.917 -42.175,8.461 -1.844,0.199 -3.731,0.027 -6.813,0.027 z"
   id="path262" />
	<path
   d="m 127.019,577.204 c -1.85,-1.812 -2.837,-3.73 -3.593,-5.79 -5.721,-15.594 -10.927,-31.312 -14.952,-47.481 -3.663,-14.713 -5.626,-29.662 -8.122,-44.541 -0.674,-4.014 -0.098,-8.221 -0.442,-12.31 -1.084,-12.87 -0.585,-25.776 0.374,-38.56 0.959,-12.795 3.78,-25.408 7.41,-37.818 5.68,-19.42 15.193,-36.864 26.088,-53.737 12.489,-19.341 26.386,-37.582 41.55,-54.877 11.325,-12.916 22.936,-25.591 33.97,-38.751 11.389,-13.584 22.937,-27.155 31.026,-43.102 6.039,-11.905 10.138,-24.31 10.172,-38.027 0.025,-9.75 -2.182,-19.326 -1.504,-29.056 0.784,-11.244 4.766,-20.743 15.188,-26.427 8.17,-4.456 17.088,-4.685 25.641,-2.372 17.568,4.75 29.42,16.234 36.134,33.153 4.801,12.098 5.687,24.504 4.517,37.392 -1.254,13.811 -4.752,26.837 -11.401,38.927 -7.828,14.234 -18.351,26.407 -30.7,36.837 -9.978,8.428 -19.938,16.905 -30.535,24.601 -10.573,7.679 -20.95,15.636 -31.279,23.645 -12.679,9.831 -25.246,19.768 -37.15,30.595 -9.434,8.581 -18.459,17.513 -26.552,27.262 -15.362,18.507 -27.876,38.773 -35.934,61.648 -4.677,13.276 -8.053,26.843 -9.65,40.765 -1.509,13.149 -3.658,26.386 -2.173,39.641 1.702,15.19 2.351,30.518 5.631,45.525 1.95,8.92 3.491,17.926 6.087,26.705 0.523,1.762 1.73,3.722 0.199,6.153 z"
   id="path264" />
	<path
   d="m 832.443,1469.854 c 4.136,1.631 7.551,2.872 10.882,4.308 20.097,8.665 40.748,15.561 62.022,20.824 16.38,4.052 32.965,6.727 49.679,8.057 17.899,1.424 35.871,0.4 53.511,-3.398 13.815,-2.975 26.906,-8.02 38.222,-16.654 5.447,-4.156 10.605,-8.718 15.261,-13.917 12.179,-13.597 21.334,-29.209 30.94,-44.554 7.739,-12.363 15.863,-24.421 26.952,-34.2 10.079,-8.889 21.584,-13.763 35.09,-13.896 7.134,-0.071 14.209,0.126 21.011,2.564 11.829,4.241 20.297,12.416 26.372,23.152 5.743,10.15 8.38,21.39 7.971,32.828 -0.45,12.556 -3.762,24.662 -10.293,35.72 -9.713,16.444 -23.651,28.178 -40.371,36.877 -13.516,7.032 -27.932,11.297 -42.852,14.267 -17.472,3.478 -35.119,4.821 -52.851,5.001 -8.185,0.083 -16.376,-1.327 -24.576,-1.515 -8.232,-0.189 -16.36,-1.32 -24.503,-2.177 -7.215,-0.759 -14.468,-1.401 -21.635,-2.767 -7.318,-1.394 -14.759,-2.13 -22.107,-3.385 -13.603,-2.324 -27.111,-5.07 -40.534,-8.345 -13.795,-3.366 -27.457,-7.137 -40.902,-11.647 -18.249,-6.121 -36.111,-13.214 -52.928,-22.697 -1.509,-0.852 -3.442,-1.398 -4.361,-4.446 z"
   id="path266" />
	<path
   d="m 212.335,846.215 c -2.213,-0.798 -2.867,-2.615 -3.713,-4.206 -11.977,-22.518 -20.732,-46.298 -27.972,-70.706 -4.621,-15.578 -8.385,-31.377 -11.534,-47.271 -2.203,-11.121 -4.431,-22.297 -5.547,-33.657 -0.562,-5.719 -1.652,-11.427 -2.324,-17.171 -1.711,-14.639 -3.542,-29.278 -4.091,-44.008 -0.396,-10.636 -0.627,-21.333 0.038,-31.942 1.462,-23.349 4.748,-46.441 14.09,-68.163 7.876,-18.312 19.065,-34.208 35.425,-46.055 8.13,-5.888 17.117,-9.731 26.934,-11.949 5.514,-1.246 10.964,-1.92 16.61,-1.915 14.113,0.011 26.784,4.092 38.097,12.539 9.587,7.159 14.963,16.724 17.524,28.338 2.907,13.186 1.11,25.654 -4.663,37.577 -4.384,9.054 -11.374,16.097 -19.025,22.499 -9.205,7.701 -19.467,13.849 -29.595,20.189 -11.393,7.132 -23.069,13.932 -33.249,22.733 -16.369,14.151 -29.464,30.486 -34.351,52.447 -1.869,8.396 -3.513,16.851 -4.456,25.297 -0.922,8.26 -0.925,16.73 -0.633,25.135 0.396,11.369 1.661,22.635 3.397,33.852 0.969,6.26 2.096,12.515 3.556,18.676 3.658,15.436 7.912,30.715 13.462,45.592 3.654,9.794 7.283,19.606 11.873,29.022 0.4,0.822 0.861,1.666 0.147,3.147 z"
   id="path268" />
	<path
   d="m 253.401,1034.75 c -2.701,0.184 -3.512,-1.255 -4.505,-2.271 -15.447,-15.804 -32.768,-29.402 -50.28,-42.774 -15.442,-11.792 -31.679,-22.435 -47.824,-33.223 -15.229,-10.177 -31.081,-19.344 -46.461,-29.256 -11.287,-7.274 -22.181,-15.207 -30.212,-26.357 -3.959,-5.497 -7.378,-11.186 -9.253,-17.778 -3.962,-13.925 4.517,-23.969 20.301,-22.086 9.591,1.145 18.461,4.758 26.735,9.513 11.997,6.896 22.888,15.329 33.424,24.36 13.4,11.486 25.156,24.504 36.77,37.637 11.497,13.001 21.73,27.063 31.88,41.153 13.219,18.349 25.44,37.349 37.185,56.663 0.756,1.246 1.326,2.604 2.24,4.419 z"
   id="path270" />
	<path
   d="m 643.49,1430.135 c 2.907,-0.039 5.274,1.481 7.597,2.925 22.54,14.004 44.861,28.355 66.022,44.389 16.367,12.402 32.269,25.359 47.104,39.649 7.273,7.006 14.365,14.195 21.022,21.7 13.174,14.853 24.827,30.809 31.156,50.06 1.934,5.884 2.208,11.79 1.538,17.715 -1.034,9.142 -10.516,14.725 -19.507,12.452 -15.111,-3.821 -25.896,-13.418 -35.411,-25.094 -11.992,-14.715 -20.448,-31.686 -30.756,-47.473 -12.056,-18.466 -24.15,-36.891 -37.287,-54.63 -8.782,-11.859 -17.995,-23.358 -27.173,-34.899 -3.51,-4.413 -7.538,-8.297 -11.393,-12.358 -3.842,-4.048 -7.07,-8.712 -11.804,-11.893 -0.691,-0.463 -1.482,-1.158 -1.108,-2.543 z"
   id="path272" />
	<path
   d="m 362.719,1480.554 c 1.005,24.186 -22.023,47.42 -47.706,46.905 -23.767,-0.477 -47.367,-21.67 -46.309,-49.389 0.872,-22.824 21.568,-46.41 48.808,-45.181 25.144,1.134 45.733,21.6 45.207,47.665 z m -17.082,24.248 c 0.077,-6.474 -4.309,-11.208 -10.48,-11.311 -6.389,-0.107 -10.589,4.261 -10.909,10.777 -0.387,7.887 5.544,11.086 10.422,11.282 6.303,0.253 10.89,-4.294 10.967,-10.748 z"
   id="path274" />
	<path
   d="m 207.056,1418.419 c -23.759,1.995 -48.935,-21.407 -46.644,-47.742 -1.838,-22.634 20.924,-47.129 47.97,-46.175 24.735,0.873 45.728,20.766 46.017,46.918 0.293,26.616 -23.026,48.803 -47.343,46.999 z m -19.703,-50.693 c -0.037,-6 -5.153,-10.929 -11.218,-10.807 -6.156,0.124 -10.889,5.012 -10.872,11.228 0.016,6.167 4.864,10.757 11.256,10.657 6.383,-0.099 10.873,-4.691 10.834,-11.078 z"
   id="path276" />
	<path
   d="m 706.658,1456.016 c 5.643,1.754 10.329,4.45 15.121,6.799 26.661,13.067 52.977,26.803 78.172,42.546 11.7,7.311 23.134,15.031 34.157,23.395 8.957,6.797 17.362,14.102 25.203,22.113 4.476,4.573 8.162,9.69 11.041,15.416 1.716,3.413 2.362,6.882 -0.113,10.007 -2.396,3.025 -5.78,3.67 -9.619,2.954 -11.676,-2.177 -21.699,-7.907 -31.206,-14.577 -9.015,-6.325 -16.868,-14.066 -25.102,-21.359 -13.277,-11.761 -25.227,-24.887 -38.846,-36.323 -9.827,-8.251 -19.31,-16.978 -29.073,-25.342 -8.642,-7.404 -17.602,-14.432 -26.815,-21.125 -1.321,-0.959 -3.061,-1.575 -2.92,-4.504 z"
   id="path278" />
	<path
   d="m 226.818,973.542 c -5.034,-4.132 -8.204,-9.68 -12.188,-14.559 -11.568,-14.167 -23.065,-28.387 -35.4,-41.908 -13.214,-14.485 -26.161,-29.23 -40.047,-43.07 -10.932,-10.897 -20.175,-22.958 -27.962,-36.23 -3.543,-6.038 -5.661,-12.572 -7.3,-19.296 -0.868,-3.56 0.167,-6.744 2.802,-9.197 2.464,-2.294 5.261,-2.083 8.336,-0.829 4.907,1.999 9.345,4.627 13.275,8.164 19.216,17.296 33.96,38.131 47.63,59.854 17.645,28.037 32.856,57.386 47.345,87.13 1.529,3.138 3.448,6.16 3.509,9.941 z"
   id="path280" />
</g>
</svg>
