<?xml version="1.0" encoding="UTF-8" standalone="no"?>
<svg
   id="svg2"
   height="360mm"
   width="360mm"
   version="1.1"
   viewBox="0 0 1350 1350"
   sodipodi:docname="LeafyCorner.svg"
   inkscape:version="1.2.2 (b0a8486541, 2022-12-01)"
   xmlns:inkscape="http://www.inkscape.org/namespaces/inkscape"
   xmlns:sodipodi="http://sodipodi.sourceforge.net/DTD/sodipodi-0.dtd"
   xmlns="http://www.w3.org/2000/svg"
   xmlns:svg="http://www.w3.org/2000/svg">
  <defs
     id="defs154" />
  <sodipodi:namedview
     id="namedview152"
     pagecolor="#ffffff"
     bordercolor="#000000"
     borderopacity="0.25"
     inkscape:showpageshadow="2"
     inkscape:pageopacity="0.0"
     inkscape:pagecheckerboard="0"
     inkscape:deskcolor="#d1d1d1"
     inkscape:document-units="mm"
     showgrid="false"
     inkscape:zoom="0.75305279"
     inkscape:cx="722.39291"
     inkscape:cy="679.89921"
     inkscape:window-width="1350"
     inkscape:window-height="1350"
     inkscape:window-x="0"
     inkscape:window-y="0"
     inkscape:window-maximized="1"
     inkscape:current-layer="svg2" />
  <g
     id="layer1"
     transform="matrix(0,-0.99340148,1.0575599,0,753.72696,-521.24014)">
    <g
       id="g4155">
      <path
         id="path4151"
         fill="#803300"
         d="m -1795.4,561.83 c -7.8843,-3.5813 -12.534,-12.609 -12.387,-24.052 l 0.071,-5.5685 1.7399,6.0764 c 5.0007,17.464 19.135,23.316 30.459,12.61 12.065,-11.406 10.277,-23.428 -9.9481,-66.892 -52.04,-111.83 -52.786,-157.61 -4.1582,-254.79 52.252,-104.43 52.517,-135.24 2.1953,-255.08 -34.628,-82.462 -42.968,-107.15 -50.013,-148.06 -10.704,-62.153 5.7779,-120.24 44.889,-158.21 5.0315,-4.8849 4.8492,-4.9084 12.14,1.5648 l 4.7388,4.2075 -7.1334,8.0953 c -24.113,27.441 -41.981,55.476 -42.157,117.49 l 0.5892,7 c 3.2183,38.238 12.422,67.834 46.405,149.22 8.3186,19.923 17.088,41.302 19.487,47.51 33.17,85.824 27.86,143.25 -21.847,236.27 -10.362,16.498 -21.201,44.781 -27.388,62.33 l -1.0845,3.8347 c -6.2941,22.257 -5.8473,62.873 1.0156,92.335 5.0654,21.745 11.738,39.965 28.292,77.256 18.869,42.505 21.952,59.51 13.552,74.744 -6.597,11.963 -18.773,16.973 -29.457,12.12 z m -25.03,-423.18 c 0.3593,-1.5402 -4.7159,-7.2809 -8.1114,-12.661 -22.698,-35.966 -17.54,-84.942 15.459,-146.77 10.72,-20.087 9.4315,-19.134 13.835,-10.234 l 3.7313,7.5407 -7.4008,11.346 c -29.327,44.962 -38.641,95.815 -24.302,132.67 4.1025,10.545 8.2022,13.527 12.179,9.8947 6.1583,6.0099 1.0478,6.7969 -5.3911,8.2146 z m 45.033,-192.37 c -0.7897,-1.89 -1.953,-5.3774 -2.5852,-7.75 l -1.1493,-4.3137 7.4525,-11.5 c 54.119,-83.51 60.609,-152.6 20.809,-221.52 -28.852,-47.679 -53.681,-72.142 -71.113,-94.202 -42.858,-52.431 -55.035,-92.686 -41.275,-136.45 2.9148,-9.2705 9.275,-23.829 10.41,-23.829 0.6335,0 11.947,8.6599 14.332,10.97 0.4641,0.44958 -0.1428,3.0027 -1.3486,5.6736 -21.332,47.252 -10.636,78.504 54.539,159.36 98.653,122.38 103.51,198.02 20.263,315.75 -9.0625,12.817 -8.4405,12.346 -10.334,7.8137 z m 21.351,-295.81 c -1.3334,-1.7875 -3.4003,-4.6532 -4.593,-6.3683 l -2.1685,-3.1183 11.56,-11.382 c 35.587,-35.037 47.099,-63.4 49.456,-121.85 0.5648,-14.005 1.1524,-25.589 1.3058,-25.743 0.5215,-0.52142 10.887,-2.2931 13.417,-2.2931 h 2.5173 l -0.6208,24.75 c -1.7739,70.718 -17.008,107.15 -59.689,142.75 -9.1292,7.6144 -8.1419,7.3277 -11.185,3.2483 z m 144.3,-53.331 c -25.582,-6.8798 -41.232,-29.834 -41.232,-60.474 0,-13.187 -1.0508,-11.591 8.1943,-12.447 l 7.5742,-0.70125 -0.021,9.351 c -0.096,43.37 46.444,65.818 61.943,29.877 16.466,-38.184 -26.193,-59.232 -89.885,-44.348 -5.9477,1.3899 -10.95,2.3684 -11.116,2.1745 -0.1658,-0.19391 -0.5431,-4.0459 -0.8384,-8.5599 l -0.5369,-8.2074 5.6525,-1.6445 c 58.782,-17.102 107.52,-1.6956 117.64,37.19 9.0564,34.77 -22.984,67.038 -57.38,57.788 z m -123.61,-76.449 c -36.508,-7.6624 -57.766,-38.09 -56.218,-80.47 0.7111,-19.473 0.9794,-19.975 13.718,-25.65 11.769,-5.2432 11.761,-5.2461 9.6172,3.4004 -12.019,48.476 7.1006,82.204 49.716,87.702 8.3195,1.0734 8.7873,2.4923 5.0434,15.298 -0.6937,2.3725 -9.7945,2.2562 -21.877,-0.27964 z m 87.161,-40.677 c 5.1263,-47.596 -5.7535,-76.215 -32.651,-85.887 -4.783,-1.72 -4.8741,-1.8337 -6.4308,-8.0311 -2.7102,-10.789 -2.4269,-10.901 12.877,-5.0915 37.541,14.252 50.043,44.745 41.703,101.72 l -0.6588,4.5 -7.8394,0.29367 -7.8394,0.29368 z m -103.16,-5.1623 -4.9979,-0.63136 -1.1561,-5 c -2.2637,-9.7907 -3.7259,-8.9652 16.403,-9.2593 27.517,-0.40198 52.404,-3.801 72.506,-9.9023 10.337,-3.1375 9.5807,-3.5612 10.373,5.8111 l 0.6327,7.4858 -12.881,3.133 c -25.334,6.1618 -65.46,10.311 -80.879,8.3631 z m -55.002,-8.4927 c -63.691,-25.359 -90.641,-78.868 -63.77,-126.62 23.431,-41.635 75.813,-53.474 116.06,-26.23 l 4.285,2.901 -6.4386,5.6528 c -7.6203,6.6902 -6.4169,6.518 -15.131,2.1659 -37.539,-18.747 -80.847,3.6239 -88.057,45.487 -5.1147,29.697 12.622,57.493 48.423,75.882 7.3359,3.7682 10.254,5.8038 10.618,7.4071 0.9024,3.9778 2.6028,15.958 2.3064,16.25 -0.1592,0.15663 -3.8895,-1.1486 -8.2895,-2.9004 z m 185.18,-12.865 c -0.3042,-1.2506 -0.852,-4.9816 -1.2172,-8.2911 l -0.6641,-6.0173 7.0888,-1.6636 c 15.472,-3.6311 37.245,-14.756 74.117,-37.87 10.725,-6.7232 24.225,-15.145 30,-18.714 29.19,-17.43 40.726,-24.538 62.576,-33.689 66.515,-28.298 125.21,-21.706 176.28,19.798 l 7.3599,5.9812 -5.3599,4.8026 c -6.4545,5.7833 -5.5423,5.6757 -11.239,1.3257 -32.036,-24.462 -71.332,-35.357 -107.88,-29.91 -37.469,5.5845 -63.728,17.715 -137.74,63.634 -49.078,30.448 -91.325,48.833 -93.324,40.613 z m 209.82,0.77762 c -27.267,-4.2627 -52.929,-16.618 -80.75,-38.88 -10.35,-8.282 -10.13,-7.4717 -3.2654,-12.03 6.805,-4.5182 4.859,-4.9994 17.173,4.2461 32.479,20.461 73.672,42.182 120.34,26.621 24.147,-7.835 43.749,-15.57 94.5,-46.026 44.818,-26.896 55.209,-32.496 76,-40.964 45.441,-18.507 87.257,-17.387 127.03,3.3999 l 11.032,5.7656 c 6.5163,4.6226 5.8914,5.144 -1.0473,3.1445 -8.1505,-3.0062 0.8985,-0.92625 -18.306,-7.3853 -53.958,-18.147 -96.626,-7.3152 -183.21,46.512 -52.721,32.775 -73.716,43.466 -100.47,51.161 -19.503,5.6098 -41.129,7.2348 -59.033,4.4359 z m -291.89,-10.265 c -0.3237,-2.6323 -1.0508,-10.186 -1.6158,-16.786 -2.7945,-32.644 -8.7688,-51.02 -21.826,-67.132 l -4.9694,-6.132 5.1824,-5.118 c 6.3396,-6.2609 6.2776,-6.2598 11.935,-0.21148 16.658,17.809 26.406,46.881 29.225,87.165 l 0.67,9.571 -7.3555,1.2547 c -4.0455,0.6901 -8.0985,1.4619 -9.0067,1.715 -1.3174,0.36726 -1.7702,-0.50724 -2.2397,-4.3257 z m 547.89,3.5502 c -29.803,-3.361 -62.842,-16.972 -82.958,-34.177 l -3.9578,-3.385 4.3009,-5.137 c 5.0981,-6.0891 4.6757,-6.0162 10.24,-1.7677 53.916,41.168 115.26,39.822 253.88,-5.5686 41.12,-13.465 70.823,-22.245 92,-27.194 81.471,-19.04 166.44,-9.7919 262.47,28.568 43.002,17.178 59.589,19.5 74.755,10.466 18.616,-11.088 9.2592,-28.905 -18.226,-34.706 l -8.5,-1.7942 8.6447,-0.0704 c 29.276,-0.23828 43.571,20.555 26.414,38.42 -14.984,15.602 -36.043,14.472 -91.36,-4.9019 -62.477,-21.881 -91.872,-28.237 -148.7,-32.149 l -9,-0.61964 c -53.872,2.02 -47.377,-0.22566 -98.5,10.72 -17.682,4.4084 -38.692,10.938 -82,25.487 -104.73,35.181 -143.76,42.968 -189.5,37.81 z m -668,-21.897 c -7.688,-6.3419 -7.7103,-6.6999 -0.7994,-12.861 22.356,-19.932 53.254,-32.731 87.179,-36.113 9.312,-0.92817 11.606,-0.89173 12.624,0.20055 1.0941,1.1734 5.4965,13.108 5.4965,14.9 0,0.37244 -5.0625,0.99735 -11.25,1.3887 -30.94,1.9568 -60.228,14.227 -80.288,33.639 -5.0811,4.9168 -5.666,4.8647 -12.962,-1.154 z m 281.05,-55.039 c -62.825,-63.801 -153.21,-69.252 -206.3,-12.441 l -8.2447,8.8229 -11.255,2.7484 c -14.385,3.5126 -14.306,4.0474 -1.6987,-11.531 61.086,-75.48 173.25,-74.33 244.11,2.5018 11.151,12.092 10.977,10.987 2.4928,15.842 -9.2187,5.2745 -7.5523,5.7928 -19.109,-5.9431 z" />
      <path
         id="path4149"
         fill="#07a264"
         d="m -1774.4,385.21 c -7.0184,-3.5941 -7.9516,-10.454 -3.4417,-25.302 2.4469,-8.0558 2.1409,-10.505 -1.2525,-10.023 -1.9673,0.2793 -2.3182,1.0472 -2.7545,6.0285 l -0.5,5.7083 -4.1693,-1.8733 c -7.5992,-3.4144 -8.1897,-8.9506 -2.6774,-25.1 4.1048,-12.026 4.0155,-13.063 -1.3429,-15.589 -19.044,-8.9799 -23.956,-33.101 -11.238,-55.198 4.1351,-7.1852 4.2869,-6.3106 0.7401,4.2647 -10.96,32.68 4.9636,52.579 42.076,52.579 15.038,0 25.073,12.679 21.196,26.78 -1.144,4.1604 -3.0836,4.9603 -3.0836,1.2716 0,-1.0066 -0.9377,-2.8926 -2.0837,-4.191 -1.8166,-2.0582 -1.9947,-2.1044 -1.3892,-0.3608 7.3583,21.189 -13.431,49.53 -30.078,41.005 z m 15.323,-19.505 c 6.5065,-13.118 2.9264,-26.437 -9.7721,-36.354 -8.4865,-6.6277 -9.075,-6.5153 -2.1655,0.4134 11.955,11.989 14.208,24.087 7.4383,39.941 -3.8553,9.0282 -0.4695,6.0181 4.4993,-4 z m -51.377,-192.14 c -13.058,-2.9362 -19.164,-16.686 -14.343,-32.295 l 2.0518,-6.643 -3.103,-5.7123 c -1.7067,-3.1418 -2.2926,-4.6117 -1.3019,-3.2666 4.9698,6.7479 4.3973,6.6046 8.9779,2.2472 9.4505,-8.9901 23.72,-9.5636 28.688,-1.1531 2.2001,3.7245 2.2226,3.6546 -2.5882,8.052 -3.4763,3.1777 -3.9892,4.0862 -2.8986,5.1345 1.0846,1.0425 2.1687,0.27551 5.9737,-4.2263 12.412,-14.685 16.538,-16.72 23.823,-11.75 16.048,10.948 1.5681,36.125 -21.301,37.037 -7.3033,0.29104 -6.6707,2.7134 0.7086,2.7134 3.7049,0 3.6726,1.0712 -0.1641,5.4409 -4.616,5.2574 -13.602,6.8776 -24.523,4.4218 z m 23.917,-24.256 c 5.0247,-1.5122 14.111,-7.6593 15.089,-10.208 0.378,-0.98508 -0.5777,-0.58581 -2.5301,1.057 -10.645,8.9575 -25.53,9.8606 -40.09,2.4323 -4.9333,-2.5168 -4.8522,-1.5897 0.1363,1.5594 9.2118,5.8151 19.056,7.6692 27.395,5.1594 z m -6.6002,-323.75 c -25.89,-4.9621 -38.872,-30.762 -32.636,-64.859 l 1.3717,-7.5 0.6774,14.5 c 1.5724,33.655 11.457,49.297 31.248,49.448 10.209,0.0777 10.999,-1.9088 3.4939,-8.7855 -15.353,-14.068 -7.6503,-30.773 9.7736,-21.196 8.8732,4.8773 7.5352,2.3502 -2.5491,-4.8146 -15.302,-10.872 -16.265,-21.337 -2.3988,-26.062 14.9,-5.0771 26.757,4.05 31.567,24.3 1.7862,7.5197 3.2953,6.344 3.9742,-3.0961 l 0.2665,-3.7068 3.3019,1.6068 c 4.9522,2.4099 6.5291,6.3065 5.9645,14.739 -1.568,23.417 -27.622,40.493 -54.055,35.426 z m 21.405,-8.7175 c 19.189,-12.169 17.035,-44.351 -3.4157,-51.024 l -3.2009,-1.0444 2.4764,1.7137 c 19.218,13.299 19.095,41.683 -0.2202,51.05 -2.9243,1.4182 -3.6134,2.0796 -2.202,2.1139 1.1298,0.0274 4.0829,-1.2367 6.5624,-2.8091 z m -94.9,-115.1 c -11.532,-8.3536 -13.479,-26.471 -4.5081,-41.942 l 2.5515,-4.4002 -3.3801,2.5125 c -6.8803,5.1142 -10.806,3.5375 -9.4319,-3.788 1.9587,-10.441 9.6875,-13.744 34.052,-14.552 32.394,-1.075 40.563,-8.105 31.978,-27.519 -3.2139,-7.2671 0.1749,-4.9368 4.1125,2.828 4.5835,9.0383 3.7202,16.904 -2.5075,22.845 -3.2916,3.1403 -5.9755,4.4026 -13.832,6.5062 -2.9183,0.78132 -2.9786,4.6043 -0.1756,11.135 4.7516,11.07 3.4104,18.096 -4.8416,25.359 -7.7075,6.7844 -10.087,5.5981 -13.32,-6.6406 -3.0299,-11.469 -3.9123,-9.7534 -3.9123,7.6082 0,22.863 -4.8687,28.679 -16.783,20.048 z m 1.4858,-19.148 c -2.641,-13.357 5.137,-31.056 16.224,-36.917 1.9653,-1.039 2.9929,-1.909 2.2835,-1.9332 -12.779,-0.43788 -26.576,29.185 -19.425,41.706 1.885,3.3001 2.0395,2.819 0.9175,-2.8556 z m 1093.6,-236.91 c -15.224,-3.1225 -18.127,-9.333 -10.307,-22.047 4.5919,-7.4654 5.1882,-10.086 1.7131,-7.5302 -10.032,7.3796 -18.75,6.6435 -18.75,-1.5832 0,-8.5017 10.925,-20.828 18.46,-20.828 1.9849,0 1.946,-1.9304 -0.1458,-7.2298 -3.7613,-9.5288 -9.4492,-13.211 -22.243,-14.4 -11.224,-1.0432 -10.097,-2.7847 1.3594,-2.1012 15.58,0.92948 23.093,5.6835 27.539,17.424 l 1.8204,4.8075 6.8548,0.56342 c 13.817,1.1357 29.355,13.25 29.355,22.887 0,7.4806 -9.2877,8.8958 -15.094,2.3 -1.8156,-2.0625 -2.9247,-2.85 -2.4647,-1.75 6.9648,16.654 -2.8334,32.62 -18.098,29.489 z m 6.4529,-23.744 c 0.3963,-6.1555 0.05,-8.3993 -2.2836,-14.798 -3.1981,-8.7687 -4.5192,-9.2968 -1.9279,-0.77068 1.8575,6.1115 2.503,20.472 1.1608,25.824 l -0.7523,3 1.668,-3 c 0.9364,-1.6842 1.8728,-6.1824 2.135,-10.256 z m -628.8,18.894 c 0,-0.62595 0.8831,-1.1381 1.9625,-1.1381 6.1371,0 20.105,-7.8593 22.221,-12.503 1.4236,-3.1246 0.094,-4.816 -6.3525,-8.0828 -7.72,-3.912 -10.12,-10.188 -7.6175,-19.914 1.6776,-6.5189 4.0723,-6.9137 12.204,-2.0117 8.1365,4.905 9.107,3.911 1.9936,-2.0418 -23.979,-20.067 -23.334,-28.191 2.211,-27.85 12.84,0.17157 16.144,4.8841 20.497,29.241 0.2698,1.5097 1.6541,-5.6245 1.7634,-9.088 0.143,-4.5316 0.1248,-4.5296 5.7995,-0.62533 16.588,11.413 7.6269,32.858 -19.181,45.901 -13.464,6.5502 -35.5,11.586 -35.5,8.1128 z m 35.666,-15.306 c 15.288,-15.899 11.284,-38.016 -8.7589,-48.38 -2.8944,-1.4967 -2.5731,-0.99954 2.1352,3.3037 16.366,14.958 16.466,33.44 0.2607,48.25 -5.5857,5.105 -5.6423,5.207 -1.7858,3.2156 2.1905,-1.1311 5.8574,-4.0062 8.1488,-6.3891 z m 340.12,-17.972 c -3.6204,-1.3381 -6.0659,-5.5917 -9.2476,-16.084 -2.9602,-9.7624 -5.0993,-12.687 -4.0212,-5.4978 2.031,13.544 -16.222,16.144 -20.625,2.9384 -1.9585,-5.8737 -1.4937,-15.454 0.9802,-20.2 3.8987,-7.4798 2.4685,-10.373 -7.6242,-15.423 -9.7166,-4.8623 -6.3151,-4.3959 5.0275,0.6894 l 6.7775,3.0386 2.7225,-2.5466 c 11.354,-10.62 40.655,-6.8538 43.788,5.6282 1.4182,5.6503 -6.4521,9.6474 -12.881,6.5417 -1.222,-0.59035 -0.8627,-0.0696 0.8157,1.182 12.698,9.4696 18.749,20.828 15.561,29.212 -2.6112,6.8678 -14.821,12.907 -21.273,10.522 z m 6.8625,-20.562 c -4.3443,-8.6265 -11.229,-16.351 -17.955,-20.145 -8.1275,-4.5842 -10.888,-4.7469 -3.9123,-0.23059 9.8059,6.3483 21.315,19.589 23.838,27.427 0.3808,1.1826 0.8717,1.6258 1.0909,0.98478 0.2192,-0.641 -1.1585,-4.2572 -3.0614,-8.0359 z m -460.65,-22.39 c 14.888,-12.056 18.99,-21.318 11.996,-27.084 -2.5356,-2.0902 -5.411,-1.3683 -14.26,3.5806 -16.372,9.1558 -30.454,-1.2932 -16.604,-12.321 7.7665,-6.1837 3.1138,-5.1828 -8.6765,1.8665 -19.589,11.712 -27.761,9.5297 -27.904,-7.4515 -0.1053,-12.509 6.7019,-16.737 27.95,-17.358 14.368,-0.42033 16.384,-1.9392 2.75,-2.0714 -13.079,-0.12679 -8.2025,-12.651 5.6682,-14.559 40.513,-5.572 60.553,56.078 24.194,74.432 -6.9894,3.5283 -8.6685,3.8455 -5.1124,0.96576 z m 16.299,-12.246 c 18.873,-24.83 -9.6637,-49.494 -43.799,-37.854 -15.629,5.329 -20.563,8.7193 -6.4956,4.4628 37.765,-11.427 67.914,12.061 46.233,36.018 -1.5017,1.6594 -1.5005,1.7483 0.016,1.1664 0.9029,-0.34644 2.7234,-2.0533 4.0458,-3.793 z" />
    </g>
  </g>
</svg>
