<?xml version="1.0" standalone="no"?>
<!DOCTYPE svg PUBLIC "-//W3C//DTD SVG 20010904//EN"
 "http://www.w3.org/TR/2001/REC-SVG-20010904/DTD/svg10.dtd">
<svg version="1.0" xmlns="http://www.w3.org/2000/svg"
 width="1280.000000pt" height="1248.000000pt" viewBox="0 0 1280.000000 1248.000000"
 preserveAspectRatio="xMidYMid meet">
<metadata>
Created by potrace 1.15, written by Peter Selinger 2001-2017
</metadata>
<g transform="translate(0.000000,1248.000000) scale(0.100000,-0.100000)"
fill="#000000" stroke="none">
<path d="M6131 12465 c34 -72 48 -104 54 -124 7 -23 6 -23 -31 -17 -34 5 -36
4 -14 -5 14 -6 62 -13 108 -16 81 -6 82 -6 65 -25 -37 -41 -75 -53 -186 -58
-59 -3 -107 -2 -107 3 0 4 -13 7 -28 7 -55 0 -127 -30 -182 -75 -30 -25 -61
-45 -68 -45 -7 0 -10 -4 -7 -10 17 -28 144 10 165 50 11 21 71 60 91 60 8 0 2
-8 -14 -18 -41 -28 -53 -49 -87 -149 -33 -98 -50 -123 -50 -75 l0 29 -57 -5
c-32 -2 -66 -11 -75 -20 -21 -17 -24 -72 -5 -72 6 0 23 -14 37 -31 23 -27 29
-29 52 -20 21 8 37 30 65 90 21 44 42 80 47 81 16 0 -1 -116 -24 -161 -35 -69
-39 -72 -67 -49 -35 28 -61 25 -73 -6 -6 -14 -19 -28 -30 -31 -25 -7 -27 -49
-3 -75 19 -21 17 -24 -89 -89 -71 -44 -95 -41 -115 11 -8 20 -23 42 -34 48
-19 12 -19 12 -4 -17 8 -17 15 -36 15 -44 0 -8 14 -21 31 -30 l31 -15 -23 -16
c-44 -30 -10 -16 53 22 90 55 108 64 108 53 0 -24 -54 -71 -93 -82 -44 -12
-67 -25 -67 -41 0 -5 9 -4 19 2 11 5 30 10 43 10 43 0 85 35 104 87 28 76 40
86 101 81 l53 -5 0 50 c0 38 7 61 29 96 44 70 54 114 47 195 -5 62 -3 76 17
111 27 48 76 75 136 75 l45 0 -32 -33 c-39 -40 -42 -87 -12 -147 23 -44 26
-80 8 -98 -6 -6 -9 -14 -6 -17 9 -10 96 75 102 100 4 15 -1 52 -10 84 -24 88
-19 104 37 112 59 9 99 30 143 75 40 41 66 91 66 127 0 46 -16 37 -34 -18 -19
-62 -40 -78 -94 -73 -34 3 -40 8 -72 67 -19 35 -46 71 -59 80 -13 8 -22 11
-20 6z"/>
<path d="M6686 12449 c-14 -11 -39 -46 -54 -77 -27 -54 -30 -57 -70 -60 -53
-4 -89 28 -98 87 -10 60 -28 51 -22 -9 9 -86 102 -177 192 -187 60 -7 70 -25
51 -90 -8 -26 -15 -66 -15 -87 0 -34 7 -46 46 -83 50 -48 62 -51 43 -10 -10
23 -8 35 15 85 14 33 26 67 26 76 0 25 -19 58 -49 84 l-26 23 58 -5 c67 -5
100 -23 127 -69 16 -26 19 -48 17 -122 -2 -96 6 -129 52 -198 19 -30 24 -49
22 -88 l-2 -49 53 0 c64 0 82 -12 98 -65 21 -67 48 -88 145 -110 29 -6 29 -6
12 13 -10 11 -33 23 -52 26 -32 6 -95 63 -95 86 0 5 28 -7 63 -28 34 -21 73
-44 87 -51 23 -11 24 -11 6 3 -18 15 -18 16 8 26 15 5 31 22 36 37 6 16 15 36
21 47 8 14 8 17 -3 14 -7 -2 -21 -20 -30 -39 -37 -75 -50 -76 -153 -8 -72 47
-76 51 -61 68 24 26 21 77 -5 84 -11 3 -23 15 -26 26 -7 26 -54 29 -77 5 -20
-19 -31 -12 -55 34 -28 55 -43 120 -36 154 7 29 8 28 46 -48 21 -43 46 -84 55
-91 27 -20 54 -15 63 11 5 13 19 26 30 29 15 4 21 13 21 35 0 44 -27 62 -94
62 l-58 0 7 -30 c4 -16 4 -30 1 -30 -9 0 -43 72 -56 120 -19 70 -48 119 -83
140 -18 11 -26 20 -19 20 22 0 55 -21 104 -66 50 -46 77 -57 128 -52 l32 3
-48 35 c-26 19 -61 45 -79 58 -33 24 -145 48 -155 33 -3 -5 -50 -8 -105 -7
-89 1 -105 4 -146 28 -25 15 -51 34 -59 42 -11 14 -4 16 61 17 41 0 92 6 114
14 46 15 36 20 -13 6 -17 -5 -32 -9 -32 -8 0 10 44 114 56 133 20 29 15 30
-20 3z"/>
<path d="M6056 12424 c-8 -22 -9 -21 19 -28 14 -4 25 -11 25 -17 0 -6 -6 -6
-19 1 -28 15 -61 12 -67 -5 -7 -18 12 -44 41 -55 16 -7 17 -9 3 -9 -9 -1 -20
4 -23 9 -10 16 -22 12 -28 -11 -12 -44 67 -36 84 9 20 51 21 83 3 103 -21 23
-30 24 -38 3z"/>
<path d="M6757 12426 c-28 -29 -30 -54 -5 -99 19 -34 29 -43 56 -45 33 -3 41
9 23 37 -6 9 -11 10 -15 2 -4 -6 -15 -11 -24 -10 -13 0 -11 3 5 9 30 12 50 50
32 61 -21 13 -42 11 -67 -7 -12 -8 -22 -10 -22 -5 0 6 14 17 30 23 28 12 30
15 17 32 -12 17 -15 17 -30 2z"/>
<path d="M6368 12132 c-67 -110 -209 -300 -312 -415 -162 -181 -220 -212 -646
-343 -388 -119 -583 -214 -770 -374 -163 -141 -299 -364 -333 -546 l-12 -64
-38 25 c-95 65 -268 105 -457 105 -319 0 -548 -94 -1044 -428 -181 -122 -290
-181 -377 -206 -132 -38 -448 -43 -721 -12 -123 13 -119 16 -87 -65 56 -143
128 -446 149 -626 17 -154 -6 -251 -153 -623 -190 -482 -228 -774 -141 -1080
35 -121 115 -278 175 -342 27 -29 49 -54 49 -55 0 -2 -8 -3 -17 -3 -29 0 -133
-54 -198 -102 -132 -98 -249 -238 -326 -390 -106 -211 -151 -411 -184 -823
-20 -247 -38 -376 -64 -451 -50 -140 -206 -352 -440 -596 -78 -82 -90 -99 -75
-104 263 -91 543 -224 678 -322 94 -67 151 -139 261 -326 202 -342 235 -395
308 -492 191 -254 407 -412 672 -490 72 -21 112 -27 202 -28 71 -1 111 -5 109
-11 -33 -73 -41 -128 -41 -265 0 -126 4 -160 29 -255 32 -126 100 -278 175
-389 88 -131 190 -243 435 -480 243 -235 313 -317 348 -409 64 -166 113 -378
144 -617 9 -74 18 -136 19 -137 1 -2 55 29 121 69 156 94 392 207 525 252 147
50 230 49 602 -6 256 -37 301 -41 487 -42 221 -1 297 9 450 60 203 68 430 227
495 347 11 20 22 37 25 37 4 0 13 -15 22 -33 58 -119 296 -289 498 -355 252
-83 486 -87 935 -20 165 25 243 32 365 32 l155 1 100 -39 c149 -57 343 -153
492 -243 l132 -80 6 46 c61 476 140 732 273 886 33 39 123 128 200 198 369
337 536 551 625 802 74 209 83 458 22 617 -4 10 13 12 79 9 233 -9 514 112
722 311 152 146 242 268 424 578 132 226 211 340 270 393 104 93 401 245 650
331 57 20 105 38 107 40 1 1 -44 52 -101 112 -147 155 -226 252 -316 387 -123
185 -137 237 -170 652 -45 564 -120 800 -340 1063 -95 114 -292 252 -359 252
-12 0 -21 1 -21 3 0 1 24 28 53 59 90 95 174 285 208 468 16 92 14 308 -5 415
-31 177 -64 285 -186 605 -96 253 -120 333 -127 424 -10 137 49 437 137 698
22 64 40 120 40 125 0 5 -53 3 -117 -4 -146 -15 -480 -17 -593 -3 -166 21
-217 45 -542 262 -134 90 -287 187 -339 216 -325 178 -633 231 -922 158 -92
-24 -185 -63 -219 -94 -17 -14 -18 -13 -18 22 0 59 -19 124 -65 222 -57 122
-112 202 -209 302 -178 184 -378 295 -746 414 -465 150 -519 173 -623 268
-117 108 -309 352 -422 538 -21 34 -41 62 -44 62 -3 0 -27 -36 -53 -78z m135
-109 c114 -169 200 -276 317 -394 90 -91 118 -113 196 -151 49 -25 164 -69
255 -97 473 -150 600 -201 754 -301 224 -146 420 -431 432 -629 5 -90 -11
-132 -67 -169 -31 -21 -44 -23 -115 -20 -63 4 -93 11 -139 34 -80 39 -156 110
-194 182 -35 65 -66 183 -59 221 7 33 -26 63 -96 89 -79 30 -181 45 -252 36
-86 -10 -113 -23 -49 -23 48 -1 160 -26 299 -66 l59 -18 -64 -32 c-78 -40
-147 -99 -189 -162 -40 -60 -39 -69 1 -31 51 48 223 158 246 158 5 0 14 -23
21 -52 33 -146 160 -303 296 -368 91 -44 208 -53 267 -22 l37 19 16 -53 c31
-106 153 -196 316 -230 96 -20 187 -13 298 26 47 16 88 27 91 25 12 -8 33
-211 28 -276 l-4 -64 17 40 c38 87 43 219 13 323 -8 29 -1 28 44 -6 20 -16 72
-54 115 -86 43 -32 95 -79 117 -104 51 -57 51 -42 0 36 -53 83 -129 154 -210
196 -71 38 -65 38 -141 -12 -143 -94 -345 -94 -489 -1 -140 90 -161 227 -47
313 114 87 379 134 583 102 254 -38 422 -121 864 -427 185 -127 319 -195 425
-215 117 -21 404 -29 579 -15 81 7 150 10 152 8 2 -2 -12 -50 -31 -108 -42
-123 -99 -351 -116 -464 -7 -44 -12 -125 -12 -180 1 -134 8 -160 197 -650 48
-123 94 -274 117 -380 8 -36 14 -127 14 -225 0 -142 -3 -178 -23 -254 -78
-294 -230 -477 -363 -437 -50 15 -111 85 -138 156 -62 166 -22 340 110 477 32
33 59 66 59 72 0 7 -7 39 -15 71 -26 98 -109 228 -177 277 -29 20 -29 20 8
-38 29 -46 144 -293 144 -311 0 -2 -22 8 -50 22 -95 48 -236 69 -310 45 l-25
-8 29 -1 c42 -1 139 -28 225 -62 42 -17 77 -32 79 -34 2 -2 -12 -24 -31 -49
-121 -158 -151 -382 -73 -552 24 -51 97 -134 120 -134 6 0 18 -5 26 -10 12 -8
11 -12 -7 -32 -12 -13 -29 -39 -36 -58 -77 -186 52 -468 267 -581 l66 -35 -75
-82 c-42 -45 -98 -96 -126 -113 -27 -18 -49 -34 -49 -36 0 -9 61 13 113 40 60
31 137 99 174 152 l21 29 7 -119 c7 -112 2 -239 -10 -281 -4 -10 3 -2 14 18
46 83 63 243 38 353 -12 48 -13 49 -72 70 -94 33 -144 63 -202 121 -146 145
-173 410 -50 484 171 105 539 -199 668 -550 60 -164 88 -329 109 -630 23 -339
47 -485 94 -577 66 -130 196 -304 365 -491 85 -93 99 -113 84 -119 -221 -79
-469 -195 -598 -280 -146 -97 -185 -146 -385 -488 -142 -243 -215 -353 -304
-457 -194 -227 -453 -363 -716 -375 -96 -4 -109 -2 -149 19 -66 34 -86 67 -86
141 1 79 28 138 102 217 92 100 218 148 357 136 39 -3 80 -6 90 -6 65 -2 176
217 176 344 l0 51 -24 -67 c-13 -37 -49 -113 -80 -168 -31 -55 -56 -105 -56
-110 0 -6 -4 -10 -8 -10 -5 0 -15 26 -22 58 -17 78 -59 157 -115 220 -55 61
-69 62 -30 4 24 -36 95 -229 95 -257 0 -6 -37 -16 -87 -22 -115 -14 -192 -42
-277 -100 -77 -53 -137 -122 -174 -201 -20 -45 -24 -65 -20 -127 l3 -73 -51
-4 c-206 -17 -373 -295 -334 -559 6 -44 9 -84 6 -87 -12 -11 -237 18 -287 37
-42 17 -48 17 -37 4 40 -49 248 -114 318 -100 15 4 30 4 33 1 10 -10 -201
-186 -273 -229 l-45 -26 35 6 c78 15 183 76 258 150 75 75 84 97 58 138 -24
38 -39 131 -34 219 3 67 10 97 35 151 79 168 243 261 344 195 137 -91 139
-463 4 -754 -81 -177 -174 -283 -631 -724 -91 -87 -177 -181 -199 -214 -74
-114 -153 -384 -195 -665 -10 -74 -21 -136 -24 -138 -2 -2 -46 21 -98 52 -128
78 -372 196 -498 241 -104 38 -107 38 -250 37 -104 0 -194 -8 -320 -27 -520
-80 -744 -76 -980 15 -230 88 -435 271 -455 405 -22 144 197 236 401 167 99
-33 206 -124 251 -213 29 -57 39 -61 125 -55 96 7 198 40 272 90 31 21 55 39
53 41 -2 3 -24 -5 -48 -15 -24 -11 -94 -29 -154 -41 -61 -11 -128 -25 -150
-30 -21 -5 -41 -7 -44 -5 -2 3 12 22 32 44 48 53 84 126 103 207 21 94 15 124
-12 52 -12 -31 -49 -99 -84 -151 l-63 -96 -71 72 c-83 83 -162 129 -272 157
-156 40 -296 12 -372 -75 l-32 -35 -35 39 c-48 53 -121 82 -220 88 -154 10
-294 -45 -415 -164 -41 -40 -75 -73 -76 -73 -5 0 -73 99 -99 143 -15 27 -38
74 -51 105 -18 45 -24 51 -24 30 0 -82 44 -203 104 -281 21 -27 36 -51 34 -53
-6 -5 -211 33 -275 51 -32 9 -71 23 -88 31 l-30 15 33 -29 c75 -67 220 -115
329 -110 l66 3 24 45 c34 64 128 156 196 190 154 77 342 61 427 -36 25 -29 30
-43 30 -86 0 -70 -29 -126 -106 -202 -160 -161 -387 -262 -645 -288 -141 -14
-302 -3 -587 41 -415 65 -501 66 -667 8 -170 -59 -350 -145 -540 -261 l-60
-36 -23 158 c-41 286 -119 549 -195 664 -45 67 -157 183 -391 403 -309 291
-435 476 -498 731 -28 115 -31 351 -6 427 34 102 84 147 163 147 65 0 126 -33
187 -99 118 -129 147 -290 85 -469 l-25 -72 34 -44 c63 -83 200 -172 294 -191
31 -6 26 -1 -40 43 -70 47 -231 183 -238 202 -2 5 12 6 31 3 78 -12 248 38
312 92 l20 17 -20 -7 c-69 -22 -138 -35 -227 -41 -97 -7 -101 -6 -93 12 14 34
18 217 6 275 -39 187 -198 359 -332 359 l-46 0 5 74 c4 68 2 81 -26 140 -77
164 -253 279 -449 293 -46 3 -83 10 -83 16 0 17 71 221 84 242 50 78 49 80 -3
30 -60 -57 -114 -156 -131 -241 l-12 -57 -30 54 c-67 121 -119 233 -133 282
l-14 52 0 -50 c-1 -106 56 -258 129 -344 l28 -33 65 11 c188 33 391 -68 473
-234 56 -115 39 -206 -47 -255 -39 -22 -56 -25 -139 -25 -213 2 -457 109 -642
283 -129 122 -208 234 -402 572 -191 330 -233 384 -382 480 -111 72 -355 192
-499 245 -55 20 -102 39 -104 41 -2 2 29 39 70 81 225 237 386 462 430 602 26
84 45 224 64 481 34 443 88 652 221 851 88 134 234 269 354 329 65 33 164 38
207 11 125 -79 100 -335 -47 -482 -60 -61 -110 -90 -205 -124 -57 -20 -61 -23
-72 -65 -27 -106 -9 -285 38 -370 11 -19 17 -26 13 -15 -11 35 -17 209 -9 311
7 95 8 98 23 74 51 -81 181 -177 267 -196 27 -6 25 -3 -16 25 -26 17 -84 70
-129 117 l-82 86 66 37 c93 50 147 99 200 180 108 162 125 350 40 451 -15 17
-25 32 -23 34 2 1 19 8 36 15 18 8 49 31 69 53 132 147 132 411 -2 611 -25 38
-44 70 -42 72 13 11 204 75 252 84 33 6 61 13 63 15 2 2 -23 6 -56 10 -71 8
-184 -13 -256 -49 -27 -13 -51 -23 -52 -21 -7 7 103 247 138 300 21 32 39 61
39 64 0 16 -107 -100 -141 -152 -39 -59 -79 -167 -79 -212 0 -13 7 -29 16 -36
86 -70 161 -196 173 -289 17 -137 -32 -290 -112 -354 -32 -25 -48 -30 -92 -30
-44 0 -61 6 -97 31 -93 67 -198 273 -232 453 -9 47 -16 136 -16 207 0 208 40
366 189 742 154 386 170 472 136 702 -18 124 -78 369 -119 489 -14 41 -24 76
-22 78 2 2 60 -1 129 -8 165 -15 537 -7 630 15 106 24 191 71 483 264 476 314
648 381 959 369 259 -9 440 -87 475 -204 11 -36 11 -49 -4 -87 -51 -132 -256
-228 -422 -197 -77 14 -163 50 -207 87 -23 19 -38 24 -59 20 -76 -15 -215
-130 -273 -226 -19 -32 -35 -60 -35 -63 0 -3 26 20 58 51 52 53 253 204 260
197 2 -2 -2 -23 -9 -46 -18 -64 -15 -184 6 -257 10 -34 21 -64 24 -67 4 -2 5
23 3 55 -4 61 14 248 27 268 5 8 24 4 66 -13 91 -37 160 -48 260 -42 193 11
353 112 386 244 l11 41 46 -20 c37 -17 59 -20 119 -15 193 15 375 181 438 400
13 45 20 57 33 52 41 -16 183 -109 225 -148 26 -24 47 -41 47 -39 0 3 -14 27
-30 53 -43 66 -117 132 -190 169 -34 17 -60 33 -58 36 11 11 232 67 308 78 73
11 80 13 51 19 -102 21 -254 2 -353 -44 -49 -23 -58 -38 -58 -101 0 -47 -31
-146 -63 -200 -37 -63 -128 -145 -194 -175 -83 -37 -185 -43 -242 -14 -31 16
-48 34 -62 64 -34 75 -22 156 42 296 95 205 241 362 449 481 137 78 219 109
670 250 207 65 287 99 364 154 113 81 295 291 431 498 39 58 73 106 76 105 3
-1 40 -53 82 -114z"/>
<path d="M5185 11086 c-76 -51 -159 -147 -201 -231 -20 -41 -35 -78 -31 -81
15 -15 53 27 122 132 41 63 96 137 121 164 26 28 45 50 43 50 -2 0 -27 -15
-54 -34z"/>
<path d="M7646 11057 c27 -31 75 -96 105 -144 88 -141 157 -201 120 -105 -38
102 -150 234 -242 286 -32 19 -32 17 17 -37z"/>
<path d="M4656 10808 c-22 -12 -12 -28 14 -21 11 3 28 2 37 -2 16 -6 16 -8 -4
-16 -31 -12 -29 -37 5 -51 15 -7 28 -13 30 -14 1 -1 -2 -14 -8 -29 -10 -26
-12 -27 -29 -11 -22 20 -50 20 -79 0 -31 -22 -28 -63 8 -109 33 -41 36 -50 19
-61 -7 -4 -20 4 -30 17 -16 22 -18 22 -25 6 -4 -12 -1 -25 10 -35 15 -15 19
-15 49 0 17 9 53 26 80 37 33 14 50 28 58 48 13 34 -2 73 -31 80 -16 4 -18 11
-13 32 8 35 13 39 27 20 6 -10 28 -24 49 -32 20 -9 37 -21 37 -27 0 -6 5 -8
10 -5 15 9 12 41 -5 55 -8 6 -13 17 -12 23 1 8 -15 11 -50 9 -46 -2 -53 0 -53
16 0 25 -34 68 -58 74 -11 3 -27 1 -36 -4z m74 -63 c7 -9 11 -18 8 -20 -9 -10
-38 7 -38 21 0 18 14 18 30 -1z"/>
<path d="M8118 10790 c-9 -6 -22 -26 -28 -45 l-12 -35 -51 6 c-44 6 -50 5 -44
-9 4 -10 2 -17 -3 -17 -15 0 -31 -37 -24 -55 6 -14 9 -14 26 4 10 12 27 21 38
21 10 0 26 10 34 22 17 24 31 17 38 -17 2 -14 -5 -23 -24 -32 -23 -10 -28 -18
-28 -46 0 -31 32 -77 54 -77 5 0 31 -11 58 -25 55 -27 88 -25 88 5 0 27 -17
34 -23 10 -7 -25 -37 -26 -37 -1 0 10 14 35 30 56 36 45 37 65 7 93 -28 26
-59 28 -82 6 -19 -19 -21 -18 -30 19 -6 21 -4 27 8 27 22 0 47 28 41 45 -4 8
-13 15 -21 15 -8 0 -11 5 -7 11 3 6 19 9 35 5 22 -4 29 -2 29 9 0 17 -45 20
-72 5z m22 -49 c0 -12 -29 -35 -36 -28 -11 10 5 37 21 37 8 0 15 -4 15 -9z"/>
<path d="M3732 10368 c-17 -17 -15 -74 5 -104 16 -25 15 -26 -15 -54 -32 -29
-41 -50 -22 -50 6 0 10 -8 10 -18 0 -20 18 -42 35 -42 9 0 14 30 15 104 1 25
3 27 28 21 35 -9 37 -12 22 -30 -18 -22 2 -62 36 -76 23 -8 39 -4 105 28 81
39 98 56 78 79 -18 22 -28 16 -26 -13 3 -49 -27 -34 -40 20 -15 62 -28 77 -68
77 -39 0 -70 -30 -62 -61 5 -18 2 -20 -16 -15 -12 3 -25 6 -30 6 -4 0 -4 18
-1 40 6 35 4 40 -13 40 -10 0 -24 -5 -31 -12 -15 -15 -15 -8 -2 26 5 14 17 26
25 26 9 0 13 5 10 10 -8 14 -28 13 -43 -2z m40 -93 c-12 -22 -27 -2 -18 22 5
12 10 13 17 6 7 -7 8 -17 1 -28z"/>
<path d="M9060 10352 c0 -4 9 -13 20 -20 11 -7 20 -19 20 -28 0 -13 -3 -14
-14 -5 -31 26 -59 -13 -36 -49 8 -12 10 -9 10 13 0 29 14 37 23 13 7 -17 -17
-41 -56 -55 -26 -10 -27 -9 -27 19 0 32 -31 60 -66 60 -27 0 -64 -44 -64 -76
0 -32 -10 -54 -25 -54 -20 0 -28 19 -15 35 16 19 -5 29 -24 10 -24 -24 -9 -42
65 -80 79 -40 111 -43 139 -15 23 23 24 33 10 60 -8 15 -5 20 20 29 32 11 33
9 30 -26 -1 -12 4 -31 10 -42 8 -15 8 -27 0 -41 -8 -15 -8 -20 3 -20 20 0 37
21 37 46 0 12 6 24 13 27 8 3 0 17 -22 41 -32 33 -33 37 -19 53 24 27 30 58
17 87 -11 23 -49 38 -49 18z"/>
<path d="M3308 10160 c-63 -8 -146 -29 -152 -39 -2 -3 48 -6 112 -6 65 0 158
-4 207 -8 57 -5 95 -4 105 2 20 14 11 20 -52 36 -73 18 -152 23 -220 15z"/>
<path d="M9353 10140 c-29 -6 -67 -16 -85 -23 l-33 -14 24 -12 c19 -10 47 -11
140 -1 64 7 155 10 203 9 48 -2 84 -1 80 3 -14 13 -133 38 -204 43 -40 2 -97
0 -125 -5z"/>
<path d="M1656 8220 c-12 -100 24 -265 78 -355 l24 -40 8 29 c5 21 -4 62 -35
155 -23 69 -48 158 -55 196 l-13 70 -7 -55z"/>
<path d="M11147 8196 c-4 -32 -28 -120 -52 -196 -45 -136 -55 -190 -35 -190 6
0 27 34 46 75 46 95 70 230 57 312 l-9 58 -7 -59z"/>
<path d="M1722 7723 c-7 -3 -19 -20 -27 -39 -12 -30 -17 -34 -34 -25 -31 17
-86 13 -104 -7 -21 -23 -22 -38 -2 -46 11 -4 15 -1 13 10 -2 9 7 23 20 32 23
15 23 15 17 -11 -9 -34 14 -45 48 -22 24 15 26 15 36 -4 16 -29 13 -41 -8 -41
-22 0 -51 -35 -51 -62 0 -36 36 -58 95 -58 49 0 55 -2 55 -21 0 -18 -4 -20
-26 -15 -29 8 -30 -10 -1 -28 24 -16 34 -1 57 86 23 88 17 121 -26 140 -20 9
-30 9 -47 -1 -18 -12 -22 -11 -34 5 -20 28 -17 46 8 39 12 -4 27 -1 37 8 9 9
30 17 46 19 29 3 29 4 11 21 -11 11 -27 17 -41 14 -13 -2 -25 -1 -26 3 -2 4
-9 5 -16 3z m-71 -88 c0 -5 -9 -11 -21 -13 -20 -3 -27 8 -13 22 10 9 34 3 34
-9z"/>
<path d="M11055 7692 c-31 -4 -55 -18 -55 -33 0 -5 7 -6 16 -2 8 3 29 -4 45
-16 17 -13 37 -20 44 -17 23 8 27 -11 9 -40 -15 -22 -19 -23 -26 -10 -13 23
-54 20 -78 -6 -24 -25 -23 -59 3 -150 15 -55 29 -73 51 -65 25 10 20 37 -6 34
-15 -1 -23 3 -23 13 0 11 14 16 55 18 69 4 92 23 88 71 -2 29 -9 39 -35 52
-30 15 -31 17 -17 37 14 20 17 21 38 7 13 -9 31 -13 40 -9 18 7 22 29 6 39 -5
3 -10 -1 -10 -10 0 -10 -7 -15 -17 -13 -28 5 -25 25 4 31 35 7 61 -7 65 -35 3
-18 5 -19 15 -6 10 11 9 19 -3 36 -17 24 -70 30 -105 12 -16 -9 -21 -6 -36 24
-18 39 -25 43 -68 38z"/>
<path d="M1587 6773 c-13 -12 -7 -23 13 -23 13 0 20 -7 20 -20 0 -11 -6 -20
-13 -20 -7 0 -29 9 -50 20 -20 11 -46 20 -57 20 -27 0 -60 -35 -60 -63 0 -13
9 -32 20 -42 26 -23 25 -29 -4 -43 -20 -9 -25 -7 -35 14 -17 37 -58 31 -52 -8
2 -16 -19 -7 -28 10 -7 13 -6 23 1 30 9 9 8 12 -4 12 -25 0 -32 -19 -18 -45
14 -26 50 -45 85 -45 22 0 25 -5 25 -34 0 -41 9 -68 20 -61 5 3 20 0 35 -7 21
-10 29 -9 43 5 15 16 15 17 -1 17 -10 0 -26 14 -35 30 -9 17 -25 33 -34 36
-24 7 -23 21 4 35 19 10 24 9 36 -10 10 -14 25 -21 48 -21 28 0 38 6 54 33 11
17 20 43 20 56 0 13 5 41 11 62 9 30 9 42 -1 54 -13 16 -32 20 -43 8z m-177
-168 c10 -13 9 -15 -9 -15 -12 0 -21 6 -21 15 0 8 4 15 9 15 5 0 14 -7 21 -15z"/>
<path d="M11181 6736 c-10 -12 -11 -23 -2 -47 6 -18 11 -45 11 -61 0 -36 24
-83 45 -92 32 -12 63 -6 77 15 12 19 17 20 36 10 27 -14 28 -31 4 -37 -9 -3
-25 -18 -34 -35 -9 -16 -25 -29 -35 -29 -16 0 -16 -1 -1 -17 14 -14 22 -15 43
-5 15 7 30 10 35 7 11 -7 20 20 20 61 0 30 3 34 25 34 54 0 109 49 90 80 -10
16 -28 12 -22 -5 3 -7 -3 -24 -14 -37 -11 -13 -18 -18 -15 -11 9 18 -4 43 -23
43 -9 0 -23 -11 -32 -25 -14 -24 -16 -24 -38 -9 l-22 16 20 19 c27 25 27 63 1
89 -25 25 -49 25 -99 -1 -22 -11 -45 -18 -51 -14 -18 11 -11 35 11 35 12 0 19
5 17 13 -7 18 -33 20 -47 3z m249 -161 c0 -9 -9 -15 -21 -15 -18 0 -19 2 -9
15 7 8 16 15 21 15 5 0 9 -7 9 -15z"/>
<path d="M1348 6325 c-74 -58 -129 -128 -174 -222 -39 -80 -41 -108 -3 -46 13
21 69 85 125 143 96 100 124 135 124 159 0 19 -13 12 -72 -34z"/>
<path d="M11390 6319 c0 -13 40 -62 103 -128 57 -59 120 -132 140 -161 47 -70
47 -58 -1 44 -45 95 -111 179 -180 230 -58 42 -62 43 -62 15z"/>
<path d="M1681 3684 c37 -40 162 -120 223 -143 68 -25 156 -38 156 -23 0 18
-38 38 -140 75 -124 45 -186 73 -220 97 -39 28 -48 25 -19 -6z"/>
<path d="M11050 3642 c-36 -20 -114 -53 -175 -75 -105 -37 -145 -59 -145 -80
0 -13 69 -2 148 24 66 22 189 98 231 143 32 34 20 31 -59 -12z"/>
<path d="M2162 3445 c-11 -13 -22 -21 -26 -18 -10 11 -7 -35 5 -61 11 -22 8
-28 -25 -60 -29 -27 -37 -41 -34 -63 2 -19 10 -29 23 -31 16 -3 18 -1 8 9 -13
13 -18 59 -7 59 4 0 12 -7 19 -17 18 -25 45 -9 45 27 0 30 9 35 42 22 13 -5
15 -11 8 -22 -25 -39 9 -90 59 -90 22 0 37 10 61 40 32 41 60 52 60 25 0 -9
-7 -18 -15 -21 -19 -8 -9 -24 15 -24 20 0 34 26 23 43 -25 41 -95 126 -109
131 -42 16 -100 -16 -88 -49 5 -11 -1 -15 -24 -15 -36 0 -48 13 -27 30 8 7 15
25 15 41 0 15 7 34 15 42 8 8 11 17 8 21 -13 12 -32 5 -51 -19z m-2 -149 c0
-16 -18 -31 -27 -22 -8 8 5 36 17 36 5 0 10 -6 10 -14z"/>
<path d="M10583 3422 c10 -10 17 -33 17 -50 0 -19 7 -35 17 -41 22 -12 17 -17
-26 -26 -29 -6 -33 -5 -28 9 10 24 -1 43 -34 56 -24 10 -33 10 -54 -4 -34 -22
-115 -135 -109 -151 7 -18 28 -25 45 -15 11 7 10 10 -4 16 -19 7 -23 44 -4 44
6 0 31 -21 53 -47 39 -44 44 -47 70 -38 39 14 63 58 46 85 -17 28 -16 30 18
30 25 0 30 -4 30 -24 0 -13 7 -30 16 -37 14 -11 18 -11 29 4 7 9 15 17 19 17
12 0 6 -48 -6 -53 -7 -2 -10 -8 -6 -12 15 -16 38 5 38 35 0 29 -39 80 -61 80
-12 0 -11 37 1 45 31 19 -18 95 -60 95 -22 0 -22 -1 -7 -18z m77 -162 c0 -11
-4 -20 -10 -20 -5 0 -10 2 -10 4 0 2 -3 11 -6 20 -4 11 -1 16 10 16 9 0 16 -8
16 -20z"/>
<path d="M2802 2738 c-14 -14 -16 -38 -4 -38 4 0 13 5 20 12 9 9 15 9 24 0 16
-16 -4 -38 -48 -52 -57 -19 -71 -70 -30 -109 19 -18 32 -22 51 -17 24 6 26 4
23 -21 -2 -24 -7 -28 -29 -25 -33 4 -57 -22 -40 -42 7 -9 8 -17 2 -20 -15 -10
-41 5 -41 22 0 12 -3 13 -11 5 -21 -21 -2 -43 38 -43 26 0 45 8 65 27 l28 27
23 -22 c24 -23 57 -30 57 -12 0 6 9 10 20 10 19 0 40 27 40 51 0 9 -3 9 -14 0
-8 -7 -31 -11 -53 -10 -21 1 -46 -2 -56 -6 -16 -7 -18 -4 -15 21 2 24 8 29 30
29 37 1 58 22 58 60 0 26 -13 48 -56 99 -31 36 -59 66 -63 66 -4 0 -12 -5 -19
-12z m18 -278 c0 -5 -9 -10 -20 -10 -11 0 -20 5 -20 10 0 6 9 10 20 10 11 0
20 -4 20 -10z"/>
<path d="M9898 2660 c-60 -75 -66 -97 -37 -134 16 -21 27 -26 45 -22 17 5 24
2 24 -8 0 -8 3 -21 6 -30 5 -12 -3 -14 -53 -9 -32 3 -64 11 -71 16 -11 9 -13
6 -10 -13 1 -14 13 -29 26 -35 12 -5 22 -13 22 -17 0 -15 31 -8 61 14 l29 22
15 -21 c8 -11 28 -26 45 -33 25 -10 34 -10 55 4 14 9 23 21 19 27 -4 7 -12 5
-23 -5 -20 -18 -51 -21 -51 -6 0 6 5 10 11 10 6 0 9 10 7 23 -2 18 -8 22 -36
19 -29 -2 -32 1 -32 26 0 24 4 27 31 27 23 0 37 8 52 27 28 37 12 71 -48 100
-29 14 -45 29 -45 40 0 20 20 24 38 6 15 -15 26 -4 19 17 -13 33 -51 16 -99
-45z m107 -219 c3 -5 1 -12 -4 -15 -12 -8 -41 3 -41 15 0 12 37 12 45 0z"/>
<path d="M2990 2250 c0 -43 5 -103 11 -132 11 -52 85 -225 93 -217 3 2 -4 35
-15 74 -10 38 -24 119 -30 179 -19 179 -59 244 -59 96z"/>
<path d="M9767 2289 c-8 -13 -22 -79 -31 -149 -14 -111 -29 -183 -51 -245 l-7
-20 17 20 c24 28 70 131 83 186 17 70 25 181 14 208 l-9 25 -16 -25z"/>
<path d="M5904 1182 c-49 -7 -76 -79 -40 -105 16 -11 15 -15 -8 -36 -48 -45
-29 -151 27 -151 9 0 17 5 17 10 0 6 -9 10 -20 10 -10 0 -24 9 -30 20 -9 17
-8 20 12 17 29 -3 36 28 12 54 -17 19 -17 21 4 41 l21 22 10 -26 c11 -30 41
-43 76 -34 38 10 49 39 34 97 -9 36 -10 52 -2 60 15 15 33 3 33 -22 0 -10 5
-19 10 -19 18 0 24 31 9 45 -13 12 -120 24 -165 17z m-30 -222 c-14 -14 -39
14 -29 31 5 8 12 6 23 -5 11 -11 13 -19 6 -26z"/>
<path d="M6710 1165 c-13 -16 -7 -45 10 -45 5 0 10 9 10 19 0 24 12 32 30 21
11 -7 11 -16 2 -48 -17 -55 -15 -76 7 -96 25 -23 80 -18 95 9 6 11 12 22 13
24 2 2 12 -4 23 -14 l20 -18 -21 -23 c-25 -26 -19 -54 10 -54 14 0 19 -5 15
-15 -4 -8 -17 -15 -31 -15 -15 0 -23 -5 -21 -12 8 -22 27 -20 54 7 21 21 25
33 22 65 -3 38 -2 40 37 52 37 12 40 16 43 54 2 27 -3 45 -13 54 -13 10 -15 9
-15 -7 0 -11 -11 -30 -25 -43 -14 -13 -25 -32 -25 -42 0 -24 -13 -23 -36 3
-18 20 -18 22 -1 34 23 17 22 60 -3 85 -17 17 -33 20 -104 20 -62 0 -87 -4
-96 -15z m216 -200 c-7 -18 -26 -20 -26 -2 0 18 24 41 28 27 2 -6 1 -17 -2
-25z"/>
<path d="M5751 1123 c-5 -10 -5 -26 0 -40 6 -16 5 -23 -3 -23 -23 0 16 -28 48
-34 25 -6 31 -4 31 11 0 10 -13 33 -29 51 -16 18 -26 37 -23 43 4 5 2 9 -4 9
-5 0 -14 -8 -20 -17z"/>
<path d="M5590 1053 c-8 -3 -64 -35 -124 -71 -60 -36 -139 -78 -175 -94 l-66
-29 45 6 c118 16 218 59 312 133 64 50 68 77 8 55z"/>
<path d="M7171 1014 c70 -73 217 -141 344 -158 36 -5 37 -4 15 6 -120 55 -157
75 -240 127 -60 38 -106 61 -124 61 l-30 0 35 -36z"/>
<path d="M5520 11947 c0 -66 20 -97 62 -97 22 0 31 6 35 20 3 11 16 23 29 26
18 5 24 13 24 34 0 38 -26 57 -92 63 l-58 6 0 -52z"/>
<path d="M7190 11970 c-28 -28 -26 -64 4 -78 13 -6 27 -20 31 -31 7 -24 42
-28 70 -7 14 10 21 31 25 75 l6 61 -58 0 c-45 0 -63 -5 -78 -20z"/>
<path d="M5657 11864 c-13 -13 -7 -52 8 -58 27 -10 46 5 43 33 -3 26 -35 41
-51 25z"/>
<path d="M7145 11856 c-22 -16 -15 -50 11 -54 25 -4 47 19 38 41 -8 22 -29 28
-49 13z"/>
<path d="M5545 11805 c-20 -19 -25 -34 -25 -77 l0 -53 60 3 c48 3 63 8 75 25
20 28 20 67 0 67 -9 0 -24 13 -33 30 -21 36 -45 38 -77 5z"/>
<path d="M7225 11799 c-4 -11 -18 -24 -31 -29 -31 -12 -31 -44 1 -75 19 -20
34 -25 77 -25 l54 0 -6 59 c-3 32 -12 66 -19 75 -20 24 -68 21 -76 -5z"/>
<path d="M5381 11612 c-13 -25 9 -58 33 -49 22 8 20 30 -3 51 -18 17 -20 17
-30 -2z"/>
<path d="M7425 11606 c-22 -16 -14 -46 14 -46 21 0 33 22 25 45 -7 19 -15 19
-39 1z"/>
<path d="M5453 11523 c9 -2 23 -2 30 0 6 3 -1 5 -18 5 -16 0 -22 -2 -12 -5z"/>
<path d="M7350 11520 c8 -5 22 -9 30 -9 10 0 8 3 -5 9 -27 12 -43 12 -25 0z"/>
<path d="M2257 10418 c-44 -59 -50 -78 -37 -104 16 -29 36 -37 61 -24 10 6 30
8 44 4 20 -5 27 -1 36 19 17 37 5 67 -40 105 l-40 32 -24 -32z"/>
<path d="M10502 10382 c-45 -42 -51 -65 -26 -100 11 -16 21 -21 39 -16 13 3
32 1 43 -5 15 -8 23 -6 41 13 11 12 21 31 21 42 0 19 -57 104 -70 104 -4 0
-25 -17 -48 -38z"/>
<path d="M2020 10334 c-19 -7 -45 -13 -58 -13 -56 -2 -179 -88 -168 -118 3 -7
2 -13 -2 -13 -4 0 -31 -31 -59 -69 -54 -72 -113 -111 -167 -111 l-28 0 27 31
c14 18 39 58 56 90 33 66 39 95 7 35 l-20 -39 -34 59 c-19 32 -34 66 -34 74
-1 12 -3 11 -11 -2 -12 -21 2 -83 25 -113 26 -34 20 -80 -15 -109 -36 -31 -50
-32 -107 -6 -48 22 -53 9 -8 -24 22 -17 42 -21 99 -20 79 1 121 17 173 66 38
35 59 29 94 -26 35 -58 76 -86 123 -86 23 1 56 7 72 15 l30 13 -26 1 c-30 1
-51 22 -72 72 -23 56 -63 82 -119 76 l-47 -4 20 28 c41 58 68 71 136 67 59 -4
65 -7 107 -50 56 -56 99 -77 187 -92 52 -9 75 -18 98 -40 17 -16 32 -28 34
-25 2 2 14 19 26 37 35 51 55 57 116 37 66 -23 108 -15 159 30 32 28 35 35 20
35 -11 0 -35 -11 -54 -25 -39 -29 -85 -40 -118 -28 -19 7 -6 15 83 47 57 21
110 46 117 54 12 14 10 14 -12 0 -14 -9 -35 -19 -47 -23 -21 -6 -22 -4 -12 25
9 25 8 34 -4 48 -9 10 -20 29 -26 42 l-10 25 0 -28 c-1 -15 6 -39 15 -52 10
-15 14 -34 10 -49 -5 -21 -20 -30 -99 -55 l-92 -29 -7 28 c-11 40 -35 57 -58
42 -11 -6 -32 -9 -49 -6 -33 7 -51 -15 -51 -60 0 -25 -2 -26 -42 -20 -60 9
-132 41 -160 71 l-23 26 30 -8 c17 -4 48 -11 70 -16 22 -4 51 -11 65 -14 18
-5 33 0 50 13 22 18 23 22 12 46 -8 19 -9 33 -2 46 8 15 5 22 -12 34 -12 9
-32 16 -43 16 -24 0 -116 -90 -99 -97 6 -2 20 -11 30 -19 18 -14 16 -15 -19
-9 -21 3 -58 15 -82 25 -77 33 -122 42 -160 31 -19 -5 -35 -8 -35 -5 0 11 63
34 94 34 61 0 121 34 147 83 11 19 7 20 -41 1z"/>
<path d="M2380 10300 c-22 -22 -25 -36 -9 -46 6 -4 8 -20 5 -40 -7 -36 11 -54
54 -54 18 0 100 74 100 90 -1 10 -97 70 -113 70 -9 0 -26 -9 -37 -20z"/>
<path d="M2647 10308 c-7 -23 5 -48 24 -48 25 0 35 26 19 45 -15 18 -37 19
-43 3z"/>
<path d="M10770 10312 c0 -6 14 -24 30 -41 32 -31 83 -51 133 -51 26 0 87 -25
87 -35 0 -2 -12 0 -26 5 -38 15 -68 12 -132 -11 -74 -28 -146 -48 -151 -43 -3
3 5 11 17 20 l23 15 -32 41 c-44 54 -71 66 -104 44 -21 -14 -25 -23 -21 -42 4
-13 2 -34 -5 -45 -8 -17 -7 -25 8 -41 15 -17 25 -19 72 -13 29 4 73 13 97 20
53 16 56 5 9 -30 -37 -29 -112 -55 -157 -55 -24 0 -28 4 -28 29 0 35 -24 57
-57 53 -13 -2 -31 2 -40 9 -13 11 -19 9 -39 -14 -13 -16 -24 -35 -24 -43 0
-19 -2 -18 -93 12 -103 34 -129 62 -93 103 18 21 29 71 16 71 -5 0 -10 -6 -10
-12 0 -7 -9 -24 -19 -37 -14 -18 -17 -31 -11 -53 10 -34 -1 -36 -50 -7 -25 15
-30 16 -19 4 9 -9 62 -34 118 -54 56 -21 98 -41 94 -44 -11 -11 -77 -8 -99 6
-78 45 -87 48 -97 38 -8 -8 -7 -11 2 -11 7 0 29 -13 48 -30 27 -24 42 -30 81
-30 26 1 58 7 71 14 34 19 67 8 97 -33 15 -20 29 -38 31 -40 2 -2 21 10 42 27
30 24 50 32 80 32 63 0 139 34 192 86 78 76 163 79 233 7 43 -45 45 -54 7 -43
-61 17 -107 -12 -146 -93 -15 -31 -29 -45 -54 -53 l-35 -11 52 -12 c83 -20
124 -1 177 82 32 50 51 53 95 13 41 -36 119 -66 177 -66 44 0 111 28 124 51
12 24 11 23 -42 -1 -58 -26 -72 -25 -108 6 -38 32 -39 55 -5 128 14 31 24 68
22 83 l-4 28 -15 -35 c-9 -19 -28 -52 -42 -74 l-27 -39 -15 37 c-8 20 -17 36
-20 36 -11 0 22 -69 61 -126 39 -59 41 -64 21 -64 -43 1 -104 38 -148 90 -24
29 -54 63 -65 76 -12 13 -20 25 -17 28 9 9 -29 54 -67 80 -21 14 -67 32 -102
40 -34 8 -71 18 -80 21 -10 4 -18 3 -18 -3z"/>
<path d="M1651 10296 c-7 -8 -17 -27 -22 -43 -8 -26 -9 -25 -5 10 4 31 2 37
-15 37 -13 0 -19 -7 -19 -22 0 -35 15 -51 61 -64 35 -11 47 -10 71 2 18 9 28
22 26 32 -4 20 -38 29 -38 10 0 -8 -7 -23 -15 -34 -14 -18 -15 -17 -4 8 22 51
-9 101 -40 64z"/>
<path d="M10144 10279 c-18 -20 -18 -21 0 -35 24 -17 48 -1 44 29 -4 29 -21
31 -44 6z"/>
<path d="M10343 10258 l-42 -31 35 -43 c42 -51 62 -59 99 -42 22 10 26 17 21
40 -3 16 0 37 6 48 10 15 9 23 -6 39 -27 29 -64 25 -113 -11z"/>
<path d="M11143 10260 c-3 -13 -14 -20 -29 -20 -29 0 -39 -16 -23 -37 20 -23
51 -31 81 -21 22 8 28 16 28 37 0 26 -26 61 -44 61 -4 0 -10 -9 -13 -20z m0
-50 c3 -11 1 -20 -4 -20 -5 0 -9 9 -9 20 0 11 2 20 4 20 2 0 6 -9 9 -20z"/>
<path d="M11206 10253 c4 -10 7 -28 7 -40 -1 -30 3 -29 22 7 21 41 19 50 -11
50 -21 0 -25 -3 -18 -17z"/>
<path d="M2280 10246 c-27 -33 18 -72 48 -42 13 13 14 20 6 34 -15 23 -38 26
-54 8z"/>
<path d="M10497 10216 c-11 -28 4 -47 32 -44 20 2 26 8 26 28 0 20 -6 26 -26
28 -17 2 -29 -3 -32 -12z"/>
<path d="M1350 10004 c0 -3 11 -19 25 -36 35 -41 41 -74 22 -114 -19 -40 -49
-50 -103 -35 -22 6 -55 11 -74 11 -67 0 -58 -15 21 -34 43 -10 79 -22 79 -27
0 -4 -13 -16 -30 -26 -16 -9 -30 -21 -30 -26 0 -15 56 31 114 93 l56 61 0 -49
c0 -31 -8 -65 -22 -93 -29 -56 -108 -156 -129 -162 -9 -2 -28 -29 -42 -58 -21
-43 -26 -72 -29 -146 -3 -89 -2 -91 16 -75 37 34 46 68 44 156 -2 51 1 89 8
96 8 8 9 2 6 -19 -4 -32 24 -98 83 -191 41 -64 44 -78 11 -56 -24 15 -26 14
-57 -25 -37 -46 -40 -82 -11 -112 18 -17 23 -18 36 -7 10 7 28 10 46 7 25 -6
32 -2 44 21 16 30 11 45 -46 155 -11 21 -17 41 -15 44 11 11 92 -76 113 -122
31 -64 30 -71 -5 -78 -36 -8 -58 -41 -41 -63 7 -7 9 -25 6 -39 -5 -19 -1 -28
18 -41 15 -9 33 -13 46 -9 24 8 24 -1 10 -114 -13 -98 -17 -102 -99 -96 l-66
5 54 -17 c42 -13 58 -14 72 -5 10 7 21 12 23 12 6 0 -11 -69 -21 -83 -4 -7 -1
-5 8 5 16 16 39 136 39 198 0 43 17 37 30 -9 8 -32 7 -48 -8 -88 -27 -69 -17
-96 14 -38 31 60 31 110 -1 157 -34 50 -32 87 5 123 17 16 30 32 30 36 0 3
-16 17 -35 30 -26 18 -40 38 -51 75 -24 73 -62 124 -129 169 -34 23 -64 53
-71 70 -27 63 -13 136 35 179 21 19 21 19 21 -18 0 -65 33 -95 119 -110 39 -7
71 -31 72 -55 0 -9 5 -3 9 13 21 70 -11 129 -88 163 -31 14 -65 32 -74 40 -17
15 -17 17 1 42 47 69 54 176 17 254 -16 32 -76 81 -76 61z"/>
<path d="M11447 9962 c-37 -23 -59 -74 -65 -154 -4 -59 -1 -74 23 -122 15 -30
24 -59 20 -66 -4 -7 -36 -25 -70 -40 -37 -16 -71 -40 -81 -55 -21 -32 -32
-135 -15 -135 6 0 11 6 11 13 0 24 34 46 87 57 63 14 95 46 103 103 l5 42 33
-44 c23 -32 32 -55 32 -83 0 -53 -27 -108 -64 -127 -75 -41 -140 -123 -160
-204 -4 -15 -23 -39 -45 -55 l-38 -28 33 -39 c40 -48 42 -77 9 -116 -37 -44
-43 -94 -16 -143 11 -23 21 -48 21 -56 0 -11 3 -11 12 -2 9 9 8 24 -6 66 -12
36 -16 66 -12 90 11 56 24 51 31 -11 10 -81 23 -142 24 -116 1 19 4 20 29 11
22 -9 38 -7 73 6 l44 16 -60 -5 c-87 -8 -93 -1 -101 117 -7 96 -7 97 15 91 11
-3 32 2 46 11 20 13 23 20 15 40 -6 17 -5 29 5 42 12 17 11 22 -7 42 -12 12
-32 22 -45 22 l-23 0 19 51 c24 62 59 108 101 133 18 10 31 15 28 10 -2 -5
-21 -45 -42 -88 -37 -74 -38 -81 -24 -105 11 -20 21 -25 42 -23 15 2 34 -2 41
-8 31 -26 76 31 61 77 -4 10 -20 33 -36 52 -29 34 -30 34 -50 16 -36 -33 -23
6 30 85 53 80 75 137 65 173 -5 17 -4 19 4 7 6 -8 10 -54 9 -101 -1 -73 2 -91
20 -121 40 -65 48 -56 42 51 -5 81 -10 104 -34 149 -16 28 -34 52 -40 53 -16
0 -119 133 -133 171 -14 41 -17 118 -3 118 6 0 10 -4 10 -8 0 -13 87 -99 124
-123 l31 -21 -32 29 c-18 16 -33 32 -33 35 0 3 12 8 28 11 15 3 52 12 82 20
l55 14 -40 8 c-24 5 -56 4 -82 -3 -71 -19 -91 -16 -113 21 -27 44 -25 67 11
116 17 24 29 44 27 46 -2 2 -16 -4 -31 -13z"/>
<path d="M1150 9742 c0 -28 10 -33 34 -17 36 26 41 16 6 -13 -50 -42 -26 -82
32 -51 11 6 22 8 25 5 3 -3 -6 -10 -21 -16 -23 -8 -25 -13 -16 -30 15 -29 29
-25 45 14 13 31 13 37 -8 74 -12 23 -31 43 -42 46 -37 10 -55 6 -55 -12z"/>
<path d="M11614 9714 c-10 -8 -13 -12 -6 -9 7 4 22 -1 33 -11 22 -20 46 -7 36
20 -8 20 -38 20 -63 0z"/>
<path d="M11576 9665 c-18 -28 -13 -67 11 -87 12 -10 18 -9 29 7 13 17 12 21
-11 32 -14 8 -25 16 -25 19 0 2 9 0 19 -6 50 -26 90 3 56 40 -25 27 -59 25
-79 -5z"/>
<path d="M1234 9127 c-11 -7 -35 -28 -52 -48 l-31 -36 43 -32 c52 -36 87 -39
116 -9 18 19 18 23 5 38 -12 13 -13 23 -6 43 9 24 7 28 -19 42 -34 18 -30 17
-56 2z"/>
<path d="M1351 9087 c-18 -23 -2 -49 28 -45 20 2 26 8 26 28 0 29 -34 40 -54
17z"/>
<path d="M11528 9089 c-13 -7 -16 -17 -11 -39 3 -18 0 -36 -8 -46 -12 -14 -9
-20 15 -41 19 -16 34 -22 48 -17 24 7 97 56 98 65 0 3 -16 24 -36 47 -37 43
-69 53 -106 31z"/>
<path d="M11422 9058 c-16 -16 -15 -23 4 -42 21 -22 56 -3 52 27 -3 25 -37 34
-56 15z"/>
<path d="M1406 9005 c-12 -10 -25 -11 -42 -5 -19 8 -26 5 -39 -13 -25 -35 -18
-58 32 -103 l46 -43 34 47 c39 55 41 81 11 110 -20 18 -25 19 -42 7z"/>
<path d="M11373 8968 c-26 -34 -23 -52 13 -105 l37 -54 44 43 c29 28 43 51 43
69 0 32 -30 62 -50 49 -8 -5 -21 -5 -31 1 -24 13 -45 11 -56 -3z"/>
<path d="M1377 8719 c-23 -13 -22 -26 4 -39 20 -11 49 1 49 21 0 16 -35 28
-53 18z"/>
<path d="M11413 8693 c-18 -6 -16 -42 2 -49 17 -7 45 12 45 31 0 14 -28 24
-47 18z"/>
<path d="M693 5773 c-19 -7 -16 -31 5 -42 23 -12 45 1 40 25 -3 19 -23 27 -45
17z"/>
<path d="M12064 5725 c-11 -27 11 -40 42 -27 31 15 27 36 -9 40 -18 2 -29 -2
-33 -13z"/>
<path d="M791 5695 c-1 -11 -4 -31 -6 -45 l-6 -25 11 25 c6 13 9 33 7 45 -4
19 -4 19 -6 0z"/>
<path d="M12015 5689 c-4 -6 -5 -12 -2 -15 2 -3 7 2 10 11 7 17 1 20 -8 4z"/>
<path d="M640 5683 c0 -13 36 -32 62 -33 31 0 58 -23 58 -49 0 -19 -29 -108
-50 -153 -11 -23 -16 -25 -32 -17 -32 17 -73 7 -76 -18 -2 -13 -12 -29 -24
-37 -24 -17 -17 -52 15 -78 21 -16 21 -17 3 -37 -34 -38 -111 -80 -156 -86
l-45 -6 25 18 c44 32 115 95 123 110 14 23 -1 63 -23 63 -11 0 -25 9 -32 20
-17 27 -52 25 -76 -4 -17 -22 -18 -31 -9 -81 10 -56 11 -56 41 -49 28 6 29 5
17 -10 -7 -9 -49 -37 -93 -64 -57 -33 -87 -58 -104 -87 -17 -29 -24 -34 -24
-20 0 11 6 30 13 41 61 105 73 160 42 200 -13 17 -14 18 -15 1 0 -10 -14 -46
-32 -80 -27 -51 -32 -74 -33 -130 0 -37 5 -71 10 -75 15 -10 45 -148 45 -205
0 -29 -8 -64 -22 -90 l-21 -42 -12 50 c-12 52 -60 165 -70 165 -3 0 4 -18 15
-40 l20 -40 -47 7 c-27 3 -66 12 -88 19 l-40 13 32 -29 c21 -19 48 -31 79 -36
92 -14 124 -88 63 -145 -17 -16 -42 -32 -55 -35 -13 -3 -24 -10 -24 -15 0 -22
72 0 108 34 49 46 76 107 82 187 l5 75 83 3 c112 4 135 20 173 119 l10 28 -23
-23 c-28 -25 -49 -27 -113 -10 -38 10 -50 9 -79 -5 -19 -9 -43 -31 -52 -49
-16 -30 -18 -31 -25 -13 -4 11 -8 40 -8 65 -2 85 63 150 149 150 59 1 119 29
178 84 31 29 62 48 83 52 60 10 59 9 43 59 -12 41 -12 51 1 76 9 16 22 29 30
29 8 0 29 13 47 29 30 26 33 36 38 100 4 60 3 68 -9 57 -7 -8 -16 -36 -18 -62
-5 -47 -42 -114 -63 -114 -5 0 2 32 15 71 l24 71 -21 29 c-13 17 -31 29 -44
29 -13 0 -34 4 -48 10 -14 5 -26 7 -26 3z"/>
<path d="M12112 5643 c-32 -3 -46 -10 -59 -30 l-17 -26 -13 29 c-22 52 -14 11
16 -81 17 -49 28 -91 26 -94 -7 -7 -36 21 -51 50 -8 16 -14 46 -14 67 0 22 -6
45 -13 51 -11 9 -14 1 -16 -42 -2 -65 23 -108 78 -136 47 -25 58 -59 38 -119
l-14 -40 46 -7 c37 -5 55 -16 90 -52 58 -58 107 -82 188 -92 60 -7 70 -12 105
-49 34 -37 38 -46 37 -94 0 -29 -4 -62 -8 -73 -8 -19 -8 -19 -15 2 -11 33 -63
73 -97 73 -16 0 -49 -5 -73 -12 -38 -10 -48 -9 -70 5 -14 10 -26 15 -26 12 0
-19 32 -74 55 -95 23 -22 36 -25 104 -26 43 -1 83 -4 90 -8 6 -4 11 -34 11
-69 1 -102 64 -206 137 -226 57 -16 59 -1 5 30 -55 31 -67 53 -58 105 8 39 19
46 97 63 35 7 65 21 79 36 l22 24 -43 -13 c-24 -7 -63 -16 -86 -19 l-42 -5 20
39 c10 21 17 39 14 39 -11 0 -66 -127 -74 -171 l-8 -44 -22 47 c-11 25 -22 63
-23 85 -1 46 32 195 47 205 5 4 10 38 10 75 0 56 -6 80 -31 133 -18 36 -34 72
-37 80 -3 10 -8 5 -17 -15 -16 -40 -5 -101 26 -146 28 -41 48 -99 33 -99 -5 0
-9 6 -9 14 0 26 -50 74 -113 109 -34 20 -73 47 -87 62 l-25 26 28 -10 c16 -6
30 -11 31 -11 2 0 8 25 15 55 14 62 5 90 -34 105 -20 8 -29 5 -49 -15 -14 -14
-32 -25 -39 -25 -17 0 -29 -38 -19 -56 9 -15 105 -99 130 -113 33 -18 3 -23
-51 -7 -34 10 -71 31 -100 57 -52 45 -56 55 -27 64 31 10 37 52 11 76 -11 11
-21 29 -21 39 0 25 -40 36 -70 20 -28 -15 -31 -11 -65 92 -30 89 -24 118 24
118 16 0 39 9 52 20 13 10 22 19 19 18 -3 -1 -24 -3 -48 -5z"/>
<path d="M595 5605 c-27 -8 -56 -22 -63 -32 -19 -26 -11 -67 13 -71 11 -2 29
-14 40 -27 19 -22 22 -23 53 -10 27 12 32 19 32 47 0 45 -11 108 -19 107 -3 0
-28 -7 -56 -14z"/>
<path d="M12139 5534 c-15 -65 -3 -100 36 -110 20 -5 30 -1 41 14 8 11 24 22
36 24 43 6 35 79 -9 96 -16 6 -42 15 -60 20 l-32 11 -12 -55z"/>
<path d="M384 5559 l-42 -10 13 -50 c18 -68 31 -81 74 -77 29 2 37 8 39 26 2
12 12 27 23 32 26 14 24 36 -6 65 -26 27 -37 28 -101 14z"/>
<path d="M12317 5513 c-19 -21 -23 -63 -6 -63 5 0 17 -16 25 -35 12 -29 19
-35 44 -35 20 0 34 7 44 23 15 22 40 106 34 112 -2 2 -30 7 -63 10 -52 6 -62
4 -78 -12z"/>
<path d="M507 5454 c-13 -14 -7 -43 12 -53 27 -15 60 11 45 36 -12 19 -45 29
-57 17z"/>
<path d="M12252 5421 c-8 -4 -12 -19 -10 -32 2 -18 9 -24 28 -24 28 0 39 27
20 50 -14 17 -20 18 -38 6z"/>
<path d="M135 4999 c-4 -5 0 -18 9 -28 9 -10 16 -21 16 -26 0 -4 -11 4 -25 19
-13 14 -34 26 -46 26 -19 0 -21 -4 -15 -32 3 -18 14 -39 23 -45 9 -7 12 -13 5
-13 -6 0 -19 12 -28 26 -15 22 -19 24 -32 10 -13 -12 -13 -18 -2 -30 40 -50
160 28 136 89 -6 17 -32 20 -41 4z"/>
<path d="M12624 4956 c-9 -36 2 -58 41 -83 40 -27 64 -29 91 -9 17 14 18 16 3
31 -15 15 -17 14 -33 -9 -9 -14 -22 -26 -28 -26 -7 0 -4 6 6 13 10 7 18 28 19
47 2 30 -1 35 -18 32 -11 -2 -30 -15 -42 -30 -13 -15 -23 -23 -23 -18 0 5 7
18 16 28 14 14 14 20 4 33 -18 21 -29 19 -36 -9z"/>
<path d="M124 4555 c-18 -13 -16 -14 26 -15 70 -1 86 -8 105 -50 22 -50 14
-72 -44 -113 -30 -22 -53 -48 -60 -68 l-11 -33 22 21 c13 11 44 34 70 51 l47
31 4 -42 c3 -37 4 -36 5 13 1 31 -4 80 -12 110 -8 30 -13 56 -11 58 6 7 86
-72 100 -97 7 -15 18 -55 25 -91 6 -36 15 -73 20 -82 6 -10 6 -19 1 -23 -26
-15 43 -143 93 -175 20 -11 47 -35 61 -51 l25 -31 0 34 c0 43 -32 95 -73 116
-37 20 -97 78 -97 95 0 6 7 2 15 -9 23 -34 76 -53 174 -63 96 -10 156 -30 92
-31 -31 0 -33 -2 -27 -26 4 -15 10 -39 13 -55 7 -38 35 -61 70 -57 20 2 29 9
31 26 2 12 12 28 23 35 41 25 14 79 -46 90 -16 3 -55 12 -85 20 -55 14 -55 15
-27 26 40 16 116 14 170 -5 46 -16 57 -27 37 -39 -5 -3 -10 -22 -10 -41 0 -30
3 -34 25 -34 14 0 30 -9 37 -20 17 -27 44 -25 72 5 l23 25 67 -65 c53 -52 66
-71 66 -95 0 -23 -6 -33 -23 -39 -25 -10 -40 -26 -50 -54 -7 -19 0 -14 71 44
6 5 12 22 12 36 0 26 0 26 21 7 12 -10 28 -32 35 -49 7 -16 13 -23 14 -15 0
23 -25 57 -99 134 -61 63 -64 68 -36 61 35 -8 71 -38 91 -77 8 -15 23 -32 34
-38 18 -10 18 -9 4 17 -7 16 -14 33 -14 39 0 7 -16 26 -35 43 -28 24 -45 31
-78 31 -60 1 -88 25 -94 84 l-6 48 -36 -8 c-51 -11 -80 -9 -126 9 -54 22 -130
21 -196 -1 -95 -32 -175 1 -203 85 -24 70 -21 79 15 49 39 -33 85 -34 130 -1
19 13 45 32 58 41 19 15 28 16 54 6 l31 -12 -34 35 c-57 58 -111 63 -190 17
-70 -40 -78 -39 -101 15 -26 63 -72 110 -134 139 -57 27 -103 30 -131 9z"/>
<path d="M12532 4504 c-62 -31 -107 -80 -123 -134 -15 -50 -38 -52 -112 -10
-77 43 -129 37 -184 -22 l-23 -24 35 4 c28 3 42 -2 71 -28 64 -56 107 -61 166
-18 l29 20 -7 -29 c-13 -58 -39 -98 -79 -120 -47 -26 -82 -29 -131 -8 -59 24
-123 28 -184 9 -61 -18 -112 -22 -150 -10 -25 7 -26 5 -37 -46 -13 -65 -4 -92
36 -106 26 -9 31 -8 46 14 8 13 24 24 35 24 24 0 36 40 21 68 -15 29 -15 29
27 43 47 16 151 17 177 2 23 -14 21 -15 -70 -33 -75 -15 -86 -21 -105 -54 -14
-26 -14 -29 8 -43 12 -9 22 -26 22 -39 0 -14 6 -24 14 -24 8 0 21 -2 29 -5 24
-10 57 28 70 82 l14 51 -31 7 c-29 6 -30 7 -9 15 12 5 57 12 100 16 82 7 134
23 167 52 18 16 18 16 8 -5 -13 -24 -43 -49 -91 -75 -32 -17 -70 -84 -71 -122
0 -15 7 -12 39 17 22 20 51 43 66 53 37 24 78 99 81 148 4 68 33 187 55 223
19 30 77 83 91 83 3 0 0 -17 -8 -37 -7 -21 -13 -72 -12 -113 1 -46 3 -58 5
-32 l4 42 60 -41 c32 -23 59 -46 59 -50 0 -5 5 -9 10 -9 22 0 -30 78 -69 103
-46 31 -59 64 -41 108 17 39 37 49 102 49 49 1 51 2 34 15 -30 22 -86 18 -144
-11z"/>
<path d="M217 4274 c-33 -18 -41 -41 -17 -54 27 -15 30 -13 30 19 0 17 4 32 9
36 6 3 7 -9 4 -30 -3 -21 -1 -41 7 -50 12 -14 15 -14 31 1 11 10 19 28 19 41
0 13 4 22 10 18 6 -3 6 -15 0 -29 -7 -20 -5 -25 11 -29 26 -7 36 17 19 47 -16
31 -88 48 -123 30z"/>
<path d="M12516 4241 c-63 -10 -102 -81 -45 -81 18 0 20 5 15 33 l-6 32 16
-37 c8 -20 22 -39 30 -42 19 -7 37 31 30 66 -3 18 -2 27 4 23 6 -3 10 -17 10
-31 0 -17 5 -24 20 -24 11 0 20 7 20 15 0 14 -39 56 -49 54 -3 -1 -24 -5 -45
-8z"/>
<path d="M11765 4020 c-3 -5 -24 -10 -46 -10 -22 0 -53 -7 -68 -14 -30 -16
-61 -56 -61 -79 0 -8 -7 -20 -15 -27 -19 -16 -14 -23 9 -14 9 4 25 23 36 44
21 40 52 65 96 76 25 6 18 -5 -53 -78 -46 -47 -83 -92 -83 -99 0 -8 9 0 19 17
28 46 38 48 45 9 4 -19 11 -35 16 -35 5 0 22 -12 39 -26 46 -38 38 -7 -9 36
-22 20 -40 46 -40 57 0 12 28 47 70 87 39 36 66 66 61 66 -6 0 -13 -4 -16 -10z"/>
<path d="M840 4005 c-19 -23 -8 -50 20 -50 16 0 26 6 28 18 4 18 -14 47 -28
47 -4 0 -13 -7 -20 -15z"/>
<path d="M948 3993 c-10 -2 -18 -13 -18 -23 0 -11 -10 -28 -21 -39 -26 -24
-20 -65 12 -81 21 -12 129 4 129 19 0 4 -7 31 -16 60 -11 39 -21 54 -40 61
-14 6 -26 9 -27 9 -1 -1 -10 -3 -19 -6z"/>
<path d="M11904 3958 c-9 -28 20 -52 47 -37 11 5 19 14 19 19 0 42 -53 57 -66
18z"/>
<path d="M765 3950 c-38 -14 -47 -36 -40 -88 9 -71 13 -74 69 -57 64 19 76 31
76 71 0 27 -4 34 -20 34 -10 0 -29 11 -42 24 -17 18 -28 22 -43 16z"/>
<path d="M11781 3946 c-7 -8 -18 -37 -26 -65 -15 -56 -17 -53 57 -66 50 -9 74
0 88 36 12 27 11 32 -8 45 -11 8 -22 24 -24 37 -2 17 -10 23 -39 25 -23 2 -40
-2 -48 -12z"/>
<path d="M11983 3901 c-7 -11 -23 -21 -35 -23 -29 -4 -37 -51 -13 -78 16 -17
111 -47 121 -38 2 3 7 32 10 65 6 55 5 61 -17 77 -31 21 -51 20 -66 -3z"/>
<path d="M1146 3785 c-24 -24 -20 -45 9 -45 31 0 43 26 23 46 -13 14 -17 14
-32 -1z"/>
<path d="M11604 3746 c-9 -22 4 -36 32 -36 21 0 25 4 22 23 -4 26 -45 37 -54
13z"/>
<path d="M3026 1415 c-24 -24 -20 -45 9 -45 31 0 43 26 23 46 -13 14 -17 14
-32 -1z"/>
<path d="M3154 1398 l28 -38 -31 0 c-23 0 -42 -10 -68 -35 -20 -19 -33 -35
-29 -35 13 0 50 22 73 42 37 34 63 18 116 -69 51 -86 54 -93 33 -93 -8 0 -24
-12 -35 -27 -19 -23 -20 -28 -6 -43 8 -9 15 -29 15 -44 0 -31 39 -52 69 -36
27 14 31 4 31 -74 0 -50 -6 -82 -21 -113 -11 -24 -24 -43 -27 -43 -4 0 -6 39
-5 86 1 48 -2 95 -7 105 -15 27 -48 34 -70 14 -12 -11 -26 -14 -39 -10 -17 5
-23 1 -32 -22 -7 -18 -7 -35 0 -49 10 -24 104 -80 109 -66 1 5 9 18 17 28 14
18 14 17 15 -10 0 -17 -5 -67 -12 -113 -9 -61 -9 -91 -1 -111 6 -15 14 -36 19
-47 7 -18 6 -18 -9 -7 -9 8 -26 39 -37 69 -11 31 -27 65 -35 76 -19 27 -66 57
-89 57 -18 0 -18 -1 -3 -18 9 -10 26 -39 37 -64 11 -26 32 -61 46 -77 32 -38
90 -75 109 -68 7 3 15 2 17 -2 2 -4 35 -22 75 -40 79 -37 124 -77 148 -133 16
-41 12 -46 -20 -22 -24 18 -139 54 -169 53 -11 -1 -1 -6 24 -11 l44 -10 -49
-47 c-28 -26 -57 -50 -65 -53 -8 -3 -13 -8 -10 -11 10 -10 78 20 116 51 45 38
75 40 116 10 30 -21 30 -23 25 -85 -5 -68 3 -81 23 -33 17 40 8 126 -19 177
-19 37 -65 85 -106 108 -16 10 -16 14 -5 35 7 14 30 45 52 69 30 35 38 52 38
83 0 45 -42 136 -47 103 -10 -55 -16 -65 -48 -85 -59 -36 -78 -99 -50 -163 6
-16 4 -16 -21 -7 -88 34 -133 150 -84 213 46 58 61 113 59 206 -2 74 1 94 18
123 l21 36 -48 22 c-57 27 -71 51 -58 99 13 47 -5 104 -40 130 -15 11 -35 28
-44 38 -17 15 -18 15 -18 -1 0 -9 18 -34 39 -55 37 -36 63 -102 48 -118 -3 -3
-31 33 -61 79 -30 47 -63 91 -73 99 -9 8 -4 -3 11 -23z"/>
<path d="M9547 1378 c-54 -44 -71 -81 -63 -140 8 -62 -4 -85 -60 -109 l-44
-20 21 -40 c17 -34 19 -51 14 -104 -8 -74 11 -152 50 -204 19 -27 25 -47 25
-85 0 -65 -25 -106 -81 -134 -46 -23 -60 -22 -39 3 7 8 13 33 14 56 1 37 -4
45 -57 93 -43 40 -57 60 -58 82 -1 27 -2 25 -25 -21 -32 -64 -26 -104 21 -156
20 -22 41 -52 48 -66 10 -23 9 -28 -8 -37 -11 -6 -39 -30 -62 -53 -43 -43 -73
-115 -73 -175 0 -27 25 -88 36 -88 2 0 2 29 -2 63 -6 62 -6 64 22 84 51 36 64
34 133 -17 29 -22 64 -40 78 -40 22 0 20 4 -24 38 -26 21 -54 46 -61 55 -15
17 -17 16 53 30 15 4 14 5 -6 6 -32 1 -125 -26 -156 -46 -30 -20 -39 -11 -24
25 19 45 69 88 146 123 39 18 73 37 76 42 4 5 12 7 18 3 31 -20 112 58 163
157 33 62 34 67 16 67 -31 0 -94 -70 -107 -118 -7 -23 -23 -54 -37 -69 l-25
-28 15 32 c19 38 21 68 12 193 -5 79 -4 91 6 70 6 -14 13 -26 14 -28 1 -2 25
9 53 25 55 29 68 53 57 99 -6 21 -11 25 -30 20 -15 -4 -28 0 -36 9 -17 20 -43
19 -64 -4 -13 -14 -17 -39 -17 -111 -1 -93 -1 -93 -20 -69 -25 32 -42 122 -34
175 5 39 8 42 28 35 12 -5 34 -4 50 2 23 8 27 14 23 32 -4 14 0 28 9 35 8 7
15 20 15 30 0 19 -30 50 -48 50 -7 0 -12 2 -12 5 0 11 33 69 68 122 39 60 62
66 101 29 15 -13 37 -27 51 -31 21 -7 19 -3 -14 28 -23 22 -50 37 -68 39 l-31
3 29 35 c18 22 20 28 7 16 -12 -10 -45 -54 -74 -97 -28 -44 -54 -77 -57 -75
-15 15 13 83 49 118 21 21 39 45 39 53 0 19 2 20 -43 -17z"/>
<path d="M9720 1395 c-18 -21 -5 -45 25 -45 29 0 33 20 9 44 -19 19 -19 19
-34 1z"/>
<path d="M3088 1227 c-29 -68 -23 -103 18 -125 17 -9 24 -7 37 8 10 12 23 17
37 13 39 -10 57 60 23 89 -15 12 -90 58 -96 58 -1 0 -10 -19 -19 -43z"/>
<path d="M9616 1221 c-55 -31 -68 -53 -53 -94 7 -22 14 -27 31 -23 13 3 28 -2
42 -15 21 -19 21 -19 47 2 15 11 27 30 27 43 0 20 -37 118 -43 115 -1 -1 -24
-13 -51 -28z"/>
<path d="M3022 1078 c-5 -7 -19 -32 -31 -55 l-21 -43 40 -20 c55 -28 95 -26
116 5 16 24 15 27 0 44 -10 11 -16 28 -15 38 5 29 -10 43 -45 43 -19 0 -38 -6
-44 -12z"/>
<path d="M3162 1078 c-30 -30 1 -73 36 -51 23 14 25 29 7 47 -20 19 -27 20
-43 4z"/>
<path d="M9570 1056 c-27 -33 18 -72 48 -42 13 13 14 20 6 34 -15 23 -38 26
-54 8z"/>
<path d="M9671 1061 c-8 -5 -11 -16 -7 -27 4 -11 -1 -25 -14 -39 l-20 -22 21
-26 c25 -32 51 -34 113 -8 l45 20 -26 48 c-15 26 -32 51 -37 55 -15 10 -58 10
-75 -1z"/>
<path d="M4652 653 c-18 -9 -41 -28 -52 -43 -27 -38 -61 -42 -111 -13 -23 13
-43 22 -44 21 -1 -2 -12 -22 -23 -44 -14 -27 -37 -51 -66 -68 -62 -36 -114
-101 -132 -164 -29 -98 -121 -138 -219 -93 l-40 18 36 12 c62 20 83 52 85 128
1 61 4 69 30 90 l29 24 -40 -7 c-88 -15 -121 -47 -136 -132 -6 -33 -16 -68
-23 -77 -11 -16 -16 -16 -62 0 -57 19 -115 14 -181 -17 -49 -23 -93 -70 -93
-99 0 -14 10 -8 42 27 37 40 45 44 72 38 63 -13 76 -28 76 -95 0 -36 7 -74 17
-97 l18 -37 3 88 3 87 37 -26 37 -26 -40 36 c-22 20 -63 48 -92 63 -62 33 -53
44 35 46 43 1 73 -6 119 -27 35 -16 68 -34 74 -42 6 -7 17 -10 25 -7 9 3 14 0
12 -8 -4 -16 82 -48 127 -48 17 0 63 8 104 18 74 17 74 18 50 34 -29 21 -102
22 -159 2 -23 -8 -57 -15 -74 -14 -29 0 -29 1 12 14 30 9 68 37 128 95 82 79
114 97 81 47 -15 -23 -14 -24 29 -45 59 -29 88 -28 113 5 19 23 20 28 6 43 -8
9 -15 29 -15 44 0 19 -7 29 -26 36 -35 14 -39 13 -66 -10 -12 -11 -47 -38 -76
-61 l-53 -42 15 37 c21 51 50 85 104 123 l46 33 12 -29 c16 -37 49 -49 74 -26
12 11 26 14 39 10 16 -5 23 -1 31 20 6 15 7 37 4 49 -7 27 3 31 113 42 90 8
103 0 103 -65 0 -67 17 -86 22 -25 3 38 0 55 -16 77 -21 27 -23 28 -98 22 -43
-3 -78 -3 -78 0 0 4 20 15 44 26 32 14 55 17 89 13 25 -4 54 -3 64 1 14 5 6
10 -32 21 -64 17 -73 17 -113 -3z"/>
<path d="M8005 646 c-44 -11 -47 -14 -27 -20 13 -5 43 -5 67 -2 44 7 105 -10
120 -33 5 -9 -13 -10 -69 -5 -72 6 -77 5 -95 -17 -15 -18 -20 -39 -20 -79 0
-53 0 -54 14 -30 8 14 12 38 9 55 -4 23 0 35 15 49 17 16 30 18 83 12 122 -13
129 -15 122 -42 -3 -13 -3 -35 0 -49 5 -20 11 -24 29 -19 15 3 28 0 36 -10 8
-9 21 -16 31 -16 19 0 50 30 50 48 0 42 111 -43 144 -110 14 -28 23 -54 20
-57 -3 -3 -8 -1 -12 5 -19 29 -124 104 -146 104 -42 0 -56 -10 -50 -34 3 -14
-1 -27 -10 -35 -21 -18 -20 -44 2 -64 24 -22 50 -21 106 4 47 20 47 21 31 45
-30 47 7 24 80 -47 82 -81 95 -90 145 -100 34 -7 34 -7 -11 -8 -26 0 -63 6
-82 14 -46 19 -88 19 -132 1 -46 -20 -44 -30 5 -34 22 -1 52 -7 66 -12 61 -24
145 -8 218 40 106 69 207 94 273 69 l28 -11 -52 -24 c-28 -14 -71 -43 -95 -65
-30 -29 -33 -33 -8 -13 l35 27 7 -54 c4 -30 5 -70 2 -89 l-5 -35 20 35 c14 24
20 54 21 97 0 70 12 89 64 99 38 7 74 -12 101 -52 22 -34 36 -30 23 6 -28 81
-171 131 -281 98 -49 -15 -62 -2 -72 77 -3 31 -15 65 -27 81 -24 29 -74 54
-112 54 l-25 0 24 -25 c21 -20 25 -34 25 -87 0 -75 17 -103 75 -123 l40 -13
-45 -21 c-55 -25 -74 -26 -125 -2 -51 23 -69 44 -89 107 -20 62 -72 125 -133
161 -33 19 -50 38 -64 69 l-18 43 -43 -24 c-52 -29 -83 -25 -117 18 -24 29
-78 58 -103 56 -7 -1 -35 -7 -63 -13z"/>
<path d="M4783 603 c9 -2 23 -2 30 0 6 3 -1 5 -18 5 -16 0 -22 -2 -12 -5z"/>
<path d="M7968 593 c6 -2 18 -2 25 0 6 3 1 5 -13 5 -14 0 -19 -2 -12 -5z"/>
<path d="M7915 580 c-3 -6 1 -7 9 -4 18 7 21 14 7 14 -6 0 -13 -4 -16 -10z"/>
<path d="M4857 533 c-11 -10 -8 -51 3 -58 15 -9 40 14 40 35 0 10 -7 21 -16
24 -19 7 -19 7 -27 -1z"/>
<path d="M7881 516 c-13 -16 1 -56 19 -56 18 0 32 40 19 56 -6 8 -15 14 -19
14 -4 0 -13 -6 -19 -14z"/>
<path d="M4576 498 c-20 -29 -20 -44 0 -52 11 -4 15 -14 12 -31 -7 -32 12 -47
54 -43 28 3 37 10 60 53 15 28 28 52 28 55 0 9 -85 40 -112 40 -16 0 -33 -9
-42 -22z"/>
<path d="M3277 503 c-19 -18 -6 -42 26 -46 l32 -4 -36 -1 c-20 -1 -43 -9 -50
-18 -11 -14 -10 -18 6 -30 10 -8 33 -14 49 -14 21 0 27 -3 18 -9 -7 -4 -24 -6
-38 -3 -19 3 -24 0 -24 -17 0 -14 6 -21 18 -21 35 0 55 25 59 74 4 40 1 51
-18 72 -24 25 -31 28 -42 17z"/>
<path d="M8083 489 l-42 -19 21 -38 c33 -57 49 -72 77 -72 37 0 54 14 47 37
-4 12 -1 25 9 33 20 17 19 43 -3 63 -24 22 -56 20 -109 -4z"/>
<path d="M9452 467 c-27 -29 -28 -41 -3 -27 11 5 23 10 28 10 4 -1 -5 -8 -20
-16 -50 -27 -15 -78 40 -58 35 12 43 43 14 51 -16 4 -19 9 -11 18 12 15 3 45
-14 45 -7 0 -22 -10 -34 -23z"/>
<path d="M4490 426 c-27 -33 18 -72 48 -42 13 13 14 20 6 34 -15 23 -38 26
-54 8z"/>
<path d="M8230 416 c-27 -33 18 -72 48 -42 13 13 14 20 6 34 -15 23 -38 26
-54 8z"/>
<path d="M4555 350 c-12 -13 -25 -18 -38 -14 -23 7 -37 -10 -37 -47 0 -28 15
-44 73 -77 l38 -22 19 46 c30 70 26 100 -16 122 -18 9 -25 8 -39 -8z"/>
<path d="M9452 343 c28 -30 58 -30 58 0 0 19 -5 22 -40 22 l-40 1 22 -23z"/>
<path d="M8157 332 c-22 -24 -21 -50 4 -106 l20 -47 51 28 c56 31 70 54 55 96
-8 23 -14 27 -32 23 -14 -4 -28 0 -35 9 -17 20 -43 19 -63 -3z"/>
<path d="M3937 150 c-15 -12 -27 -30 -27 -40 0 -21 36 -50 62 -50 25 0 24 44
-2 70 -11 11 -16 20 -11 20 6 0 17 -10 25 -22 15 -21 17 -21 33 -5 36 35 -38
60 -80 27z"/>
<path d="M8751 136 c-9 -10 -8 -16 4 -26 13 -11 19 -9 36 6 l21 19 -18 -31
c-20 -36 -14 -67 13 -57 28 10 53 34 53 52 0 41 -83 69 -109 37z"/>
<path d="M3890 76 c0 -40 16 -55 35 -35 12 12 10 19 -11 42 l-24 28 0 -35z"/>
<path d="M8871 88 c-1 -9 -11 -24 -23 -33 -20 -13 -21 -17 -8 -25 8 -5 20 -10
26 -10 16 0 24 38 14 63 -7 17 -9 18 -9 5z"/>
</g>
</svg>
