<?xml version="1.0" standalone="no"?>
<!DOCTYPE svg PUBLIC "-//W3C//DTD SVG 20010904//EN"
 "http://www.w3.org/TR/2001/REC-SVG-20010904/DTD/svg10.dtd">
<svg version="1.0" xmlns="http://www.w3.org/2000/svg"
 width="1280.000000pt" height="1267.000000pt" viewBox="0 0 1280.000000 1267.000000"
 preserveAspectRatio="xMidYMid meet">
<metadata>
Created by potrace 1.15, written by Peter Selinger 2001-2017
</metadata>
<g transform="translate(0.000000,1267.000000) scale(0.100000,-0.100000)"
fill="#000000" stroke="none">
<path d="M3635 11214 c-16 -2 -73 -9 -125 -15 -362 -40 -788 -176 -1115 -356
-725 -399 -1226 -1047 -1420 -1836 -149 -604 -116 -1279 93 -1914 199 -601
579 -1214 1108 -1786 60 -65 138 -150 173 -188 l64 -70 -49 6 c-27 4 -78 2
-114 -5 -73 -12 -170 -55 -170 -74 0 -26 139 -184 219 -248 131 -105 282 -171
456 -198 78 -13 82 -15 145 -73 156 -146 450 -431 450 -436 0 -4 -49 9 -109
29 l-108 35 -28 52 c-35 67 -125 153 -201 191 -61 31 -186 62 -246 62 -53 0
-165 -27 -221 -53 -61 -28 -132 -85 -167 -134 -24 -35 -24 -35 -5 -50 70 -52
239 -117 362 -138 143 -25 253 -18 430 26 l82 21 68 -22 c151 -50 203 -81 281
-170 73 -82 74 -83 51 -95 -19 -11 -29 -9 -68 17 -64 40 -132 58 -222 58 -105
0 -173 -26 -247 -95 l-57 -53 50 -31 c115 -73 300 -120 419 -106 52 6 58 4 52
-10 -3 -9 -6 -30 -6 -46 0 -27 -2 -29 -42 -29 -24 0 -72 -5 -107 -10 l-63 -11
-52 39 c-94 72 -259 151 -290 139 -21 -8 -31 -93 -19 -164 16 -91 55 -166 122
-237 l60 -62 -25 -49 c-17 -34 -24 -62 -22 -87 2 -21 1 -38 -2 -38 -3 0 -14
21 -24 48 -72 174 -219 343 -386 442 -78 47 -243 111 -254 100 -6 -6 -12 -50
-14 -99 -3 -71 0 -104 16 -158 35 -113 121 -227 225 -295 l38 -25 -29 -12
c-31 -13 -52 -47 -52 -83 0 -15 -4 -18 -17 -13 -128 49 -307 24 -442 -62 -133
-85 -230 -244 -231 -380 0 -33 0 -33 49 -33 65 0 203 25 274 49 163 56 317
162 423 291 27 33 52 60 56 60 4 0 3 -13 -2 -30 -9 -32 1 -82 21 -106 12 -14
11 -20 -15 -92 -42 -114 -38 -266 9 -370 14 -30 25 -57 25 -61 0 -3 -34 -7
-75 -8 -72 -2 -180 -24 -218 -44 -17 -10 -17 -12 5 -51 28 -50 73 -90 141
-126 47 -24 62 -27 157 -27 111 0 159 15 219 69 21 19 20 15 -8 -34 -18 -30
-39 -69 -48 -87 -13 -26 -25 -34 -65 -42 -179 -39 -299 -219 -266 -401 10 -56
39 -123 59 -135 13 -8 86 60 134 126 74 100 112 201 122 325 6 79 7 84 60 155
41 56 52 67 46 44 -4 -16 -8 -70 -8 -120 0 -78 4 -97 28 -147 35 -72 98 -134
165 -166 45 -20 65 -23 130 -20 143 7 263 91 333 233 32 67 34 74 34 180 0 93
-3 118 -23 159 l-22 49 35 108 c19 60 35 116 35 125 0 42 11 -2 31 -117 11
-68 38 -194 60 -280 l39 -156 -35 -59 c-60 -99 -75 -187 -51 -296 37 -165 163
-298 310 -324 l38 -7 -4 139 c-4 118 -9 151 -32 219 -34 99 -90 196 -156 269
l-51 55 -23 178 c-13 98 -26 197 -29 220 l-5 43 34 0 c19 0 37 1 41 3 4 1 8
-50 8 -113 0 -104 3 -121 27 -172 37 -80 73 -125 141 -175 96 -70 224 -99 320
-72 45 12 45 13 -15 134 -75 154 -191 270 -349 349 -47 24 -92 45 -100 48 -11
4 -11 9 5 27 l19 21 22 -20 c32 -30 76 -26 111 10 35 35 44 37 44 9 0 -40 24
-101 51 -130 51 -55 121 -28 149 56 10 31 13 33 35 23 19 -9 29 -7 49 5 28 19
31 17 41 -33 4 -19 20 -68 36 -107 l29 -73 -25 -36 c-37 -55 -35 -125 4 -165
66 -66 197 -5 217 102 10 52 32 89 60 99 30 12 144 13 144 3 0 -5 -18 -63 -41
-130 l-41 -123 -41 0 c-65 0 -116 -35 -150 -102 -24 -45 -28 -63 -22 -95 15
-91 75 -143 165 -143 67 0 108 23 147 81 54 81 24 205 -57 239 -17 7 -29 18
-27 24 2 6 21 61 41 121 21 61 64 164 96 230 l58 120 1 -62 c1 -78 30 -169 76
-245 l37 -59 -26 -20 c-89 -70 -70 -219 35 -279 133 -74 277 29 246 178 -18
88 -130 158 -214 133 -32 -9 -34 -8 -59 35 -35 60 -59 141 -74 250 l-12 91 47
84 c26 46 49 86 52 88 2 3 10 -5 19 -17 8 -12 24 -22 34 -22 21 0 60 44 60 68
0 24 15 3 34 -51 10 -27 34 -69 53 -94 l34 -45 -23 -25 c-33 -35 -33 -111 0
-146 54 -57 127 -59 178 -6 24 25 29 39 29 79 0 43 -5 54 -33 82 -30 30 -38
33 -95 33 l-62 0 -37 75 c-22 43 -41 98 -44 129 -7 52 -6 53 15 46 12 -4 27
-2 34 4 9 7 25 1 57 -20 34 -23 53 -29 77 -26 30 5 41 -4 205 -171 278 -284
398 -446 588 -795 56 -103 103 -187 105 -187 1 0 51 89 110 198 169 311 269
450 498 699 292 318 647 621 1592 1363 592 465 827 657 1150 940 936 823 1518
1573 1824 2355 396 1008 331 2109 -172 2928 -479 781 -1335 1297 -2300 1388
-160 15 -552 6 -693 -15 -606 -91 -1105 -328 -1506 -715 -184 -177 -357 -396
-468 -593 -17 -32 -33 -58 -35 -58 -1 0 -22 33 -46 73 -179 303 -417 571 -686
774 -366 275 -779 443 -1277 519 -96 15 -597 28 -671 18z m511 -425 c278 -27
576 -110 819 -228 454 -222 793 -562 1020 -1025 70 -144 138 -325 270 -724 31
-95 58 -172 60 -170 2 2 53 151 114 332 124 364 158 452 237 606 109 213 248
404 416 571 367 364 868 589 1422 640 266 24 609 -2 874 -67 105 -26 358 -107
370 -119 3 -3 -4 -18 -16 -33 -76 -95 -117 -227 -109 -352 13 -190 107 -340
265 -423 66 -35 69 -38 86 -94 10 -32 36 -98 57 -147 22 -49 39 -91 39 -93 0
-3 -39 32 -87 76 -110 100 -247 210 -380 303 l-103 72 0 52 c0 266 -298 506
-578 465 -82 -12 -182 -54 -182 -76 0 -19 119 -163 177 -215 128 -114 280
-187 472 -225 113 -23 114 -23 170 -78 31 -30 118 -112 193 -183 75 -72 163
-159 196 -194 l59 -65 -109 35 c-106 35 -109 36 -130 79 -32 64 -119 154 -185
188 -147 79 -305 89 -458 32 -105 -39 -234 -159 -207 -192 19 -22 181 -94 277
-123 80 -24 106 -27 240 -28 133 0 162 3 257 28 122 32 119 32 295 -41 75 -32
88 -42 158 -121 75 -85 75 -86 53 -98 -19 -11 -28 -10 -53 7 -81 55 -115 64
-230 64 -100 0 -115 -3 -167 -28 -51 -25 -138 -99 -138 -117 0 -14 153 -87
230 -111 57 -18 100 -23 183 -23 85 -1 106 -4 102 -14 -3 -8 -5 -27 -5 -43 0
-27 -2 -29 -42 -29 -24 0 -71 -5 -104 -10 l-62 -10 -95 63 c-85 57 -214 117
-252 117 -18 0 -30 -92 -20 -165 9 -77 66 -186 130 -250 l53 -53 -24 -48 c-17
-33 -24 -61 -22 -86 2 -21 1 -38 -2 -38 -3 0 -18 30 -34 66 -66 147 -191 299
-314 383 -116 78 -305 160 -319 138 -4 -6 -9 -50 -11 -98 -5 -94 11 -166 53
-250 31 -59 115 -152 178 -194 44 -30 47 -34 28 -40 -33 -10 -61 -46 -61 -78
0 -24 -3 -28 -17 -22 -127 48 -308 23 -440 -61 -135 -86 -233 -244 -233 -375
l0 -39 58 0 c79 0 222 31 315 69 133 53 266 149 368 267 62 71 71 76 57 31 -9
-30 -7 -42 11 -80 l22 -45 -21 -52 c-48 -122 -46 -276 6 -389 13 -29 24 -56
24 -60 0 -3 -31 -7 -69 -8 -77 -2 -200 -28 -225 -46 -16 -12 -15 -17 16 -62
70 -105 171 -151 312 -143 84 5 145 27 195 72 21 19 20 15 -8 -34 -18 -30 -39
-69 -48 -87 -13 -26 -25 -34 -65 -42 -216 -47 -337 -296 -238 -490 11 -22 25
-43 32 -47 19 -12 139 124 182 205 43 82 76 202 76 276 0 47 5 58 56 126 31
41 53 65 49 54 -4 -11 -10 -42 -14 -70 -21 -157 60 -310 196 -372 46 -21 65
-25 131 -21 143 7 263 91 333 233 32 67 34 74 34 180 0 95 -3 116 -23 157
l-23 46 35 113 c20 62 36 119 36 127 0 40 12 -7 30 -114 22 -139 41 -223 77
-351 l25 -91 -31 -46 c-83 -120 -90 -266 -22 -413 52 -109 168 -202 276 -220
l35 -6 0 109 c0 60 -7 140 -15 179 -25 116 -99 256 -188 352 l-39 43 -24 177
c-13 98 -26 197 -28 221 l-6 42 35 0 c19 0 38 0 42 0 4 0 7 -51 7 -113 1 -105
3 -116 33 -180 64 -134 197 -231 335 -244 66 -6 122 0 147 16 11 7 4 27 -31
102 -58 120 -120 204 -205 274 -56 46 -194 126 -254 147 -11 4 -11 9 5 27 l19
21 22 -20 c30 -29 69 -25 108 10 41 36 47 37 47 8 0 -41 20 -97 46 -128 48
-56 116 -35 150 47 13 30 18 34 41 28 15 -3 34 0 49 10 23 15 23 15 44 -56 12
-38 30 -90 40 -115 l19 -44 -24 -36 c-17 -26 -25 -50 -25 -81 0 -54 12 -79 50
-101 l28 -18 -49 -124 c-280 -703 -823 -1398 -1695 -2167 -312 -274 -607 -514
-1404 -1139 -926 -726 -1293 -1066 -1660 -1536 -15 -19 -18 -16 -80 64 -108
139 -259 305 -431 473 -306 299 -611 555 -1359 1140 -895 700 -1300 1045
-1710 1455 -489 488 -813 910 -1059 1380 -501 957 -514 2072 -34 2878 130 219
351 473 547 632 408 329 905 527 1466 583 82 9 375 6 476 -4z m5863 -305 c58
-31 151 -86 206 -122 l100 -65 -50 -12 c-58 -12 -59 -15 -15 -112 35 -77 80
-143 142 -209 l49 -52 -33 -20 c-29 -18 -40 -19 -78 -11 -54 12 -129 3 -137
-17 -3 -8 11 -48 31 -90 32 -68 35 -81 26 -113 -5 -20 -10 -69 -10 -108 0 -66
-2 -73 -19 -73 -11 0 -22 -4 -25 -9 -11 -18 64 -148 118 -203 48 -49 56 -63
56 -95 l0 -38 -42 50 c-24 28 -68 77 -99 110 -65 69 -150 214 -213 365 l-44
105 20 90 c29 136 27 312 -5 436 -14 53 -41 131 -60 173 -20 42 -33 76 -30 76
4 0 54 -25 112 -56z m708 -576 c-3 -8 -6 -5 -6 6 -1 11 2 17 5 13 3 -3 4 -12
1 -19z m-100 -100 c38 -18 69 -33 70 -33 4 -1 -35 -147 -40 -152 -11 -11 -46
19 -56 47 -5 17 -19 43 -29 58 -20 27 -34 112 -20 112 4 0 38 -15 75 -32z
m193 -38 c33 0 41 -5 60 -36 12 -19 21 -36 19 -37 -2 -2 -21 -10 -42 -20 -21
-9 -60 -38 -88 -63 -57 -54 -57 -53 -32 78 13 67 20 87 31 83 7 -3 31 -5 52
-5z m-246 -337 c-17 -17 -17 -16 -3 -46 9 -20 7 -37 -11 -86 -23 -63 -40 -79
-40 -37 0 13 -13 49 -30 80 l-29 57 21 44 21 43 43 -20 c36 -18 40 -23 28 -35z
m-119 -255 c25 -12 45 -25 45 -29 0 -17 -40 -99 -48 -99 -18 0 -41 48 -48 99
-4 28 -4 51 -1 51 4 0 27 -10 52 -22z m90 -165 c-4 -19 -9 -23 -17 -15 -9 9
-8 19 2 39 15 32 25 16 15 -24z m715 -125 c0 -4 -7 -5 -15 -2 -10 4 -15 0 -15
-14 0 -15 -5 -19 -18 -15 -14 3 -17 12 -14 32 4 27 6 28 33 18 16 -6 29 -15
29 -19z m-1765 -547 l80 -6 -85 -34 c-47 -18 -91 -35 -97 -38 -9 -4 -13 7 -13
34 0 21 -6 45 -12 52 -11 11 -8 12 17 6 17 -4 66 -10 110 -14z m279 -70 c18
-12 42 -21 54 -21 31 0 33 -25 6 -84 -13 -30 -30 -82 -35 -115 -9 -48 -15 -61
-29 -61 -10 0 -25 -2 -32 -5 -12 -5 -14 23 -14 164 1 93 4 163 9 156 4 -7 22
-23 41 -34z m-204 4 c0 -6 -57 -35 -70 -35 -25 0 -7 19 28 28 20 5 38 10 40
11 1 1 2 -1 2 -4z m616 -160 c16 -8 37 -15 47 -15 23 0 22 -12 -4 -29 -19 -11
-25 -10 -48 7 -14 10 -27 27 -29 36 -4 20 -2 20 34 1z m-27 -108 c-2 -1 -15
-11 -28 -22 l-24 -20 12 23 c6 12 19 22 28 22 9 0 14 -1 12 -3z m-369 -182
c33 -8 73 -77 56 -100 -10 -13 -20 -11 -86 15 -41 16 -83 31 -92 34 -15 5 -16
9 -4 38 7 18 16 41 19 51 6 16 10 16 44 -7 21 -14 49 -28 63 -31z m465 -44
c18 -16 38 -30 45 -33 8 -2 7 -21 -4 -73 -22 -94 -56 -195 -66 -195 -4 0 -42
-31 -83 -70 -41 -38 -77 -70 -80 -70 -2 0 -7 18 -11 39 -8 54 -40 125 -86 192
l-39 58 32 6 c18 4 39 9 48 11 11 3 19 -3 23 -18 14 -55 112 -137 165 -138 19
0 9 136 -14 202 -16 45 -16 47 7 82 13 20 25 36 27 36 2 0 18 -13 36 -29z
m-541 -247 c-31 -44 -57 -80 -58 -82 -2 -1 -32 11 -67 27 -35 16 -73 32 -83
35 -19 7 -19 7 2 28 17 18 34 22 90 23 51 1 82 8 118 26 27 13 50 24 52 23 2
-1 -22 -37 -54 -80z m110 11 c-32 -103 7 -228 96 -308 l49 -44 -33 -93 -33
-93 -7 53 c-14 106 -79 238 -162 329 l-36 41 68 84 c38 47 69 84 71 83 1 -2
-5 -25 -13 -52z m-6611 -3210 c136 -114 158 -137 181 -186 14 -31 26 -60 26
-64 0 -4 -35 26 -77 65 -100 93 -294 248 -406 324 l-87 60 0 58 0 58 104 -92
c57 -51 173 -151 259 -223z m364 -329 c14 -28 52 -78 84 -112 51 -52 59 -66
59 -99 l0 -39 -37 45 c-21 24 -67 76 -103 115 -53 57 -150 206 -150 230 0 3
27 -16 61 -43 40 -31 69 -64 86 -97z m218 -208 c25 -12 45 -27 45 -32 -1 -19
-39 -96 -47 -96 -18 1 -42 50 -49 99 -4 28 -4 51 -1 51 4 0 27 -10 52 -22z
m90 -165 c-4 -19 -9 -23 -17 -15 -9 9 -8 19 2 39 15 32 25 16 15 -24z m-1050
-672 l80 -6 -85 -34 c-47 -18 -91 -35 -97 -38 -9 -4 -13 7 -13 34 0 21 -6 45
-12 52 -11 11 -8 12 17 6 17 -4 66 -10 110 -14z m322 -87 c18 -3 36 -11 39
-16 3 -5 -5 -35 -19 -66 -14 -31 -31 -85 -37 -119 -12 -58 -14 -61 -44 -65
l-32 -3 1 166 0 166 29 -28 c16 -16 45 -32 63 -35z m-247 21 c0 -6 -57 -35
-70 -35 -25 0 -7 19 28 28 20 5 38 10 40 11 1 1 2 -1 2 -4z m606 -155 c5 -5
27 -13 48 -17 l39 -9 -27 -17 c-26 -17 -28 -17 -56 3 -17 12 -30 28 -30 36 0
16 12 18 26 4z m1725 -47 c13 -16 12 -17 -3 -4 -10 7 -18 15 -18 17 0 8 8 3
21 -13z m-1757 -77 c-21 -15 -30 -14 -19 3 3 6 14 11 23 11 13 0 13 -2 -4 -14z
m-415 -140 c19 -14 47 -28 62 -31 39 -9 75 -73 56 -99 -12 -16 -17 -15 -67 8
-30 14 -70 29 -87 32 -18 3 -33 11 -33 17 0 11 31 97 34 97 1 0 17 -11 35 -24z
m2014 4 c3 -13 -9 -45 -36 -88 -37 -62 -125 -238 -160 -323 l-15 -36 -55 5
c-31 2 -70 -1 -87 -7 -29 -9 -31 -9 -25 7 13 35 35 138 35 169 0 32 29 61 49
48 5 -3 12 3 16 12 11 35 53 72 90 79 44 8 50 20 36 70 -10 36 -9 40 17 61 38
31 127 33 135 3z m-1448 -106 c18 -10 18 -12 1 -80 -36 -143 -48 -176 -74
-197 -15 -12 -54 -48 -88 -79 -33 -32 -63 -58 -66 -58 -3 0 -9 19 -12 43 -8
54 -46 136 -92 198 l-35 48 25 6 c14 3 36 7 49 10 18 3 27 -4 47 -43 26 -49
85 -96 134 -107 l29 -6 -5 83 c-3 46 -13 101 -22 124 -17 40 -17 41 9 81 l27
40 27 -26 c15 -14 35 -31 46 -37z m-576 -216 c-29 -40 -55 -77 -59 -81 -4 -4
-35 6 -71 22 -35 16 -73 32 -83 35 -19 7 -19 7 2 29 18 18 35 22 92 23 51 1
82 8 117 26 27 13 49 23 51 22 2 -1 -20 -35 -49 -76z m104 -2 c-27 -106 11
-222 99 -301 l50 -44 -25 -63 c-14 -35 -29 -76 -35 -93 l-10 -30 -1 32 c-3 93
-86 269 -168 355 l-36 37 69 85 c38 46 70 84 70 83 1 -1 -5 -29 -13 -61z"/>
</g>
</svg>
