<?xml version="1.0" standalone="no"?>
<!DOCTYPE svg PUBLIC "-//W3C//DTD SVG 20010904//EN"
 "http://www.w3.org/TR/2001/REC-SVG-20010904/DTD/svg10.dtd">
<svg version="1.0" xmlns="http://www.w3.org/2000/svg"
 width="1280.000000pt" height="1280.000000pt" viewBox="0 0 1280.000000 1280.000000"
 preserveAspectRatio="xMidYMid meet">
<metadata>
Created by potrace 1.15, written by Peter Selinger 2001-2017
</metadata>
<g transform="translate(0.000000,1280.000000) scale(0.100000,-0.100000)"
fill="#000000" stroke="none">
<path d="M6345 12759 c-71 -65 -87 -122 -86 -299 0 -80 4 -180 7 -223 l7 -78
62 -67 63 -67 47 45 c88 86 95 111 96 380 0 189 -15 243 -86 309 -25 23 -49
41 -55 41 -6 0 -30 -18 -55 -41z"/>
<path d="M6064 12528 c-62 -30 -56 -128 14 -232 25 -37 28 -46 15 -42 -103 29
-230 48 -272 40 -31 -7 -33 -24 -3 -24 9 0 55 -19 102 -42 63 -32 103 -60 155
-113 80 -79 121 -156 175 -320 51 -157 113 -265 150 -265 37 0 99 108 150 265
54 164 95 241 175 320 52 53 92 81 155 113 47 23 93 42 102 42 30 0 28 17 -3
24 -42 8 -169 -11 -272 -40 -13 -4 -7 10 22 56 63 97 65 191 5 218 -38 18 -72
-1 -95 -52 -26 -59 -42 -193 -34 -281 7 -69 6 -71 -31 -125 -38 -56 -164 -308
-164 -329 0 -6 -4 -11 -10 -11 -5 0 -10 5 -10 10 0 20 -117 255 -155 315 l-40
60 -1 130 c-1 216 -50 322 -130 283z"/>
<path d="M5275 12111 c-69 -32 -136 -100 -156 -157 -20 -57 -18 -170 4 -226
20 -51 80 -112 133 -134 44 -19 126 -18 172 2 43 18 88 58 108 96 32 62 9 175
-53 256 -14 18 -23 35 -21 37 6 6 101 -37 154 -71 114 -71 176 -150 220 -280
22 -66 27 -97 27 -184 0 -128 -19 -211 -78 -335 -61 -131 -119 -203 -235 -292
-8 -7 34 -74 53 -84 13 -8 44 -4 115 15 227 60 399 80 682 80 283 0 455 -20
682 -80 71 -19 102 -23 115 -15 19 10 61 77 53 84 -116 89 -174 161 -235 292
-59 124 -78 207 -78 335 0 207 81 360 247 464 53 34 148 77 154 71 2 -2 -8
-19 -22 -37 -63 -83 -86 -191 -53 -254 50 -96 179 -141 281 -99 55 23 113 81
133 133 21 56 23 171 4 226 -33 94 -165 186 -266 186 -73 0 -170 -26 -255 -68
-89 -43 -215 -163 -269 -254 -158 -270 -136 -648 48 -850 l50 -55 -52 14 c-97
25 -221 43 -379 55 -223 16 -505 -6 -695 -55 l-52 -14 50 55 c184 202 206 580
48 850 -54 91 -180 211 -269 254 -147 73 -268 86 -365 39z"/>
<path d="M4134 11876 c-18 -8 -23 -21 -28 -75 -3 -36 -6 -84 -6 -107 0 -34 -4
-43 -24 -52 -35 -16 -106 -82 -106 -98 0 -7 10 -16 23 -19 155 -34 221 -51
267 -68 43 -16 55 -17 59 -6 10 30 76 149 122 218 27 41 49 78 49 82 0 16 -66
19 -122 6 l-58 -14 -77 71 c-67 62 -81 70 -99 62z"/>
<path d="M8567 11814 l-77 -71 -58 14 c-55 13 -122 10 -122 -6 0 -4 24 -44 53
-88 29 -44 68 -112 87 -149 18 -38 34 -71 36 -72 1 -2 27 5 56 16 44 16 110
33 266 67 12 3 22 12 22 19 0 16 -71 82 -106 98 -20 9 -24 18 -24 52 0 23 -3
70 -6 106 -5 54 -10 67 -28 76 -19 9 -31 2 -99 -62z"/>
<path d="M4552 11504 c-28 -14 -65 -42 -80 -62 -34 -43 -82 -135 -82 -157 0
-19 -4 -19 -43 2 -154 79 -320 44 -378 -82 -34 -74 -24 -139 32 -193 61 -60
158 -66 238 -14 34 22 41 32 41 58 0 20 -10 44 -26 63 -23 27 -24 32 -9 37 27
11 93 -15 128 -50 19 -18 44 -55 57 -82 22 -44 24 -62 24 -171 -1 -68 1 -123
3 -123 3 0 39 15 81 33 43 19 101 42 130 52 28 11 52 22 52 26 0 3 -18 19 -41
35 -55 38 -122 114 -146 166 -40 86 -37 177 8 224 30 33 39 30 39 -10 0 -22 9
-45 23 -62 23 -27 24 -27 78 -14 40 10 65 23 95 54 94 93 76 219 -39 275 -59
29 -121 27 -185 -5z"/>
<path d="M8062 11509 c-49 -25 -89 -72 -98 -115 -17 -87 58 -191 155 -214 54
-13 55 -13 78 14 14 17 23 40 23 62 0 40 9 43 39 10 45 -47 48 -138 8 -224
-24 -52 -91 -128 -146 -166 -23 -16 -41 -32 -41 -35 0 -4 24 -15 53 -26 28
-10 86 -33 129 -52 42 -18 78 -33 81 -33 2 0 4 55 3 123 0 109 2 127 24 171
13 27 38 64 57 82 35 35 101 61 128 50 15 -5 14 -10 -9 -37 -17 -20 -26 -43
-26 -64 0 -30 6 -37 43 -59 90 -51 163 -46 233 17 39 36 47 49 51 90 14 122
-88 227 -221 227 -49 0 -128 -20 -174 -44 -19 -10 -35 -16 -36 -14 -1 2 -10
24 -20 51 -61 165 -211 249 -334 186z"/>
<path d="M5355 11365 c-263 -58 -470 -244 -544 -489 -26 -84 -28 -218 -5 -297
37 -125 131 -235 251 -292 64 -30 75 -32 178 -32 101 0 114 2 165 28 112 58
146 117 138 241 -6 85 -33 142 -94 196 -103 90 -222 93 -320 7 -120 -106 -94
-199 96 -349 l35 -28 -70 25 c-117 43 -194 105 -236 193 -36 73 -33 193 7 292
87 218 313 426 544 501 l55 18 -70 0 c-38 0 -97 -7 -130 -14z"/>
<path d="M7310 11357 c243 -89 447 -280 534 -497 40 -99 43 -219 7 -292 -42
-88 -119 -150 -236 -193 l-70 -25 35 28 c149 117 196 203 155 281 -21 42 -98
106 -143 119 -91 28 -187 -1 -254 -76 -54 -60 -71 -99 -76 -180 -8 -122 27
-182 138 -239 51 -26 64 -28 165 -28 103 0 114 2 178 32 37 18 92 55 122 84
99 93 145 203 145 344 0 343 -303 642 -670 661 l-95 5 65 -24z"/>
<path d="M3193 11245 c-115 -32 -163 -76 -231 -211 -91 -181 -87 -404 9 -597
125 -250 372 -427 594 -427 l57 0 -112 -75 c-142 -95 -239 -176 -370 -312
-139 -142 -183 -195 -274 -332 l-76 -113 0 57 c0 270 -254 560 -567 646 -99
28 -240 29 -333 5 -83 -23 -207 -87 -258 -134 -83 -78 -111 -237 -60 -338 30
-56 87 -113 147 -144 52 -26 150 -27 207 -1 91 41 149 157 125 248 -22 83 -88
131 -211 156 l-65 13 65 26 c309 123 594 0 758 -327 59 -118 77 -197 77 -337
l0 -128 29 -10 c68 -23 81 -16 126 68 167 310 497 664 830 891 63 43 143 93
178 110 67 34 75 51 52 117 l-10 29 -128 0 c-140 1 -220 19 -337 77 -326 164
-450 449 -327 758 l26 65 13 -65 c25 -123 73 -189 156 -211 91 -24 207 34 248
125 26 57 25 155 -1 207 -69 133 -206 201 -337 164z"/>
<path d="M9475 11251 c-83 -22 -162 -87 -205 -170 -26 -52 -27 -150 -1 -207
41 -91 157 -149 248 -125 83 22 131 88 156 211 l13 65 26 -65 c123 -309 -1
-594 -327 -758 -117 -58 -197 -76 -337 -77 l-128 0 -10 -29 c-23 -66 -15 -83
52 -117 167 -84 378 -247 574 -443 197 -198 358 -407 445 -578 32 -63 50 -70
115 -48 l29 10 0 128 c0 140 18 219 77 337 164 327 449 450 758 327 l65 -26
-65 -13 c-123 -25 -189 -73 -211 -156 -16 -61 2 -133 48 -187 49 -57 101 -80
183 -80 54 0 74 5 116 29 58 33 104 82 136 144 47 91 15 255 -64 329 -51 47
-175 111 -258 134 -93 24 -234 23 -333 -5 -313 -86 -567 -376 -567 -646 l0
-57 -75 113 c-93 138 -181 243 -317 374 -137 134 -192 179 -327 269 l-113 76
57 0 c221 0 469 178 594 427 72 144 94 331 57 473 -23 83 -87 207 -134 258
-58 61 -198 104 -277 83z"/>
<path d="M2622 10956 c-26 -25 -69 -81 -97 -125 -27 -44 -53 -80 -57 -81 -5 0
-8 13 -8 30 0 46 -37 133 -70 165 -35 34 -80 37 -111 9 -30 -27 -20 -81 26
-151 37 -56 118 -143 168 -181 24 -17 31 -35 47 -109 10 -48 38 -144 64 -212
25 -69 44 -126 42 -128 -2 -2 -51 14 -110 37 -127 48 -239 80 -281 80 -25 0
-38 9 -70 52 -47 61 -152 150 -210 178 -57 28 -89 26 -115 -7 -26 -33 -20 -66
18 -105 27 -29 116 -68 156 -68 43 0 35 -12 -42 -62 -78 -51 -146 -109 -163
-140 -7 -13 5 -10 56 13 94 44 158 59 260 59 121 0 177 -16 367 -106 135 -64
172 -77 226 -82 l65 -5 -5 65 c-5 54 -18 91 -82 226 -90 190 -106 246 -106
367 0 102 15 166 59 260 16 36 28 65 25 65 -3 0 -26 -20 -52 -44z"/>
<path d="M10151 10935 c44 -93 59 -158 59 -259 0 -119 -18 -183 -107 -370 -63
-133 -76 -170 -81 -224 l-5 -65 65 5 c54 5 91 18 226 82 190 90 246 106 367
106 102 0 166 -15 260 -59 51 -23 63 -26 56 -13 -17 31 -85 89 -163 140 -77
50 -85 62 -42 62 40 0 129 39 156 68 38 39 44 72 18 105 -26 33 -58 35 -115 7
-58 -28 -163 -117 -210 -178 -32 -43 -45 -52 -70 -52 -42 0 -154 -32 -281 -80
-59 -23 -108 -39 -110 -37 -2 2 14 51 36 110 44 117 80 247 80 287 0 19 13 36
52 65 96 74 198 216 198 277 0 61 -79 81 -130 33 -31 -30 -70 -118 -70 -159 0
-43 -12 -35 -62 42 -51 78 -109 146 -140 163 -13 7 -10 -5 13 -56z"/>
<path d="M1893 10930 c-49 -21 -38 -148 21 -236 27 -40 170 -181 292 -287 25
-21 133 -40 181 -31 39 7 47 39 33 132 -10 72 -29 98 -205 279 -69 70 -115
109 -148 123 -55 24 -141 35 -174 20z"/>
<path d="M10765 10922 c-28 -9 -68 -31 -89 -47 -54 -41 -276 -284 -288 -315
-12 -31 -16 -166 -5 -177 11 -11 146 -7 177 5 39 15 286 247 325 305 62 92 72
217 19 237 -37 14 -82 12 -139 -8z"/>
<path d="M3880 10755 c-134 -29 -256 -93 -353 -185 l-62 -58 80 38 c341 165
810 87 923 -153 32 -67 37 -134 18 -219 -10 -40 -28 -93 -41 -118 l-24 -45 6
97 c7 120 -6 176 -53 217 -89 79 -264 29 -326 -92 -70 -137 0 -325 144 -387
64 -27 115 -23 206 20 216 101 297 386 174 614 -36 68 -135 164 -208 203 -138
73 -337 101 -484 68z"/>
<path d="M8641 10759 c-373 -73 -571 -404 -423 -707 54 -110 177 -202 293
-218 99 -14 222 80 255 194 20 68 14 153 -14 209 -62 121 -237 171 -326 92
-47 -40 -60 -97 -53 -217 l5 -97 -29 61 c-55 114 -61 228 -16 323 112 238 583
315 922 151 l80 -38 -62 58 c-100 94 -220 156 -355 184 -82 17 -205 19 -277 5z"/>
<path d="M6200 10667 c-54 -42 -63 -100 -25 -145 30 -36 66 -47 110 -32 103
34 76 191 -32 190 -21 0 -45 -6 -53 -13z"/>
<path d="M6479 10651 c-52 -53 -33 -138 37 -161 39 -13 70 -6 101 23 65 59 19
166 -70 167 -29 0 -45 -7 -68 -29z"/>
<path d="M5844 10612 c-54 -43 -59 -110 -13 -153 64 -60 169 -16 169 71 0 77
-99 129 -156 82z"/>
<path d="M6851 10616 c-87 -48 -50 -186 50 -186 28 0 77 27 89 49 46 87 -53
185 -139 137z"/>
<path d="M6188 10409 c-404 -31 -806 -200 -1123 -473 -92 -79 -104 -86 -143
-86 -146 0 -384 -44 -557 -101 -304 -101 -555 -260 -802 -507 -290 -290 -461
-583 -553 -947 -30 -118 -60 -323 -60 -410 0 -51 -2 -56 -61 -120 -184 -203
-324 -449 -412 -720 -126 -392 -126 -898 0 -1290 87 -268 227 -514 407 -713
64 -71 66 -74 66 -126 0 -88 30 -293 60 -411 67 -267 191 -519 364 -740 64
-82 285 -303 376 -378 292 -236 652 -385 1032 -426 54 -6 117 -11 142 -11 42
0 51 -5 118 -66 325 -293 733 -463 1196 -495 582 -41 1122 134 1518 493 l71
65 108 7 c444 29 866 205 1188 497 126 114 292 294 363 394 212 300 336 652
360 1020 l7 108 60 66 c173 190 309 423 397 678 138 400 143 924 13 1328 -88
271 -228 517 -412 720 -55 61 -61 71 -61 111 0 145 -42 380 -101 557 -99 303
-256 551 -507 804 -250 251 -501 410 -807 512 -174 58 -413 101 -558 101 -40
0 -51 6 -113 61 -429 382 -949 546 -1576 498z m457 -119 c381 -44 758 -212
1050 -467 l90 -79 145 -12 c179 -15 309 -41 465 -93 215 -73 420 -185 595
-326 109 -88 315 -304 388 -408 215 -303 333 -638 358 -1010 l7 -110 75 -85
c224 -255 375 -561 449 -905 26 -123 27 -144 27 -395 0 -251 -1 -272 -27 -395
-76 -358 -220 -642 -468 -925 l-56 -65 -7 -110 c-24 -370 -143 -706 -358
-1010 -73 -104 -279 -320 -388 -408 -312 -251 -689 -397 -1100 -423 l-105 -7
-65 -57 c-317 -277 -653 -433 -1048 -485 -145 -19 -399 -19 -544 0 -395 52
-730 207 -1048 485 l-65 57 -105 7 c-374 24 -720 147 -1023 363 -98 70 -316
279 -400 383 -140 173 -256 385 -326 595 -52 159 -78 288 -93 465 l-12 145
-75 88 c-122 142 -196 252 -274 407 -84 167 -134 311 -173 495 -26 122 -28
146 -28 385 -1 268 4 317 51 505 70 284 223 575 420 800 l79 90 12 145 c31
380 152 702 375 1003 73 99 264 296 367 380 177 143 377 252 595 326 156 52
286 78 465 93 l145 12 90 79 c288 251 670 423 1038 466 105 12 398 12 502 1z"/>
<path d="M6080 10140 c-43 -43 -11 -120 50 -120 36 0 70 34 70 71 0 59 -78 91
-120 49z"/>
<path d="M6622 10140 c-28 -26 -28 -69 -2 -98 43 -46 120 -15 120 48 0 62 -73
92 -118 50z"/>
<path d="M5652 10017 c-44 -46 -14 -117 48 -117 17 0 39 9 50 20 11 11 20 33
20 50 0 63 -75 93 -118 47z"/>
<path d="M7050 10020 c-11 -11 -20 -33 -20 -50 0 -17 9 -39 20 -50 43 -43 120
-11 120 48 0 60 -78 94 -120 52z"/>
<path d="M5265 9790 c-41 -45 -9 -120 52 -120 31 0 73 42 73 75 0 57 -86 89
-125 45z"/>
<path d="M7430 9790 c-27 -27 -25 -66 5 -95 29 -30 64 -32 96 -7 28 23 30 73
4 102 -24 26 -79 26 -105 0z"/>
<path d="M4751 9574 c-27 -35 -27 -65 2 -92 29 -27 78 -29 100 -4 25 28 22 87
-5 106 -34 24 -73 20 -97 -10z"/>
<path d="M7952 9584 c-28 -20 -31 -83 -4 -107 27 -24 74 -21 100 6 28 29 28
57 1 91 -24 30 -63 34 -97 10z"/>
<path d="M4320 9470 c-43 -43 -11 -120 50 -120 38 0 70 32 70 70 0 38 -32 70
-70 70 -17 0 -39 -9 -50 -20z"/>
<path d="M8380 9470 c-11 -11 -20 -33 -20 -50 0 -17 9 -39 20 -50 11 -11 33
-20 50 -20 17 0 39 9 50 20 11 11 20 33 20 50 0 17 -9 39 -20 50 -11 11 -33
20 -50 20 -17 0 -39 -9 -50 -20z"/>
<path d="M3932 9247 c-28 -30 -28 -68 1 -95 48 -46 117 -17 117 48 0 29 -6 43
-22 54 -32 23 -71 20 -96 -7z"/>
<path d="M8772 9254 c-16 -11 -22 -25 -22 -54 0 -29 6 -43 22 -54 32 -23 71
-20 96 7 28 30 28 68 -1 95 -27 26 -64 28 -95 6z"/>
<path d="M3552 8867 c-46 -48 -17 -117 48 -117 29 0 43 6 54 22 23 32 20 71
-7 96 -30 28 -68 28 -95 -1z"/>
<path d="M9152 8867 c-27 -29 -29 -78 -4 -100 28 -25 87 -22 106 5 23 32 20
71 -7 96 -30 28 -68 28 -95 -1z"/>
<path d="M3330 8480 c-43 -43 -11 -120 50 -120 38 0 70 32 70 70 0 38 -32 70
-70 70 -17 0 -39 -9 -50 -20z"/>
<path d="M9370 8480 c-11 -11 -20 -33 -20 -50 0 -17 9 -39 20 -50 11 -11 33
-20 50 -20 17 0 39 9 50 20 11 11 20 33 20 50 0 17 -9 39 -20 50 -11 11 -33
20 -50 20 -17 0 -39 -9 -50 -20z"/>
<path d="M3226 8049 c-52 -41 -24 -119 43 -119 68 0 97 72 48 118 -29 28 -57
28 -91 1z"/>
<path d="M9482 8047 c-27 -29 -29 -78 -4 -100 28 -25 87 -22 106 5 24 34 20
73 -10 97 -35 27 -65 27 -92 -2z"/>
<path d="M3040 7553 c-74 -27 -62 -143 15 -143 33 0 75 42 75 73 0 44 -51 84
-90 70z"/>
<path d="M9713 7550 c-47 -19 -56 -78 -18 -115 47 -48 115 -19 115 48 0 51
-50 86 -97 67z"/>
<path d="M2782 7147 c-44 -46 -14 -117 48 -117 38 0 70 32 70 70 0 63 -75 93
-118 47z"/>
<path d="M9920 7150 c-11 -11 -20 -33 -20 -50 0 -17 9 -39 20 -50 43 -43 120
-11 120 48 0 60 -78 94 -120 52z"/>
<path d="M2660 6720 c-63 -63 32 -161 98 -100 46 43 15 120 -48 120 -17 0 -39
-9 -50 -20z"/>
<path d="M10040 6720 c-11 -11 -20 -33 -20 -50 0 -61 78 -93 120 -48 42 45 12
118 -50 118 -17 0 -39 -9 -50 -20z"/>
<path d="M2660 6178 c-42 -45 -12 -118 50 -118 63 0 94 77 48 120 -29 26 -72
26 -98 -2z"/>
<path d="M10042 6180 c-46 -43 -15 -120 48 -120 62 0 92 73 50 118 -26 28 -69
28 -98 2z"/>
<path d="M2780 5750 c-27 -27 -26 -71 3 -98 46 -44 117 -14 117 48 0 38 -32
70 -70 70 -17 0 -39 -9 -50 -20z"/>
<path d="M9920 5750 c-43 -43 -11 -120 48 -120 36 0 72 37 72 73 0 36 -33 67
-70 67 -17 0 -39 -9 -50 -20z"/>
<path d="M3010 5370 c-26 -26 -26 -81 0 -105 29 -26 79 -24 102 4 25 32 23 67
-7 96 -29 30 -68 32 -95 5z"/>
<path d="M9695 5365 c-46 -45 -19 -118 43 -118 43 0 72 28 72 70 0 67 -68 96
-115 48z"/>
<path d="M3216 4848 c-35 -49 0 -118 59 -118 53 0 86 88 47 123 -28 25 -87 22
-106 -5z"/>
<path d="M9477 4852 c-24 -27 -21 -74 6 -100 29 -28 57 -28 91 -1 30 24 34 63
10 97 -20 28 -83 31 -107 4z"/>
<path d="M3330 4420 c-11 -11 -20 -33 -20 -50 0 -17 9 -39 20 -50 11 -11 33
-20 50 -20 17 0 39 9 50 20 11 11 20 33 20 50 0 17 -9 39 -20 50 -11 11 -33
20 -50 20 -17 0 -39 -9 -50 -20z"/>
<path d="M9370 4420 c-43 -43 -11 -120 50 -120 38 0 70 32 70 70 0 38 -32 70
-70 70 -17 0 -39 -9 -50 -20z"/>
<path d="M3546 4028 c-23 -32 -20 -71 7 -96 30 -28 68 -28 95 1 46 48 17 117
-48 117 -29 0 -43 -6 -54 -22z"/>
<path d="M9147 4032 c-24 -27 -21 -74 6 -100 30 -28 68 -28 95 1 26 27 28 64
6 95 -20 28 -83 31 -107 4z"/>
<path d="M3932 3647 c-28 -30 -28 -68 1 -95 48 -46 117 -17 117 48 0 29 -6 43
-22 54 -32 23 -71 20 -96 -7z"/>
<path d="M8772 3654 c-16 -11 -22 -25 -22 -54 0 -29 6 -43 22 -54 32 -23 71
-20 96 7 28 30 28 68 -1 95 -27 26 -64 28 -95 6z"/>
<path d="M4320 3430 c-11 -11 -20 -33 -20 -50 0 -17 9 -39 20 -50 11 -11 33
-20 50 -20 17 0 39 9 50 20 11 11 20 33 20 50 0 17 -9 39 -20 50 -11 11 -33
20 -50 20 -17 0 -39 -9 -50 -20z"/>
<path d="M8380 3430 c-43 -43 -11 -120 50 -120 38 0 70 32 70 70 0 38 -32 70
-70 70 -17 0 -39 -9 -50 -20z"/>
<path d="M4752 3317 c-28 -29 -28 -57 -1 -91 41 -52 119 -24 119 43 0 68 -72
97 -118 48z"/>
<path d="M7947 3322 c-25 -28 -22 -87 5 -106 49 -35 118 0 118 59 0 53 -88 86
-123 47z"/>
<path d="M5269 3112 c-49 -40 -17 -122 48 -122 67 0 96 68 48 115 -29 30 -64
32 -96 7z"/>
<path d="M7435 3105 c-48 -47 -19 -115 48 -115 42 0 70 29 70 72 0 62 -73 89
-118 43z"/>
<path d="M5650 2880 c-27 -27 -26 -71 3 -98 46 -44 117 -14 117 48 0 38 -32
70 -70 70 -17 0 -39 -9 -50 -20z"/>
<path d="M7050 2880 c-43 -43 -11 -120 48 -120 36 0 72 37 72 73 0 36 -33 67
-70 67 -17 0 -39 -9 -50 -20z"/>
<path d="M6080 2760 c-43 -43 -11 -120 48 -120 37 0 72 33 72 69 0 61 -77 94
-120 51z"/>
<path d="M6620 2758 c-26 -29 -26 -72 2 -98 45 -42 118 -12 118 50 0 63 -77
94 -120 48z"/>
<path d="M3773 9755 c-59 -41 -46 -142 22 -171 43 -17 76 -11 110 23 36 37 35
104 -1 138 -32 29 -97 34 -131 10z"/>
<path d="M8896 9745 c-36 -34 -37 -101 -1 -138 34 -34 67 -40 110 -23 68 29
81 130 22 171 -34 24 -99 19 -131 -10z"/>
<path d="M3481 9534 c-25 -21 -31 -33 -31 -66 0 -50 13 -74 52 -94 79 -41 166
35 138 121 -21 65 -104 85 -159 39z"/>
<path d="M9198 9545 c-29 -16 -53 -73 -43 -104 20 -65 87 -96 143 -67 38 20
52 44 52 91 0 75 -82 118 -152 80z"/>
<path d="M3266 9319 c-46 -55 -26 -138 39 -159 86 -28 162 59 121 138 -20 39
-44 52 -94 52 -33 0 -45 -6 -66 -31z"/>
<path d="M9407 9339 c-9 -5 -24 -24 -33 -41 -41 -79 35 -166 121 -138 65 21
85 104 39 159 -21 26 -33 31 -67 31 -23 0 -50 -5 -60 -11z"/>
<path d="M2221 9264 c-67 -73 -137 -201 -167 -304 -29 -100 -27 -291 4 -390
65 -208 210 -353 390 -391 196 -40 403 55 482 222 59 126 45 215 -50 303 -83
77 -218 98 -317 48 -121 -62 -171 -237 -92 -326 40 -47 97 -60 217 -53 l97 5
-60 -28 c-118 -55 -229 -61 -323 -18 -238 112 -317 583 -154 921 21 42 37 77
36 77 -1 0 -29 -30 -63 -66z"/>
<path d="M10551 9255 c60 -124 82 -233 82 -400 0 -111 -5 -156 -21 -218 -80
-295 -286 -405 -537 -287 l-60 28 97 -5 c120 -7 177 6 217 53 79 89 29 264
-92 326 -99 50 -234 29 -317 -48 -95 -89 -109 -177 -49 -304 66 -140 215 -229
384 -230 224 -1 410 152 487 400 33 108 33 293 0 400 -36 114 -97 222 -167
298 l-63 67 39 -80z"/>
<path d="M3083 9055 c-39 -16 -53 -42 -53 -93 0 -28 7 -47 25 -66 49 -53 151
-24 169 49 10 40 -18 94 -58 110 -42 18 -43 18 -83 0z"/>
<path d="M9632 9055 c-38 -17 -66 -71 -56 -110 18 -73 120 -102 169 -49 18 19
25 38 25 66 0 52 -15 77 -55 94 -41 17 -42 17 -83 -1z"/>
<path d="M1595 8831 c-126 -58 -161 -223 -81 -379 10 -19 16 -35 14 -36 -2 -1
-24 -10 -51 -20 -164 -61 -247 -207 -187 -331 54 -113 175 -135 270 -49 36 33
70 103 70 145 0 26 -48 59 -86 59 -40 0 -42 9 -10 39 47 45 138 48 224 8 52
-24 128 -91 166 -146 16 -23 32 -41 35 -41 4 0 15 24 26 53 10 28 33 85 52
126 18 40 33 77 33 81 0 4 -55 7 -122 6 -110 0 -128 2 -172 24 -27 13 -64 38
-82 57 -35 35 -61 101 -50 128 5 15 10 14 37 -9 20 -17 43 -26 64 -26 30 0 37
6 59 43 49 85 43 176 -17 237 -53 54 -119 65 -192 31z"/>
<path d="M11065 8841 c-36 -15 -85 -74 -96 -115 -14 -52 -4 -110 27 -163 21
-37 29 -43 59 -43 21 0 44 9 64 26 27 23 32 24 37 9 11 -27 -15 -93 -50 -128
-18 -19 -55 -44 -82 -57 -44 -22 -62 -24 -171 -24 -68 1 -123 -2 -123 -6 0 -4
15 -41 33 -81 19 -41 42 -98 52 -126 11 -29 22 -53 26 -53 3 0 19 18 35 41 38
55 114 122 166 146 86 40 177 37 224 -8 32 -30 30 -39 -10 -39 -38 0 -86 -33
-86 -59 0 -42 34 -112 70 -145 95 -86 216 -64 270 49 60 124 -23 270 -187 331
-27 10 -49 19 -51 20 -2 1 4 17 14 36 61 118 55 258 -14 332 -51 54 -147 81
-207 57z"/>
<path d="M1206 8789 c-20 -22 -42 -51 -48 -65 -9 -20 -18 -24 -52 -24 -23 0
-71 -3 -107 -6 -54 -5 -67 -10 -75 -28 -8 -18 0 -32 62 -99 l71 -77 -14 -58
c-13 -56 -10 -122 6 -122 4 0 41 22 82 49 68 45 188 112 218 122 10 4 8 19 -9
68 -17 52 -39 136 -65 259 -8 32 -28 27 -69 -19z"/>
<path d="M11525 8808 c-26 -123 -48 -207 -65 -259 -17 -49 -19 -64 -9 -68 30
-10 150 -77 218 -122 41 -27 78 -49 82 -49 16 0 19 66 5 124 l-14 58 72 77
c62 66 71 79 62 97 -8 18 -22 23 -75 28 -36 3 -84 6 -107 6 -34 0 -43 4 -52
24 -16 35 -82 106 -98 106 -7 0 -16 -10 -19 -22z"/>
<path d="M1914 7986 c-279 -90 -476 -350 -490 -646 l-5 -95 19 55 c80 236 285
458 502 544 60 24 91 30 155 30 48 1 94 -5 115 -13 98 -40 170 -122 215 -246
l25 -70 -28 35 c-117 149 -203 196 -281 155 -42 -21 -106 -98 -119 -143 -28
-91 1 -187 76 -254 60 -54 99 -71 180 -76 122 -8 182 27 239 138 26 51 28 64
28 165 0 103 -2 114 -32 178 -36 76 -116 166 -181 204 -114 67 -283 83 -418
39z"/>
<path d="M10570 7991 c-79 -25 -117 -47 -173 -100 -64 -60 -99 -111 -127 -188
-32 -89 -26 -224 14 -303 56 -111 116 -146 240 -138 56 4 85 11 119 31 153 90
191 262 85 382 -107 121 -200 96 -350 -95 l-28 -35 25 70 c45 124 117 206 215
246 21 8 67 14 115 13 141 -1 290 -77 431 -219 105 -106 171 -209 221 -345
l24 -65 -5 95 c-15 299 -219 564 -500 649 -87 27 -227 28 -306 2z"/>
<path d="M895 7694 c-100 -26 -163 -77 -206 -169 -86 -181 46 -477 277 -621
284 -177 691 -153 883 54 25 26 41 38 37 27 -4 -11 -16 -60 -26 -110 -65 -310
-61 -713 9 -994 l17 -70 -54 50 c-202 184 -580 206 -850 48 -91 -54 -211 -180
-254 -269 -42 -85 -68 -182 -68 -255 0 -101 92 -233 186 -266 56 -19 170 -17
227 5 56 21 118 88 135 144 33 110 -9 220 -102 269 -63 33 -171 10 -254 -53
-18 -14 -35 -24 -37 -22 -6 6 37 101 71 154 71 114 150 176 280 220 66 23 96
27 184 27 128 0 211 -19 335 -78 131 -61 203 -119 292 -235 8 -9 76 35 85 55
7 16 3 47 -16 116 -39 141 -65 314 -78 506 -19 279 11 605 78 852 30 109 25
131 -31 158 -19 9 -36 15 -38 12 -85 -111 -162 -173 -292 -234 -124 -59 -207
-78 -335 -78 -208 0 -360 82 -464 247 -34 53 -77 148 -71 154 2 2 19 -7 37
-21 81 -62 194 -85 256 -53 90 47 132 158 102 267 -14 50 -81 123 -131 143
-43 18 -149 29 -184 20z"/>
<path d="M11767 7690 c-56 -15 -90 -35 -127 -76 -43 -50 -60 -93 -60 -154 0
-83 44 -160 112 -196 62 -32 175 -9 256 53 18 14 35 23 38 20 2 -2 -16 -45
-41 -96 -74 -147 -164 -227 -312 -277 -98 -34 -248 -37 -358 -10 -155 40 -336
148 -412 246 -21 27 -42 49 -48 50 -17 0 -75 -39 -82 -56 -3 -8 6 -59 20 -112
68 -253 98 -575 79 -855 -13 -196 -40 -369 -78 -505 -31 -107 -27 -127 29
-157 20 -10 38 -17 40 -15 79 108 167 178 299 239 118 55 203 74 328 74 207 0
360 -81 464 -247 34 -53 77 -148 71 -154 -2 -2 -19 7 -37 21 -81 62 -194 85
-256 53 -68 -36 -112 -113 -112 -196 0 -63 18 -106 65 -158 47 -52 109 -76
199 -77 92 0 153 23 205 80 110 120 118 263 23 455 -43 89 -163 215 -254 269
-270 158 -648 136 -850 -48 l-55 -50 14 52 c43 167 68 434 59 632 -9 179 -43
413 -72 488 -3 8 20 -10 50 -39 201 -195 592 -213 870 -40 180 112 305 322
306 511 0 97 -83 222 -173 260 -48 20 -150 27 -200 15z"/>
<path d="M507 6982 c-9 -43 10 -174 39 -275 4 -13 -10 -7 -56 22 -97 63 -191
65 -218 5 -18 -38 1 -72 52 -95 59 -26 193 -42 281 -34 69 7 71 6 125 -31 55
-37 310 -164 330 -164 5 0 10 -4 10 -10 0 -5 -5 -10 -10 -10 -20 0 -275 -127
-330 -164 -54 -37 -56 -38 -125 -31 -88 8 -222 -8 -281 -34 -51 -23 -70 -57
-52 -95 27 -60 121 -58 218 5 46 29 60 35 56 22 -29 -103 -48 -230 -40 -272 7
-31 24 -33 24 -3 0 9 19 55 42 102 32 63 60 103 113 155 79 80 156 121 320
175 160 52 265 112 265 150 0 38 -105 98 -265 150 -164 54 -241 95 -320 175
-53 52 -81 92 -113 155 -23 47 -42 93 -42 102 0 29 -17 29 -23 0z"/>
<path d="M12275 6995 c-86 -247 -202 -354 -480 -445 -160 -52 -265 -112 -265
-150 0 -38 105 -98 265 -150 278 -91 394 -198 480 -445 7 -18 8 -17 16 9 11
41 -6 170 -37 279 -4 13 5 10 42 -15 106 -71 203 -76 233 -12 17 38 -2 72 -53
95 -59 26 -193 42 -281 34 -69 -7 -71 -6 -125 31 -55 37 -310 164 -330 164 -5
0 -10 5 -10 10 0 6 5 10 10 10 20 0 275 127 330 164 54 37 56 38 125 31 88 -8
222 8 281 34 51 23 70 57 53 95 -30 64 -127 59 -233 -12 -37 -25 -46 -28 -42
-15 29 96 48 241 37 279 -8 26 -9 27 -16 9z"/>
<path d="M2225 6988 c-91 -50 -58 -188 45 -188 51 0 100 49 100 100 0 29 -27
77 -49 90 -25 13 -71 12 -96 -2z"/>
<path d="M10459 6969 c-78 -84 17 -208 120 -155 49 26 67 101 33 142 -43 54
-110 59 -153 13z"/>
<path d="M2170 6633 c-39 -27 -49 -45 -50 -86 -1 -108 156 -135 190 -32 15 44
4 80 -32 110 -34 29 -73 32 -108 8z"/>
<path d="M10522 6625 c-36 -30 -47 -66 -32 -110 34 -103 191 -76 190 32 -1 41
-11 59 -50 86 -35 24 -74 21 -108 -8z"/>
<path d="M207 6538 c-31 -4 -74 -16 -95 -27 -39 -20 -112 -92 -112 -111 0 -6
18 -30 41 -55 66 -72 121 -87 309 -86 85 0 186 4 223 7 66 7 69 8 135 70 l67
64 -67 64 -66 64 -84 6 c-136 10 -291 11 -351 4z"/>
<path d="M12349 6539 c-198 -7 -193 -5 -279 -94 l-45 -47 67 -63 c66 -61 69
-63 135 -69 37 -3 138 -7 223 -7 188 -1 243 14 309 86 23 25 41 49 41 55 0 25
-84 100 -133 118 -69 26 -111 28 -318 21z"/>
<path d="M2149 6321 c-22 -23 -29 -39 -29 -68 1 -41 11 -59 50 -86 35 -24 74
-21 108 8 36 30 47 66 32 110 -23 69 -109 88 -161 36z"/>
<path d="M10523 6332 c-51 -40 -52 -114 -1 -157 34 -29 73 -32 108 -8 39 27
49 45 50 86 0 78 -97 127 -157 79z"/>
<path d="M2221 5986 c-30 -17 -50 -53 -50 -91 -1 -68 87 -118 150 -85 22 12
49 61 49 89 0 75 -83 124 -149 87z"/>
<path d="M10481 5986 c-48 -27 -63 -84 -36 -136 33 -65 117 -68 167 -6 64 78
-41 192 -131 142z"/>
<path d="M1424 5460 c14 -284 194 -534 461 -636 101 -39 254 -45 345 -14 35
12 83 33 106 46 63 37 141 126 177 201 30 64 32 75 32 178 0 101 -2 114 -28
165 -57 111 -117 146 -239 138 -81 -5 -120 -22 -180 -76 -105 -95 -116 -235
-25 -338 106 -120 199 -94 349 96 l28 35 -25 -70 c-43 -117 -105 -194 -193
-236 -69 -34 -192 -32 -285 4 -220 86 -428 309 -509 547 l-19 55 5 -95z"/>
<path d="M11370 5534 c0 -8 -14 -49 -31 -90 -90 -216 -284 -412 -486 -491 -93
-36 -216 -38 -285 -4 -88 42 -150 119 -193 236 l-25 70 28 -35 c117 -149 203
-196 281 -155 45 23 107 100 121 150 24 87 -6 182 -79 248 -59 53 -98 70 -179
75 -122 8 -182 -27 -239 -138 -26 -51 -28 -64 -28 -165 0 -103 2 -114 32 -178
36 -75 114 -164 177 -201 23 -13 71 -34 106 -46 91 -31 244 -25 345 14 263
101 445 350 462 634 3 50 3 92 -1 92 -3 0 -6 -7 -6 -16z"/>
<path d="M1395 4833 c-37 -9 -83 -52 -105 -98 -60 -124 23 -270 187 -331 27
-10 49 -19 51 -20 2 -1 -4 -17 -14 -36 -80 -156 -45 -321 81 -379 73 -34 139
-23 192 31 60 61 66 152 17 238 -22 36 -29 42 -59 42 -21 0 -44 -9 -64 -26
-27 -23 -32 -24 -37 -9 -11 27 15 93 50 128 18 19 55 44 82 57 44 22 62 24
172 24 109 -1 123 1 118 15 -7 23 -99 245 -104 251 -2 3 -13 -9 -25 -25 -38
-56 -132 -140 -177 -161 -88 -41 -178 -38 -226 7 -32 30 -30 39 10 39 38 0 86
33 86 59 0 10 -7 38 -16 64 -31 91 -132 151 -219 130z"/>
<path d="M11306 4826 c-71 -26 -136 -116 -136 -187 0 -26 48 -59 86 -59 40 0
42 -9 10 -39 -48 -45 -138 -48 -226 -7 -45 21 -139 105 -177 161 -12 16 -23
28 -25 25 -5 -6 -97 -228 -104 -251 -5 -14 9 -16 118 -15 110 0 128 -2 172
-24 27 -13 64 -38 82 -57 35 -35 61 -101 50 -128 -5 -15 -10 -14 -37 9 -20 17
-43 26 -64 26 -30 0 -38 -6 -62 -47 -53 -90 -34 -198 44 -257 36 -27 104 -32
156 -12 134 51 176 224 93 384 -10 19 -16 35 -14 36 2 1 24 10 51 20 164 61
247 207 187 331 -41 84 -122 121 -204 91z"/>
<path d="M2421 4614 c-168 -45 -301 -186 -363 -384 -33 -108 -33 -293 0 -400
36 -114 97 -222 167 -298 l63 -67 -39 80 c-61 125 -83 233 -82 400 0 110 5
157 21 218 80 295 289 407 536 288 l61 -29 -97 5 c-120 7 -177 -6 -217 -53
-79 -89 -29 -264 92 -326 137 -69 325 0 386 143 28 64 22 120 -20 209 -83 177
-303 269 -508 214z"/>
<path d="M10140 4616 c-159 -43 -286 -178 -306 -327 -14 -99 79 -222 192 -255
70 -20 154 -15 211 14 121 62 171 237 92 326 -40 47 -97 60 -217 53 l-97 -5
61 29 c247 119 456 6 536 -288 16 -62 21 -107 21 -218 0 -167 -22 -276 -82
-400 l-39 -80 63 67 c70 76 131 184 167 298 33 107 33 292 0 400 -63 201 -196
340 -367 385 -70 18 -172 19 -235 1z"/>
<path d="M1035 4458 c-3 -18 1 -59 8 -90 l14 -58 -71 -77 c-62 -67 -70 -81
-62 -99 8 -18 21 -23 75 -28 36 -3 84 -6 107 -6 34 0 43 -4 52 -24 16 -35 82
-106 98 -106 7 0 16 10 19 23 34 155 51 221 67 265 11 29 18 55 16 56 -1 2
-36 20 -76 40 -40 20 -107 59 -149 86 -42 28 -79 50 -84 50 -4 0 -11 -15 -14
-32z"/>
<path d="M11665 4440 c-38 -27 -105 -65 -147 -86 -43 -21 -78 -41 -78 -45 0
-4 7 -23 15 -43 13 -30 45 -155 71 -273 2 -13 11 -23 18 -23 16 0 82 71 98
106 9 20 18 24 52 24 23 0 71 3 107 6 54 5 67 10 75 28 8 18 0 32 -62 99 l-71
77 14 58 c14 61 10 123 -10 121 -7 -1 -43 -23 -82 -49z"/>
<path d="M3055 3904 c-29 -32 -34 -97 -10 -131 41 -59 142 -46 171 22 17 43
11 76 -23 110 -37 36 -104 35 -138 -1z"/>
<path d="M9607 3905 c-34 -34 -40 -67 -23 -110 29 -68 130 -81 171 -22 24 34
19 99 -10 131 -34 36 -101 37 -138 1z"/>
<path d="M2700 3889 c-25 -9 -25 -10 -25 -137 0 -140 -18 -219 -77 -337 -164
-327 -449 -450 -758 -327 l-65 26 65 13 c123 25 189 73 211 156 24 91 -34 207
-125 248 -57 26 -155 25 -207 -1 -60 -31 -117 -88 -147 -144 -52 -102 -23
-260 62 -339 48 -45 197 -119 276 -138 79 -19 221 -14 311 10 310 81 569 376
569 646 l0 57 75 -113 c93 -138 181 -243 317 -374 137 -134 192 -179 327 -269
l113 -76 -59 0 c-271 0 -567 -265 -649 -580 -23 -86 -22 -235 0 -320 23 -83
87 -207 134 -258 74 -79 238 -111 329 -64 62 32 111 78 144 136 24 42 29 62
29 116 0 82 -23 134 -80 183 -54 46 -126 64 -187 48 -83 -22 -131 -88 -156
-211 l-13 -65 -26 65 c-123 309 0 594 327 758 118 59 197 77 337 77 l128 0 10
29 c22 65 15 83 -47 115 -223 112 -542 379 -750 626 -94 111 -228 306 -273
396 -28 54 -33 59 -63 58 -17 0 -43 -5 -57 -10z"/>
<path d="M9981 3843 c-88 -174 -248 -382 -450 -584 -191 -190 -406 -355 -573
-440 -63 -32 -70 -50 -48 -115 l10 -29 128 0 c140 0 219 -18 337 -77 327 -164
450 -449 327 -758 l-26 -65 -13 65 c-25 123 -73 189 -156 211 -61 16 -133 -2
-187 -48 -57 -49 -80 -101 -80 -183 0 -54 5 -74 29 -116 33 -58 82 -104 144
-136 91 -47 255 -15 329 64 47 51 111 175 134 258 24 93 23 234 -5 333 -86
312 -376 567 -644 567 l-59 0 113 76 c135 90 190 135 327 269 136 131 224 236
317 374 l75 113 0 -57 c0 -270 259 -564 569 -647 162 -43 326 -23 483 59 133
69 191 158 191 293 1 107 -64 205 -172 260 -52 26 -150 27 -207 1 -91 -41
-149 -157 -125 -248 22 -83 88 -131 211 -156 l65 -13 -65 -26 c-309 -123 -594
0 -758 327 -59 118 -77 197 -77 337 l0 128 -29 10 c-65 22 -83 15 -115 -47z"/>
<path d="M3295 3636 c-94 -41 -59 -186 45 -186 99 0 134 121 50 178 -38 25
-53 27 -95 8z"/>
<path d="M9410 3628 c-58 -39 -64 -105 -15 -154 55 -55 165 -11 165 66 0 46
-25 86 -61 99 -44 15 -51 14 -89 -11z"/>
<path d="M3498 3425 c-35 -20 -48 -44 -48 -93 0 -105 157 -126 190 -27 29 87
-64 164 -142 120z"/>
<path d="M9211 3427 c-14 -6 -34 -27 -44 -45 -56 -96 75 -192 154 -113 48 49
38 125 -21 156 -35 18 -57 19 -89 2z"/>
<path d="M3792 3215 c-65 -28 -76 -130 -19 -170 34 -24 99 -19 131 10 51 47
29 139 -41 166 -30 11 -31 11 -71 -6z"/>
<path d="M8926 3215 c-42 -22 -55 -44 -56 -93 0 -58 35 -92 94 -92 52 0 81 20
96 64 16 49 -7 102 -54 121 -43 18 -44 18 -80 0z"/>
<path d="M4185 2947 c-62 -30 -111 -78 -139 -137 -30 -64 -29 -189 1 -246 65
-123 238 -172 327 -93 47 41 60 97 53 217 l-6 97 24 -45 c35 -65 59 -181 51
-242 -20 -147 -138 -257 -333 -310 -61 -16 -108 -21 -218 -21 -165 -1 -278 23
-403 84 l-77 37 67 -63 c76 -70 184 -131 298 -167 63 -19 95 -23 205 -22 114
0 140 4 213 28 110 36 223 113 284 193 173 229 107 560 -135 674 -90 42 -149
46 -212 16z"/>
<path d="M8465 2956 c-110 -35 -199 -110 -247 -208 -137 -279 20 -587 352
-690 108 -33 293 -33 400 0 114 36 222 97 298 167 l67 63 -77 -37 c-125 -61
-238 -85 -403 -84 -110 0 -157 5 -218 21 -294 80 -407 289 -288 536 l29 61 -5
-97 c-7 -120 6 -177 53 -217 89 -79 262 -30 327 93 30 57 31 182 1 246 -28 59
-77 108 -139 136 -56 26 -91 29 -150 10z"/>
<path d="M2665 2773 c-11 -3 -90 -38 -175 -78 -184 -87 -248 -105 -366 -105
-101 0 -166 15 -259 59 -51 23 -63 26 -56 13 17 -31 85 -89 163 -140 77 -50
85 -62 42 -62 -40 0 -129 -39 -156 -68 -39 -40 -44 -72 -17 -106 19 -25 27
-28 61 -23 65 9 203 114 276 210 17 24 35 31 109 46 48 10 144 40 212 65 68
26 125 45 127 43 2 -2 -17 -59 -42 -128 -26 -68 -55 -164 -65 -213 -14 -69
-23 -92 -41 -104 -41 -27 -135 -128 -173 -185 -46 -70 -56 -124 -26 -151 31
-28 76 -25 111 9 33 32 70 119 70 165 0 17 3 30 8 30 4 -1 27 -33 52 -73 46
-75 111 -151 141 -168 15 -7 12 4 -12 56 -44 94 -59 158 -59 260 0 121 16 177
106 367 63 133 77 172 82 224 l5 64 -49 -1 c-27 -1 -58 -3 -69 -6z"/>
<path d="M10022 2718 c5 -54 18 -91 82 -226 90 -190 106 -246 106 -367 0 -102
-15 -166 -59 -260 -23 -51 -26 -63 -13 -56 31 17 89 85 140 163 50 77 62 85
62 42 0 -41 39 -129 70 -159 35 -34 80 -37 111 -9 30 27 20 81 -26 151 -38 57
-132 158 -173 185 -18 12 -27 35 -41 104 -10 49 -39 145 -65 213 -25 69 -44
126 -42 128 2 2 52 -15 112 -38 118 -44 241 -79 284 -79 20 0 35 -13 65 -52
47 -61 152 -150 210 -178 57 -28 89 -26 115 7 26 33 20 66 -18 105 -27 29
-116 68 -156 68 -43 0 -35 12 42 62 78 51 146 109 163 140 7 13 -5 10 -56 -13
-93 -44 -158 -59 -259 -59 -119 0 -183 18 -370 107 -133 63 -170 76 -224 81
l-65 5 5 -65z"/>
<path d="M5090 2529 c-137 -54 -244 -169 -284 -308 -23 -79 -21 -213 5 -297
85 -281 352 -486 649 -500 l95 -5 -55 19 c-236 80 -458 285 -544 502 -24 60
-30 91 -30 155 -1 48 5 94 13 115 40 98 122 170 246 215 l70 25 -35 -28 c-149
-117 -196 -203 -155 -281 8 -16 34 -46 59 -68 98 -86 217 -83 320 7 61 54 88
111 94 196 8 124 -27 184 -138 240 -47 24 -69 29 -155 31 -83 3 -109 -1 -155
-18z"/>
<path d="M7441 2534 c-137 -49 -188 -122 -179 -258 5 -79 22 -118 76 -178 95
-105 235 -116 338 -25 120 106 94 199 -96 349 l-35 28 70 -25 c124 -45 206
-117 246 -215 23 -58 17 -183 -14 -263 -53 -137 -155 -266 -289 -367 -89 -67
-150 -101 -248 -137 l-65 -24 95 5 c305 15 582 235 655 521 20 77 19 207 -1
276 -37 125 -131 235 -251 292 -60 28 -80 32 -163 34 -67 2 -108 -2 -139 -13z"/>
<path d="M2282 2420 c-42 -6 -64 -17 -110 -56 -117 -100 -259 -249 -281 -295
-26 -57 -37 -134 -22 -171 21 -55 144 -46 238 17 58 39 290 286 305 325 10 27
16 165 8 174 -11 11 -86 14 -138 6z"/>
<path d="M10404 2423 c-29 -5 -36 -49 -24 -131 10 -73 31 -101 205 -278 118
-120 169 -148 262 -149 34 0 67 5 73 11 39 39 14 169 -47 249 -55 71 -290 283
-322 289 -47 9 -126 14 -147 9z"/>
<path d="M5829 2341 c-44 -44 -38 -111 15 -153 57 -47 156 5 156 82 0 87 -109
132 -171 71z"/>
<path d="M6851 2356 c-91 -50 -49 -187 57 -186 30 0 64 24 81 57 44 87 -52
177 -138 129z"/>
<path d="M6214 2310 c-31 -12 -64 -59 -64 -89 0 -54 48 -100 103 -101 107 -1
135 154 35 189 -36 13 -45 13 -74 1z"/>
<path d="M6510 2309 c-98 -39 -68 -190 37 -189 42 1 61 12 87 52 48 74 -40
172 -124 137z"/>
<path d="M4454 1948 c0 -110 -2 -128 -24 -172 -13 -27 -38 -64 -57 -82 -35
-35 -101 -61 -128 -50 -15 5 -14 10 9 37 17 20 26 43 26 64 0 30 -6 38 -47 62
-90 53 -198 34 -257 -44 -27 -36 -32 -104 -12 -156 51 -134 224 -176 383 -94
39 21 43 21 43 2 0 -22 48 -114 82 -157 37 -48 118 -88 177 -88 86 0 170 62
186 137 16 78 -48 178 -132 207 -26 9 -54 16 -64 16 -26 0 -59 -48 -59 -86 0
-40 -9 -42 -39 -10 -45 48 -48 138 -7 226 21 45 105 139 161 177 16 12 28 23
25 25 -6 5 -228 97 -251 104 -14 5 -16 -9 -15 -118z"/>
<path d="M5594 2055 c-20 -13 -52 -72 -43 -78 89 -59 174 -165 234 -292 59
-124 78 -207 78 -335 0 -87 -5 -118 -27 -184 -32 -95 -82 -172 -145 -226 -45
-39 -219 -135 -228 -126 -3 3 6 20 20 38 62 81 85 194 53 256 -20 38 -65 78
-108 96 -46 20 -128 21 -172 2 -53 -22 -113 -83 -133 -134 -22 -56 -24 -169
-4 -226 32 -93 165 -186 265 -186 71 0 169 26 256 68 89 43 215 163 269 254
159 273 135 660 -53 854 -29 30 -46 52 -37 49 30 -12 196 -44 291 -57 122 -16
458 -16 580 0 95 13 261 45 291 57 9 3 -8 -19 -37 -49 -188 -194 -212 -581
-53 -854 54 -91 180 -211 269 -254 87 -42 185 -68 256 -68 100 0 233 93 265
186 19 55 17 170 -4 226 -20 51 -80 112 -133 134 -44 19 -126 18 -172 -2 -44
-18 -88 -58 -109 -98 -33 -63 -10 -171 53 -254 14 -18 24 -35 21 -38 -9 -9
-183 87 -228 126 -63 54 -113 131 -145 226 -23 66 -27 96 -27 184 0 128 19
211 78 335 60 129 135 222 235 293 8 6 -34 73 -53 83 -13 8 -51 2 -140 -20
-411 -104 -911 -104 -1315 0 -133 34 -122 33 -148 14z"/>
<path d="M8300 2055 c-14 -7 -69 -31 -122 -52 -54 -21 -98 -41 -98 -44 0 -4
18 -19 41 -35 55 -38 122 -114 146 -166 40 -86 37 -177 -8 -224 -30 -32 -39
-30 -39 10 0 38 -33 86 -59 86 -42 0 -112 -34 -145 -70 -86 -96 -65 -215 49
-270 124 -60 270 23 331 187 10 27 19 49 20 51 1 2 17 -4 36 -14 46 -24 125
-44 174 -44 131 0 235 105 222 224 -14 123 -161 183 -280 113 -42 -24 -48 -32
-48 -62 0 -21 9 -44 26 -64 23 -27 24 -32 9 -37 -27 -11 -93 15 -128 50 -19
18 -44 55 -57 82 -22 44 -24 62 -24 172 1 129 -1 133 -46 107z"/>
<path d="M4263 1345 c-27 -11 -182 -52 -270 -71 -13 -2 -23 -11 -23 -18 0 -16
71 -82 106 -98 20 -9 24 -18 24 -52 0 -23 3 -71 6 -107 5 -54 10 -67 28 -75
18 -8 32 0 98 62 l77 72 58 -14 c56 -14 123 -11 123 5 0 4 -24 44 -54 90 -30
45 -69 113 -88 151 -18 39 -37 70 -43 70 -5 -1 -25 -7 -42 -15z"/>
<path d="M8450 1288 c-19 -39 -58 -107 -87 -150 -29 -44 -53 -83 -53 -88 0
-17 65 -20 123 -6 l58 14 77 -72 c66 -62 80 -70 98 -62 18 8 23 21 28 75 3 36
6 84 6 107 0 34 4 43 24 52 35 16 106 82 106 98 0 7 -10 16 -22 19 -125 27
-206 48 -254 65 -32 11 -61 20 -64 20 -3 0 -21 -32 -40 -72z"/>
<path d="M6349 1228 c-37 -52 -50 -82 -99 -225 -51 -150 -92 -230 -151 -296
-70 -79 -163 -137 -294 -182 -18 -7 -17 -8 9 -16 41 -11 171 6 279 37 13 4 7
-10 -22 -56 -63 -97 -65 -191 -5 -218 38 -18 72 1 95 52 26 59 42 194 34 282
l-7 72 42 63 c41 59 160 297 160 319 0 5 5 10 10 10 6 0 10 -5 10 -10 0 -21
121 -264 161 -322 l41 -61 -7 -71 c-8 -88 8 -223 34 -282 23 -51 57 -70 95
-52 60 27 58 121 -5 218 -29 46 -35 60 -22 56 108 -31 238 -48 279 -37 26 8
27 9 9 16 -247 86 -354 202 -445 480 -53 161 -112 265 -150 265 -12 0 -33 -18
-51 -42z"/>
<path d="M6333 706 c-59 -62 -60 -66 -67 -132 -3 -38 -7 -139 -7 -224 -1 -188
14 -243 86 -309 25 -23 50 -41 57 -41 25 0 106 97 123 150 18 55 22 249 9 414
l-7 78 -60 64 c-32 35 -63 64 -67 64 -4 0 -35 -29 -67 -64z"/>
</g>
</svg>
