<?xml version="1.0" encoding="UTF-8" standalone="no"?>
<svg
   version="1.1"
   id="Layer_1"
   x="0px"
   y="0px"
   viewBox="0 0 1705 1705"
   enable-background="new 0 0 1705 1705"
   xml:space="preserve"
   sodipodi:docname="Corner-Decoration-Expanded-3.svg"
   inkscape:version="1.2.2 (b0a8486541, 2022-12-01)"
   xmlns:inkscape="http://www.inkscape.org/namespaces/inkscape"
   xmlns:sodipodi="http://sodipodi.sourceforge.net/DTD/sodipodi-0.dtd"
   xmlns="http://www.w3.org/2000/svg"
   xmlns:svg="http://www.w3.org/2000/svg"><defs
   id="defs242" /><sodipodi:namedview
   id="namedview240"
   pagecolor="#ffffff"
   bordercolor="#000000"
   borderopacity="0.25"
   inkscape:showpageshadow="2"
   inkscape:pageopacity="0.0"
   inkscape:pagecheckerboard="0"
   inkscape:deskcolor="#d1d1d1"
   showgrid="false"
   inkscape:zoom="0.60038929"
   inkscape:cx="852.78003"
   inkscape:cy="852.78003"
   inkscape:window-width="2560"
   inkscape:window-height="1368"
   inkscape:window-x="0"
   inkscape:window-y="40"
   inkscape:window-maximized="1"
   inkscape:current-layer="Layer_1" />
<path
   id="path44265"
   d="m 1584.215,122.84663 c 6.6727,19.39897 18.8791,32.14952 38.5051,41.32978 20.4676,9.57459 35.2981,22.66314 45.9256,40.53792 14.5024,24.39247 17.4216,27.43237 28.4774,29.62194 18.6341,3.68932 2.9406,15.09104 -20.5273,14.91354 -28.0917,-0.21152 -66.5382,-28.04035 -78.6498,-56.93208 -3.5883,-8.55846 -7.6059,-18.10118 -8.9292,-21.20484 -1.3232,-3.10473 -3.0929,-7.86333 -3.9303,-10.57585 -7.851,-25.42349 -8.6501,57.84192 -0.8385,87.41922 7.3269,27.74168 22.5793,46.68148 47.5323,59.02068 16.8389,8.32675 28.4231,20.60749 38.3453,40.66015 5.0628,10.23253 9.5898,15.14206 16.8431,18.2553 17.624,7.56359 4.0912,21.2718 -20.6339,20.90085 -35.4505,-0.53145 -81.6446,-52.29784 -81.5594,-91.39978 0.011,-2.70402 -1.3381,-4.93398 -2.9917,-4.95205 -4.2776,-0.0446 -1.5405,103.60399 3.2858,124.37517 5.164,22.22523 10.6669,29.65702 28.3016,38.21442 20.6913,10.04015 29.2157,19.6105 38.5391,43.27701 5.9642,15.13994 10.0149,21.29626 16.2103,24.61782 l 8.2665,4.42485 -6.5651,5.1912 c -27.4492,21.7044 -66.0385,-8.72641 -79.6651,-62.81948 -1.7302,-6.86739 -4.8604,-13.07898 -6.9582,-13.80175 -4.2861,-1.4753 -2.851,44.88305 1.8655,60.29722 22.2245,72.62472 23.1419,120.39036 3.5788,186.49207 -10.3612,35.00872 -10.3622,35.6709 -0.1524,46.40194 16.3328,17.16688 6.0345,40.75581 -17.6826,40.50815 -21.2966,-0.22108 -29.5322,-21.59173 -14.7784,-38.34834 9.56,-10.85752 9.3352,-13.14382 -9.1167,-92.54665 -5.6605,-24.3574 -6.3893,-49.49178 -2.0594,-70.82099 1.5022,-7.3999 4.3703,-21.6587 6.3775,-31.68184 2.0073,-10.02314 6.0984,-27.56736 9.088,-38.98608 8.9995,-34.38055 6.3594,-69.69857 -2.8511,-38.1549 -9.3756,32.11019 -53.3611,55.75757 -72.5013,38.98077 -8.275,-7.25323 -7.3066,-11.98738 3.2389,-15.86165 3.5627,-1.30843 10.4059,-9.0644 15.2066,-17.23066 9.9979,-17.00852 19.578,-26.40667 36.9847,-36.26506 25.2173,-14.28218 27.1819,-20.2291 28.7182,-87.06847 1.2359,-53.7742 -2.0914,-78.5759 -6.6407,-49.51623 -7.3204,46.75163 -60.8574,87.60736 -90.56,69.11184 -11.5629,-7.20008 -11.4628,-14.40547 0.2695,-19.69552 6.8336,-3.08135 11.5938,-8.9528 18.8972,-23.3062 8.9932,-17.67601 11.6024,-20.34389 33.112,-33.87141 36.6331,-23.03834 44.0495,-41.13208 44.6759,-108.98226 0.3718,-40.29026 -2.216,-47.43401 -9.3159,-25.71154 -8.5202,26.06761 -37.5793,62.37838 -55.101,68.84825 -13.633,5.03389 -28.129,6.68776 -39.5641,5.38465 -1.3062,-11.40704 0.3516,-25.86991 5.3974,-39.47077 6.4851,-17.48045 42.8817,-46.47103 69.011,-54.97103 21.7727,-7.08316 14.6121,-9.66601 -25.7723,-9.294 -68.0096,0.62499 -86.1461,8.02277 -109.24,44.57056 -13.5595,21.45888 -16.2336,24.06192 -33.9514,33.03385 -14.3874,7.28618 -20.2727,12.03521 -23.3613,18.85265 -5.3026,11.70465 -12.525,11.80456 -19.7421,0.26891 -18.5393,-29.63257 22.4131,-83.04326 69.2752,-90.34644 29.1284,-4.53965 4.2691,-7.85802 -49.6333,-6.62505 -66.9974,1.53163 -72.9583,3.49268 -87.2743,28.65045 -9.8817,17.36565 -19.3021,26.92324 -36.3508,36.89749 -8.1855,4.78942 -15.9599,11.61749 -17.2714,15.17076 -3.8834,10.51951 -8.6287,11.48675 -15.8991,3.23121 -16.8165,-19.09605 6.8868,-62.97678 39.0729,-72.3303 31.6182,-9.18876 -3.7843,-11.82263 -38.2451,-2.84432 -11.4457,2.98144 -29.0314,7.06403 -39.0782,9.06653 -10.0469,2.00251 -24.3394,4.86383 -31.7568,6.36252 -21.3796,4.31962 -46.5723,3.5926 -70.9884,-2.05458 -79.5905,-18.40836 -81.88221,-18.63263 -92.76539,-9.09523 -16.79622,14.71903 -38.2174,6.50281 -38.439,-14.74348 -0.24825,-23.66014 23.39645,-33.93412 40.60392,-17.64094 10.75746,10.18576 11.42122,10.1847 46.51167,-0.152 66.2579,-19.516951 114.1375,-18.601795 186.9329,3.57028 15.4506,4.70546 61.9185,6.13718 60.4397,1.86114 -0.7234,-2.09285 -6.9496,-5.21565 -13.8333,-6.9418 -54.2209,-13.59448 -84.7237,-52.092691 -62.968,-79.477231 l 5.2035,-6.549586 4.4353,8.247036 c 3.3294,6.18076 9.5003,10.221904 24.676,16.172014 23.7225,9.301433 33.3155,17.805691 43.3793,38.448259 8.5766,17.593108 16.026,23.082978 38.3048,28.234858 20.8203,4.81493 124.714,7.54552 124.6692,3.27798 -0.018,-1.64962 -2.2523,-2.991 -4.9637,-2.98462 -39.1944,0.084 -91.0832,-46.000157 -91.6159,-81.368134 -0.3718,-24.666706 13.3688,-38.1676537 20.9503,-20.585172 3.1206,7.236219 8.0417,11.752478 18.2984,16.803376 20.1001,9.898782 32.4099,21.455687 40.7563,38.254811 12.3684,24.894169 31.3529,40.111689 59.1602,47.420189 29.6483,7.79318 113.1105,6.996 87.6259,-0.8365 -2.7189,-0.83544 -7.4899,-2.60092 -10.6009,-3.92104 -3.112,-1.32012 -12.6773,-5.32831 -21.2549,-8.90816 -28.959,-12.084096 -56.8536,-50.43882 -57.0667,-78.464288 -0.1779,-23.4135474 11.2507,-39.0700551 14.9488,-20.479945 2.1937,11.029707 5.2418,13.942051 29.692,28.410237 17.9159,10.602422 31.0365,25.397981 40.6337,45.817341 9.1956,19.576485 21.9763,31.754115 41.4211,38.411055 z m 0,1458.94637 c -19.4448,6.6569 -32.2255,18.8346 -41.4275,38.4142 -9.5972,20.4194 -22.7167,35.2149 -40.6337,45.8174 -24.4502,14.4682 -27.4973,17.3805 -29.692,28.4102 -3.698,18.5901 -15.1267,2.9336 -14.9488,-20.4789 0.212,-28.0254 28.1066,-66.3812 57.0667,-78.4643 8.5787,-3.5798 18.1439,-7.588 21.2549,-8.9081 3.1121,-1.3202 7.882,-3.0856 10.6009,-3.9211 25.4836,-7.8325 -57.9787,-8.6296 -87.6259,-0.8365 -27.8072,7.3096 -46.7918,22.5261 -59.1602,47.4202 -8.3464,16.7991 -20.6562,28.3561 -40.7563,38.2548 -10.2567,5.0509 -15.1778,9.5672 -18.2984,16.8034 -7.5815,17.5825 -21.3221,4.0815 -20.9503,-20.5852 0.5327,-35.3669 52.4215,-81.4521 91.6159,-81.367 2.7104,0.011 4.9456,-1.335 4.9637,-2.9847 0.045,-4.2675 -103.85,-1.5369 -124.6692,3.278 -22.2777,5.1519 -29.7271,10.6418 -38.3047,28.2349 -10.0639,20.6426 -19.6569,29.1468 -43.3794,38.4482 -15.1757,5.9502 -21.3466,9.9913 -24.676,16.1721 l -4.4353,8.247 -5.2035,-6.5496 c -21.7557,-27.3845 8.7471,-65.8827 62.968,-79.4772 6.8837,-1.7262 13.1099,-4.849 13.8333,-6.9418 1.4788,-4.2761 -44.9891,-2.8443 -60.4397,1.8611 -72.7964,22.1721 -120.675,23.0872 -186.9329,3.5703 -35.09151,-10.3367 -35.75526,-10.3378 -46.51167,-0.152 -17.20747,16.2942 -40.85216,6.0203 -40.60392,-17.6409 0.22161,-21.2463 21.64278,-29.4626 38.43901,-14.7435 10.88318,9.5374 13.17488,9.3131 92.76548,-9.0953 24.4149,-5.6471 49.6087,-6.3742 70.9883,-2.0545 7.4174,1.4986 21.7099,4.36 31.7568,6.3625 10.0468,2.0025 27.6325,6.084 39.0782,9.0665 34.4618,8.9783 69.8633,6.3445 38.2451,-2.8443 -32.1861,-9.3535 -55.8894,-53.2353 -39.0729,-72.3303 7.2704,-8.2556 12.0157,-7.2894 15.8991,3.2312 1.3116,3.5543 9.0859,10.3813 17.2714,15.1708 17.0488,9.9742 26.4691,19.5318 36.3508,36.8975 14.316,25.1577 20.2769,27.1177 87.2743,28.6504 53.9014,1.233 78.7617,-2.0865 49.6333,-6.625 -46.8621,-7.3032 -87.8144,-60.7139 -69.2752,-90.3465 7.2171,-11.5356 14.4395,-11.4357 19.7421,0.2689 3.0886,6.8175 8.9739,11.5665 23.3613,18.8527 17.7178,8.9719 20.392,11.5749 33.9515,33.0338 23.0928,36.5467 41.2293,43.9456 109.2399,44.5706 40.3855,0.3709 47.5461,-2.2109 25.7723,-9.294 -26.1293,-8.5 -62.5259,-37.4906 -69.011,-54.971 -5.0458,-13.6009 -6.7036,-28.0627 -5.3974,-39.4708 11.434,-1.3031 25.9311,0.3507 39.5641,5.3846 17.5217,6.4699 46.5809,42.7807 55.101,68.8483 7.0999,21.7214 9.6888,14.5776 9.3159,-25.7116 -0.6264,-67.8491 -8.0417,-85.9428 -44.6759,-108.9822 -21.5096,-13.5275 -24.1188,-16.1954 -33.1119,-33.8714 -7.3034,-14.3534 -12.0637,-20.2249 -18.8973,-23.3062 -11.7323,-5.2901 -11.8324,-12.4955 -0.2695,-19.6956 29.7026,-18.4955 83.2396,22.3603 90.56,69.1119 4.5504,29.0597 7.8766,4.259 6.6407,-49.5162 -1.5352,-66.8394 -3.5009,-72.7863 -28.7182,-87.0685 -17.4067,-9.8584 -26.9858,-19.2566 -36.9847,-36.2651 -4.8007,-8.1662 -11.6449,-15.9222 -15.2066,-17.2306 -10.5444,-3.8743 -11.5139,-8.6085 -3.2388,-15.8617 19.1411,-16.7768 63.1256,6.8706 72.5012,38.9808 9.2105,31.5437 11.8506,-3.7754 2.8511,-38.1549 -2.9896,-11.4187 -7.0807,-28.963 -9.088,-38.9861 -2.0072,-10.0231 -4.8753,-24.2819 -6.3775,-31.6818 -4.3299,-21.3292 -3.6011,-46.4626 2.0594,-70.8211 18.4519,-79.4028 18.6767,-81.68909 9.1167,-92.54661 -14.7538,-16.75661 -6.5182,-38.12726 14.7784,-38.34835 23.716,-0.24765 34.0154,23.34127 17.6826,40.50816 -10.2098,10.7321 -10.2088,11.39428 0.1524,46.4019 19.5631,66.1018 18.6457,113.8685 -3.5787,186.4922 -4.7166,15.4141 -6.1517,61.7725 -1.8656,60.2972 2.0978,-0.7217 5.228,-6.9333 6.9582,-13.8007 13.6266,-54.0931 52.2159,-84.5239 79.6651,-62.8195 l 6.5651,5.1912 -8.2665,4.4249 c -6.1954,3.3215 -10.2461,9.4778 -16.2103,24.6178 -9.3234,23.6665 -17.8477,33.2368 -38.5391,43.277 -17.6347,8.5563 -23.1376,15.9881 -28.3016,38.2144 -4.8263,20.7712 -7.5634,124.4198 -3.2858,124.3752 1.6536,-0.018 2.9981,-2.247 2.9917,-4.9521 -0.084,-39.1019 46.1089,-90.8683 81.5595,-91.3998 24.725,-0.3709 38.2578,13.3373 20.6338,20.9009 -7.2533,3.1132 -11.7803,8.0228 -16.8431,18.2553 -9.9222,20.0527 -21.5064,32.3334 -38.3453,40.6601 -24.953,12.3392 -40.2065,31.279 -47.5323,59.0207 -7.8116,29.5784 -7.0125,112.8438 0.8385,87.4192 0.8374,-2.7125 2.6071,-7.4721 3.9303,-10.5758 1.3233,-3.1047 5.3409,-12.6474 8.9292,-21.2048 12.1127,-28.8907 50.5581,-56.7195 78.6498,-56.9321 23.4689,-0.1775 39.1614,11.2242 20.5273,14.9135 -11.0557,2.1885 -13.975,5.2295 -28.4774,29.622 -10.6275,17.8737 -25.458,30.9633 -45.9256,40.5379 -19.6196,9.1739 -31.8271,21.9244 -38.4987,41.3234 z m -1462.3953,0 c -6.67268,-19.399 -18.87911,-32.1495 -38.505063,-41.3298 -20.467633,-9.5746 -35.29817,-22.6631 -45.925656,-40.5379 -14.50239,-24.3925 -17.421619,-27.4324 -28.4774007,-29.622 -18.6340583,-3.6893 -2.9405375,-15.091 20.5283607,-14.9135 28.091722,0.2115 66.537119,28.0403 78.649789,56.9321 3.58831,8.5584 7.60598,18.1012 8.92922,21.2048 1.32324,3.1047 3.09289,7.8633 3.93031,10.5759 7.85102,25.4235 8.65008,-57.842 0.83848,-87.4193 -7.32684,-27.7416 -22.579285,-46.6814 -47.532303,-59.0206 -16.838838,-8.3268 -28.423065,-20.6075 -38.345248,-40.6602 -5.062838,-10.2325 -9.589774,-15.142 -16.8431,-18.2553 -17.6240478,-7.5636 -4.091183,-21.2718 20.633837,-20.9008 35.450523,0.5314 81.644664,52.2978 81.560494,91.3997 -0.006,2.7041 1.33816,4.934 2.99168,4.9521 4.27763,0.045 1.54059,-103.6051 -3.28573,-124.3752 -5.16405,-22.2252 -10.66691,-29.657 -28.301611,-38.2144 -20.691369,-10.0401 -29.215731,-19.6105 -38.539153,-43.277 -5.964177,-15.1399 -10.014874,-21.2963 -16.210246,-24.6178 l -8.266533,-4.4249 6.56507,-5.1912 c 27.449278,-21.7044 66.038503,8.7264 79.665133,62.8195 1.73022,6.8674 4.86041,13.079 6.9582,13.8007 4.28616,1.4753 2.85104,-44.8831 -1.86553,-60.2972 -22.224503,-72.6248 -23.141823,-120.3904 -3.57872,-186.4921 10.36113,-35.00876 10.36219,-35.67094 0.15235,-46.40198 -16.33277,-17.16688 -6.03449,-40.75581 17.68265,-40.50815 21.29652,0.22108 29.53215,21.59173 14.77833,38.34834 -9.55995,10.85752 -9.33514,13.14382 9.11673,92.54669 5.66053,24.3574 6.38928,49.4918 2.05944,70.821 -1.50223,7.3999 -4.37032,21.6587 -6.37756,31.6818 -2.00723,10.0232 -6.09842,27.5674 -9.08796,38.9861 -8.99954,34.3806 -6.35945,69.6986 2.85104,38.1549 9.37563,-32.1102 53.36117,-55.7576 72.5013,-38.9808 8.27505,7.2533 7.30659,11.9874 -3.23886,15.8617 -3.56273,1.3084 -10.40588,9.0644 -15.20662,17.2307 -9.99783,17.0085 -19.57802,26.4066 -36.98472,36.265 -25.21724,14.2822 -27.18186,20.2291 -28.71818,87.0685 -1.23588,53.7742 2.0914,78.5759 6.64071,49.5162 7.32045,-46.7516 60.85741,-87.6073 90.56003,-69.1118 11.56185,7.2 11.46277,14.4054 -0.26955,19.6955 -6.83355,3.0813 -11.59381,8.9528 -18.89721,23.3062 -8.99315,17.676 -11.60234,20.3439 -33.11195,33.8714 -36.63313,23.0383 -44.04946,41.1321 -44.67592,108.9823 -0.37183,40.2902 2.21712,47.434 9.31596,25.7115 8.5201,-26.0676 37.57922,-62.3784 55.10098,-68.8482 13.63302,-5.0339 28.12902,-6.6878 39.56408,-5.3847 1.3062,11.407 -0.35158,25.8699 -5.39737,39.4708 -6.48517,17.4804 -42.88178,46.471 -69.01101,54.971 -21.77276,7.0832 -14.61213,9.666 25.77232,9.294 68.01058,-0.625 86.14603,-8.0228 109.2399,-44.5706 13.5595,-21.4588 16.23369,-24.0619 33.95149,-33.0338 14.38733,-7.2862 20.27266,-12.0352 23.36129,-18.8527 5.30256,-11.7046 12.52499,-11.8045 19.74209,-0.2689 18.53924,29.6326 -22.41308,83.0433 -69.27523,90.3465 -29.12837,4.5396 -4.2691,7.858 49.63329,6.625 66.99738,-1.5316 72.95836,-3.4927 87.2743,-28.6504 9.8817,-17.3657 19.30207,-26.9222 36.3508,-36.8975 8.18556,-4.7894 15.95987,-11.6175 17.2714,-15.1708 3.88342,-10.5195 8.62877,-11.4867 15.89914,-3.2312 16.81647,19.0961 -6.88682,62.9768 -39.07292,72.3303 -31.61824,9.1888 3.78434,11.8226 38.2451,2.8443 11.44572,-2.9825 29.03141,-7.064 39.07825,-9.0665 10.04683,-2.0025 24.33934,-4.8638 31.75674,-6.3625 21.37962,-4.3196 46.57236,-3.5926 70.98841,2.0546 79.59055,18.4083 81.88225,18.6326 92.76543,9.0952 16.79623,-14.719 38.2174,-6.5028 38.43901,14.7435 0.24824,23.6601 -23.39645,33.9352 -40.60392,17.6409 -10.75747,-10.1857 -11.42122,-10.1847 -46.51164,0.152 -66.25798,19.517 -114.1376,18.6018 -186.93295,-3.5703 -15.45061,-4.7054 -61.91856,-6.1371 -60.43976,-1.8611 0.72341,2.0928 6.94968,5.2156 13.83437,6.9418 54.22096,13.5945 84.72371,52.0927 62.96799,79.4772 l -5.20347,6.5496 -4.43531,-8.247 c -3.32942,-6.1808 -9.50028,-10.2219 -24.67601,-16.172 -23.72247,-9.3015 -33.31544,-17.8057 -43.37932,-38.4483 -8.57657,-17.5931 -16.02593,-23.083 -38.30477,-28.2349 -20.81922,-4.8149 -124.71395,-7.5455 -124.6692,-3.2779 0.0181,1.6496 2.25228,2.991 4.96376,2.9846 39.19438,-0.084 91.08315,46.0001 91.61585,81.3671 0.37183,24.6667 -13.36879,38.1676 -20.95026,20.5851 -3.12059,-7.2362 -8.04173,-11.7524 -18.29846,-16.8033 -20.10006,-9.8988 -32.40983,-21.4557 -40.75627,-38.2549 -12.36837,-24.8941 -31.35295,-40.1117 -59.16021,-47.4201 -29.64829,-7.7932 -113.11054,-6.9961 -87.62588,0.8365 2.71893,0.8354 7.48984,2.6009 10.60085,3.921 3.11207,1.3201 12.67734,5.3283 21.25497,8.9081 28.95897,12.0842 56.85359,50.4389 57.06667,78.4643 0.17792,23.4136 -11.25075,39.069 -14.9488,20.4789 -2.19368,-11.0297 -5.24183,-13.942 -29.69197,-28.4102 -17.91597,-10.6024 -31.03652,-25.398 -40.63375,-45.8174 -9.19877,-19.5732 -21.97946,-31.7519 -41.42429,-38.4078 z m 0,-1458.94637 c 19.44483,-6.65694 32.22552,-18.83457 41.42748,-38.414244 9.59724,-20.41936 22.71672,-35.214919 40.63376,-45.81734 24.45014,-14.468187 27.49722,-17.380531 29.69197,-28.410238 3.69804,-18.5901098 15.12672,-2.9336021 14.9488,20.479945 -0.21202,28.025468 -28.10664,66.380192 -57.06667,78.464287 -8.5787,3.57985 -18.14397,7.58804 -21.25498,8.90816 -3.11207,1.32012 -7.88192,3.0856 -10.60085,3.92104 -25.48359,7.8325 57.97867,8.62968 87.62589,0.8365 27.80726,-7.30956 46.79183,-22.52602 59.1602,-47.420187 8.34644,-16.799125 20.65621,-28.35603 40.75628,-38.254812 10.25672,-5.050898 15.17786,-9.567157 18.29845,-16.803376 7.58148,-17.5824814 21.3221,-4.081534 20.95027,20.585172 -0.53271,35.366914 -52.42148,81.452103 -91.61586,81.368133 -2.71041,-0.006 -4.94564,1.335 -4.96375,2.98462 -0.0448,4.26754 103.84892,1.53695 124.6692,-3.27798 22.27777,-5.15187 29.72713,-10.64175 38.30476,-28.234856 10.06388,-20.642569 19.65686,-29.146827 43.37932,-38.448259 15.17573,-5.950111 21.3466,-9.991254 24.67601,-16.172014 l 4.43531,-8.247036 5.20348,6.549585 c 21.75571,27.38454 -8.74704,65.88276 -62.96799,79.47723 -6.88363,1.72615 -13.1099,4.84895 -13.83438,6.9418 -1.47879,4.27604 44.98916,2.84432 60.43977,-1.86114 72.79641,-22.172074 120.67497,-23.08723 186.93295,-3.57028 35.09148,10.3367 35.75523,10.33776 46.51163,0.152 17.20747,-16.29424 40.85216,-6.02026 40.60392,17.64094 -0.2216,21.24629 -21.64278,29.46251 -38.439,14.74348 -10.88319,-9.5374 -13.17489,-9.31313 -92.76544,9.09523 -24.41498,5.64718 -49.60878,6.3742 -70.98841,2.05458 -7.4174,-1.49869 -21.7099,-4.36001 -31.75674,-6.36251 -10.04683,-2.00251 -27.63253,-6.08404 -39.07825,-9.06654 -34.46182,-8.97831 -69.86333,-6.34444 -38.2451,2.84432 32.1861,9.35352 55.88939,53.23532 39.07293,72.3303 -7.27038,8.25554 -12.01572,7.28937 -15.89915,-3.23121 -1.31152,-3.55433 -9.08583,-10.38134 -17.27139,-15.17076 -17.04873,-9.97425 -26.4691,-19.53184 -36.3508,-36.89749 -14.31594,-25.15777 -20.27693,-27.11775 -87.2743,-28.65045 -53.90133,-1.23297 -78.76166,2.08647 -49.63329,6.62505 46.86215,7.30318 87.81446,60.71387 69.27523,90.34645 -7.21711,11.53458 -14.43953,11.43573 -19.74209,-0.26892 -3.08863,-6.81744 -8.97397,-11.56647 -23.36129,-18.85264 -17.71781,-8.97194 -20.39199,-11.57498 -33.95149,-33.03385 -23.09281,-36.54674 -41.22932,-43.94558 -109.2399,-44.57056 -40.38552,-0.37096 -47.54615,2.21189 -25.77232,9.29399 26.12923,8.5 62.52584,37.49059 69.011,54.97103 5.04579,13.60086 6.70358,28.06267 5.39738,39.47077 -11.434,1.30311 -25.93107,-0.35076 -39.56408,-5.38465 -17.52177,-6.46987 -46.58088,-42.78064 -55.10098,-68.84825 -7.09991,-21.72141 -9.68886,-14.57766 -9.31597,25.71154 0.62646,67.85018 8.04173,85.94285 44.67593,108.98226 21.5096,13.52752 24.1188,16.1954 33.11194,33.87142 7.3034,14.35339 12.06366,20.22484 18.89722,23.30619 11.73232,5.29005 11.83246,12.49545 0.26955,19.69553 -29.70263,18.49551 -83.23959,-22.36022 -90.56003,-69.11185 -4.55038,-29.05967 -7.8766,-4.25904 -6.64072,49.51623 1.53526,66.83937 3.50095,72.78629 28.71819,87.06847 17.4067,9.85839 26.98689,19.25655 36.98471,36.26506 4.80075,8.16626 11.64496,15.92223 15.20663,17.23066 10.54438,3.87427 11.51391,8.60843 3.23885,15.86165 -19.14119,16.7768 -63.12567,-6.87058 -72.50129,-38.98077 -9.21049,-31.54367 -11.85058,3.77542 -2.85105,38.1549 2.98849,11.41873 7.08073,28.96294 9.08797,38.98608 2.00724,10.02314 4.87533,24.28194 6.37756,31.68185 4.32983,21.3292 3.60109,46.46252 -2.05945,70.82098 -18.45187,79.40284 -18.67667,81.68913 -9.11673,92.54665 14.75383,16.75661 6.51819,38.12726 -14.77833,38.34835 -23.71607,0.24765 -34.01435,-23.34127 -17.68264,-40.50816 10.20984,-10.7321 10.20878,-11.39428 -0.15236,-46.40194 -19.563096,-66.10171 -18.645777,-113.86841 3.57872,-186.49207 4.71658,-15.41417 6.15169,-61.77252 1.86554,-60.29722 -2.0978,0.72171 -5.22798,6.93329 -6.95821,13.80175 -13.62662,54.09307 -52.215848,84.52388 -79.665127,62.81948 l -6.565069,-5.1912 8.266533,-4.42485 c 6.195371,-3.32156 10.246068,-9.47788 16.210245,-24.61781 9.323422,-23.66652 17.847784,-33.23687 38.539153,-43.27702 17.634705,-8.55634 23.137555,-15.98813 28.301605,-38.21442 4.82632,-20.77011 7.56337,-124.41981 3.28574,-124.37517 -1.65352,0.0181 -2.99807,2.24697 -2.99168,4.95205 0.0842,39.10194 -46.108909,90.86833 -81.560498,91.39978 -24.72502,0.37095 -38.2578845,-13.33726 -20.633837,-20.90085 7.253326,-3.11323 11.780262,-8.02277 16.8431,-18.2553 9.922184,-20.05266 21.50641,-32.3334 38.345249,-40.66015 24.953017,-12.3392 40.206526,-31.279 47.532296,-59.02068 7.8116,-29.57836 7.01254,-112.84377 -0.83848,-87.41922 -0.83741,2.71252 -2.60706,7.47218 -3.9303,10.57585 -1.32324,3.10473 -5.34091,12.64744 -8.92922,21.20484 -12.112674,28.89067 -50.558071,56.7195 -78.649792,56.93208 C 5.974239,249.42413 -9.7192818,238.0224 8.9147765,234.33308 19.970558,232.14457 22.889787,229.10362 37.392177,204.71114 48.019664,186.83742 62.850201,173.74782 83.317833,164.17322 102.94059,154.99615 115.14702,142.2456 121.8197,122.84663 Z"
   style="stroke-width:1.06415" />
</svg>
