<?xml version="1.0" encoding="UTF-8" standalone="no"?>
<svg
   id="svg2894"
   version="1.1"
   viewBox="0 0 206.3123 294.17441"
   height="294.17441mm"
   width="206.3123mm"
   sodipodi:docname="1550482448.svg"
   inkscape:version="1.2.2 (b0a8486541, 2022-12-01)"
   xmlns:inkscape="http://www.inkscape.org/namespaces/inkscape"
   xmlns:sodipodi="http://sodipodi.sourceforge.net/DTD/sodipodi-0.dtd"
   xmlns:xlink="http://www.w3.org/1999/xlink"
   xmlns="http://www.w3.org/2000/svg"
   xmlns:svg="http://www.w3.org/2000/svg"
   xmlns:rdf="http://www.w3.org/1999/02/22-rdf-syntax-ns#"
   xmlns:cc="http://creativecommons.org/ns#"
   xmlns:dc="http://purl.org/dc/elements/1.1/">
  <sodipodi:namedview
     id="namedview74"
     pagecolor="#ffffff"
     bordercolor="#000000"
     borderopacity="0.25"
     inkscape:showpageshadow="2"
     inkscape:pageopacity="0.0"
     inkscape:pagecheckerboard="0"
     inkscape:deskcolor="#d1d1d1"
     inkscape:document-units="mm"
     showgrid="false"
     inkscape:zoom="0.91223345"
     inkscape:cx="390.25098"
     inkscape:cy="737.74975"
     inkscape:window-width="2560"
     inkscape:window-height="1368"
     inkscape:window-x="0"
     inkscape:window-y="40"
     inkscape:window-maximized="1"
     inkscape:current-layer="layer1" />
  <defs
     id="defs2888">
    <linearGradient
       y2="-510.01193"
       x2="-776.66541"
       y1="-523.11853"
       x1="-761.25696"
       gradientTransform="matrix(0,0.18622191,-0.18622191,0,-144.30956,167.58597)"
       gradientUnits="userSpaceOnUse"
       id="linearGradient2723-0"
       xlink:href="#linearGradient1384" />
    <linearGradient
       id="linearGradient1384">
      <stop
         id="stop1380"
         offset="0"
         style="stop-color:#000000;stop-opacity:1" />
      <stop
         id="stop1382"
         offset="1"
         style="stop-color:#808080;stop-opacity:0;" />
    </linearGradient>
    <linearGradient
       y2="-510.01193"
       x2="-776.66541"
       y1="-523.11853"
       x1="-761.25696"
       gradientTransform="matrix(0,-0.18622191,0.18622191,0,50.466485,-116.03908)"
       gradientUnits="userSpaceOnUse"
       id="linearGradient2725"
       xlink:href="#linearGradient1384" />
    <linearGradient
       y2="-510.01193"
       x2="-776.66541"
       y1="-523.11853"
       x1="-761.25696"
       gradientTransform="matrix(0,-0.18622191,0.18622191,0,50.466493,-110.46466)"
       gradientUnits="userSpaceOnUse"
       id="linearGradient2774"
       xlink:href="#linearGradient1384" />
    <linearGradient
       y2="-510.01193"
       x2="-776.66541"
       y1="-523.11853"
       x1="-761.25696"
       gradientTransform="matrix(-0.18622191,0,0,-0.18622191,-194.30845,-77.188978)"
       gradientUnits="userSpaceOnUse"
       id="linearGradient2746"
       xlink:href="#linearGradient1384" />
    <linearGradient
       y2="-510.01193"
       x2="-776.66541"
       y1="-523.11853"
       x1="-761.25696"
       gradientTransform="matrix(-0.18622191,0,0,-0.18622191,-199.88286,-77.188978)"
       gradientUnits="userSpaceOnUse"
       id="linearGradient2738"
       xlink:href="#linearGradient1384" />
    <linearGradient
       y2="-510.01193"
       x2="-776.66541"
       y1="-523.11853"
       x1="-761.25696"
       gradientTransform="matrix(0,0.18622191,-0.18622191,0,-144.30958,173.16036)"
       gradientUnits="userSpaceOnUse"
       id="linearGradient2723"
       xlink:href="#linearGradient1384" />
    <linearGradient
       y2="-510.01193"
       x2="-776.66541"
       y1="-523.11853"
       x1="-761.25696"
       gradientTransform="matrix(0.18622191,0,0,0.18622191,89.316596,117.58708)"
       gradientUnits="userSpaceOnUse"
       id="linearGradient2742"
       xlink:href="#linearGradient1384" />
    <linearGradient
       y2="-510.01193"
       x2="-776.66541"
       y1="-523.11853"
       x1="-761.25696"
       gradientTransform="matrix(0.18622191,0,0,0.18622191,83.742186,117.58708)"
       gradientUnits="userSpaceOnUse"
       id="linearGradient2734"
       xlink:href="#linearGradient1384" />
    <linearGradient
       y2="-510.01193"
       x2="-776.66541"
       y1="-523.11853"
       x1="-761.25696"
       gradientTransform="rotate(180,-721.2131,-526.10689)"
       gradientUnits="userSpaceOnUse"
       id="linearGradient1704"
       xlink:href="#linearGradient1384" />
    <linearGradient
       y2="-510.01193"
       x2="-776.66541"
       y1="-523.11853"
       x1="-761.25696"
       gradientTransform="translate(80.622601,-6.2784606)"
       gradientUnits="userSpaceOnUse"
       id="linearGradient1706"
       xlink:href="#linearGradient1384" />
    <linearGradient
       y2="-510.01193"
       x2="-776.66541"
       y1="-523.11853"
       x1="-761.25696"
       gradientTransform="translate(50.688411,-6.2784906)"
       gradientUnits="userSpaceOnUse"
       id="linearGradient1708"
       xlink:href="#linearGradient1384" />
    <linearGradient
       y2="-510.01193"
       x2="-776.66541"
       y1="-523.11853"
       x1="-761.25696"
       gradientTransform="rotate(180,-736.1802,-526.1069)"
       gradientUnits="userSpaceOnUse"
       id="linearGradient1710"
       xlink:href="#linearGradient1384" />
  </defs>
  <metadata
     id="metadata2891">
    <rdf:RDF>
      <cc:Work
         rdf:about="">
        <dc:format>image/svg+xml</dc:format>
        <dc:type
           rdf:resource="http://purl.org/dc/dcmitype/StillImage" />
        <dc:title />
      </cc:Work>
    </rdf:RDF>
  </metadata>
  <g
     id="layer1"
     transform="translate(-1.8438511,-1.4127896)">
    <path
       style="fill:none;stroke:#000000;stroke-width:0.264583px;stroke-linecap:butt;stroke-linejoin:miter;stroke-opacity:1"
       d="M 10.269611,9.8385156 199.7304,9.8385385 V 287.1652 l -189.460777,-4e-5 z"
       id="path4486" />
    <path
       id="path4464"
       d="m 12.21119,11.780095 185.57763,2.3e-5 V 285.22362 l -185.577619,-4e-5 z"
       style="fill:none;stroke:#000000;stroke-width:0.264583px;stroke-linecap:butt;stroke-linejoin:miter;stroke-opacity:1" />
    <g
       transform="matrix(0.98514941,0,0,0.98514941,1.2078492,1.4113179)"
       id="g3733">
      <path
         style="fill:#999999;fill-opacity:1;stroke:#000000;stroke-width:0.265;stroke-linecap:butt;stroke-linejoin:miter;stroke-miterlimit:4;stroke-dasharray:none;stroke-opacity:1"
         d="m 30.102376,0.19265228 -2.7872,2.78720002 1.3936,1.393603 1.3936,-1.393603 m -11.1488,5.574404 2.7872,-2.7872 -1.3936,-1.393602 -1.3936,1.393602 m 11.1488,0 -5.5744,-5.57440402 -2.7872,2.78720002 1.3936,1.393602 1.3936,-1.393602 5.5744,5.574404 m -11.1488,-5.574404 5.5744,5.574404 2.7872,-2.7872 -1.3936,-1.393601 -1.3936,1.393601 -5.5744,-5.57440402 m 22.2976,0 -2.7872,2.78720002 1.3936,1.393603 1.3936,-1.393603 m -11.1488,5.574404 2.7872,-2.7872 -1.3936,-1.393602 -1.3936,1.393602 m 11.1488,0 -5.5744,-5.57440402 -2.7872,2.78720002 1.3936,1.393602 1.3936,-1.393602 5.5744,5.574404 m -11.1488,-5.574404 5.5744,5.574404 2.7872,-2.7872 -1.3936,-1.393601 -1.3936,1.393601 -5.5744,-5.57440402 m 22.2976,0 -2.7872,2.78720002 1.3936,1.393603 1.3936,-1.393603 m -11.1488,5.574404 2.7872,-2.7872 -1.3936,-1.393602 -1.3936,1.393602 m 11.1488,0 -5.5744,-5.57440402 -2.7872,2.78720002 1.3936,1.393602 1.3936,-1.393602 5.5744,5.574404 m -11.1488,-5.574404 5.5744,5.574404 2.7872,-2.7872 -1.3936,-1.393601 -1.3936,1.393601 -5.5744,-5.57440402 m 22.2976,0 -2.7872,2.78720002 1.3936,1.393603 1.3936,-1.393603 m -11.1488,5.574404 2.7872,-2.7872 -1.3936,-1.393602 -1.3936,1.393602 m 11.1488,0 -5.5744,-5.57440402 -2.7872,2.78720002 1.3936,1.393602 1.3936,-1.393602 5.5744,5.574404 m -11.1488,-5.574404 5.5744,5.574404 2.7872,-2.7872 -1.3936,-1.393601 -1.3936,1.393601 -5.5744,-5.57440402 m 22.2976,0 -2.7872,2.78720002 1.3936,1.393603 1.3936,-1.393603 m -11.1488,5.574404 2.7872,-2.7872 -1.3936,-1.393602 -1.3936,1.393602 m 11.1488,0 -5.5744,-5.57440402 -2.7872,2.78720002 1.3936,1.393602 1.3936,-1.393602 5.5744,5.574404 m -11.1488,-5.574404 5.5744,5.574404 2.7872,-2.7872 -1.3936,-1.393601 -1.3936,1.393601 -5.5744,-5.57440402 m 22.2976,0 -2.7872,2.78720002 1.3936,1.393603 1.3936,-1.393603 m -11.1488,5.574404 2.7872,-2.7872 -1.3936,-1.393602 -1.3936,1.393602 m 11.1488,0 -5.5744,-5.57440402 -2.7872,2.78720002 1.3936,1.393602 1.3936,-1.393602 5.5744,5.574404 m -11.1488,-5.574404 5.5744,5.574404 2.7872,-2.7872 -1.3936,-1.393601 -1.3936,1.393601 -5.5744,-5.57440402 m 22.297597,0 -2.787197,2.78720002 1.3936,1.393603 1.393597,-1.393603 m -11.148797,5.574404 2.7872,-2.7872 -1.3936,-1.393602 -1.3936,1.393602 m 11.148797,0 -5.574397,-5.57440402 -2.7872,2.78720002 1.3936,1.393602 1.3936,-1.393602 5.574397,5.574404 m -11.148797,-5.574404 5.5744,5.574404 2.7872,-2.7872 -1.3936,-1.393601 -1.3936,1.393601 -5.5744,-5.57440402 m 22.297624,0 -2.7872,2.78720002 1.39361,1.393603 1.39359,-1.393603 m -11.148827,5.574404 2.7872,-2.7872 -1.3936,-1.393602 -1.3936,1.393602 m 11.148827,0 -5.57442,-5.57440402 -2.787207,2.78720002 1.393607,1.393602 1.3936,-1.393602 5.57442,5.574404 m -11.148827,-5.574404 5.574407,5.574404 2.78722,-2.7872 -1.39361,-1.393601 -1.39361,1.393601 -5.574407,-5.57440402 m 22.297617,0 -2.7872,2.78720002 1.3936,1.393603 1.3936,-1.393603 m -11.14879,5.574404 2.78719,-2.7872 -1.3936,-1.393602 -1.39359,1.393602 m 11.14879,0 -5.5744,-5.57440402 -2.7872,2.78720002 1.3936,1.393602 1.3936,-1.393602 5.5744,5.574404 m -11.14879,-5.574404 5.57439,5.574404 2.7872,-2.7872 -1.3936,-1.393601 -1.3936,1.393601 -5.57439,-5.57440402 m 22.29759,0 -2.7872,2.78720002 1.3936,1.393603 1.3936,-1.393603 m -11.1488,5.574404 2.7872,-2.7872 -1.3936,-1.393602 -1.3936,1.393602 m 11.1488,0 -5.5744,-5.57440402 -2.7872,2.78720002 1.3936,1.393602 1.3936,-1.393602 5.5744,5.574404 m -11.1488,-5.574404 5.5744,5.574404 2.7872,-2.7872 -1.3936,-1.393601 -1.3936,1.393601 -5.5744,-5.57440402 m 22.2976,0 -2.7872,2.78720002 1.3936,1.393603 1.3936,-1.393603 m -11.1488,5.574404 2.7872,-2.7872 -1.3936,-1.393602 -1.3936,1.393602 m 11.1488,0 -5.5744,-5.57440402 -2.7872,2.78720002 1.3936,1.393602 1.3936,-1.393602 5.5744,5.574404 m -11.1488,-5.574404 5.5744,5.574404 2.7872,-2.7872 -1.3936,-1.393601 -1.3936,1.393601 -5.5744,-5.57440402 m 22.2976,0 -2.7872,2.78720002 1.3936,1.393603 1.3936,-1.393603 m -11.1488,5.574404 2.7872,-2.7872 -1.3936,-1.393602 -1.3936,1.393602 m 11.1488,0 -5.5744,-5.57440402 -2.7872,2.78720002 1.3936,1.393602 1.3936,-1.393602 5.5744,5.574404 m -11.1488,-5.574404 5.5744,5.574404 2.7872,-2.7872 -1.3936,-1.393601 -1.3936,1.393601 -5.5744,-5.57440402 m 22.2976,0 -2.7872,2.78720002 1.3936,1.393603 1.3936,-1.393603 m -11.1488,5.574404 2.7872,-2.7872 -1.3936,-1.393602 -1.3936,1.393602 m 11.1488,0 -5.5744,-5.57440402 -2.7872,2.78720002 1.3936,1.393602 1.3936,-1.393602 5.5744,5.574404 m -11.1488,-5.574404 5.5744,5.574404 2.7872,-2.7872 -1.3936,-1.393601 -1.3936,1.393601 -5.5744,-5.57440402 m 22.2976,0 -2.7872,2.78720002 1.3936,1.393603 1.3936,-1.393603 m -11.1488,5.574404 2.7872,-2.7872 -1.3936,-1.393602 -1.3936,1.393602 m 11.1488,0 -5.5744,-5.57440402 -2.7872,2.78720002 1.3936,1.393602 1.3936,-1.393602 5.5744,5.574404 m -11.1488,-5.574404 5.5744,5.574404 2.7872,-2.7872 -1.3936,-1.393601 -1.3936,1.393601 -5.5744,-5.57440402 m 22.2976,0 -2.7872,2.78720002 1.3936,1.393603 1.3936,-1.393603 m -11.1488,5.574404 2.7872,-2.7872 -1.3936,-1.393602 -1.3936,1.393602 m 11.1488,0 -5.5744,-5.57440402 -2.7872,2.78720002 1.3936,1.393602 1.3936,-1.393602 5.5744,5.574404 m -11.1488,-5.574404 5.5744,5.574404 2.7872,-2.7872 -1.3936,-1.393601 -1.3936,1.393601 -5.5744,-5.57440402 m 22.2976,0 -2.7872,2.78720002 1.3936,1.393603 1.3936,-1.393603 m -11.1488,5.574404 2.7872,-2.7872 -1.3936,-1.393602 -1.3936,1.393602 m 11.1488,0 -5.5744,-5.57440402 -2.7872,2.78720002 1.3936,1.393602 1.3936,-1.393602 5.5744,5.574404 m -11.1488,-5.574404 5.5744,5.574404 2.7872,-2.7872 -1.3936,-1.393601 -1.3936,1.393601 -5.5744,-5.57440402"
         id="path3567-3" />
      <path
         id="path3666"
         d="m 209.87677,29.458267 -2.7872,-2.7872 -1.3936,1.3936 1.3936,1.3936 m -5.5744,-11.1488 2.7872,2.7872 1.3936,-1.3936 -1.3936,-1.3936 m 0,11.1488 5.5744,-5.5744 -2.7872,-2.7872 -1.3936,1.3936 1.3936,1.3936 -5.5744,5.5744 m 5.5744,-11.1488 -5.5744,5.5744 2.7872,2.7872 1.3936,-1.3936 -1.3936,-1.3936 5.5744,-5.5744 m 0,22.2976 -2.7872,-2.7872 -1.3936,1.3936 1.3936,1.3936 m -5.5744,-11.1488 2.7872,2.7872 1.3936,-1.3936 -1.3936,-1.3936 m 0,11.1488 5.5744,-5.5744 -2.7872,-2.7872 -1.3936,1.3936 1.3936,1.3936 -5.5744,5.5744 m 5.5744,-11.1488 -5.5744,5.5744 2.7872,2.7872 1.3936,-1.3936 -1.3936,-1.3936 5.5744,-5.5744 m 0,22.2976 -2.7872,-2.7872 -1.3936,1.3936 1.3936,1.3936 m -5.5744,-11.1488 2.7872,2.7872 1.3936,-1.3936 -1.3936,-1.3936 m 0,11.1488 5.5744,-5.5744 -2.7872,-2.7872 -1.3936,1.3936 1.3936,1.3936 -5.5744,5.5744 m 5.5744,-11.1488 -5.5744,5.5744 2.7872,2.7872 1.3936,-1.3936 -1.3936,-1.3936 5.5744,-5.5744 m 0,22.2976 -2.7872,-2.7872 -1.3936,1.3936 1.3936,1.3936 m -5.5744,-11.1488 2.7872,2.7872 1.3936,-1.3936 -1.3936,-1.3936 m 0,11.1488 5.5744,-5.5744 -2.7872,-2.7872 -1.3936,1.3936 1.3936,1.3936 -5.5744,5.5744 m 5.5744,-11.1488 -5.5744,5.5744 2.7872,2.7872 1.3936,-1.3936 -1.3936,-1.3936 5.5744,-5.5744 m 0,22.2976 -2.7872,-2.7872 -1.3936,1.3936 1.3936,1.3936 m -5.5744,-11.1488 2.7872,2.7872 1.3936,-1.3936 -1.3936,-1.3936 m 0,11.1488 5.5744,-5.5744 -2.7872,-2.7872 -1.3936,1.3936 1.3936,1.3936 -5.5744,5.5744 m 5.5744,-11.1488 -5.5744,5.5744 2.7872,2.7872 1.3936,-1.3936 -1.3936,-1.3936 5.5744,-5.5744 m 0,22.2976 -2.7872,-2.7872 -1.3936,1.3936 1.3936,1.3936 m -5.5744,-11.1488 2.7872,2.7872 1.3936,-1.3936 -1.3936,-1.3936 m 0,11.1488 5.5744,-5.5744 -2.7872,-2.7872 -1.3936,1.3936 1.3936,1.3936 -5.5744,5.5744 m 5.5744,-11.1488 -5.5744,5.5744 2.7872,2.7872 1.3936,-1.3936 -1.3936,-1.3936 5.5744,-5.5744 m 0,22.2976 -2.7872,-2.7872 -1.3936,1.3936 1.3936,1.3936 m -5.5744,-11.1488 2.7872,2.7872 1.3936,-1.3936 -1.3936,-1.3936 m 0,11.1488 5.5744,-5.5744 -2.7872,-2.7872 -1.3936,1.3936 1.3936,1.3936 -5.5744,5.5744 m 5.5744,-11.1488 -5.5744,5.5744 2.7872,2.7872 1.3936,-1.3936 -1.3936,-1.3936 5.5744,-5.5744 m 0,22.297603 -2.7872,-2.7872 -1.3936,1.3936 1.3936,1.3936 m -5.5744,-11.148803 2.7872,2.7872 1.3936,-1.3936 -1.3936,-1.3936 m 0,11.148803 5.5744,-5.5744 -2.7872,-2.787203 -1.3936,1.393603 1.3936,1.3936 -5.5744,5.5744 m 5.5744,-11.148803 -5.5744,5.574403 2.7872,2.7872 1.3936,-1.3936 -1.3936,-1.3936 5.5744,-5.574403 m 0,22.297603 -2.7872,-2.7872 -1.3936,1.3936 1.3936,1.3936 m -5.5744,-11.1488 2.7872,2.7872 1.3936,-1.3936 -1.3936,-1.3936 m 0,11.1488 5.5744,-5.5744 -2.7872,-2.7872 -1.3936,1.3936 1.3936,1.3936 -5.5744,5.5744 m 5.5744,-11.1488 -5.5744,5.5744 2.7872,2.7872 1.3936,-1.3936 -1.3936,-1.3936 5.5744,-5.5744 m 0,22.2976 -2.7872,-2.7872 -1.3936,1.3936 1.3936,1.3936 m -5.5744,-11.1488 2.7872,2.7872 1.3936,-1.3936 -1.3936,-1.3936 m 0,11.1488 5.5744,-5.5744 -2.7872,-2.7872 -1.3936,1.3936 1.3936,1.3936 -5.5744,5.5744 m 5.5744,-11.1488 -5.5744,5.5744 2.7872,2.7872 1.3936,-1.3936 -1.3936,-1.3936 5.5744,-5.5744 m 0,22.2976 -2.7872,-2.7872 -1.3936,1.3936 1.3936,1.3936 m -5.5744,-11.1488 2.7872,2.7872 1.3936,-1.3936 -1.3936,-1.3936 m 0,11.1488 5.5744,-5.5744 -2.7872,-2.7872 -1.3936,1.3936 1.3936,1.3936 -5.5744,5.5744 m 5.5744,-11.1488 -5.5744,5.5744 2.7872,2.7872 1.3936,-1.3936 -1.3936,-1.3936 5.5744,-5.5744 m 0,22.2976 -2.7872,-2.7872 -1.3936,1.3936 1.3936,1.3936 m -5.5744,-11.1488 2.7872,2.7872 1.3936,-1.3936 -1.3936,-1.3936 m 0,11.1488 5.5744,-5.5744 -2.7872,-2.7872 -1.3936,1.3936 1.3936,1.3936 -5.5744,5.5744 m 5.5744,-11.1488 -5.5744,5.5744 2.7872,2.7872 1.3936,-1.3936 -1.3936,-1.3936 5.5744,-5.5744 m 0,22.2976 -2.7872,-2.7872 -1.3936,1.3936 1.3936,1.3936 m -5.5744,-11.1488 2.7872,2.7872 1.3936,-1.3936 -1.3936,-1.3936 m 0,11.1488 5.5744,-5.5744 -2.7872,-2.7872 -1.3936,1.3936 1.3936,1.3936 -5.5744,5.5744 m 5.5744,-11.1488 -5.5744,5.5744 2.7872,2.7872 1.3936,-1.3936 -1.3936,-1.3936 5.5744,-5.5744 m 0,22.2976 -2.7872,-2.7872 -1.3936,1.3936 1.3936,1.3936 m -5.5744,-11.1488 2.7872,2.7872 1.3936,-1.3936 -1.3936,-1.3936 m 0,11.1488 5.5744,-5.5744 -2.7872,-2.7872 -1.3936,1.3936 1.3936,1.3936 -5.5744,5.5744 m 5.5744,-11.1488 -5.5744,5.5744 2.7872,2.7872 1.3936,-1.3936 -1.3936,-1.3936 5.5744,-5.5744 m 0,22.2976 -2.7872,-2.7872 -1.3936,1.3936 1.3936,1.3936 m -5.5744,-11.1488 2.7872,2.7872 1.3936,-1.3936 -1.3936,-1.3936 m 0,11.1488 5.5744,-5.5744 -2.7872,-2.7872 -1.3936,1.3936 1.3936,1.3936 -5.5744,5.5744 m 5.5744,-11.1488 -5.5744,5.5744 2.7872,2.7872 1.3936,-1.3936 -1.3936,-1.3936 5.5744,-5.5744 m 0,22.2976 -2.7872,-2.7872 -1.3936,1.3936 1.3936,1.3936 m -5.5744,-11.1488 2.7872,2.7872 1.3936,-1.3936 -1.3936,-1.3936 m 0,11.1488 5.5744,-5.5744 -2.7872,-2.7872 -1.3936,1.3936 1.3936,1.3936 -5.5744,5.5744 m 5.5744,-11.1488 -5.5744,5.5744 2.7872,2.7872 1.3936,-1.3936 -1.3936,-1.3936 5.5744,-5.5744 m 0,22.2976 -2.7872,-2.7872 -1.3936,1.3936 1.3936,1.3936 m -5.5744,-11.1488 2.7872,2.7872 1.3936,-1.3936 -1.3936,-1.3936 m 0,11.1488 5.5744,-5.5744 -2.7872,-2.7872 -1.3936,1.3936 1.3936,1.3936 -5.5744,5.5744 m 5.5744,-11.1488 -5.5744,5.5744 2.7872,2.7872 1.3936,-1.3936 -1.3936,-1.3936 5.5744,-5.5744 m 0,22.2976 -2.7872,-2.7872 -1.3936,1.3936 1.3936,1.3936 m -5.5744,-11.1488 2.7872,2.7872 1.3936,-1.3936 -1.3936,-1.3936 m 0,11.1488 5.5744,-5.5744 -2.7872,-2.7872 -1.3936,1.3936 1.3936,1.3936 -5.5744,5.5744 m 5.5744,-11.1488 -5.5744,5.5744 2.7872,2.7872 1.3936,-1.3936 -1.3936,-1.3936 5.5744,-5.5744 m 0,22.2976 -2.7872,-2.7872 -1.3936,1.3936 1.3936,1.3936 m -5.5744,-11.1488 2.7872,2.7872 1.3936,-1.3936 -1.3936,-1.3936 m 0,11.1488 5.5744,-5.5744 -2.7872,-2.7872 -1.3936,1.3936 1.3936,1.3936 -5.5744,5.5744 m 5.5744,-11.1488 -5.5744,5.5744 2.7872,2.7872 1.3936,-1.3936 -1.3936,-1.3936 5.5744,-5.5744 m 0,22.2976 -2.7872,-2.7872 -1.3936,1.3936 1.3936,1.3936 m -5.5744,-11.1488 2.7872,2.7872 1.3936,-1.3936 -1.3936,-1.3936 m 0,11.1488 5.5744,-5.5744 -2.7872,-2.7872 -1.3936,1.3936 1.3936,1.3936 -5.5744,5.5744 m 5.5744,-11.1488 -5.5744,5.5744 2.7872,2.7872 1.3936,-1.3936 -1.3936,-1.3936 5.5744,-5.5744 m 0,22.2976 -2.7872,-2.7872 -1.3936,1.3936 1.3936,1.3936 m -5.5744,-11.1488 2.7872,2.7872 1.3936,-1.3936 -1.3936,-1.3936 m 0,11.1488 5.5744,-5.5744 -2.7872,-2.7872 -1.3936,1.3936 1.3936,1.3936 -5.5744,5.5744 m 5.5744,-11.1488 -5.5744,5.5744 2.7872,2.7872 1.3936,-1.3936 -1.3936,-1.3936 5.5744,-5.5744 m 0,22.2976 -2.7872,-2.7872 -1.3936,1.3936 1.3936,1.3936 m -5.5744,-11.1488 2.7872,2.7872 1.3936,-1.3936 -1.3936,-1.3936 m 0,11.1488 5.5744,-5.5744 -2.7872,-2.7872 -1.3936,1.3936 1.3936,1.3936 -5.5744,5.5744 m 5.5744,-11.1488 -5.5744,5.5744 2.7872,2.7872 1.3936,-1.3936 -1.3936,-1.3936 5.5744,-5.5744 m 0,22.2976 -2.7872,-2.7872 -1.3936,1.3936 1.3936,1.3936 m -5.5744,-11.1488 2.7872,2.7872 1.3936,-1.3936 -1.3936,-1.3936 m 0,11.1488 5.5744,-5.5744 -2.7872,-2.7872 -1.3936,1.3936 1.3936,1.3936 -5.5744,5.5744 m 5.5744,-11.1488 -5.5744,5.5744 2.7872,2.7872 1.3936,-1.3936 -1.3936,-1.3936 5.5744,-5.5744 m 0,22.2976 -2.7872,-2.7872 -1.3936,1.3936 1.3936,1.3936 m -5.5744,-11.1488 2.7872,2.7872 1.3936,-1.3936 -1.3936,-1.3936 m 0,11.1488 5.5744,-5.5744 -2.7872,-2.7872 -1.3936,1.3936 1.3936,1.3936 -5.5744,5.5744 m 5.5744,-11.1488 -5.5744,5.5744 2.7872,2.7872 1.3936,-1.3936 -1.3936,-1.3936 5.5744,-5.5744"
         style="fill:#999999;fill-opacity:1;stroke:#000000;stroke-width:0.265;stroke-linecap:butt;stroke-linejoin:miter;stroke-miterlimit:4;stroke-dasharray:none;stroke-opacity:1" />
      <path
         style="fill:#999999;fill-opacity:1;stroke:#000000;stroke-width:0.265;stroke-linecap:butt;stroke-linejoin:miter;stroke-miterlimit:4;stroke-dasharray:none;stroke-opacity:1"
         d="m 9.1983587,23.883832 -2.7872,-2.7872 -1.3936,1.3936 1.3936,1.3936 m -5.5744,-11.148799 2.7872,2.7872 1.3936,-1.3936 -1.3936,-1.3936 m 0,11.148799 5.5744,-5.574399 -2.7872,-2.7872 -1.3936,1.3936 1.3936,1.3936 -5.5744,5.574399 m 5.5744,-11.148799 -5.5744,5.5744 2.7872,2.787199 1.3936,-1.3936 -1.3936,-1.393599 5.5744,-5.5744 m 0,22.297599 -2.7872,-2.7872 -1.3936,1.3936 1.3936,1.3936 m -5.5744,-11.1488 2.7872,2.7872 1.3936,-1.3936 -1.3936,-1.3936 m 0,11.1488 5.5744,-5.5744 -2.7872,-2.7872 -1.3936,1.3936 1.3936,1.3936 -5.5744,5.5744 m 5.5744,-11.1488 -5.5744,5.5744 2.7872,2.7872 1.3936,-1.3936 -1.3936,-1.3936 5.5744,-5.5744 m 0,22.2976 -2.7872,-2.7872 -1.3936,1.3936 1.3936,1.3936 m -5.5744,-11.1488 2.7872,2.7872 1.3936,-1.3936 -1.3936,-1.3936 m 0,11.1488 5.5744,-5.5744 -2.7872,-2.7872 -1.3936,1.3936 1.3936,1.3936 -5.5744,5.5744 m 5.5744,-11.1488 -5.5744,5.5744 2.7872,2.7872 1.3936,-1.3936 -1.3936,-1.3936 5.5744,-5.5744 m 0,22.2976 -2.7872,-2.7872 -1.3936,1.3936 1.3936,1.3936 m -5.5744,-11.1488 2.7872,2.7872 1.3936,-1.3936 -1.3936,-1.3936 m 0,11.1488 5.5744,-5.5744 -2.7872,-2.7872 -1.3936,1.3936 1.3936,1.3936 -5.5744,5.5744 m 5.5744,-11.1488 -5.5744,5.5744 2.7872,2.7872 1.3936,-1.3936 -1.3936,-1.3936 5.5744,-5.5744 m 0,22.2976 -2.7872,-2.7872 -1.3936,1.3936 1.3936,1.3936 m -5.5744,-11.1488 2.7872,2.7872 1.3936,-1.3936 -1.3936,-1.3936 m 0,11.1488 5.5744,-5.5744 -2.7872,-2.7872 -1.3936,1.3936 1.3936,1.3936 -5.5744,5.5744 m 5.5744,-11.1488 -5.5744,5.5744 2.7872,2.7872 1.3936,-1.3936 -1.3936,-1.3936 5.5744,-5.5744 m 0,22.2976 -2.7872,-2.7872 -1.3936,1.3936 1.3936,1.3936 m -5.5744,-11.1488 2.7872,2.7872 1.3936,-1.3936 -1.3936,-1.3936 m 0,11.1488 5.5744,-5.5744 -2.7872,-2.7872 -1.3936,1.3936 1.3936,1.3936 -5.5744,5.5744 m 5.5744,-11.1488 -5.5744,5.5744 2.7872,2.7872 1.3936,-1.3936 -1.3936,-1.3936 5.5744,-5.5744 m 0,22.2976 -2.7872,-2.7872 -1.3936,1.3936 1.3936,1.3936 m -5.5744,-11.1488 2.7872,2.7872 1.3936,-1.3936 -1.3936,-1.3936 m 0,11.1488 5.5744,-5.5744 -2.7872,-2.7872 -1.3936,1.3936 1.3936,1.3936 -5.5744,5.5744 m 5.5744,-11.1488 -5.5744,5.5744 2.7872,2.7872 1.3936,-1.3936 -1.3936,-1.3936 5.5744,-5.5744 m 0,22.297608 -2.7872,-2.7872 -1.3936,1.3936 1.3936,1.3936 m -5.5744,-11.148808 2.7872,2.7872 1.3936,-1.3936 -1.3936,-1.3936 m 0,11.148808 5.5744,-5.574405 -2.7872,-2.787203 -1.3936,1.393603 1.3936,1.3936 -5.5744,5.574405 m 5.5744,-11.148808 -5.5744,5.574403 2.7872,2.787205 1.3936,-1.3936 -1.3936,-1.393605 5.5744,-5.574403 m 0,22.297608 -2.7872,-2.7872 -1.3936,1.3936 1.3936,1.3936 m -5.5744,-11.1488 2.7872,2.7872 1.3936,-1.3936 -1.3936,-1.3936 m 0,11.1488 5.5744,-5.5744 -2.7872,-2.7872 -1.3936,1.3936 1.3936,1.3936 -5.5744,5.5744 m 5.5744,-11.1488 -5.5744,5.5744 2.7872,2.7872 1.3936,-1.3936 -1.3936,-1.3936 5.5744,-5.5744 m 0,22.2976 -2.7872,-2.7872 -1.3936,1.3936 1.3936,1.3936 m -5.5744,-11.1488 2.7872,2.7872 1.3936,-1.3936 -1.3936,-1.3936 m 0,11.1488 5.5744,-5.5744 -2.7872,-2.7872 -1.3936,1.3936 1.3936,1.3936 -5.5744,5.5744 m 5.5744,-11.1488 -5.5744,5.5744 2.7872,2.7872 1.3936,-1.3936 -1.3936,-1.3936 5.5744,-5.5744 m 0,22.2976 -2.7872,-2.7872 -1.3936,1.3936 1.3936,1.3936 m -5.5744,-11.1488 2.7872,2.7872 1.3936,-1.3936 -1.3936,-1.3936 m 0,11.1488 5.5744,-5.5744 -2.7872,-2.7872 -1.3936,1.3936 1.3936,1.3936 -5.5744,5.5744 m 5.5744,-11.1488 -5.5744,5.5744 2.7872,2.7872 1.3936,-1.3936 -1.3936,-1.3936 5.5744,-5.5744 m 0,22.2976 -2.7872,-2.7872 -1.3936,1.3936 1.3936,1.3936 m -5.5744,-11.1488 2.7872,2.7872 1.3936,-1.3936 -1.3936,-1.3936 m 0,11.1488 5.5744,-5.5744 -2.7872,-2.7872 -1.3936,1.3936 1.3936,1.3936 -5.5744,5.5744 m 5.5744,-11.1488 -5.5744,5.5744 2.7872,2.7872 1.3936,-1.3936 -1.3936,-1.3936 5.5744,-5.5744 m 0,22.2976 -2.7872,-2.7872 -1.3936,1.3936 1.3936,1.3936 m -5.5744,-11.1488 2.7872,2.7872 1.3936,-1.3936 -1.3936,-1.3936 m 0,11.1488 5.5744,-5.5744 -2.7872,-2.7872 -1.3936,1.3936 1.3936,1.3936 -5.5744,5.5744 m 5.5744,-11.1488 -5.5744,5.5744 2.7872,2.7872 1.3936,-1.3936 -1.3936,-1.3936 5.5744,-5.5744 m 0,22.2976 -2.7872,-2.7872 -1.3936,1.3936 1.3936,1.3936 m -5.5744,-11.1488 2.7872,2.7872 1.3936,-1.3936 -1.3936,-1.3936 m 0,11.1488 5.5744,-5.5744 -2.7872,-2.7872 -1.3936,1.3936 1.3936,1.3936 -5.5744,5.5744 m 5.5744,-11.1488 -5.5744,5.5744 2.7872,2.7872 1.3936,-1.3936 -1.3936,-1.3936 5.5744,-5.5744 m 0,22.2976 -2.7872,-2.7872 -1.3936,1.3936 1.3936,1.3936 m -5.5744,-11.1488 2.7872,2.7872 1.3936,-1.3936 -1.3936,-1.3936 m 0,11.1488 5.5744,-5.5744 -2.7872,-2.7872 -1.3936,1.3936 1.3936,1.3936 -5.5744,5.5744 m 5.5744,-11.1488 -5.5744,5.5744 2.7872,2.7872 1.3936,-1.3936 -1.3936,-1.3936 5.5744,-5.5744 m 0,22.2976 -2.7872,-2.7872 -1.3936,1.3936 1.3936,1.3936 m -5.5744,-11.1488 2.7872,2.7872 1.3936,-1.3936 -1.3936,-1.3936 m 0,11.1488 5.5744,-5.5744 -2.7872,-2.7872 -1.3936,1.3936 1.3936,1.3936 -5.5744,5.5744 m 5.5744,-11.1488 -5.5744,5.5744 2.7872,2.7872 1.3936,-1.3936 -1.3936,-1.3936 5.5744,-5.5744 m 0,22.2976 -2.7872,-2.7872 -1.3936,1.3936 1.3936,1.3936 m -5.5744,-11.1488 2.7872,2.7872 1.3936,-1.3936 -1.3936,-1.3936 m 0,11.1488 5.5744,-5.5744 -2.7872,-2.7872 -1.3936,1.3936 1.3936,1.3936 -5.5744,5.5744 m 5.5744,-11.1488 -5.5744,5.5744 2.7872,2.7872 1.3936,-1.3936 -1.3936,-1.3936 5.5744,-5.5744 m 0,22.2976 -2.7872,-2.7872 -1.3936,1.3936 1.3936,1.3936 m -5.5744,-11.1488 2.7872,2.7872 1.3936,-1.3936 -1.3936,-1.3936 m 0,11.1488 5.5744,-5.5744 -2.7872,-2.7872 -1.3936,1.3936 1.3936,1.3936 -5.5744,5.5744 m 5.5744,-11.1488 -5.5744,5.5744 2.7872,2.7872 1.3936,-1.3936 -1.3936,-1.3936 5.5744,-5.5744 m 0,22.2976 -2.7872,-2.7872 -1.3936,1.3936 1.3936,1.3936 m -5.5744,-11.1488 2.7872,2.7872 1.3936,-1.3936 -1.3936,-1.3936 m 0,11.1488 5.5744,-5.5744 -2.7872,-2.7872 -1.3936,1.3936 1.3936,1.3936 -5.5744,5.5744 m 5.5744,-11.1488 -5.5744,5.5744 2.7872,2.7872 1.3936,-1.3936 -1.3936,-1.3936 5.5744,-5.5744 m 0,22.2976 -2.7872,-2.7872 -1.3936,1.3936 1.3936,1.3936 m -5.5744,-11.1488 2.7872,2.7872 1.3936,-1.3936 -1.3936,-1.3936 m 0,11.1488 5.5744,-5.5744 -2.7872,-2.7872 -1.3936,1.3936 1.3936,1.3936 -5.5744,5.5744 m 5.5744,-11.1488 -5.5744,5.5744 2.7872,2.7872 1.3936,-1.3936 -1.3936,-1.3936 5.5744,-5.5744 m 0,22.2976 -2.7872,-2.7872 -1.3936,1.3936 1.3936,1.3936 m -5.5744,-11.1488 2.7872,2.7872 1.3936,-1.3936 -1.3936,-1.3936 m 0,11.1488 5.5744,-5.5744 -2.7872,-2.7872 -1.3936,1.3936 1.3936,1.3936 -5.5744,5.5744 m 5.5744,-11.1488 -5.5744,5.5744 2.7872,2.7872 1.3936,-1.3936 -1.3936,-1.3936 5.5744,-5.5744 m 0,22.2976 -2.7872,-2.7872 -1.3936,1.3936 1.3936,1.3936 m -5.5744,-11.1488 2.7872,2.7872 1.3936,-1.3936 -1.3936,-1.3936 m 0,11.1488 5.5744,-5.5744 -2.7872,-2.7872 -1.3936,1.3936 1.3936,1.3936 -5.5744,5.5744 m 5.5744,-11.1488 -5.5744,5.5744 2.7872,2.7872 1.3936,-1.3936 -1.3936,-1.3936 5.5744,-5.5744 m 0,22.2976 -2.7872,-2.7872 -1.3936,1.3936 1.3936,1.3936 m -5.5744,-11.1488 2.7872,2.7872 1.3936,-1.3936 -1.3936,-1.3936 m 0,11.1488 5.5744,-5.5744 -2.7872,-2.7872 -1.3936,1.3936 1.3936,1.3936 -5.5744,5.5744 m 5.5744,-11.1488 -5.5744,5.5744 2.7872,2.7872 1.3936,-1.3936 -1.3936,-1.3936 5.5744,-5.5744 m 0,22.2976 -2.7872,-2.7872 -1.3936,1.3936 1.3936,1.3936 m -5.5744,-11.1488 2.7872,2.7872 1.3936,-1.3936 -1.3936,-1.3936 m 0,11.1488 5.5744,-5.5744 -2.7872,-2.7872 -1.3936,1.3936 1.3936,1.3936 -5.5744,5.5744 m 5.5744,-11.1488 -5.5744,5.5744 2.7872,2.7872 1.3936,-1.3936 -1.3936,-1.3936 5.5744,-5.5744"
         id="path3567-8" />
      <path
         id="path1315-0-8-1-0-7-8-0-4"
         style="fill:#999999;stroke:#000000;stroke-width:0.265;stroke-linecap:butt;stroke-linejoin:miter;stroke-miterlimit:4;stroke-dasharray:none;stroke-opacity:1"
         d="m 18.953575,0.1926523 -2.78722,2.7872 1.393611,1.39359 1.39361,-1.39359 m -1.8e-5,2.7872 -5.574406,-5.5744 -2.787186,2.7872 1.393593,1.39359 1.393593,-1.39359 5.574406,5.5744 m -11.1487893,-5.5744 5.5744013,5.5744 2.787203,-2.7872 -1.393611,-1.39361 -1.393592,1.39361 -5.5744013,-5.5744 -6.97192507,6.97188 2.78330997,2.7911197 1.397503,-1.3975097 -1.393611,-1.39361 z M 9.1983606,18.309433 6.4111587,15.522231 5.0175486,16.915822 6.4111587,18.309433 M 11.985559,4.3734423 10.591947,2.9798523 m -1.3935864,1.39359 -2.7872019,2.7872 -5.57440407,5.5744107 2.78720097,2.787179 1.393593,-1.393589 -1.393593,-1.39359 5.574405,-5.5744107 v 0 l 1.4327114,-1.43271 m -7.0071164,12.5815007 5.574405,-5.574401 -2.7872019,-2.7872 -1.3935921,1.39361 1.3935921,1.39359 -5.57440407,5.574401" />
      <path
         id="path1315-0-8-1-0-7-8-0-4-5"
         style="fill:#999999;stroke:#000000;stroke-width:0.265;stroke-linecap:butt;stroke-linejoin:miter;stroke-miterlimit:4;stroke-dasharray:none;stroke-opacity:1"
         d="m 209.87677,18.309467 -2.7872,-2.787221 -1.39359,1.39361 1.39359,1.393611 m -2.7872,-1e-5 5.5744,-5.574411 -2.7872,-2.7871795 -1.39359,1.3935895 1.39359,1.39359 -5.5744,5.574411 m 5.5744,-11.1487907 -5.5744,5.5743997 2.7872,2.7872 1.39361,-1.39361 -1.39361,-1.39359 5.5744,-5.5743997 -6.97188,-6.97192 -2.79112,2.78331 1.39751,1.3975 1.39361,-1.39361 z m -15.32958,1.3935902 2.7872,-2.7872002 -1.39359,-1.39361 -1.39361,1.39361 m 13.93599,5.5743997 1.39359,-1.3936095 m -1.39359,-1.39359 -2.7872,-2.7872002 -5.57441,-5.5744 -2.78718,2.7872 1.39359,1.39359 1.39359,-1.39359 5.57441,5.5744002 v 0 l 1.43271,1.43271 m -12.5815,-7.0071102 5.5744,5.5744002 2.7872,-2.7872002 -1.39361,-1.39359 -1.39359,1.39359 -5.5744,-5.5744" />
      <path
         id="path1315-0-8-1-0-7-8-0-4-5-8"
         style="fill:#999999;stroke:#000000;stroke-width:0.265;stroke-linecap:butt;stroke-linejoin:miter;stroke-miterlimit:4;stroke-dasharray:none;stroke-opacity:1"
         d="m 191.75996,298.42305 2.78722,-2.7872 -1.39361,-1.39359 -1.39361,1.39359 m 1e-5,-2.7872 5.57441,5.5744 2.78718,-2.7872 -1.39359,-1.39359 -1.39359,1.39359 -5.57441,-5.5744 m 11.14879,5.5744 -5.5744,-5.5744 -2.7872,2.7872 1.39361,1.39361 1.39359,-1.39361 5.5744,5.5744 6.97192,-6.97188 -2.78331,-2.79112 -1.3975,1.39751 1.39361,1.39361 z m -1.39359,-15.32958 2.7872,2.7872 1.39361,-1.39359 -1.39361,-1.39361 m -5.5744,13.93599 1.39361,1.39359 m 1.39359,-1.39359 2.7872,-2.7872 5.5744,-5.57441 -2.7872,-2.78718 -1.39359,1.39359 1.39359,1.39359 -5.5744,5.57441 v 0 l -1.43271,1.43271 m 7.00711,-12.5815 -5.5744,5.5744 2.7872,2.7872 1.39359,-1.39361 -1.39359,-1.39359 5.5744,-5.5744" />
      <path
         id="path1315-0-8-1-0-2"
         style="fill:#999999;stroke:#000000;stroke-width:0.265;stroke-linecap:butt;stroke-linejoin:miter;stroke-miterlimit:4;stroke-dasharray:none;stroke-opacity:1"
         d="m 24.527955,0.1926513 -2.7872,2.787201 1.3936,1.393603 1.3936,-1.393603 m -11.1488,5.5744045 2.7872,-2.7872015 -1.3936,-1.393601 -1.3936,1.393601 m 11.1488,0 -5.5744,-5.574403 -2.7872,2.7872 1.3936,1.393602 1.3936,-1.393602 5.5744,5.5744045 m -11.1488,-5.5744045 5.5744,5.5744045 2.7872,-2.7872015 -1.3936,-1.3936 -1.3936,1.3936 -5.5744,-5.574403" />
      <path
         style="fill:#999999;fill-opacity:1;stroke:#000000;stroke-width:0.265;stroke-linecap:butt;stroke-linejoin:miter;stroke-miterlimit:4;stroke-dasharray:none;stroke-opacity:1"
         d="m 24.527963,298.42303 -2.7872,-2.7872 1.3936,-1.3936 1.3936,1.3936 m -11.1488,-5.5744 2.7872,2.7872 -1.3936,1.3936 -1.3936,-1.3936 m 11.1488,0 -5.5744,5.5744 -2.7872,-2.7872 1.3936,-1.3936 1.3936,1.3936 5.5744,-5.5744 m -11.1488,5.5744 5.5744,-5.5744 2.7872,2.7872 -1.3936,1.3936 -1.3936,-1.3936 -5.5744,5.5744 m 22.297601,0 -2.787201,-2.7872 1.393601,-1.3936 1.3936,1.3936 m -11.148801,-5.5744 2.7872,2.7872 -1.3936,1.3936 -1.3936,-1.3936 m 11.148801,0 -5.574401,5.5744 -2.7872,-2.7872 1.3936,-1.3936 1.3936,1.3936 5.574401,-5.5744 m -11.148801,5.5744 5.5744,-5.5744 2.7872,2.7872 -1.3936,1.3936 -1.3936,-1.3936 -5.5744,5.5744 m 22.297601,0 -2.7872,-2.7872 1.3936,-1.3936 1.3936,1.3936 m -11.1488,-5.5744 2.7872,2.7872 -1.3936,1.3936 -1.3936,-1.3936 m 11.1488,0 -5.5744,5.5744 -2.7872,-2.7872 1.3936,-1.3936 1.3936,1.3936 5.5744,-5.5744 m -11.1488,5.5744 5.5744,-5.5744 2.7872,2.7872 -1.3936,1.3936 -1.3936,-1.3936 -5.5744,5.5744 m 22.297597,0 -2.7872,-2.7872 1.3936,-1.3936 1.3936,1.3936 m -11.148797,-5.5744 2.787201,2.7872 -1.3936,1.3936 -1.393601,-1.3936 m 11.148797,0 -5.574399,5.5744 -2.787197,-2.7872 1.393597,-1.3936 1.3936,1.3936 5.574399,-5.5744 m -11.148797,5.5744 5.574398,-5.5744 2.787199,2.7872 -1.393599,1.3936 -1.3936,-1.3936 -5.574398,5.5744 m 22.297597,0 -2.7872,-2.7872 1.3936,-1.3936 1.3936,1.3936 m -11.1488,-5.5744 2.7872,2.7872 -1.3936,1.3936 -1.3936,-1.3936 m 11.1488,0 -5.5744,5.5744 -2.7872,-2.7872 1.3936,-1.3936 1.3936,1.3936 5.5744,-5.5744 m -11.1488,5.5744 5.5744,-5.5744 2.7872,2.7872 -1.3936,1.3936 -1.3936,-1.3936 -5.5744,5.5744 m 22.2976,0 -2.7872,-2.7872 1.3936,-1.3936 1.3936,1.3936 m -11.1488,-5.5744 2.7872,2.7872 -1.3936,1.3936 -1.3936,-1.3936 m 11.1488,0 -5.5744,5.5744 -2.7872,-2.7872 1.3936,-1.3936 1.3936,1.3936 5.5744,-5.5744 m -11.1488,5.5744 5.5744,-5.5744 2.7872,2.7872 -1.3936,1.3936 -1.3936,-1.3936 -5.5744,5.5744 m 22.2976,0 -2.7872,-2.7872 1.3936,-1.3936 1.3936,1.3936 m -11.1488,-5.5744 2.7872,2.7872 -1.3936,1.3936 -1.3936,-1.3936 m 11.1488,0 -5.5744,5.5744 -2.7872,-2.7872 1.3936,-1.3936 1.3936,1.3936 5.5744,-5.5744 m -11.1488,5.5744 5.5744,-5.5744 2.7872,2.7872 -1.3936,1.3936 -1.3936,-1.3936 -5.5744,5.5744 m 22.297629,0 -2.787201,-2.7872 1.393611,-1.3936 1.39359,1.3936 m -11.148829,-5.5744 2.7872,2.7872 -1.3936,1.3936 -1.3936,-1.3936 m 11.148829,0 -5.574421,5.5744 -2.787208,-2.7872 1.393608,-1.3936 1.3936,1.3936 5.574421,-5.5744 m -11.148829,5.5744 5.574408,-5.5744 2.78722,2.7872 -1.39361,1.3936 -1.39361,-1.3936 -5.574408,5.5744 m 22.297619,0 -2.7872,-2.7872 1.3936,-1.3936 1.3936,1.3936 m -11.14879,-5.5744 2.78719,2.7872 -1.3936,1.3936 -1.39359,-1.3936 m 11.14879,0 -5.5744,5.5744 -2.7872,-2.7872 1.3936,-1.3936 1.3936,1.3936 5.5744,-5.5744 m -11.14879,5.5744 5.57439,-5.5744 2.7872,2.7872 -1.3936,1.3936 -1.3936,-1.3936 -5.57439,5.5744 m 22.29759,0 -2.7872,-2.7872 1.3936,-1.3936 1.3936,1.3936 m -11.1488,-5.5744 2.7872,2.7872 -1.3936,1.3936 -1.3936,-1.3936 m 11.1488,0 -5.5744,5.5744 -2.7872,-2.7872 1.3936,-1.3936 1.3936,1.3936 5.5744,-5.5744 m -11.1488,5.5744 5.5744,-5.5744 2.7872,2.7872 -1.3936,1.3936 -1.3936,-1.3936 -5.5744,5.5744 m 22.2976,0 -2.7872,-2.7872 1.3936,-1.3936 1.3936,1.3936 m -11.1488,-5.5744 2.7872,2.7872 -1.3936,1.3936 -1.3936,-1.3936 m 11.1488,0 -5.5744,5.5744 -2.7872,-2.7872 1.3936,-1.3936 1.3936,1.3936 5.5744,-5.5744 m -11.1488,5.5744 5.5744,-5.5744 2.7872,2.7872 -1.3936,1.3936 -1.3936,-1.3936 -5.5744,5.5744 m 22.2976,0 -2.7872,-2.7872 1.3936,-1.3936 1.3936,1.3936 m -11.1488,-5.5744 2.7872,2.7872 -1.3936,1.3936 -1.3936,-1.3936 m 11.1488,0 -5.5744,5.5744 -2.7872,-2.7872 1.3936,-1.3936 1.3936,1.3936 5.5744,-5.5744 m -11.1488,5.5744 5.5744,-5.5744 2.7872,2.7872 -1.3936,1.3936 -1.3936,-1.3936 -5.5744,5.5744 m 22.2976,0 -2.7872,-2.7872 1.3936,-1.3936 1.3936,1.3936 m -11.1488,-5.5744 2.7872,2.7872 -1.3936,1.3936 -1.3936,-1.3936 m 11.1488,0 -5.5744,5.5744 -2.7872,-2.7872 1.3936,-1.3936 1.3936,1.3936 5.5744,-5.5744 m -11.1488,5.5744 5.5744,-5.5744 2.7872,2.7872 -1.3936,1.3936 -1.3936,-1.3936 -5.5744,5.5744 m 22.2976,0 -2.7872,-2.7872 1.3936,-1.3936 1.3936,1.3936 m -11.1488,-5.5744 2.7872,2.7872 -1.3936,1.3936 -1.3936,-1.3936 m 11.1488,0 -5.5744,5.5744 -2.7872,-2.7872 1.3936,-1.3936 1.3936,1.3936 5.5744,-5.5744 m -11.1488,5.5744 5.5744,-5.5744 2.7872,2.7872 -1.3936,1.3936 -1.3936,-1.3936 -5.5744,5.5744 m 22.2976,0 -2.7872,-2.7872 1.3936,-1.3936 1.3936,1.3936 m -11.1488,-5.5744 2.7872,2.7872 -1.3936,1.3936 -1.3936,-1.3936 m 11.1488,0 -5.5744,5.5744 -2.7872,-2.7872 1.3936,-1.3936 1.3936,1.3936 5.5744,-5.5744 m -11.1488,5.5744 5.5744,-5.5744 2.7872,2.7872 -1.3936,1.3936 -1.3936,-1.3936 -5.5744,5.5744 m 22.2976,0 -2.7872,-2.7872 1.3936,-1.3936 1.3936,1.3936 m -11.1488,-5.5744 2.7872,2.7872 -1.3936,1.3936 -1.3936,-1.3936 m 11.1488,0 -5.5744,5.5744 -2.7872,-2.7872 1.3936,-1.3936 1.3936,1.3936 5.5744,-5.5744 m -11.1488,5.5744 5.5744,-5.5744 2.7872,2.7872 -1.3936,1.3936 -1.3936,-1.3936 -5.5744,5.5744"
         id="path3567-3-7" />
      <path
         id="path1315-0-8-1-0-7-8-0-4-0"
         style="fill:#999999;stroke:#000000;stroke-width:0.265;stroke-linecap:butt;stroke-linejoin:miter;stroke-miterlimit:4;stroke-dasharray:none;stroke-opacity:1"
         d="m 18.953573,298.42302 -2.787221,-2.7872 1.393611,-1.39359 1.393611,1.39359 m -1.8e-5,-2.7872 -5.574407,5.5744 -2.787186,-2.7872 1.393593,-1.39359 1.393593,1.39359 5.574407,-5.5744 m -11.1487892,5.5744 5.5744002,-5.5744 2.787203,2.7872 -1.393611,1.39361 -1.393592,-1.39361 -5.5744002,5.5744 -6.9719251,-6.97188 2.78331,-2.79112 1.397503,1.39751 -1.393611,1.39361 z m 1.3935919,-15.32958 -2.787202,2.7872 -1.39361,-1.39359 1.39361,-1.39361 m 5.5743993,13.93599 -1.393612,1.39359 m -1.3935853,-1.39359 -2.787202,-2.7872 -5.574404,-5.57441 2.787201,-2.78718 1.393593,1.39359 -1.393593,1.39359 5.574405,5.57441 v 0 l 1.4327103,1.43271 m -7.0071153,-12.5815 5.574405,5.5744 -2.787202,2.7872 -1.393592,-1.39361 1.393592,-1.39359 -5.574404,-5.5744" />
      <path
         id="path1315-0-8-1-0-2-0"
         style="fill:#999999;stroke:#000000;stroke-width:0.265;stroke-linecap:butt;stroke-linejoin:miter;stroke-miterlimit:4;stroke-dasharray:none;stroke-opacity:1"
         d="m 197.33436,298.42306 -2.7872,-2.78721 1.3936,-1.3936 1.3936,1.3936 m -11.1488,-5.5744 2.7872,2.7872 -1.3936,1.3936 -1.3936,-1.3936 m 11.1488,0 -5.5744,5.5744 -2.7872,-2.7872 1.3936,-1.3936 1.3936,1.3936 5.5744,-5.5744 m -11.1488,5.5744 5.5744,-5.5744 2.7872,2.7872 -1.3936,1.3936 -1.3936,-1.3936 -5.5744,5.5744" />
      <path
         id="path1315-0-8-1-0-2-0-4"
         style="fill:#999999;stroke:#000000;stroke-width:0.265;stroke-linecap:butt;stroke-linejoin:miter;stroke-miterlimit:4;stroke-dasharray:none;stroke-opacity:1"
         d="m 0.8367467,285.88064 2.78721,-2.7872 1.3936,1.3936 -1.3936,1.3936 m 5.5744,-11.14881 -2.7872,2.7872 -1.3936,-1.3936 1.3936,-1.3936 m 0,11.14881 -5.5744,-5.5744 2.7872,-2.78721 1.3936,1.3936 -1.3936,1.39361 5.5744,5.5744 m -5.5744,-11.14881 5.5744,5.57441 -2.7872,2.7872 -1.3936,-1.3936 1.3936,-1.3936 -5.5744,-5.57441" />
    </g>
  </g>
</svg>
