<?xml version="1.0" standalone="no"?>
<!DOCTYPE svg PUBLIC "-//W3C//DTD SVG 20010904//EN"
 "http://www.w3.org/TR/2001/REC-SVG-20010904/DTD/svg10.dtd">
<svg version="1.0" xmlns="http://www.w3.org/2000/svg"
 width="853.000000pt" height="1280.000000pt" viewBox="0 0 853.000000 1280.000000"
 preserveAspectRatio="xMidYMid meet">
<metadata>
Created by potrace 1.15, written by Peter Selinger 2001-2017
</metadata>
<g transform="translate(0.000000,1280.000000) scale(0.100000,-0.100000)"
fill="#000000" stroke="none">
<path d="M872 12771 c-48 -36 -76 -91 -78 -156 0 -27 -8 -63 -16 -80 -8 -16
-18 -45 -21 -63 -4 -19 -20 -50 -37 -70 -16 -20 -30 -42 -30 -49 0 -21 -113
-126 -160 -148 -25 -12 -51 -29 -59 -38 -8 -10 -28 -17 -50 -17 -20 0 -55 -11
-80 -25 -23 -14 -57 -25 -75 -25 -47 0 -127 -44 -154 -84 -13 -19 -28 -54 -33
-77 -5 -23 -25 -60 -44 -82 l-34 -40 0 -5451 0 -5451 24 -37 c38 -58 94 -81
177 -76 58 5 70 3 85 -14 25 -28 87 -58 118 -58 15 0 41 -11 58 -25 18 -13 42
-28 53 -32 26 -10 124 -119 124 -138 0 -8 14 -30 30 -48 21 -24 30 -45 30 -68
0 -19 11 -54 25 -78 15 -26 25 -59 25 -83 0 -22 7 -55 16 -74 16 -34 88 -104
107 -104 5 0 18 -11 29 -25 46 -59 -220 -55 3359 -55 l3282 0 33 21 c19 11 39
29 44 40 6 10 17 19 26 19 8 0 34 20 59 44 42 43 65 93 65 145 0 14 9 44 20
67 12 23 24 60 27 81 3 21 14 47 24 58 10 11 25 36 33 55 15 35 106 140 122
140 5 0 27 14 48 30 23 17 52 30 68 30 33 0 58 11 108 48 30 23 42 26 101 23
76 -3 107 9 155 61 41 43 58 98 49 157 -4 25 -6 60 -5 76 1 17 2 54 2 83 -1
72 -1 113 0 172 0 28 0 68 0 90 0 22 0 63 0 90 0 28 0 68 0 90 0 22 0 63 0 90
0 28 -1 66 0 85 0 19 0 60 0 90 0 30 0 71 0 90 0 19 0 60 0 90 0 30 0 71 0 90
0 19 0 60 0 90 0 30 0 71 0 90 0 19 0 60 0 90 0 30 0 71 0 90 0 19 0 60 0 90
0 30 0 71 0 90 0 19 0 60 0 90 0 30 0 71 0 90 0 106 0 154 0 185 0 19 0 56 0
83 0 26 0 65 0 87 0 22 0 64 0 93 -1 28 -1 70 0 92 0 22 0 61 0 88 0 26 -1 63
0 82 0 19 0 60 0 90 0 30 0 71 0 90 0 19 0 60 0 90 0 30 0 71 0 90 0 19 0 60
0 90 0 30 0 71 0 90 0 19 0 60 0 90 0 30 0 71 0 90 0 19 0 60 0 90 0 30 0 71
0 90 0 106 0 154 0 185 0 19 0 56 0 83 0 26 0 65 0 87 0 22 0 64 0 93 -1 28
-1 70 0 92 0 22 0 61 0 88 0 26 -1 63 0 82 0 19 0 60 0 90 0 30 0 71 0 90 0
19 0 60 0 90 0 30 0 71 0 90 0 19 0 60 0 90 0 30 0 71 0 90 0 19 0 60 0 90 0
30 0 71 0 90 0 19 0 60 0 90 0 30 0 71 0 90 0 19 0 60 0 90 0 30 0 71 0 90 -1
19 0 58 0 85 0 28 0 68 0 90 0 22 0 63 0 90 0 28 0 68 0 90 0 22 0 64 0 93 -1
28 -1 70 0 92 0 22 0 61 0 88 0 26 -1 63 0 82 0 19 0 60 0 90 0 30 0 71 0 90
0 19 0 60 0 90 0 30 0 71 0 90 0 19 0 60 0 90 0 30 0 71 0 90 0 19 0 60 0 90
0 30 0 71 0 90 0 19 0 60 0 90 0 30 0 71 0 90 0 19 0 60 0 90 0 30 0 71 0 90
-1 19 0 58 0 85 0 28 0 68 0 90 0 22 0 63 0 90 0 28 0 68 0 90 0 22 0 63 0 90
0 28 -1 66 0 85 0 19 0 60 0 90 0 30 0 71 0 90 0 19 0 60 0 90 0 30 0 71 0 90
0 19 0 60 0 90 0 30 0 71 0 90 0 19 0 60 0 90 0 30 0 71 0 90 0 19 0 60 0 90
0 30 0 71 0 90 0 19 0 60 0 90 0 30 0 71 0 90 0 106 0 154 0 185 0 19 0 56 0
83 0 26 0 65 0 87 0 22 0 63 0 90 0 28 0 68 0 90 0 22 0 63 0 90 0 28 -1 66 0
85 0 19 0 60 0 90 0 30 0 71 0 90 0 19 0 60 0 90 0 30 0 71 0 90 0 19 0 60 0
90 0 30 0 71 0 90 0 19 0 60 0 90 0 30 0 71 0 90 0 19 0 59 0 88 0 28 -1 66
-2 82 -1 17 1 51 5 77 5 28 3 59 -4 78 -8 23 -7 43 1 75 9 32 9 56 1 90 -7 31
-7 59 -1 85 15 58 2 122 -35 171 -45 59 -45 60 -52 102 -12 72 -104 146 -185
147 -19 0 -53 12 -75 25 -22 14 -54 25 -71 25 -20 0 -52 13 -84 35 -29 19 -56
35 -61 35 -17 0 -125 115 -138 147 -7 17 -23 41 -37 54 -13 12 -24 32 -24 43
0 12 -9 41 -20 65 -12 25 -20 65 -20 95 0 60 -31 118 -83 153 l-32 22 -3347 0
-3347 0 -39 -28z m155 1 c8 -5 4 -15 -12 -35 -21 -24 -31 -27 -86 -27 l-62 0
23 25 c33 35 108 56 137 37z m173 -2 c12 -8 11 -13 -9 -34 l-23 -25 -23 27
c-16 19 -20 29 -12 34 16 11 49 10 67 -2z m174 4 c13 -5 12 -10 -6 -35 l-22
-29 -22 27 c-16 20 -19 30 -11 35 15 9 40 10 61 2z m184 -2 c9 -6 6 -15 -14
-33 l-25 -24 -19 25 c-14 18 -15 27 -7 32 16 10 49 10 65 0z m166 2 c14 -5 13
-10 -5 -35 l-20 -29 -24 28 c-16 19 -20 29 -12 34 15 9 40 10 61 2z m180 0
c13 -5 12 -10 -6 -34 l-20 -28 -23 26 c-16 19 -20 29 -12 34 15 9 40 10 61 2z
m184 -2 c9 -6 6 -15 -14 -33 l-25 -24 -19 25 c-14 18 -15 27 -7 32 16 10 49
10 65 0z m170 0 c10 -7 8 -15 -8 -35 l-21 -27 -24 28 c-16 19 -20 29 -12 34
16 10 49 10 65 0z m179 0 c8 -5 4 -15 -12 -34 l-23 -26 -21 28 c-14 20 -17 30
-8 33 19 8 51 8 64 -1z m180 0 c8 -5 4 -15 -12 -34 l-24 -28 -21 27 c-16 20
-18 28 -8 35 16 10 49 10 65 0z m167 2 c14 -5 13 -10 -5 -35 l-20 -29 -24 28
c-16 19 -20 29 -12 34 15 9 40 10 61 2z m183 -2 c8 -5 4 -15 -12 -34 l-23 -26
-21 28 c-14 20 -17 30 -8 33 19 8 51 8 64 -1z m180 0 c8 -5 4 -15 -12 -34
l-24 -28 -21 27 c-16 20 -18 28 -8 35 16 10 49 10 65 0z m167 2 c14 -5 13 -10
-5 -35 l-20 -29 -24 28 c-16 19 -20 29 -12 34 15 9 40 10 61 2z m183 -2 c8 -5
4 -15 -12 -34 l-23 -26 -21 28 c-14 20 -17 30 -8 33 19 8 51 8 64 -1z m180 0
c8 -5 4 -15 -12 -34 l-23 -27 -25 29 c-17 19 -22 30 -14 34 19 7 61 6 74 -2z
m167 2 c13 -5 12 -10 -6 -34 l-20 -28 -23 26 c-16 19 -20 29 -12 34 15 9 40
10 61 2z m183 -2 c8 -5 4 -15 -12 -34 l-23 -26 -21 28 c-14 20 -17 30 -8 33
19 8 51 8 64 -1z m170 2 l21 -6 -25 -28 -25 -29 -23 27 c-31 36 -8 52 52 36z
m177 0 c13 -5 12 -10 -6 -34 l-20 -28 -23 26 c-16 19 -20 29 -12 34 15 9 40
10 61 2z m183 -2 c8 -5 4 -15 -12 -34 l-24 -28 -20 29 c-16 22 -18 31 -9 34
20 8 52 8 65 -1z m181 0 c9 -6 6 -14 -13 -32 l-26 -24 -24 26 c-22 24 -23 27
-7 31 29 8 56 7 70 -1z m166 2 c13 -5 12 -10 -6 -35 l-22 -29 -22 27 c-16 20
-19 30 -11 35 15 9 40 10 61 2z m183 -2 c8 -5 4 -15 -12 -34 l-23 -26 -21 28
c-14 20 -17 30 -8 33 19 8 51 8 64 -1z m170 2 l22 -6 -24 -26 -24 -26 -26 24
c-35 32 -8 50 52 34z m177 0 c13 -5 12 -10 -6 -34 l-20 -28 -23 26 c-16 19
-20 29 -12 34 15 9 40 10 61 2z m183 -2 c8 -5 4 -15 -12 -34 l-24 -28 -20 29
c-16 22 -18 31 -9 34 20 8 52 8 65 -1z m176 -1 c16 -6 16 -9 -8 -31 l-25 -23
-25 23 c-24 22 -24 25 -8 31 10 4 25 8 33 8 8 0 23 -4 33 -8z m171 3 c13 -5
12 -10 -6 -34 l-20 -28 -23 26 c-16 19 -20 29 -12 34 15 9 40 10 61 2z m183
-2 c8 -5 4 -15 -12 -34 l-23 -26 -21 28 c-14 20 -17 30 -8 33 19 8 51 8 64 -1z
m171 0 c10 -7 8 -15 -8 -35 l-21 -27 -24 28 c-16 19 -20 29 -12 34 16 10 49
10 65 0z m176 2 c13 -5 12 -10 -6 -34 l-20 -28 -23 26 c-16 19 -20 29 -12 34
15 9 40 10 61 2z m183 -2 c8 -5 4 -15 -12 -34 l-24 -28 -20 29 c-16 22 -18 31
-9 34 20 8 52 8 65 -1z m171 0 c10 -7 8 -15 -8 -35 l-21 -27 -24 28 c-16 19
-20 29 -12 34 16 10 49 10 65 0z m176 2 c13 -5 12 -10 -6 -35 l-22 -29 -22 27
c-16 20 -19 30 -11 35 15 9 40 10 61 2z m184 -2 c9 -6 6 -15 -14 -33 l-25 -24
-19 25 c-14 18 -15 27 -7 32 16 10 49 10 65 0z m170 0 c10 -7 8 -15 -8 -35
l-21 -27 -24 28 c-16 19 -20 29 -12 34 16 10 49 10 65 0z m207 -11 c22 -10 46
-25 54 -34 12 -16 8 -17 -51 -17 -59 0 -66 2 -86 29 -15 21 -18 31 -9 34 24
10 52 6 92 -12z m-6480 -31 c18 -20 17 -20 -25 -20 -42 0 -43 0 -25 20 10 11
21 20 25 20 4 0 15 -9 25 -20z m185 -12 c0 -5 -16 -8 -37 -8 -35 0 -36 1 -19
19 15 16 21 18 37 8 10 -6 19 -15 19 -19z m150 -6 c-40 -4 -49 4 -24 22 17 13
21 12 38 -2 18 -16 17 -17 -14 -20z m195 18 c18 -20 17 -20 -25 -20 -42 0 -43
0 -25 20 10 11 21 20 25 20 4 0 15 -9 25 -20z m185 -12 c0 -5 -16 -8 -37 -8
-35 0 -36 1 -19 19 15 16 21 18 37 8 10 -6 19 -15 19 -19z m150 -6 c-40 -4
-49 4 -24 22 17 13 21 12 38 -2 18 -16 17 -17 -14 -20z m195 18 c18 -20 17
-20 -25 -20 -42 0 -43 0 -25 20 10 11 21 20 25 20 4 0 15 -9 25 -20z m170 0
c18 -20 17 -20 -20 -20 -37 0 -38 0 -20 20 10 11 19 20 20 20 1 0 10 -9 20
-20z m165 -18 c-40 -4 -49 4 -24 22 17 13 21 12 38 -2 18 -16 17 -17 -14 -20z
m195 18 c18 -20 17 -20 -25 -20 -42 0 -43 0 -25 20 10 11 21 20 25 20 4 0 15
-9 25 -20z m170 0 c18 -20 17 -20 -20 -20 -37 0 -38 0 -20 20 10 11 19 20 20
20 1 0 10 -9 20 -20z m165 -18 c-40 -4 -51 5 -26 24 17 12 22 12 39 -4 19 -17
19 -17 -13 -20z m195 18 c18 -20 17 -20 -25 -20 -42 0 -43 0 -25 20 10 11 21
20 25 20 4 0 15 -9 25 -20z m170 0 c18 -20 17 -20 -20 -20 -37 0 -38 0 -20 20
10 11 19 20 20 20 1 0 10 -9 20 -20z m165 -18 c-40 -4 -51 5 -26 24 17 12 22
12 39 -4 19 -17 19 -17 -13 -20z m205 8 c4 -6 -11 -10 -36 -10 -41 0 -42 0
-24 20 18 19 45 15 60 -10z m160 10 c18 -20 17 -20 -20 -20 -37 0 -38 0 -20
20 10 11 19 20 20 20 1 0 10 -9 20 -20z m180 0 c18 -20 17 -20 -26 -20 l-44 1
24 19 c28 24 24 24 46 0z m190 -10 c4 -6 -11 -10 -36 -10 -41 0 -42 0 -24 20
18 19 45 15 60 -10z m160 10 c18 -20 17 -20 -20 -20 -37 0 -38 0 -20 20 10 11
19 20 20 20 1 0 10 -9 20 -20z m180 0 c18 -20 17 -20 -18 -20 -39 0 -45 8 -25
28 16 16 22 15 43 -8z m185 -12 c0 -5 -16 -8 -37 -8 -35 0 -36 1 -19 19 15 16
21 18 37 8 10 -6 19 -15 19 -19z m165 12 c18 -20 17 -20 -20 -20 -37 0 -38 0
-20 20 10 11 19 20 20 20 1 0 10 -9 20 -20z m180 0 c18 -20 17 -20 -26 -20
l-44 1 24 19 c28 24 24 24 46 0z m185 -10 c0 -6 -16 -10 -37 -10 -35 0 -36 0
-18 20 13 15 22 17 36 9 11 -5 19 -14 19 -19z m165 10 c18 -20 17 -20 -20 -20
-37 0 -38 0 -20 20 10 11 19 20 20 20 1 0 10 -9 20 -20z m180 0 c18 -20 17
-20 -25 -20 -42 0 -43 0 -25 20 10 11 21 20 25 20 4 0 15 -9 25 -20z m185 -12
c0 -5 -16 -8 -37 -8 -35 0 -36 1 -19 19 15 16 21 18 37 8 10 -6 19 -15 19 -19z
m165 12 c18 -20 17 -20 -20 -20 -37 0 -38 0 -20 20 10 11 19 20 20 20 1 0 10
-9 20 -20z m180 0 c18 -20 17 -20 -25 -20 -42 0 -43 0 -25 20 10 11 21 20 25
20 4 0 15 -9 25 -20z m185 -12 c0 -5 -16 -8 -37 -8 -35 0 -36 1 -19 19 15 16
21 18 37 8 10 -6 19 -15 19 -19z m165 12 c18 -20 17 -20 -20 -20 -37 0 -38 0
-20 20 10 11 19 20 20 20 1 0 10 -9 20 -20z m180 0 c18 -20 17 -20 -25 -20
-42 0 -43 0 -25 20 10 11 21 20 25 20 4 0 15 -9 25 -20z m185 -10 c0 -6 -16
-10 -37 -10 -35 0 -36 0 -18 20 13 15 22 17 36 9 11 -5 19 -14 19 -19z m150
-8 c-40 -4 -49 4 -24 22 17 13 21 12 38 -2 18 -16 17 -17 -14 -20z m195 18
c18 -20 17 -20 -25 -20 -42 0 -43 0 -25 20 10 11 21 20 25 20 4 0 15 -9 25
-20z m185 -12 c0 -5 -16 -8 -37 -8 -35 0 -36 1 -19 19 15 16 21 18 37 8 10 -6
19 -15 19 -19z m-6610 -62 c0 -31 -5 -46 -16 -50 -13 -5 -14 0 -9 27 16 80 25
88 25 23z m6818 -8 c8 -31 8 -38 -4 -38 -10 0 -14 12 -14 42 0 48 4 47 18 -4z
m-6582 -139 c11 -18 -13 -34 -31 -19 -8 7 -15 16 -15 21 0 13 38 11 46 -2z
m194 2 c0 -5 -7 -14 -16 -21 -13 -11 -19 -10 -37 8 l-21 22 37 0 c20 0 37 -4
37 -9z m163 -13 c-18 -18 -24 -19 -37 -8 -25 20 -19 30 21 30 l37 0 -21 -22z
m179 0 l-22 -22 -22 22 -22 22 44 0 44 0 -22 -22z m188 12 c0 -5 -8 -14 -19
-19 -14 -8 -23 -6 -36 9 -18 20 -17 20 18 20 21 0 37 -4 37 -10z m165 -10
c-10 -11 -22 -20 -26 -20 -5 0 -13 9 -19 20 -10 18 -8 20 26 20 36 0 37 0 19
-20z m177 -2 l-22 -22 -22 22 -22 22 44 0 44 0 -22 -22z m182 8 c-9 -24 -31
-26 -50 -5 -17 18 -16 19 19 19 27 0 35 -4 31 -14z m169 -8 c-18 -18 -24 -19
-37 -8 -25 20 -19 30 21 30 l37 0 -21 -22z m179 0 l-22 -22 -22 22 -22 22 44
0 44 0 -22 -22z m182 8 c-9 -24 -31 -26 -50 -5 -17 18 -16 19 19 19 27 0 35
-4 31 -14z m169 -8 c-18 -18 -24 -19 -37 -8 -25 20 -19 30 21 30 l37 0 -21
-22z m179 0 l-22 -22 -22 22 -22 22 44 0 44 0 -22 -22z m182 8 c-9 -24 -31
-26 -50 -5 -17 18 -16 19 19 19 27 0 35 -4 31 -14z m169 -8 c-18 -18 -24 -19
-37 -8 -25 20 -19 30 21 30 l37 0 -21 -22z m179 0 l-22 -22 -22 22 -22 22 44
0 44 0 -22 -22z m182 8 c-9 -24 -31 -26 -50 -5 -17 18 -16 19 19 19 27 0 35
-4 31 -14z m169 -8 c-18 -18 -24 -19 -37 -8 -25 20 -19 30 21 30 l37 0 -21
-22z m179 0 l-22 -22 -22 22 -22 22 44 0 44 0 -22 -22z m188 19 c0 -2 -8 -11
-18 -21 -18 -15 -20 -15 -37 4 -18 20 -18 20 18 20 21 0 37 -2 37 -3z m162
-19 l-22 -22 -22 22 -22 22 44 0 44 0 -22 -22z m188 13 c0 -5 -7 -14 -16 -21
-13 -11 -19 -10 -37 8 l-21 22 37 0 c20 0 37 -4 37 -9z m174 -5 c-9 -22 -32
-27 -49 -10 -21 22 -19 24 20 24 26 0 33 -4 29 -14z m169 -8 c-18 -18 -24 -19
-37 -8 -25 20 -19 30 21 30 l37 0 -21 -22z m179 0 l-22 -22 -22 22 -22 22 44
0 44 0 -22 -22z m188 19 c0 -2 -8 -11 -18 -21 -18 -15 -20 -15 -37 4 -18 20
-18 20 18 20 21 0 37 -2 37 -3z m163 -19 c-18 -18 -24 -19 -37 -8 -25 20 -19
30 21 30 l37 0 -21 -22z m177 2 c-6 -11 -14 -20 -19 -20 -4 0 -16 9 -26 20
-18 20 -17 20 19 20 34 0 36 -2 26 -20z m176 1 c-19 -21 -41 -19 -50 5 -4 10
4 14 31 14 35 0 36 -1 19 -19z m176 -3 l-22 -22 -22 22 -22 22 44 0 44 0 -22
-22z m188 13 c0 -5 -7 -14 -16 -21 -13 -11 -19 -10 -37 8 l-21 22 37 0 c20 0
37 -4 37 -9z m166 -10 c-19 -21 -41 -19 -50 5 -4 10 4 14 31 14 35 0 36 -1 19
-19z m176 -3 l-22 -22 -22 22 -22 22 44 0 44 0 -22 -22z m178 2 c-6 -11 -14
-20 -19 -20 -4 0 -16 9 -26 20 -18 20 -17 20 19 20 34 0 36 -2 26 -20z m173
-2 c-18 -18 -24 -19 -37 -8 -25 20 -19 30 21 30 l37 0 -21 -22z m179 0 l-22
-22 -22 22 -22 22 44 0 44 0 -22 -22z m178 2 c-12 -22 -25 -26 -35 -10 -9 15
4 30 26 30 17 0 18 -3 9 -20z m-6635 -23 c-20 -11 -29 -3 -21 19 5 13 9 14 22
3 14 -11 14 -13 -1 -22z m379 -18 c-3 -5 -16 -9 -30 -9 -24 0 -30 13 -18 45 6
14 9 13 30 -6 13 -12 21 -26 18 -30z m167 -3 c-11 -4 -32 -5 -47 -2 l-27 7 24
25 23 24 23 -22 c24 -22 24 -23 4 -32z m184 2 c-13 -10 -59 -10 -68 -1 -4 3 3
17 15 30 l21 23 21 -23 c14 -14 18 -25 11 -29z m179 1 c-6 -10 -45 -12 -67 -3
-13 5 -12 9 6 30 l21 24 23 -21 c12 -12 20 -26 17 -30z m167 -3 c-11 -4 -32
-5 -47 -2 l-27 7 24 25 23 24 23 -22 c24 -22 24 -23 4 -32z m172 30 c19 -28
13 -36 -23 -36 -37 0 -42 8 -22 36 21 29 26 30 45 0z m191 -27 c-6 -10 -58
-12 -67 -3 -3 4 1 17 10 31 l16 24 23 -22 c13 -12 21 -26 18 -30z m167 -3
c-11 -4 -32 -5 -47 -2 l-27 7 24 25 23 24 23 -22 c24 -22 24 -23 4 -32z m172
30 c20 -20 22 -26 10 -30 -20 -8 -58 -8 -66 0 -5 5 22 52 30 54 1 0 13 -11 26
-24z m191 -27 c-6 -10 -45 -12 -67 -3 -13 5 -12 9 6 30 l21 24 23 -21 c12 -12
20 -26 17 -30z m174 -1 c-16 -9 -62 -10 -71 -1 -4 3 3 17 15 30 l22 23 23 -22
c17 -16 20 -24 11 -30z m162 30 c22 -28 17 -38 -19 -38 -38 0 -43 8 -23 36 21
29 20 29 42 2z m194 -29 c-6 -10 -45 -12 -67 -3 -13 5 -12 9 6 30 l21 24 23
-21 c12 -12 20 -26 17 -30z m165 -3 c-10 -5 -30 -5 -45 -2 l-27 7 24 25 23 24
22 -22 c20 -22 20 -23 3 -32z m171 32 c22 -28 17 -38 -19 -38 -38 0 -43 8 -23
36 21 29 20 29 42 2z m194 -29 c-6 -10 -45 -12 -69 -3 -14 6 -13 9 6 30 l23
24 22 -21 c13 -12 21 -26 18 -30z m167 -3 c-11 -4 -32 -5 -47 -2 l-27 7 24 25
23 24 23 -22 c24 -22 24 -23 4 -32z m169 32 c22 -28 17 -38 -19 -38 -37 0 -43
8 -24 36 19 29 20 29 43 2z m194 -29 c-6 -10 -45 -12 -69 -3 -14 6 -13 9 6 30
l23 24 22 -21 c13 -12 21 -26 18 -30z m172 -1 c-14 -10 -60 -10 -69 -1 -4 3 3
17 15 30 l22 23 21 -22 c15 -16 18 -25 11 -30z m164 30 c22 -28 17 -38 -19
-38 -38 0 -43 8 -23 36 21 29 20 29 42 2z m181 -32 c-11 -4 -32 -5 -47 -2
l-27 7 24 25 23 24 23 -22 c24 -22 24 -23 4 -32z m184 2 c-13 -10 -59 -10 -68
-1 -4 3 3 17 15 30 l21 23 21 -23 c14 -14 18 -25 11 -29z m179 1 c-6 -10 -58
-12 -67 -3 -3 4 1 17 10 31 l16 24 23 -22 c13 -12 21 -26 18 -30z m167 -3
c-11 -4 -32 -5 -47 -2 l-27 7 24 25 23 24 23 -22 c24 -22 24 -23 4 -32z m186
2 c-15 -10 -61 -10 -70 -1 -4 3 3 17 14 29 l22 23 23 -22 c16 -15 19 -24 11
-29z m163 30 c22 -28 17 -38 -19 -38 -38 0 -43 8 -23 36 21 29 20 29 42 2z
m194 -29 c-6 -10 -45 -12 -69 -3 -14 6 -13 9 6 30 l23 24 22 -21 c13 -12 21
-26 18 -30z m172 -1 c-14 -10 -60 -10 -69 -1 -4 3 3 17 15 30 l22 23 21 -22
c15 -16 18 -25 11 -30z m178 1 c-6 -10 -45 -12 -67 -3 -12 4 -11 10 7 29 l21
24 22 -21 c12 -12 20 -25 17 -29z m167 -3 c-11 -4 -32 -5 -47 -2 l-27 7 24 25
23 24 23 -22 c24 -22 24 -23 4 -32z m173 29 c15 -23 15 -26 1 -31 -8 -4 -26
-3 -40 0 -25 6 -25 7 -8 31 23 31 27 31 47 0z m190 -26 c-6 -10 -45 -12 -67
-3 -12 4 -11 9 7 28 21 22 21 22 43 3 12 -11 20 -24 17 -28z m180 0 c-6 -10
-45 -12 -69 -3 -14 6 -13 9 6 30 l23 24 22 -21 c13 -12 21 -26 18 -30z m174
-1 c-16 -9 -62 -10 -71 -1 -4 3 3 17 15 30 l22 23 23 -22 c17 -16 20 -24 11
-30z m162 16 c0 -19 -18 -27 -45 -20 l-25 6 22 25 c16 19 24 22 35 14 7 -6 13
-17 13 -25z m344 20 c8 -21 3 -26 -17 -18 -9 3 -13 12 -10 20 7 19 19 18 27
-2z m-6890 -88 c-3 -14 -10 -26 -15 -26 -14 0 -11 48 4 53 17 6 19 3 11 -27z
m281 14 c7 -11 -21 -80 -32 -80 -5 0 -15 15 -23 33 -7 17 -15 35 -17 39 -9 14
63 23 72 8z m224 -6 c2 -2 -31 -3 -75 -3 -60 1 -71 3 -44 9 32 6 109 2 119 -6z
m180 0 c2 -2 -31 -3 -75 -3 -58 1 -71 3 -49 9 27 7 114 3 124 -6z m146 6 c22
-5 9 -8 -45 -8 -54 0 -67 3 -45 8 17 4 37 8 45 8 8 0 29 -4 45 -8z m204 -6 c2
-2 -31 -3 -75 -3 -60 1 -71 3 -44 9 32 6 109 2 119 -6z m180 0 c2 -2 -31 -3
-75 -3 -60 1 -71 3 -44 9 32 6 109 2 119 -6z m146 6 c22 -5 9 -8 -45 -8 -54 0
-67 3 -45 8 17 4 37 8 45 8 8 0 29 -4 45 -8z m204 -6 c2 -2 -31 -3 -75 -3 -60
1 -71 3 -44 9 32 6 109 2 119 -6z m180 0 c2 -2 -31 -3 -75 -3 -58 1 -71 3 -49
9 27 7 114 3 124 -6z m146 6 c21 -5 6 -8 -50 -8 -60 1 -71 3 -45 8 45 9 58 9
95 0z m204 -6 c2 -2 -31 -3 -75 -3 -60 1 -71 3 -44 9 32 6 109 2 119 -6z m180
0 c2 -2 -31 -3 -75 -3 -58 1 -71 3 -49 9 27 7 114 3 124 -6z m146 6 c21 -5 6
-8 -50 -8 -60 1 -71 3 -45 8 45 9 58 9 95 0z m204 -6 c2 -2 -31 -3 -75 -3 -60
1 -71 3 -44 9 32 6 109 2 119 -6z m180 0 c2 -2 -31 -3 -75 -3 -58 1 -71 3 -49
9 27 7 114 3 124 -6z m146 6 c21 -5 6 -8 -50 -8 -60 1 -71 3 -45 8 45 9 58 9
95 0z m204 -6 c2 -2 -31 -3 -75 -3 -60 1 -71 3 -44 9 32 6 109 2 119 -6z m180
0 c2 -2 -31 -3 -75 -3 -58 1 -71 3 -49 9 27 7 114 3 124 -6z m146 6 c21 -5 6
-8 -50 -8 -60 1 -71 3 -45 8 45 9 58 9 95 0z m204 -6 c2 -2 -31 -3 -75 -3 -60
1 -71 3 -44 9 32 6 109 2 119 -6z m180 0 c2 -2 -31 -3 -75 -3 -58 1 -71 3 -49
9 27 7 114 3 124 -6z m146 6 c21 -5 6 -8 -50 -8 -60 1 -71 3 -45 8 45 9 58 9
95 0z m204 -6 c2 -2 -31 -3 -75 -3 -60 1 -71 3 -44 9 32 6 109 2 119 -6z m146
6 c22 -5 9 -8 -45 -8 -54 0 -67 3 -45 8 17 4 37 8 45 8 8 0 29 -4 45 -8z m204
-6 c2 -2 -31 -3 -75 -3 -60 1 -71 3 -44 9 32 6 109 2 119 -6z m180 0 c2 -2
-31 -3 -75 -3 -60 1 -71 3 -44 9 32 6 109 2 119 -6z m180 0 c2 -2 -31 -3 -75
-3 -58 1 -71 3 -49 9 27 7 114 3 124 -6z m146 6 c21 -5 6 -8 -50 -8 -60 1 -71
3 -45 8 45 9 58 9 95 0z m204 -6 c2 -2 -31 -3 -75 -3 -60 1 -71 3 -44 9 32 6
109 2 119 -6z m180 0 c2 -2 -31 -3 -75 -3 -58 1 -71 3 -49 9 27 7 114 3 124
-6z m146 6 c21 -5 6 -8 -50 -8 -60 1 -71 3 -45 8 45 9 58 9 95 0z m204 -6 c2
-2 -31 -3 -75 -3 -58 1 -71 3 -49 9 27 7 114 3 124 -6z m146 6 c22 -5 9 -8
-45 -8 -54 0 -67 3 -45 8 17 4 37 8 45 8 8 0 29 -4 45 -8z m204 -6 c2 -2 -31
-3 -75 -3 -60 1 -71 3 -44 9 32 6 109 2 119 -6z m180 0 c2 -2 -31 -3 -75 -3
-58 1 -71 3 -49 9 27 7 114 3 124 -6z m180 0 c2 -2 -31 -3 -75 -3 -58 1 -71 3
-49 9 27 7 114 3 124 -6z m148 2 c2 -2 -8 -23 -21 -46 l-25 -44 -17 36 c-23
49 -13 72 28 64 17 -3 33 -8 35 -10z m229 -1 c8 -21 -6 -41 -17 -24 -12 19
-11 39 1 39 6 0 13 -7 16 -15z m-6959 -76 c-27 -7 -32 3 -16 32 l12 22 13 -24
c11 -22 10 -25 -9 -30z m7021 26 c15 -34 16 -33 -11 -28 -19 4 -23 10 -19 29
6 31 16 30 30 -1z m-249 -78 c1 -6 -33 7 -47 18 -1 1 3 15 10 30 l12 27 12
-33 c7 -19 13 -38 13 -42z m-6503 17 c-3 -8 -12 -14 -20 -14 -12 0 -13 5 -4
31 9 27 12 29 20 15 5 -10 7 -24 4 -32z m60 -63 c-113 -279 -374 -510 -654
-581 l-42 -11 2 -5252 3 -5251 40 -12 40 -12 -50 -1 -51 -1 4 35 c2 19 -1 49
-7 67 -9 25 -9 44 1 81 9 36 9 58 1 89 -8 30 -8 56 0 94 8 38 8 62 0 89 -9 27
-9 51 0 90 8 40 8 63 0 90 -9 27 -9 51 0 90 8 40 8 63 -1 91 -8 27 -8 49 0 84
8 35 8 60 0 91 -8 31 -8 56 0 90 8 34 8 59 0 90 -8 31 -8 56 0 90 8 34 8 59 0
90 -8 31 -8 56 0 90 8 34 8 59 0 90 -8 31 -8 56 0 91 9 35 8 57 -1 87 -9 31
-9 50 1 85 9 36 10 56 0 91 -9 35 -9 55 0 90 9 35 9 55 0 90 -9 35 -9 55 0 90
9 35 9 55 0 90 -9 35 -9 55 0 90 9 34 9 55 1 87 -8 31 -9 56 -1 89 8 34 8 59
0 90 -8 31 -8 56 0 90 8 34 8 59 0 90 -8 31 -8 56 0 90 8 34 8 59 0 90 -8 31
-8 56 0 90 8 34 8 59 0 90 -8 32 -8 54 1 86 8 33 8 54 -1 88 -9 35 -9 55 0 90
9 35 9 55 0 90 -9 35 -9 55 0 90 9 35 9 55 0 90 -9 35 -9 55 0 90 9 35 9 55 0
90 -9 35 -9 55 0 90 9 34 9 55 1 88 -9 32 -9 54 -1 86 8 31 8 56 0 90 -8 34
-8 59 0 90 8 31 8 56 0 90 -8 34 -8 59 0 90 8 31 8 56 0 90 -8 34 -8 59 0 90
8 31 8 56 0 90 -8 34 -8 59 0 90 8 31 8 56 0 90 -8 34 -8 59 0 90 8 31 8 56 0
90 -8 34 -8 59 0 91 8 32 8 55 0 87 -9 33 -9 54 0 88 9 34 9 55 1 87 -8 30 -8
56 0 94 8 39 8 62 -1 90 -8 27 -8 49 0 84 8 34 8 60 0 90 -7 30 -7 57 1 95 8
40 8 63 -1 91 -8 27 -8 49 0 85 9 36 8 58 0 88 -9 29 -9 51 -1 89 9 37 9 61 1
93 -8 31 -8 56 0 90 8 34 8 59 0 90 -8 31 -8 54 0 85 9 32 9 55 0 91 -8 36 -8
61 0 92 8 31 8 56 0 91 -8 35 -8 57 0 84 9 28 9 51 1 90 -8 38 -8 64 0 94 8
32 8 53 -1 88 -10 35 -10 54 -1 85 10 30 10 51 1 90 -9 39 -9 60 0 90 8 30 9
52 0 87 -8 35 -8 60 0 91 8 31 8 56 0 90 -8 34 -8 59 0 90 8 31 8 56 0 90 -8
34 -8 59 0 90 8 31 8 56 0 90 -8 34 -8 59 0 90 8 31 8 56 0 90 -8 34 -8 59 0
90 8 31 8 56 0 91 -8 35 -8 57 0 84 9 28 9 51 1 90 -8 38 -8 64 0 94 8 32 8
53 -1 87 -9 35 -9 55 0 90 9 35 9 55 0 90 -9 35 -9 55 0 90 9 35 9 55 0 90 -9
35 -9 55 0 90 9 34 9 55 1 88 -9 32 -9 54 -1 86 8 31 8 56 0 90 -8 34 -8 59 0
90 8 31 8 56 0 90 -8 34 -8 59 0 90 8 31 8 56 0 90 -8 34 -8 59 0 90 8 31 8
56 0 91 -8 35 -8 57 0 84 9 28 9 51 1 90 -8 38 -8 64 0 94 8 32 8 53 -1 88
-10 35 -10 55 0 87 14 50 35 78 53 71 22 -9 98 16 142 47 23 16 53 29 68 29
37 0 97 33 132 73 17 19 50 44 74 55 52 23 82 54 103 103 8 20 31 48 51 63 37
29 72 86 77 128 4 26 27 62 35 54 2 -2 -7 -31 -21 -65z m6359 11 c10 -53 29
-86 73 -123 22 -19 49 -53 60 -75 25 -48 68 -88 116 -105 19 -7 40 -23 47 -35
18 -34 86 -75 133 -82 23 -3 55 -15 71 -28 40 -30 78 -44 126 -46 22 -1 45 -8
52 -16 21 -26 36 -103 25 -134 -6 -15 -7 -52 -4 -80 3 -29 5 -61 5 -70 -1 -32
-2 -142 -1 -168 0 -14 0 -55 0 -92 0 -38 0 -79 0 -93 0 -14 0 -54 0 -90 0 -36
0 -76 0 -90 0 -14 0 -54 0 -90 0 -36 0 -76 0 -90 0 -14 0 -55 0 -92 0 -38 0
-79 0 -93 -1 -14 -1 -54 0 -90 0 -36 0 -76 0 -90 -1 -14 -1 -54 0 -90 0 -36 0
-76 0 -90 -1 -14 -1 -53 0 -87 0 -35 0 -72 0 -83 0 -11 0 -53 0 -92 0 -40 0
-82 -1 -93 0 -11 0 -51 0 -90 1 -38 1 -79 0 -90 0 -11 0 -48 0 -82 0 -35 1
-74 1 -88 0 -14 0 -54 0 -90 0 -36 0 -76 0 -90 0 -14 0 -54 0 -90 0 -36 0 -76
0 -90 0 -14 0 -54 0 -90 0 -36 0 -76 0 -90 0 -14 0 -54 0 -90 0 -36 0 -76 0
-90 0 -14 0 -55 0 -92 0 -38 0 -79 0 -93 -1 -14 -1 -54 0 -90 0 -36 0 -76 0
-90 -1 -14 -1 -53 0 -87 0 -35 0 -72 0 -83 0 -11 0 -48 0 -82 -1 -35 -1 -74 0
-88 0 -14 0 -54 0 -90 -1 -36 -1 -76 0 -90 0 -14 0 -54 0 -90 -1 -36 -1 -76 0
-90 0 -14 0 -55 0 -92 0 -38 0 -79 0 -93 0 -14 0 -54 0 -90 0 -36 0 -76 0 -90
0 -14 0 -54 0 -90 0 -36 0 -76 0 -90 0 -14 0 -55 0 -92 0 -38 0 -79 0 -93 -1
-14 -1 -54 0 -90 0 -36 0 -76 0 -90 -1 -14 -1 -53 0 -87 0 -35 0 -72 0 -83 0
-11 0 -48 0 -82 -1 -35 -1 -74 0 -88 0 -14 0 -55 0 -92 0 -38 0 -79 0 -93 0
-14 0 -54 0 -90 0 -36 0 -76 0 -90 0 -14 0 -54 0 -90 0 -36 0 -76 0 -90 0 -14
0 -54 0 -90 0 -36 0 -76 0 -90 0 -14 0 -54 0 -90 0 -36 0 -76 0 -90 0 -14 0
-54 0 -90 0 -36 0 -76 0 -90 0 -14 0 -54 0 -90 0 -36 0 -76 0 -90 0 -14 0 -54
0 -90 1 -84 1 -93 0 -167 -1 -35 -1 -74 0 -88 0 -14 0 -54 0 -90 -1 -36 -1
-76 0 -90 0 -14 0 -54 0 -90 -1 -36 -1 -76 0 -90 0 -14 0 -54 0 -90 -1 -36 -1
-76 0 -90 0 -14 0 -55 0 -92 0 -38 0 -79 0 -93 0 -14 0 -54 0 -90 0 -36 0 -76
0 -90 0 -14 0 -54 0 -90 0 -36 0 -76 0 -90 0 -14 0 -55 0 -92 0 -38 0 -79 0
-93 -1 -14 -1 -53 0 -87 0 -35 0 -72 0 -83 0 -11 0 -48 0 -82 -1 -35 -1 -74 0
-88 0 -14 0 -54 0 -90 -1 -36 -1 -76 0 -90 0 -14 0 -54 0 -90 -1 -36 -1 -76 0
-90 0 -14 0 -55 0 -92 0 -38 0 -79 0 -93 0 -14 0 -54 0 -90 0 -36 0 -76 0 -90
0 -14 0 -54 0 -90 0 -36 0 -76 0 -90 0 -14 0 -54 0 -90 0 -36 0 -76 0 -90 0
-14 0 -54 0 -90 0 -36 0 -76 0 -90 0 -14 0 -54 0 -90 0 -36 0 -76 0 -90 0 -14
0 -54 0 -90 1 -84 1 -93 0 -167 -1 -35 -1 -74 0 -88 0 -14 0 -54 0 -90 -1 -36
0 -76 0 -90 1 -14 -1 -53 -4 -87 l-6 -63 -36 1 -37 1 33 14 32 14 0 5250 0
5250 -27 5 c-66 14 -214 79 -288 126 -93 60 -209 169 -271 255 -43 61 -134
239 -134 264 0 27 28 -11 35 -48z m-6687 8 c-24 -41 -32 -41 -42 2 -6 28 2 36
42 37 l23 1 -23 -40z m7040 13 c2 -12 -1 -29 -5 -38 -7 -12 -14 -7 -32 26
l-23 41 28 -4 c21 -2 30 -9 32 -25z m-502 -20 c89 -207 170 -329 293 -445 109
-103 219 -173 361 -228 l65 -26 3 -5156 2 -5157 -56 -21 c-154 -57 -279 -137
-394 -252 -124 -124 -207 -252 -261 -397 l-22 -61 -3028 0 -3028 0 -20 55
c-58 155 -147 289 -269 407 -124 119 -224 184 -385 247 l-57 23 2 5155 3 5154
84 34 c276 113 504 345 616 627 15 38 34 69 43 71 10 3 1370 5 3025 6 l3007 1
16 -37z m-6616 -8 c0 -26 -7 -29 -35 -19 -14 6 -14 8 1 25 23 26 34 24 34 -6z
m7194 6 c15 -17 15 -19 1 -25 -32 -12 -42 -7 -37 19 5 30 13 31 36 6z m-6850
-24 c-3 -15 -18 -38 -32 -52 l-26 -27 -7 26 c-11 40 -1 61 34 72 40 12 39 12
31 -19z m6537 -7 c2 -24 -2 -65 -7 -69 -8 -9 -43 34 -58 70 l-15 36 40 -11
c23 -6 39 -16 40 -26z m-6895 -40 l27 -11 -38 -39 c-42 -43 -55 -43 -55 0 0
59 14 69 66 50z m7249 -20 c4 -16 3 -39 0 -51 -7 -20 -9 -19 -46 17 -36 35
-38 40 -22 51 31 23 61 16 68 -17z m-7355 -10 c0 -28 -1 -29 -25 -18 -14 6
-25 14 -25 18 0 5 32 25 48 29 1 1 2 -12 2 -29z m7426 16 c19 -15 19 -15 -1
-30 -29 -22 -35 -20 -35 14 0 34 7 37 36 16z m-7554 -58 c-7 -7 -12 -25 -12
-40 l0 -28 -34 22 c-39 26 -38 34 7 47 45 13 53 13 39 -1z m7721 -10 c16 -8
15 -12 -15 -32 -18 -13 -34 -22 -35 -22 -1 1 -4 14 -7 29 -2 14 -8 31 -11 37
-7 12 37 4 68 -12z m-7612 -16 l31 -28 -52 -28 c-65 -35 -78 -27 -60 38 15 55
35 59 81 18z m7509 9 c13 -25 13 -91 0 -91 -14 0 -100 54 -100 63 0 9 61 47
77 47 7 0 17 -9 23 -19z m-7156 -40 c-15 -25 -61 -61 -78 -61 -14 0 -4 22 25
55 17 19 40 35 51 35 18 0 18 -1 2 -29z m6778 2 c33 -37 42 -63 22 -63 -18 0
-84 62 -84 79 0 21 36 11 62 -16z m-7412 -20 c-5 -16 -11 -44 -13 -63 l-3 -35
-67 -3 -67 -3 11 28 c19 51 82 103 126 103 19 0 21 -3 13 -27z m8068 7 c32
-20 72 -74 72 -97 0 -9 -19 -13 -64 -13 l-63 0 -6 48 c-3 26 -9 55 -12 65 -10
24 30 23 73 -3z m-7953 -21 c19 -17 35 -34 35 -38 0 -8 -49 -25 -104 -36 -27
-6 -28 -4 -23 22 10 51 26 83 41 83 9 0 31 -14 51 -31z m7843 6 c7 -14 12 -39
12 -54 0 -27 -1 -28 -37 -20 -51 10 -83 20 -83 26 0 15 25 45 48 57 38 21 47
20 60 -9z m-7490 -104 c-6 -10 -28 -27 -47 -36 -41 -19 -39 -16 15 25 46 35
48 35 32 11z m7103 -16 c51 -35 52 -47 1 -21 -27 14 -71 56 -58 56 3 0 29 -16
57 -35z m-7751 -123 c0 -49 -4 -62 -25 -82 -27 -25 -27 -24 -27 36 0 37 27
104 41 104 7 0 11 -24 11 -58z m8390 26 c13 -21 20 -51 20 -82 l0 -49 -25 23
c-21 20 -25 33 -25 82 0 32 2 58 5 58 3 0 14 -15 25 -32z m-8130 -102 c0 -3
-4 -8 -10 -11 -5 -3 -10 -1 -10 4 0 6 5 11 10 11 6 0 10 -2 10 -4z m7860 -6
c0 -5 -4 -10 -10 -10 -5 0 -10 5 -10 10 0 6 5 10 10 10 6 0 10 -4 10 -10z
m-7908 -82 l-22 -22 0 44 0 44 22 -22 22 -22 -22 -22z m7958 20 l0 -42 -21 20
c-18 19 -19 24 -8 43 21 32 29 26 29 -21z m-8170 0 c-1 -31 -1 -32 -15 -14
-11 14 -12 23 -4 33 17 19 19 17 19 -19z m8372 -10 c-9 -9 -12 -7 -12 12 0 19
3 21 12 12 9 -9 9 -15 0 -24z m-8395 -105 l-27 -28 0 55 0 55 27 -28 28 -27
-28 -27z m283 25 c0 -36 -10 -40 -40 -18 l-25 19 25 24 c28 27 40 19 40 -25z
m7900 4 c0 -6 -44 -41 -52 -42 -5 0 -8 20 -8 45 l0 46 30 -23 c17 -12 30 -24
30 -26z m250 -2 c0 -45 -8 -49 -35 -20 -17 19 -17 21 0 40 27 29 35 25 35 -20z
m-8198 -112 l-22 -22 0 44 0 44 22 -22 22 -22 -22 -22z m7958 20 c0 -40 0 -41
-20 -23 -23 21 -25 36 -8 53 21 21 28 13 28 -30z m-8170 0 c-1 -31 -1 -32 -15
-14 -11 14 -12 23 -4 33 17 19 19 17 19 -19z m8372 -10 c-9 -9 -12 -7 -12 12
0 19 3 21 12 12 9 -9 9 -15 0 -24z m-8395 -105 l-27 -28 0 55 0 55 27 -28 28
-27 -28 -27z m283 25 c0 -36 -10 -40 -39 -17 l-24 20 23 24 c27 28 40 19 40
-27z m7900 5 c0 -7 -43 -42 -52 -43 -5 0 -8 21 -8 46 l0 45 30 -21 c17 -12 30
-24 30 -27z m246 -41 c-8 -7 -46 28 -46 43 0 7 10 19 23 28 21 14 22 14 25
-25 2 -22 1 -43 -2 -46z m-8186 -66 c-20 -25 -30 -19 -30 21 l0 37 22 -21 c18
-18 19 -24 8 -37z m7950 12 c0 -40 0 -41 -20 -23 -23 21 -25 36 -8 53 21 21
28 13 28 -30z m-8170 0 c-1 -31 -1 -32 -15 -14 -11 14 -12 23 -4 33 17 19 19
17 19 -19z m8372 -10 c-9 -9 -12 -7 -12 12 0 19 3 21 12 12 9 -9 9 -15 0 -24z
m-8372 -74 c0 -6 -9 -19 -21 -30 -25 -23 -37 -9 -31 41 4 34 4 34 28 17 13 -9
24 -22 24 -28z m260 -5 c0 -37 -9 -41 -40 -17 l-28 20 26 23 c30 26 42 18 42
-26z m7877 27 l27 -25 -25 -20 c-35 -29 -39 -26 -39 24 0 25 2 45 5 45 3 0 18
-11 32 -24z m273 -21 c0 -49 -4 -53 -32 -28 -23 20 -23 32 0 54 26 27 32 23
32 -26z m-8190 -109 c-20 -25 -30 -19 -30 21 l0 37 22 -21 c18 -18 19 -24 8
-37z m7950 12 c0 -40 0 -41 -20 -23 -23 21 -25 36 -8 53 21 21 28 13 28 -30z
m-8170 6 c0 -22 -2 -25 -15 -14 -12 10 -13 16 -4 26 16 20 19 18 19 -12z
m8371 -17 c-8 -8 -11 -3 -11 19 1 25 2 27 11 11 8 -14 8 -22 0 -30z m-8371
-71 c0 -6 -10 -20 -21 -30 -27 -22 -37 -10 -31 38 4 35 4 35 28 19 13 -8 24
-21 24 -27z m260 0 c0 -44 -7 -49 -40 -24 l-28 20 26 23 c33 28 42 24 42 -19z
m7880 19 l23 -24 -24 -20 c-34 -29 -39 -26 -39 24 0 51 7 55 40 20z m270 -20
c0 -49 -4 -53 -32 -28 -23 20 -23 32 0 54 26 27 32 23 32 -26z m-8191 -72 c6
-11 6 -24 0 -35 -16 -29 -29 -21 -29 17 0 38 13 46 29 18z m7951 -19 c0 -37
-14 -42 -34 -12 -7 12 -6 21 3 32 21 25 31 19 31 -20z m-8170 0 c0 -22 -2 -25
-15 -14 -12 10 -13 16 -4 26 16 20 19 18 19 -12z m8380 1 c0 -8 -4 -17 -10
-20 -6 -4 -10 5 -10 20 0 15 4 24 10 20 6 -3 10 -12 10 -20z m-8380 -90 c0
-17 -47 -48 -52 -34 -2 6 -2 26 0 45 4 32 5 33 28 17 13 -8 24 -21 24 -28z
m260 1 c0 -44 -7 -49 -40 -24 l-28 20 26 23 c33 28 42 24 42 -19z m7877 22
l23 -22 -22 -23 c-31 -33 -38 -29 -38 22 0 25 3 45 7 45 4 0 17 -10 30 -22z
m273 -23 c0 -49 -4 -53 -32 -28 -22 20 -23 31 -1 55 25 28 33 22 33 -27z
m-8191 -69 c13 -16 6 -42 -15 -50 -10 -4 -14 3 -14 29 0 37 10 44 29 21z
m7951 -22 c0 -37 -14 -42 -34 -12 -7 12 -6 21 3 32 21 25 31 19 31 -20z
m-8170 0 c0 -22 -2 -25 -15 -14 -12 10 -13 16 -4 26 16 20 19 18 19 -12z
m8380 1 c0 -8 -4 -17 -10 -20 -6 -4 -10 5 -10 20 0 15 4 24 10 20 6 -3 10 -12
10 -20z m-8398 -62 c24 -21 23 -31 -4 -53 -27 -22 -35 -12 -30 35 5 40 8 42
34 18z m278 -27 c0 -45 -8 -49 -40 -23 l-28 22 27 22 c32 26 41 21 41 -21z
m7877 22 l23 -22 -22 -23 c-31 -33 -38 -29 -38 22 0 25 3 45 7 45 4 0 17 -10
30 -22z m273 -23 c0 -49 -4 -53 -32 -28 -22 20 -23 31 -1 55 25 28 33 22 33
-27z m-8190 -71 c11 -13 10 -19 -8 -37 l-22 -21 0 37 c0 40 10 46 30 21z
m7950 -20 c0 -37 -14 -42 -34 -12 -7 12 -6 21 3 32 21 25 31 19 31 -20z
m-8170 0 c0 -22 -2 -25 -15 -14 -12 10 -13 16 -4 26 16 20 19 18 19 -12z
m8371 -11 c-9 -16 -10 -14 -11 12 0 21 3 26 11 18 8 -8 8 -16 0 -30z m-8389
-50 c24 -21 23 -31 -4 -53 -27 -22 -35 -12 -30 35 5 40 8 42 34 18z m278 -27
c0 -45 -8 -49 -40 -23 l-28 22 27 22 c32 26 41 21 41 -21z m7879 24 l23 -20
-23 -25 c-13 -13 -27 -25 -31 -25 -5 0 -8 20 -8 45 0 50 5 53 39 25z m271 -25
c0 -25 -2 -45 -5 -45 -7 0 -45 39 -45 47 0 10 32 43 42 43 4 0 8 -20 8 -45z
m-8410 -86 c0 -26 -2 -30 -15 -19 -11 9 -12 16 -2 31 16 25 17 24 17 -12z
m220 15 c11 -13 10 -19 -8 -37 l-22 -21 0 37 c0 40 10 46 30 21z m7950 -20 c0
-37 -14 -42 -34 -12 -7 12 -6 21 3 32 21 25 31 19 31 -20z m201 -11 c-9 -16
-10 -14 -11 12 0 21 3 26 11 18 8 -8 8 -16 0 -30z m-8371 -77 c0 -6 -12 -19
-25 -29 l-25 -18 0 52 0 52 25 -23 c14 -13 25 -28 25 -34z m260 6 c0 -47 -13
-55 -41 -26 l-24 25 25 19 c30 22 40 18 40 -18z m7878 19 c12 -11 22 -21 22
-23 0 -2 -13 -14 -30 -26 l-30 -23 0 46 c0 50 5 53 38 26z m272 -26 l0 -46
-25 18 c-29 21 -30 30 -8 55 25 28 33 22 33 -27z m-240 -86 c0 -42 -14 -49
-34 -16 -8 12 -5 21 8 36 11 12 21 21 23 21 1 0 3 -18 3 -41z m-8170 0 c0 -26
-2 -30 -15 -19 -11 9 -12 16 -2 31 16 25 17 24 17 -12z m220 15 c11 -13 10
-19 -8 -37 l-22 -21 0 37 c0 40 10 46 30 21z m8152 -26 c-9 -9 -12 -7 -12 12
0 19 3 21 12 12 9 -9 9 -15 0 -24z m-8372 -81 c0 -14 -44 -46 -50 -37 -3 5 -4
28 -2 50 l4 41 24 -22 c13 -12 24 -27 24 -32z m8160 3 c0 -3 -13 -16 -30 -28
l-30 -23 0 51 0 51 30 -23 c17 -12 30 -25 30 -28z m250 0 l0 -51 -25 18 c-13
10 -25 22 -25 27 0 9 39 56 47 56 2 0 3 -23 3 -50z m-8150 2 c0 -47 -13 -55
-41 -26 l-24 25 25 19 c30 22 40 18 40 -18z m-48 -114 l-22 -22 0 44 0 44 22
-22 22 -22 -22 -22z m7958 22 c0 -44 -9 -50 -28 -20 -9 15 -10 26 -2 40 17 32
30 23 30 -20z m-8173 -17 c-4 -17 -4 -17 -12 0 -4 9 -4 25 0 35 8 16 8 16 12
0 3 -10 3 -26 0 -35z m8375 5 c-9 -9 -12 -7 -12 12 0 19 3 21 12 12 9 -9 9
-15 0 -24z m-8395 -105 l-27 -28 0 55 0 55 27 -28 28 -27 -28 -27z m283 30 c0
-46 -9 -53 -38 -27 l-26 25 25 23 c26 25 39 18 39 -21z m7900 -3 c0 -3 -13
-16 -30 -28 l-30 -23 0 51 0 51 30 -23 c17 -12 30 -25 30 -28z m245 -38 c-3
-3 -15 4 -27 16 l-22 22 25 26 24 26 3 -42 c2 -23 1 -45 -3 -48z m-8193 -74
l-22 -22 0 44 0 44 22 -22 22 -22 -22 -22z m7958 20 c0 -40 0 -41 -20 -23 -23
21 -25 36 -8 53 21 21 28 13 28 -30z m-8170 0 c-1 -31 -1 -32 -15 -14 -11 14
-12 23 -4 33 17 19 19 17 19 -19z m8372 -10 c-9 -9 -12 -7 -12 12 0 19 3 21
12 12 9 -9 9 -15 0 -24z m-8387 -98 c-27 -30 -35 -25 -35 27 l0 48 27 -27 c26
-27 26 -28 8 -48z m275 18 c0 -36 -10 -40 -40 -18 l-25 19 25 24 c28 27 40 19
40 -25z m7900 1 c0 -7 -45 -39 -55 -39 -3 0 -5 20 -5 45 l0 46 30 -23 c17 -12
30 -25 30 -29z m246 -37 c-7 -7 -46 28 -46 40 0 6 10 18 23 28 l22 18 3 -40
c2 -22 1 -43 -2 -46z m-8186 -66 c-20 -25 -30 -19 -30 21 l0 37 22 -21 c18
-18 19 -24 8 -37z m7950 12 c0 -40 0 -41 -20 -23 -23 21 -25 36 -8 53 21 21
28 13 28 -30z m-8170 6 c0 -22 -2 -25 -15 -14 -12 10 -13 16 -4 26 16 20 19
18 19 -12z m8372 -16 c-9 -9 -12 -7 -12 12 0 19 3 21 12 12 9 -9 9 -15 0 -24z
m-8372 -74 c0 -6 -9 -19 -21 -30 -25 -23 -37 -9 -31 41 4 34 4 34 28 17 13 -9
24 -22 24 -28z m260 -6 c0 -36 -10 -40 -39 -17 l-24 20 23 24 c27 28 40 19 40
-27z m7900 5 c0 -7 -43 -42 -52 -43 -5 0 -8 21 -8 46 l0 45 30 -21 c17 -12 30
-24 30 -27z m246 -41 c-7 -7 -46 28 -46 40 0 6 10 18 23 28 l22 18 3 -40 c2
-22 1 -43 -2 -46z m-8186 -66 c-20 -25 -30 -19 -30 21 l0 37 22 -21 c18 -18
19 -24 8 -37z m7950 12 c0 -40 0 -41 -20 -23 -23 21 -25 36 -8 53 21 21 28 13
28 -30z m-8170 6 c0 -22 -2 -25 -15 -14 -12 10 -13 16 -4 26 16 20 19 18 19
-12z m8371 -17 c-8 -8 -11 -3 -11 19 1 25 2 27 11 11 8 -14 8 -22 0 -30z
m-8371 -73 c0 -6 -9 -19 -21 -30 -25 -23 -37 -9 -31 41 4 34 4 34 28 17 13 -9
24 -22 24 -28z m260 2 c0 -44 -7 -49 -40 -24 l-28 20 26 23 c33 28 42 24 42
-19z m7900 -3 c0 -7 -43 -42 -52 -43 -5 0 -8 21 -8 46 l0 45 30 -21 c17 -12
30 -24 30 -27z m250 2 c0 -49 -4 -53 -32 -28 -23 20 -23 32 0 54 26 27 32 23
32 -26z m-8190 -109 c-20 -25 -30 -19 -30 21 l0 37 22 -21 c18 -18 19 -24 8
-37z m7950 18 c0 -37 -14 -42 -34 -12 -7 12 -6 21 3 32 21 25 31 19 31 -20z
m-8170 0 c0 -22 -2 -25 -15 -14 -12 10 -13 16 -4 26 16 20 19 18 19 -12z
m8380 1 c0 -8 -4 -17 -10 -20 -6 -4 -10 5 -10 20 0 15 4 24 10 20 6 -3 10 -12
10 -20z m-8380 -90 c0 -17 -47 -48 -52 -34 -2 6 -2 26 0 45 4 32 5 33 28 17
13 -8 24 -21 24 -28z m260 1 c0 -44 -7 -49 -40 -24 l-28 20 26 23 c33 28 42
24 42 -19z m7877 22 l23 -22 -22 -23 c-31 -33 -38 -29 -38 22 0 25 3 45 7 45
4 0 17 -10 30 -22z m273 -23 c0 -49 -4 -53 -32 -28 -23 20 -23 32 0 54 26 27
32 23 32 -26z m-8191 -72 c6 -11 6 -24 0 -35 -16 -29 -29 -21 -29 17 0 38 13
46 29 18z m7951 -19 c0 -37 -14 -42 -34 -12 -7 12 -6 21 3 32 21 25 31 19 31
-20z m-8170 0 c0 -22 -2 -25 -15 -14 -12 10 -13 16 -4 26 16 20 19 18 19 -12z
m8380 1 c0 -8 -4 -17 -10 -20 -6 -4 -10 5 -10 20 0 15 4 24 10 20 6 -3 10 -12
10 -20z m-8380 -87 c0 -15 -44 -47 -50 -37 -4 5 -4 24 -2 43 4 35 4 35 28 19
13 -8 24 -20 24 -25z m260 -2 c0 -44 -8 -49 -39 -23 l-27 22 26 21 c31 27 40
22 40 -20z m7877 22 l23 -22 -22 -23 c-31 -33 -38 -29 -38 22 0 25 3 45 7 45
4 0 17 -10 30 -22z m273 -23 c0 -49 -4 -53 -32 -28 -22 20 -23 31 -1 55 25 28
33 22 33 -27z m-8191 -69 c13 -16 6 -42 -15 -50 -10 -4 -14 3 -14 29 0 37 10
44 29 21z m7951 -22 c0 -37 -14 -42 -34 -12 -7 12 -6 21 3 32 21 25 31 19 31
-20z m-8170 0 c0 -22 -2 -25 -15 -14 -12 10 -13 16 -4 26 16 20 19 18 19 -12z
m8380 1 c0 -8 -4 -17 -10 -20 -6 -4 -10 5 -10 20 0 15 4 24 10 20 6 -3 10 -12
10 -20z m-8380 -87 c0 -15 -44 -47 -50 -37 -4 5 -4 24 -2 43 4 35 4 35 28 19
13 -8 24 -20 24 -25z m260 -2 c0 -45 -8 -49 -40 -23 l-28 22 27 22 c32 26 41
21 41 -21z m7879 23 l25 -20 -27 -25 c-14 -13 -29 -24 -32 -24 -3 0 -5 20 -5
45 0 50 4 53 39 24z m271 -24 c0 -25 -2 -45 -5 -45 -7 0 -45 39 -45 47 0 10
32 43 42 43 4 0 8 -20 8 -45z m-8190 -71 c11 -13 10 -19 -8 -37 l-22 -21 0 37
c0 40 10 46 30 21z m7950 -20 c0 -37 -14 -42 -34 -12 -7 12 -6 21 3 32 21 25
31 19 31 -20z m-8170 0 c0 -22 -2 -25 -15 -14 -12 10 -13 16 -4 26 16 20 19
18 19 -12z m8371 -11 c-9 -16 -10 -14 -11 12 0 21 3 26 11 18 8 -8 8 -16 0
-30z m-8389 -50 c24 -21 23 -31 -4 -53 -27 -22 -35 -12 -30 35 5 40 8 42 34
18z m278 -21 c0 -47 -13 -55 -41 -26 l-24 25 25 19 c30 22 40 18 40 -18z
m7879 17 l25 -20 -27 -25 c-14 -13 -29 -24 -32 -24 -3 0 -5 20 -5 45 0 50 4
53 39 24z m271 -24 c0 -25 -2 -45 -5 -45 -7 0 -45 39 -45 47 0 10 32 43 42 43
4 0 8 -20 8 -45z m-240 -86 c0 -42 -14 -49 -34 -16 -8 12 -5 21 8 36 11 12 21
21 23 21 1 0 3 -18 3 -41z m-7950 15 c11 -13 10 -19 -8 -37 l-22 -21 0 37 c0
40 10 46 30 21z m-220 -20 c0 -22 -2 -25 -15 -14 -12 10 -13 16 -4 26 16 20
19 18 19 -12z m8371 -11 c-9 -16 -10 -14 -11 12 0 21 3 26 11 18 8 -8 8 -16 0
-30z m-8371 -76 c0 -14 -44 -46 -50 -37 -3 5 -4 28 -2 50 l4 41 24 -22 c13
-12 24 -27 24 -32z m260 5 c0 -47 -13 -55 -41 -26 l-24 25 25 19 c30 22 40 18
40 -18z m7875 22 c32 -21 31 -26 -5 -52 l-30 -23 0 46 c0 25 2 45 5 45 3 0 17
-7 30 -16z m275 -29 l0 -46 -25 18 c-29 21 -30 30 -8 55 25 28 33 22 33 -27z
m-240 -85 c0 -44 -13 -52 -30 -19 -9 16 -8 25 6 40 9 10 19 19 21 19 1 0 3
-18 3 -40z m-8173 -17 c-4 -17 -4 -17 -12 0 -4 9 -4 25 0 35 8 16 8 16 12 0 3
-10 3 -26 0 -35z m223 31 c11 -13 10 -19 -8 -37 l-22 -21 0 37 c0 40 10 46 30
21z m8152 -26 c-9 -9 -12 -7 -12 12 0 19 3 21 12 12 9 -9 9 -15 0 -24z m-8395
-105 l-27 -28 0 55 0 55 27 -28 28 -27 -28 -27z m283 25 c0 -36 -10 -40 -40
-18 l-25 19 25 23 c28 26 40 19 40 -24z m7880 22 l25 -20 -25 -20 c-35 -28
-40 -25 -40 20 0 45 5 48 40 20z m270 -25 l0 -46 -25 18 c-29 21 -30 30 -8 55
25 28 33 22 33 -27z m-8198 -107 l-22 -22 0 44 0 44 22 -22 22 -22 -22 -22z
m7958 20 l0 -42 -21 21 c-17 17 -19 24 -10 42 18 33 31 25 31 -21z m-8173 -15
c-4 -17 -4 -17 -12 0 -4 9 -4 25 0 35 8 16 8 16 12 0 3 -10 3 -26 0 -35z
m8375 5 c-9 -9 -12 -7 -12 12 0 19 3 21 12 12 9 -9 9 -15 0 -24z m-8395 -105
l-27 -28 0 55 0 55 27 -28 28 -27 -28 -27z m283 25 c0 -35 -10 -40 -40 -18
l-24 18 24 25 c27 28 40 21 40 -25z m7900 1 c0 -7 -45 -39 -55 -39 -3 0 -5 20
-5 45 l0 46 30 -23 c17 -12 30 -25 30 -29z m250 -6 l0 -46 -25 23 c-30 28 -31
38 -7 56 28 21 32 17 32 -33z m-8190 -97 c-20 -25 -30 -19 -30 21 l0 37 22
-21 c18 -18 19 -24 8 -37z m7950 12 c0 -40 0 -41 -20 -23 -23 21 -25 36 -8 53
21 21 28 13 28 -30z m-8170 0 c-1 -31 -1 -32 -15 -14 -11 14 -12 23 -4 33 17
19 19 17 19 -19z m8372 -10 c-9 -9 -12 -7 -12 12 0 19 3 21 12 12 9 -9 9 -15
0 -24z m-8372 -74 c0 -6 -11 -21 -24 -33 -22 -21 -24 -21 -28 -4 -2 10 -2 32
0 50 4 32 4 32 28 15 13 -9 24 -22 24 -28z m260 -6 c0 -36 -10 -40 -40 -18
l-25 19 24 25 c28 29 41 21 41 -26z m7900 4 c0 -6 -44 -41 -52 -42 -5 0 -8 20
-8 45 l0 46 30 -23 c17 -12 30 -24 30 -26z m246 -40 c-7 -7 -46 28 -46 40 0 6
10 18 23 28 l22 18 3 -40 c2 -22 1 -43 -2 -46z m-8186 -66 c-20 -25 -30 -19
-30 21 l0 37 22 -21 c18 -18 19 -24 8 -37z m7950 12 c0 -40 0 -41 -20 -23 -23
21 -25 36 -8 53 21 21 28 13 28 -30z m-8170 0 c0 -30 -1 -31 -14 -12 -10 13
-11 23 -4 31 15 19 18 16 18 -19z m8371 -11 c-8 -8 -11 -3 -11 19 1 25 2 27
11 11 8 -14 8 -22 0 -30z m-8371 -73 c0 -6 -9 -19 -21 -30 -30 -27 -38 -8 -30
69 1 12 50 -26 51 -39z m260 1 c0 -43 -9 -48 -40 -25 l-25 19 24 25 c29 31 41
26 41 -19z m7877 21 l27 -25 -25 -20 c-35 -29 -39 -26 -39 24 0 25 2 45 5 45
3 0 18 -11 32 -24z m273 -21 c0 -49 -4 -53 -32 -28 -22 20 -23 28 0 52 26 29
32 25 32 -24z m-8190 -109 c-20 -25 -30 -19 -30 21 l0 37 22 -21 c18 -18 19
-24 8 -37z m7950 18 c0 -37 -14 -42 -34 -12 -7 12 -6 21 3 32 21 25 31 19 31
-20z m-8170 -6 c0 -30 -1 -31 -14 -12 -10 13 -11 23 -4 31 15 19 18 16 18 -19z
m8380 7 c0 -8 -4 -17 -10 -20 -6 -4 -10 5 -10 20 0 15 4 24 10 20 6 -3 10 -12
10 -20z m-8380 -90 c0 -6 -10 -19 -21 -29 -27 -22 -37 -10 -31 39 4 34 4 34
28 17 13 -9 24 -22 24 -27z m260 1 c0 -44 -7 -49 -40 -24 l-28 20 26 23 c33
28 42 24 42 -19z m7880 19 l23 -24 -24 -20 c-34 -29 -39 -26 -39 24 0 51 7 55
40 20z m270 -20 c0 -49 -4 -53 -32 -28 -23 20 -23 32 0 54 26 27 32 23 32 -26z
m-8190 -109 c-20 -25 -30 -19 -30 21 l0 37 22 -21 c18 -18 19 -24 8 -37z
m7950 18 c0 -37 -14 -42 -34 -12 -7 12 -6 21 3 32 21 25 31 19 31 -20z m-8170
0 c0 -22 -2 -25 -15 -14 -12 10 -13 16 -4 26 16 20 19 18 19 -12z m8380 1 c0
-8 -4 -17 -10 -20 -6 -4 -10 5 -10 20 0 15 4 24 10 20 6 -3 10 -12 10 -20z
m-8380 -90 c0 -17 -47 -48 -52 -34 -2 6 -2 26 0 45 4 32 5 33 28 17 13 -8 24
-21 24 -28z m260 1 c0 -44 -7 -49 -41 -23 l-29 21 27 22 c34 27 43 23 43 -20z
m7877 22 l23 -22 -22 -23 c-31 -33 -38 -29 -38 22 0 25 3 45 7 45 4 0 17 -10
30 -22z m273 -23 c0 -49 -4 -53 -32 -28 -22 20 -23 31 -1 55 25 28 33 22 33
-27z m-8191 -69 c9 -11 9 -19 -1 -35 -19 -30 -28 -26 -28 14 0 37 10 44 29 21z
m7951 -22 c0 -37 -14 -42 -34 -12 -7 12 -6 21 3 32 21 25 31 19 31 -20z
m-8170 0 c0 -22 -2 -25 -15 -14 -12 10 -13 16 -4 26 16 20 19 18 19 -12z
m8380 1 c0 -8 -4 -17 -10 -20 -6 -4 -10 5 -10 20 0 15 4 24 10 20 6 -3 10 -12
10 -20z m-8400 -62 c26 -22 25 -31 -2 -53 -27 -22 -35 -12 -30 35 5 40 5 41
32 18z m280 -27 c0 -45 -8 -49 -40 -23 l-28 22 27 22 c32 26 41 21 41 -21z
m7879 23 l24 -20 -23 -24 c-33 -35 -40 -31 -40 20 0 50 5 53 39 24z m271 -24
c0 -49 -4 -53 -32 -28 -22 20 -23 31 -1 55 25 28 33 22 33 -27z m-8410 -86 c0
-26 -2 -30 -15 -19 -11 9 -12 16 -2 31 16 25 17 24 17 -12z m220 15 c11 -13
10 -19 -8 -37 l-22 -21 0 37 c0 40 10 46 30 21z m7950 -20 c0 -37 -14 -42 -34
-12 -7 12 -6 21 3 32 21 25 31 19 31 -20z m210 1 c0 -8 -4 -17 -10 -20 -6 -4
-10 5 -10 20 0 15 4 24 10 20 6 -3 10 -12 10 -20z m-8398 -62 c24 -21 23 -31
-4 -53 -27 -22 -35 -12 -30 35 5 40 8 42 34 18z m278 -21 c0 -46 -13 -55 -40
-27 l-23 24 24 20 c29 23 39 19 39 -17z m7879 17 l25 -20 -27 -25 c-14 -13
-29 -24 -32 -24 -3 0 -5 20 -5 45 0 50 4 53 39 24z m271 -24 c0 -25 -2 -45 -5
-45 -7 0 -45 39 -45 47 0 10 32 43 42 43 4 0 8 -20 8 -45z m-8410 -86 c0 -26
-2 -30 -15 -19 -11 9 -12 16 -2 31 16 25 17 24 17 -12z m220 15 c11 -13 10
-19 -8 -37 l-22 -21 0 37 c0 40 10 46 30 21z m7950 -20 c0 -37 -14 -42 -34
-12 -7 12 -6 21 3 32 21 25 31 19 31 -20z m201 -11 c-9 -16 -10 -14 -11 12 0
21 3 26 11 18 8 -8 8 -16 0 -30z m-8371 -76 c0 -14 -44 -46 -50 -37 -3 5 -4
28 -2 50 l4 41 24 -22 c13 -12 24 -27 24 -32z m260 5 c0 -47 -13 -55 -41 -26
l-24 25 25 19 c30 22 40 18 40 -18z m7879 18 l24 -20 -27 -25 c-15 -14 -29
-25 -32 -25 -2 0 -4 20 -4 45 0 50 5 53 39 25z m271 -25 l0 -46 -25 18 c-29
21 -30 30 -8 55 25 28 33 22 33 -27z m-240 -86 c0 -42 -14 -49 -34 -16 -8 12
-5 21 8 36 11 12 21 21 23 21 1 0 3 -18 3 -41z m-8170 0 c0 -27 -2 -30 -15
-19 -11 9 -12 17 -4 31 14 27 19 24 19 -12z m220 15 c11 -13 10 -19 -8 -37
l-22 -21 0 37 c0 40 10 46 30 21z m8152 -26 c-9 -9 -12 -7 -12 12 0 19 3 21
12 12 9 -9 9 -15 0 -24z m-8372 -82 c0 -6 -12 -19 -25 -29 l-25 -18 0 52 0 52
25 -23 c14 -13 25 -28 25 -34z m260 6 c0 -47 -13 -55 -41 -26 l-24 25 25 19
c30 22 40 18 40 -18z m7875 22 c32 -21 31 -26 -5 -52 l-30 -23 0 46 c0 25 2
45 5 45 3 0 17 -7 30 -16z m275 -29 l0 -46 -25 18 c-29 21 -30 30 -8 55 25 28
33 22 33 -27z m-8198 -107 l-22 -22 0 44 0 44 22 -22 22 -22 -22 -22z m7958
22 c0 -44 -13 -52 -30 -19 -9 16 -8 25 6 40 9 10 19 19 21 19 1 0 3 -18 3 -40z
m-8173 -17 c-4 -17 -4 -17 -12 0 -4 9 -4 25 0 35 8 16 8 16 12 0 3 -10 3 -26
0 -35z m8375 5 c-9 -9 -12 -7 -12 12 0 19 3 21 12 12 9 -9 9 -15 0 -24z
m-8395 -105 l-27 -28 0 55 0 55 27 -28 28 -27 -28 -27z m283 27 c0 -38 -10
-43 -40 -19 l-25 19 25 19 c30 24 40 19 40 -19z m7880 20 l25 -20 -25 -20
c-35 -28 -40 -25 -40 20 0 45 5 48 40 20z m270 -20 c0 -45 -8 -49 -35 -20 -17
19 -17 21 0 40 27 29 35 25 35 -20z m-8198 -112 l-22 -22 0 44 0 44 22 -22 22
-22 -22 -22z m7958 20 l0 -42 -21 21 c-17 17 -19 24 -10 42 18 33 31 25 31
-21z m-8173 -15 c-4 -17 -4 -17 -12 0 -4 9 -4 25 0 35 8 16 8 16 12 0 3 -10 3
-26 0 -35z m8375 5 c-9 -9 -12 -7 -12 12 0 19 3 21 12 12 9 -9 9 -15 0 -24z
m-8372 -74 c0 -6 -11 -21 -25 -34 l-25 -23 0 52 0 52 25 -18 c13 -10 25 -23
25 -29z m260 -6 c0 -36 -10 -40 -40 -18 l-25 19 24 25 c28 29 41 21 41 -26z
m7900 1 c0 -7 -45 -39 -55 -39 -3 0 -5 20 -5 45 l0 46 30 -23 c17 -12 30 -25
30 -29z m246 -37 c-7 -7 -46 28 -46 40 0 6 10 18 23 28 l22 18 3 -40 c2 -22 1
-43 -2 -46z m-8186 -66 c-20 -25 -30 -19 -30 21 l0 37 22 -21 c18 -18 19 -24
8 -37z m7950 12 c0 -40 0 -41 -20 -23 -23 21 -25 36 -8 53 21 21 28 13 28 -30z
m-8170 6 c0 -22 -2 -25 -15 -14 -12 10 -13 16 -4 26 16 20 19 18 19 -12z
m8371 -17 c-8 -8 -11 -3 -11 19 1 25 2 27 11 11 8 -14 8 -22 0 -30z m-8371
-73 c0 -6 -11 -21 -24 -33 -22 -21 -24 -21 -28 -4 -2 10 -2 32 0 50 4 32 4 32
28 15 13 -9 24 -22 24 -28z m260 -6 c0 -36 -10 -40 -40 -18 l-25 19 24 25 c28
29 41 21 41 -26z m7877 28 l27 -25 -25 -20 c-35 -29 -39 -26 -39 24 0 25 2 45
5 45 3 0 18 -11 32 -24z m269 -64 c-7 -7 -46 28 -46 40 0 6 10 18 23 28 l22
18 3 -40 c2 -22 1 -43 -2 -46z m-8186 -66 c-20 -25 -30 -19 -30 21 l0 37 22
-21 c18 -18 19 -24 8 -37z m7950 18 c0 -37 -14 -42 -34 -12 -7 12 -6 21 3 32
21 25 31 19 31 -20z m-8170 0 c0 -22 -2 -25 -15 -14 -12 10 -13 16 -4 26 16
20 19 18 19 -12z m8371 -17 c-8 -8 -11 -3 -11 19 1 25 2 27 11 11 8 -14 8 -22
0 -30z m-8371 -72 c0 -6 -10 -19 -21 -29 -27 -22 -37 -10 -31 39 4 34 4 34 28
17 13 -9 24 -22 24 -27z m260 1 c0 -44 -7 -49 -40 -24 l-28 20 26 23 c33 28
42 24 42 -19z m7877 20 l27 -25 -25 -20 c-35 -29 -39 -26 -39 24 0 25 2 45 5
45 3 0 18 -11 32 -24z m273 -21 c0 -49 -4 -53 -32 -28 -22 20 -23 28 0 52 26
29 32 25 32 -24z m-8186 -82 c7 -16 -10 -43 -25 -43 -5 0 -9 16 -9 35 0 26 4
33 14 29 8 -3 17 -13 20 -21z m7946 -9 c0 -37 -14 -42 -34 -12 -7 12 -6 21 3
32 21 25 31 19 31 -20z m-8170 0 c0 -22 -2 -25 -15 -14 -12 10 -13 16 -4 26
16 20 19 18 19 -12z m8371 -17 c-8 -8 -11 -3 -11 19 1 25 2 27 11 11 8 -14 8
-22 0 -30z m-8371 -72 c0 -17 -47 -48 -52 -34 -2 6 -2 26 0 45 4 32 5 33 28
17 13 -8 24 -21 24 -28z m260 1 c0 -44 -8 -49 -39 -23 l-27 22 26 21 c31 27
40 22 40 -20z m7877 22 l23 -22 -22 -23 c-31 -33 -38 -29 -38 22 0 25 3 45 7
45 4 0 17 -10 30 -22z m273 -23 c0 -49 -4 -53 -32 -28 -23 20 -23 32 0 54 26
27 32 23 32 -26z m-8196 -71 c12 -12 13 -20 6 -35 -16 -30 -30 -23 -30 16 0
40 2 41 24 19z m7956 -20 c0 -37 -14 -42 -34 -12 -7 12 -6 21 3 32 21 25 31
19 31 -20z m-8170 0 c0 -22 -2 -25 -15 -14 -12 10 -13 16 -4 26 16 20 19 18
19 -12z m8380 1 c0 -8 -4 -17 -10 -20 -6 -4 -10 5 -10 20 0 15 4 24 10 20 6
-3 10 -12 10 -20z m-8380 -90 c0 -17 -47 -48 -52 -34 -2 6 -2 26 0 45 4 32 5
33 28 17 13 -8 24 -21 24 -28z m260 1 c0 -45 -8 -49 -40 -23 l-28 22 27 22
c32 26 41 21 41 -21z m7877 22 l23 -22 -22 -23 c-31 -33 -38 -29 -38 22 0 25
3 45 7 45 4 0 17 -10 30 -22z m273 -23 c0 -25 -2 -45 -5 -45 -9 0 -45 35 -45
44 0 12 31 46 42 46 4 0 8 -20 8 -45z m-8191 -69 c13 -16 6 -42 -15 -50 -10
-4 -14 3 -14 29 0 37 10 44 29 21z m7951 -22 c0 -37 -14 -42 -34 -12 -7 12 -6
21 3 32 21 25 31 19 31 -20z m-8170 0 c0 -22 -2 -25 -15 -14 -12 10 -13 16 -4
26 16 20 19 18 19 -12z m8371 -11 c-9 -16 -10 -14 -11 12 0 21 3 26 11 18 8
-8 8 -16 0 -30z m-8391 -50 c26 -22 25 -31 -2 -53 -27 -22 -35 -12 -30 35 5
40 5 41 32 18z m280 -27 c0 -45 -8 -49 -40 -23 l-28 22 27 22 c32 26 41 21 41
-21z m7879 23 l25 -20 -27 -25 c-14 -13 -29 -24 -32 -24 -3 0 -5 20 -5 45 0
50 4 53 39 24z m271 -24 c0 -25 -2 -45 -5 -45 -9 0 -45 35 -45 44 0 12 31 46
42 46 4 0 8 -20 8 -45z m-240 -86 c0 -42 -14 -49 -34 -16 -8 12 -5 21 8 36 11
12 21 21 23 21 1 0 3 -18 3 -41z m-7950 15 c11 -13 10 -19 -8 -37 l-22 -21 0
37 c0 40 10 46 30 21z m-220 -20 c0 -22 -2 -25 -15 -14 -12 10 -13 16 -4 26
16 20 19 18 19 -12z m8371 -11 c-9 -16 -10 -14 -11 12 0 21 3 26 11 18 8 -8 8
-16 0 -30z m-8389 -50 c24 -21 23 -31 -4 -53 -27 -22 -35 -12 -30 35 5 40 8
42 34 18z m278 -18 c0 -13 -3 -30 -6 -39 -5 -14 -10 -13 -34 7 l-28 22 27 22
c30 24 41 21 41 -12z m7879 14 l25 -20 -27 -25 c-14 -13 -29 -24 -32 -24 -3 0
-5 20 -5 45 0 50 4 53 39 24z m271 -24 c0 -25 -2 -45 -5 -45 -7 0 -45 39 -45
47 0 10 32 43 42 43 4 0 8 -20 8 -45z m-240 -86 c0 -42 -14 -49 -34 -16 -8 12
-5 21 8 36 11 12 21 21 23 21 1 0 3 -18 3 -41z m-7950 15 c11 -13 10 -19 -8
-37 l-22 -21 0 37 c0 40 10 46 30 21z m-220 -20 c0 -22 -2 -25 -15 -14 -12 10
-13 16 -4 26 16 20 19 18 19 -12z m8372 -6 c-9 -9 -12 -7 -12 12 0 19 3 21 12
12 9 -9 9 -15 0 -24z m-8387 -58 c18 -20 18 -21 -8 -48 l-27 -27 0 48 c0 52 8
57 35 27z m275 -15 c0 -49 -10 -56 -38 -29 l-27 25 25 19 c29 22 40 18 40 -15z
m7878 16 c28 -24 28 -25 -8 -51 l-30 -21 0 45 c0 51 5 54 38 27z m272 -26 l0
-46 -25 18 c-29 21 -30 30 -8 55 25 28 33 22 33 -27z m-240 -85 c0 -44 -13
-52 -30 -19 -9 16 -8 25 6 40 9 10 19 19 21 19 1 0 3 -18 3 -40z m-8173 -17
c-4 -17 -4 -17 -12 0 -4 9 -4 25 0 35 8 16 8 16 12 0 3 -10 3 -26 0 -35z m223
31 c11 -13 10 -19 -8 -37 l-22 -21 0 37 c0 40 10 46 30 21z m8152 -26 c-9 -9
-12 -7 -12 12 0 19 3 21 12 12 9 -9 9 -15 0 -24z m-8395 -105 l-27 -28 0 55 0
55 27 -28 28 -27 -28 -27z m283 32 c0 -49 -10 -56 -38 -29 l-27 25 25 19 c29
22 40 18 40 -15z m7878 16 c12 -11 22 -21 22 -23 0 -2 -13 -14 -30 -26 l-30
-23 0 46 c0 50 5 53 38 26z m272 -28 l0 -48 -27 27 c-26 27 -26 28 -8 48 27
30 35 25 35 -27z m-8198 -105 l-22 -22 0 44 0 44 22 -22 22 -22 -22 -22z
m7958 22 c0 -43 -13 -52 -30 -20 -8 14 -7 25 2 40 19 30 28 24 28 -20z m-8173
-17 c-4 -17 -4 -17 -12 0 -4 9 -4 25 0 35 8 16 8 16 12 0 3 -10 3 -26 0 -35z
m8375 5 c-9 -9 -12 -7 -12 12 0 19 3 21 12 12 9 -9 9 -15 0 -24z m-8395 -105
l-27 -28 0 55 0 55 27 -28 28 -27 -28 -27z m283 25 c0 -36 -10 -40 -40 -18
l-25 19 25 23 c28 26 40 19 40 -24z m7899 1 c1 -3 -12 -15 -29 -27 l-30 -23 0
51 0 52 29 -24 c17 -13 30 -26 30 -29z m251 1 c0 -44 -5 -48 -32 -23 -23 20
-23 32 0 49 27 21 32 17 32 -26z m-8198 -112 l-22 -22 0 44 0 44 22 -22 22
-22 -22 -22z m7958 20 c0 -40 0 -41 -20 -23 -23 21 -25 36 -8 53 21 21 28 13
28 -30z m-8170 0 c0 -30 -1 -31 -14 -12 -10 13 -11 23 -4 31 15 19 18 16 18
-19z m8371 -11 c-8 -8 -11 -3 -11 19 1 25 2 27 11 11 8 -14 8 -22 0 -30z
m-8371 -73 c0 -6 -11 -21 -24 -33 -22 -21 -24 -21 -28 -4 -2 10 -2 32 0 50 4
32 4 32 28 15 13 -9 24 -22 24 -28z m260 -6 c0 -36 -10 -40 -40 -18 l-25 19
24 25 c28 29 41 21 41 -26z m7900 4 c0 -6 -44 -41 -52 -42 -5 0 -8 20 -8 45
l0 46 30 -23 c17 -12 30 -24 30 -26z m246 -40 c-7 -7 -46 28 -46 40 0 6 10 18
23 28 l22 18 3 -40 c2 -22 1 -43 -2 -46z m-8186 -66 c-20 -25 -30 -19 -30 21
l0 37 22 -21 c18 -18 19 -24 8 -37z m7950 12 c0 -40 0 -41 -20 -23 -23 21 -25
36 -8 53 21 21 28 13 28 -30z m-8170 0 c0 -30 -1 -31 -14 -12 -10 13 -11 23
-4 31 15 19 18 16 18 -19z m8371 -11 c-8 -8 -11 -3 -11 19 1 25 2 27 11 11 8
-14 8 -22 0 -30z m-8371 -73 c0 -6 -11 -21 -24 -33 -22 -21 -24 -21 -28 -4 -2
10 -2 32 0 50 4 32 4 32 28 15 13 -9 24 -22 24 -28z m260 -5 c0 -37 -9 -41
-40 -17 l-28 20 26 23 c30 26 42 18 42 -26z m7879 26 l23 -25 -23 -20 c-34
-28 -39 -25 -39 25 0 25 3 45 8 45 4 0 18 -12 31 -25z m271 -20 c0 -49 -4 -53
-32 -28 -22 20 -23 28 0 52 26 29 32 25 32 -24z m-8190 -109 c-20 -25 -30 -19
-30 21 l0 37 22 -21 c18 -18 19 -24 8 -37z m7950 18 c0 -37 -14 -42 -34 -12
-7 12 -6 21 3 32 21 25 31 19 31 -20z m-8170 0 c0 -22 -2 -25 -15 -14 -12 10
-13 16 -4 26 16 20 19 18 19 -12z m8371 -17 c-8 -8 -11 -3 -11 19 1 25 2 27
11 11 8 -14 8 -22 0 -30z m-8371 -73 c0 -6 -9 -19 -21 -30 -25 -23 -37 -9 -31
41 4 34 4 34 28 17 13 -9 24 -22 24 -28z m260 -5 c0 -37 -9 -41 -40 -17 l-28
20 26 23 c30 26 42 18 42 -26z m7880 26 l23 -24 -24 -20 c-34 -29 -39 -26 -39
24 0 51 7 55 40 20z m270 -20 c0 -49 -4 -53 -32 -28 -22 20 -23 31 -1 55 25
28 33 22 33 -27z m-8192 -76 c10 -16 10 -24 1 -35 -19 -23 -29 -16 -29 21 0
40 9 44 28 14z m7952 -15 c0 -37 -14 -42 -34 -12 -7 12 -6 21 3 32 21 25 31
19 31 -20z m-8170 0 c0 -22 -2 -25 -15 -14 -12 10 -13 16 -4 26 16 20 19 18
19 -12z m8380 1 c0 -8 -4 -17 -10 -20 -6 -4 -10 5 -10 20 0 15 4 24 10 20 6
-3 10 -12 10 -20z m-8380 -90 c0 -17 -47 -48 -52 -34 -2 6 -2 26 0 45 4 32 5
33 28 17 13 -8 24 -21 24 -28z m260 1 c0 -44 -8 -49 -39 -23 l-27 22 26 21
c31 27 40 22 40 -20z m7877 22 l23 -22 -22 -23 c-31 -33 -38 -29 -38 22 0 25
3 45 7 45 4 0 17 -10 30 -22z m273 -23 c0 -49 -4 -53 -32 -28 -22 20 -23 31
-1 55 25 28 33 22 33 -27z m-8191 -74 c8 -14 6 -23 -9 -36 -20 -18 -20 -17
-20 18 0 40 13 48 29 18z m7951 -17 c0 -37 -14 -42 -34 -12 -7 12 -6 21 3 32
21 25 31 19 31 -20z m-8170 0 c0 -22 -2 -25 -15 -14 -12 10 -13 16 -4 26 16
20 19 18 19 -12z m8380 1 c0 -8 -4 -17 -10 -20 -6 -4 -10 5 -10 20 0 15 4 24
10 20 6 -3 10 -12 10 -20z m-8380 -90 c0 -17 -47 -48 -52 -34 -2 6 -2 26 0 45
4 32 5 33 28 17 13 -8 24 -21 24 -28z m260 1 c0 -45 -8 -49 -40 -23 l-28 22
27 22 c32 26 41 21 41 -21z m7879 23 l24 -20 -23 -24 c-33 -35 -40 -31 -40 20
0 50 5 53 39 24z m271 -24 c0 -25 -2 -45 -5 -45 -9 0 -45 35 -45 44 0 12 31
46 42 46 4 0 8 -20 8 -45z m-240 -86 c0 -42 -14 -49 -34 -16 -8 12 -5 21 8 36
11 12 21 21 23 21 1 0 3 -18 3 -41z m-7950 15 c11 -13 10 -19 -8 -37 l-22 -21
0 37 c0 40 10 46 30 21z m-220 -20 c0 -22 -2 -25 -15 -14 -12 10 -13 16 -4 26
16 20 19 18 19 -12z m8371 -11 c-9 -16 -10 -14 -11 12 0 21 3 26 11 18 8 -8 8
-16 0 -30z m-8389 -50 c24 -21 23 -31 -4 -53 -27 -22 -35 -12 -30 35 5 40 8
42 34 18z m278 -28 c0 -44 -12 -50 -40 -20 l-23 24 24 20 c30 24 39 19 39 -24z
m7879 24 l25 -20 -27 -25 c-14 -13 -29 -24 -32 -24 -3 0 -5 20 -5 45 0 50 4
53 39 24z m271 -24 c0 -25 -2 -45 -5 -45 -9 0 -45 35 -45 44 0 12 31 46 42 46
4 0 8 -20 8 -45z m-240 -86 c0 -42 -14 -49 -34 -16 -8 12 -5 21 8 36 11 12 21
21 23 21 1 0 3 -18 3 -41z m-8170 0 c0 -27 -2 -30 -15 -19 -11 9 -12 17 -4 31
14 27 19 24 19 -12z m220 15 c11 -13 10 -19 -8 -37 l-22 -21 0 37 c0 40 10 46
30 21z m8151 -31 c-9 -16 -10 -14 -11 12 0 21 3 26 11 18 8 -8 8 -16 0 -30z
m-8371 -76 c0 -14 -44 -46 -50 -37 -3 5 -4 28 -2 50 l4 41 24 -22 c13 -12 24
-27 24 -32z m260 -2 c0 -44 -12 -50 -40 -20 l-23 24 24 20 c30 24 39 19 39
-24z m7878 26 c28 -24 28 -25 -8 -51 l-30 -21 0 45 c0 51 5 54 38 27z m272
-26 c0 -25 -2 -45 -5 -45 -7 0 -45 39 -45 47 0 10 32 43 42 43 4 0 8 -20 8
-45z m-240 -86 c0 -42 -14 -49 -34 -16 -8 12 -5 21 8 36 11 12 21 21 23 21 1
0 3 -18 3 -41z m-8170 0 c0 -27 -2 -30 -15 -19 -11 9 -12 17 -4 31 14 27 19
24 19 -12z m220 15 c11 -13 10 -19 -8 -37 l-22 -21 0 37 c0 40 10 46 30 21z
m8152 -26 c-9 -9 -12 -7 -12 12 0 19 3 21 12 12 9 -9 9 -15 0 -24z m-8392
-103 c-28 -30 -37 -20 -32 36 l4 41 26 -26 26 -25 -24 -26z m280 30 c0 -49
-10 -56 -38 -29 l-27 25 25 19 c29 22 40 18 40 -15z m7878 16 c28 -24 28 -25
-8 -51 l-30 -21 0 45 c0 51 5 54 38 27z m272 -26 l0 -46 -25 18 c-29 21 -30
30 -8 55 25 28 33 22 33 -27z m-8198 -107 l-22 -22 0 44 0 44 22 -22 22 -22
-22 -22z m7958 22 c0 -44 -13 -52 -30 -19 -9 16 -8 25 6 40 9 10 19 19 21 19
1 0 3 -18 3 -40z m-8170 -1 c0 -27 -2 -30 -15 -19 -11 9 -12 17 -4 31 14 27
19 24 19 -12z m8372 -11 c-9 -9 -12 -7 -12 12 0 19 3 21 12 12 9 -9 9 -15 0
-24z m-8395 -105 l-27 -28 0 55 0 55 27 -28 28 -27 -28 -27z m283 32 c0 -49
-10 -56 -38 -29 l-27 25 24 19 c27 23 41 18 41 -15z m7875 19 c32 -21 31 -26
-5 -52 l-30 -23 0 46 c0 25 2 45 5 45 3 0 17 -7 30 -16z m275 -24 c0 -45 -8
-49 -35 -20 -17 19 -17 21 0 40 27 29 35 25 35 -20z m-8198 -112 l-22 -22 0
44 0 44 22 -22 22 -22 -22 -22z m7954 -16 c-6 -6 -35 27 -36 40 0 4 8 14 18
24 16 17 17 16 20 -20 2 -21 1 -41 -2 -44z m-8169 21 c-4 -17 -4 -17 -12 0 -4
9 -4 25 0 35 8 16 8 16 12 0 3 -10 3 -26 0 -35z m8375 5 c-9 -9 -12 -7 -12 12
0 19 3 21 12 12 9 -9 9 -15 0 -24z m-8395 -105 l-27 -28 0 55 0 55 27 -28 28
-27 -28 -27z m8183 29 c0 -6 -44 -41 -52 -42 -5 0 -8 20 -8 45 l0 46 30 -23
c17 -12 30 -24 30 -26z m245 -40 c-3 -3 -15 4 -27 16 l-22 22 25 26 24 26 3
-42 c2 -23 1 -45 -3 -48z m-8147 54 c2 -10 1 -28 -2 -41 l-6 -24 -27 25 c-25
23 -26 25 -8 44 21 23 38 21 43 -4z m-46 -128 l-22 -22 0 44 0 44 22 -22 22
-22 -22 -22z m7958 20 c0 -40 0 -41 -20 -23 -23 21 -25 36 -8 53 21 21 28 13
28 -30z m-8170 0 c-1 -31 -1 -32 -15 -14 -11 14 -12 23 -4 33 17 19 19 17 19
-19z m8371 -11 c-8 -8 -11 -3 -11 19 1 25 2 27 11 11 8 -14 8 -22 0 -30z
m-8371 -71 c0 -12 -30 -46 -42 -46 -4 0 -8 20 -8 45 l0 46 25 -18 c13 -10 25
-22 25 -27z m260 -7 c0 -37 -9 -41 -41 -18 l-29 20 28 24 c30 26 42 19 42 -26z
m7900 4 c0 -7 -43 -42 -52 -43 -5 0 -8 21 -8 46 l0 45 30 -21 c17 -12 30 -24
30 -27z m246 -41 c-7 -7 -46 28 -46 40 0 6 10 18 23 28 l22 18 3 -40 c2 -22 1
-43 -2 -46z m-8182 -39 c7 -16 -10 -43 -25 -43 -5 0 -9 16 -9 35 0 26 4 33 14
29 8 -3 17 -13 20 -21z m7946 -15 c0 -40 0 -41 -20 -23 -23 21 -25 36 -8 53
21 21 28 13 28 -30z m-8170 6 c0 -22 -2 -25 -15 -14 -12 10 -13 16 -4 26 16
20 19 18 19 -12z m8371 -17 c-8 -8 -11 -3 -11 19 1 25 2 27 11 11 8 -14 8 -22
0 -30z m-8371 -72 c0 -6 -10 -19 -21 -29 -27 -22 -37 -10 -31 39 4 34 4 34 28
17 13 -9 24 -22 24 -27z m260 -6 c0 -37 -9 -41 -40 -17 l-28 20 26 23 c30 26
42 18 42 -26z m7900 4 c0 -7 -43 -42 -52 -43 -5 0 -8 21 -8 46 l0 45 30 -21
c17 -12 30 -24 30 -27z m250 2 c0 -49 -4 -53 -32 -28 -22 20 -23 28 0 52 26
29 32 25 32 -24z m-8186 -82 c7 -16 -10 -43 -25 -43 -5 0 -9 16 -9 35 0 26 4
33 14 29 8 -3 17 -13 20 -21z m7946 -9 c0 -37 -14 -42 -34 -12 -7 12 -6 21 3
32 21 25 31 19 31 -20z m-8170 0 c0 -22 -2 -25 -15 -14 -12 10 -13 16 -4 26
16 20 19 18 19 -12z m8380 1 c0 -8 -4 -17 -10 -20 -6 -4 -10 5 -10 20 0 15 4
24 10 20 6 -3 10 -12 10 -20z m-8380 -91 c0 -7 -11 -19 -24 -28 -28 -18 -34
-10 -28 40 4 33 4 33 28 16 13 -9 24 -22 24 -28z m260 2 c0 -44 -7 -49 -40
-24 l-28 20 26 23 c33 28 42 24 42 -19z m7883 16 c16 -15 16 -17 -5 -39 -31
-33 -38 -29 -38 23 0 47 4 49 43 16z m267 -17 c0 -49 -4 -53 -32 -28 -22 20
-23 31 -1 55 25 28 33 22 33 -27z m-8180 -81 c0 -13 -22 -44 -30 -44 -6 0 -10
16 -10 35 0 33 2 35 20 25 11 -6 20 -13 20 -16z m7940 -10 c0 -37 -14 -42 -34
-12 -7 12 -6 21 3 32 21 25 31 19 31 -20z m-8170 0 c0 -22 -2 -25 -15 -14 -12
10 -13 16 -4 26 16 20 19 18 19 -12z m8380 1 c0 -8 -4 -17 -10 -20 -6 -4 -10
5 -10 20 0 15 4 24 10 20 6 -3 10 -12 10 -20z m-8380 -90 c0 -17 -47 -48 -52
-34 -2 6 -2 26 0 45 4 32 5 33 28 17 13 -8 24 -21 24 -28z m260 1 c0 -45 -8
-49 -40 -23 l-28 22 27 22 c32 26 41 21 41 -21z m7879 23 l24 -20 -23 -24
c-33 -35 -40 -31 -40 20 0 50 5 53 39 24z m271 -24 c0 -25 -2 -45 -5 -45 -9 0
-45 35 -45 44 0 12 31 46 42 46 4 0 8 -20 8 -45z m-8190 -71 c11 -13 10 -19
-8 -37 l-22 -21 0 37 c0 40 10 46 30 21z m7950 -20 c0 -37 -14 -42 -34 -12 -7
12 -6 21 3 32 21 25 31 19 31 -20z m-8170 0 c0 -22 -2 -25 -15 -14 -12 10 -13
16 -4 26 16 20 19 18 19 -12z m8380 1 c0 -8 -4 -17 -10 -20 -6 -4 -10 5 -10
20 0 15 4 24 10 20 6 -3 10 -12 10 -20z m-8383 -81 c6 -16 -39 -57 -47 -43 -4
5 -4 24 -2 44 4 31 6 33 24 24 10 -6 22 -17 25 -25z m263 -8 c0 -45 -8 -49
-40 -23 l-28 22 27 22 c32 26 41 21 41 -21z m7878 25 c28 -24 28 -25 -8 -51
l-30 -21 0 45 c0 51 5 54 38 27z m272 -26 c0 -25 -2 -45 -5 -45 -9 0 -45 35
-45 44 0 12 31 46 42 46 4 0 8 -20 8 -45z m-240 -86 c0 -42 -14 -49 -34 -16
-8 12 -5 21 8 36 11 12 21 21 23 21 1 0 3 -18 3 -41z m-7950 15 c11 -13 10
-19 -8 -37 l-22 -21 0 37 c0 40 10 46 30 21z m-220 -20 c0 -22 -2 -25 -15 -14
-12 10 -13 16 -4 26 16 20 19 18 19 -12z m8380 1 c0 -8 -4 -17 -10 -20 -6 -4
-10 5 -10 20 0 15 4 24 10 20 6 -3 10 -12 10 -20z m-8395 -65 c18 -20 18 -21
-5 -45 -28 -29 -38 -20 -32 30 5 40 12 43 37 15z m275 -24 c0 -45 -8 -49 -38
-21 l-26 24 25 20 c30 24 39 19 39 -23z m7878 25 c28 -24 28 -25 -8 -51 l-30
-21 0 45 c0 51 5 54 38 27z m272 -26 l0 -46 -25 18 c-29 21 -30 30 -8 55 25
28 33 22 33 -27z m-8198 -107 l-22 -22 0 44 0 44 22 -22 22 -22 -22 -22z
m7958 21 c0 -42 -14 -49 -34 -16 -8 12 -5 21 8 36 11 12 21 21 23 21 1 0 3
-18 3 -41z m-8170 0 c0 -27 -2 -30 -15 -19 -11 9 -12 17 -4 31 14 27 19 24 19
-12z m8372 -11 c-9 -9 -12 -7 -12 12 0 19 3 21 12 12 9 -9 9 -15 0 -24z
m-8387 -58 c18 -20 18 -21 -5 -45 -28 -29 -38 -20 -32 30 5 40 12 43 37 15z
m275 -24 c0 -45 -8 -49 -38 -21 l-26 24 25 20 c30 24 39 19 39 -23z m7878 25
c12 -11 22 -21 22 -23 0 -2 -13 -14 -30 -26 l-30 -23 0 46 c0 50 5 53 38 26z
m272 -26 l0 -46 -25 18 c-29 21 -30 30 -8 55 25 28 33 22 33 -27z m-8198 -107
l-22 -22 0 44 0 44 22 -22 22 -22 -22 -22z m7958 21 c0 -42 -14 -49 -34 -16
-8 12 -5 21 8 36 11 12 21 21 23 21 1 0 3 -18 3 -41z m-8170 0 c0 -27 -2 -30
-15 -19 -11 9 -12 17 -4 31 14 27 19 24 19 -12z m8372 -11 c-9 -9 -12 -7 -12
12 0 19 3 21 12 12 9 -9 9 -15 0 -24z m-8392 -103 c-28 -30 -37 -20 -32 36 l4
41 26 -26 26 -25 -24 -26z m280 21 c0 -45 -8 -49 -39 -20 l-26 25 25 19 c31
23 40 18 40 -24z m7875 28 c32 -21 31 -26 -5 -52 l-30 -23 0 46 c0 25 2 45 5
45 3 0 17 -7 30 -16z m275 -31 l0 -48 -27 27 c-26 27 -26 28 -8 48 27 30 35
25 35 -27z m-8198 -105 l-22 -22 0 44 0 44 22 -22 22 -22 -22 -22z m7958 22
c0 -44 -9 -50 -28 -20 -9 15 -10 26 -2 40 17 32 30 23 30 -20z m-8170 -2 c-1
-31 -1 -32 -15 -14 -11 14 -12 23 -4 33 17 19 19 17 19 -19z m8372 -10 c-9 -9
-12 -7 -12 12 0 19 3 21 12 12 9 -9 9 -15 0 -24z m-8395 -105 l-27 -28 0 55 0
55 27 -28 28 -27 -28 -27z m281 33 c5 -40 -10 -51 -39 -27 -24 19 -24 19 -5
40 25 27 40 22 44 -13z m7882 14 c14 -10 23 -20 20 -22 -3 -2 -17 -14 -32 -27
l-28 -24 0 46 c0 52 4 55 40 27z m270 -27 l0 -48 -27 27 c-26 27 -26 28 -8 48
27 30 35 25 35 -27z m-8198 -105 l-22 -22 0 44 0 44 22 -22 22 -22 -22 -22z
m7958 20 c0 -40 0 -41 -20 -23 -23 21 -25 36 -8 53 21 21 28 13 28 -30z
m-8170 0 c-1 -31 -1 -32 -15 -14 -11 14 -12 23 -4 33 17 19 19 17 19 -19z
m8372 -10 c-9 -9 -12 -7 -12 12 0 19 3 21 12 12 9 -9 9 -15 0 -24z m-8395
-105 l-27 -28 0 55 0 55 27 -28 28 -27 -28 -27z m283 26 c0 -37 -9 -41 -41
-18 l-29 20 28 24 c30 26 42 19 42 -26z m7900 3 c0 -6 -44 -41 -52 -42 -5 0
-8 20 -8 45 l0 46 30 -23 c17 -12 30 -24 30 -26z m250 -2 c0 -45 -8 -49 -35
-20 -17 19 -17 21 0 40 27 29 35 25 35 -20z m-8191 -97 c-19 -22 -29 -15 -29
19 0 30 0 31 20 13 15 -14 17 -21 9 -32z m7951 17 c0 -33 -11 -38 -30 -15 -10
12 -10 18 0 30 19 23 30 18 30 -15z m-8170 -6 c0 -22 -2 -25 -15 -14 -12 10
-13 16 -4 26 16 20 19 18 19 -12z m8371 -17 c-8 -8 -11 -3 -11 19 1 25 2 27
11 11 8 -14 8 -22 0 -30z m-7871 13 c24 -13 29 -19 17 -20 -11 0 -30 9 -44 20
-32 25 -19 25 27 0z m7385 0 c-10 -11 -30 -20 -44 -20 -23 0 -22 3 14 19 51
25 51 25 30 1z m-7457 -18 l22 -14 -34 -19 c-32 -17 -38 -17 -80 -3 -25 9 -46
20 -46 25 0 5 0 12 -1 17 -2 24 98 20 139 -6z m7625 18 c10 0 17 -8 17 -19 0
-14 -13 -24 -46 -35 -42 -14 -48 -14 -80 3 -28 15 -32 20 -20 30 21 18 68 30
91 26 11 -3 28 -5 38 -5z m-8051 -144 l3 -61 35 -3 c125 -9 168 -32 60 -32
-54 0 -64 3 -98 35 -41 37 -59 80 -54 134 l3 33 24 -22 c19 -18 25 -35 27 -84z
m8391 -14 c-26 -54 -74 -82 -139 -82 -30 0 -54 4 -54 9 0 9 45 18 120 23 l35
3 3 64 c2 51 7 67 25 82 22 17 22 17 25 -22 2 -24 -4 -55 -15 -77z m-7776 50
l28 -26 -45 -8 c-51 -9 -56 -6 -65 44 l-7 38 30 -11 c17 -6 43 -22 59 -37z
m7210 31 c-3 -10 -8 -31 -11 -46 -7 -27 -9 -28 -49 -22 -23 4 -44 9 -46 11 -9
8 26 38 64 55 49 23 47 23 42 2z m-7337 -12 c16 -30 13 -32 -25 -14 -24 12
-31 19 -23 25 21 13 37 9 48 -11z m7421 11 c13 -6 9 -11 -17 -23 -34 -17 -39
-14 -28 15 6 17 19 19 45 8z m-7175 -73 c3 -6 -7 -4 -24 5 -16 8 -32 22 -36
31 -5 13 1 12 24 -5 16 -11 32 -26 36 -31z m6938 27 c-3 -8 -15 -17 -27 -20
-21 -5 -20 -4 3 14 30 24 31 24 24 6z m-7008 -71 c9 -36 2 -38 -35 -11 -28 21
-30 25 -14 29 36 9 43 7 49 -18z m7072 17 c9 -6 4 -14 -18 -30 l-30 -23 0 24
c0 36 19 47 48 29z m-6982 -46 c45 -45 44 -58 -7 -54 -42 3 -42 3 -43 46 -1
23 3 42 8 42 4 0 23 -15 42 -34z m6894 -11 l0 -45 -40 0 c-22 0 -40 5 -40 11
0 11 63 79 74 79 3 0 6 -20 6 -45z m-7348 -11 c3 -2 11 -17 16 -34 9 -25 8
-30 -4 -30 -40 0 -105 56 -87 74 6 6 59 -1 75 -10z m609 -101 c55 -79 116
-217 145 -330 2 -8 20 -13 41 -14 l38 -1 -30 -10 c-66 -22 -95 -2 -95 64 0 47
-20 96 -49 122 -13 12 -21 31 -21 52 0 49 -16 83 -66 136 -24 26 -44 51 -44
57 0 5 -3 18 -7 28 -7 20 44 -39 88 -104z m7217 95 c2 -9 -12 -25 -31 -37 -42
-25 -72 -28 -63 -5 3 9 6 22 6 30 0 7 15 18 33 23 39 11 51 9 55 -11z m-604
-20 c-4 -12 -26 -41 -50 -64 -40 -39 -64 -91 -64 -137 0 -10 -11 -33 -23 -50
-34 -46 -50 -92 -45 -127 4 -24 -1 -35 -20 -50 -13 -11 -29 -17 -35 -13 -6 3
-24 10 -41 14 -30 7 -29 7 10 8 l41 1 23 73 c31 98 92 220 151 300 51 70 65
82 53 45z m-7129 -10 c18 -8 22 -14 13 -20 -20 -12 -26 -10 -38 12 -12 23 -10
24 25 8z m7588 -19 c-5 -5 -18 -7 -28 -3 -16 6 -15 8 6 20 25 13 40 1 22 -17z
m-7187 -34 c11 -29 -2 -37 -19 -11 -15 23 -16 26 -2 26 9 0 18 -7 21 -15z
m6788 -7 c-10 -13 -20 -25 -21 -27 -2 -2 -3 8 -3 22 0 21 5 27 22 27 21 0 21
0 2 -22z m-7134 -8 c0 -18 -3 -19 -21 -9 -17 9 -19 13 -8 20 22 14 29 11 29
-11z m7490 5 c0 -1 -7 -8 -15 -15 -13 -10 -15 -9 -15 8 0 15 5 20 15 16 8 -4
15 -7 15 -9z m-7425 -15 c18 -19 17 -20 -3 -20 -15 0 -22 6 -22 20 0 11 2 20
3 20 2 0 12 -9 22 -20z m7355 0 c0 -14 -7 -20 -22 -20 -20 0 -21 1 -3 20 10
11 20 20 22 20 1 0 3 -9 3 -20z m-6984 -41 c8 -16 14 -37 14 -49 0 -20 -1 -20
-29 -5 -39 20 -43 28 -35 70 5 30 9 34 21 23 8 -6 21 -24 29 -39z m6634 -33
c-15 -19 -70 -38 -70 -25 0 14 30 71 49 93 15 17 16 16 25 -18 5 -25 4 -41 -4
-50z m-6970 -6 c0 -11 -2 -20 -3 -20 -2 0 -12 9 -22 20 -18 19 -17 20 3 20 15
0 22 -6 22 -20z m7290 11 c0 -5 -6 -14 -14 -20 -11 -9 -15 -7 -19 9 -4 15 0
20 14 20 10 0 19 -4 19 -9z m-7216 -33 c22 -31 20 -36 -9 -30 -18 3 -25 11
-25 28 0 30 14 31 34 2z m7143 -12 c-4 -9 -16 -16 -27 -16 -21 0 -20 8 3 38
13 17 32 -1 24 -22z m-6867 -47 c0 -6 -4 -7 -10 -4 -5 3 -10 11 -10 16 0 6 5
7 10 4 6 -3 10 -11 10 -16z m6573 6 c-3 -9 -8 -14 -10 -11 -3 3 -2 9 2 15 9
16 15 13 8 -4z m-6823 -21 c0 -3 -5 -15 -11 -26 -11 -21 -12 -21 -25 -3 -20
27 -17 35 11 35 14 0 25 -3 25 -6z m7098 -19 c-11 -24 -28 -34 -28 -16 0 5 -3
16 -6 25 -5 12 0 16 20 16 24 0 25 -2 14 -25z m-6783 -41 c14 -42 8 -52 -24
-34 -21 11 -27 43 -15 75 9 22 22 8 39 -41z m6470 26 c9 -30 -2 -55 -30 -68
-30 -14 -32 -2 -10 52 17 40 31 46 40 16z m-6730 -20 c18 -35 19 -40 2 -40
-27 0 -46 24 -36 48 11 29 15 28 34 -8z m6983 -7 c2 -15 -4 -23 -18 -28 -29
-9 -33 -3 -19 29 14 30 33 29 37 -1z m-6969 -79 c2 -2 -6 -15 -18 -30 l-21
-26 -10 27 c-15 40 -13 46 18 39 15 -4 29 -8 31 -10z m6981 12 c0 -1 -5 -18
-11 -36 l-12 -33 -18 24 c-23 30 -23 36 -1 42 23 6 42 8 42 3z m-6740 -26 c0
-5 -2 -10 -4 -10 -3 0 -8 5 -11 10 -3 6 -1 10 4 10 6 0 11 -4 11 -10z m6450 0
c0 -5 -5 -10 -11 -10 -5 0 -7 5 -4 10 3 6 8 10 11 10 2 0 4 -4 4 -10z m-6115
-7 c-11 -2 -27 -7 -35 -10 -8 -3 -19 -5 -25 -3 -5 1 -23 6 -40 10 -22 6 -9 8
45 8 41 0 66 -2 55 -5z m158 -5 c-26 -5 -54 -5 -75 1 -28 8 -22 9 42 9 70 0
72 -1 33 -10z m215 6 c-4 -3 -27 -6 -53 -6 -26 0 -49 3 -52 6 -4 3 20 6 52 6
32 0 56 -3 53 -6z m150 -1 c-16 -2 -40 -2 -55 0 -16 2 -3 4 27 4 30 0 43 -2
28 -4z m200 1 c-8 -7 -88 -8 -95 0 -4 3 18 6 47 6 29 0 51 -3 48 -6z m160 -1
c-16 -2 -40 -2 -55 0 -16 2 -3 4 27 4 30 0 43 -2 28 -4z m170 0 c-16 -2 -40
-2 -55 0 -16 2 -3 4 27 4 30 0 43 -2 28 -4z m180 0 c-16 -2 -40 -2 -55 0 -16
2 -3 4 27 4 30 0 43 -2 28 -4z m175 0 c-13 -2 -35 -2 -50 0 -16 2 -5 4 22 4
28 0 40 -2 28 -4z m175 0 c-16 -2 -40 -2 -55 0 -16 2 -3 4 27 4 30 0 43 -2 28
-4z m180 0 c-16 -2 -40 -2 -55 0 -16 2 -3 4 27 4 30 0 43 -2 28 -4z m180 0
c-16 -2 -40 -2 -55 0 -16 2 -3 4 27 4 30 0 43 -2 28 -4z m170 0 c-16 -2 -40
-2 -55 0 -16 2 -3 4 27 4 30 0 43 -2 28 -4z m180 0 c-16 -2 -40 -2 -55 0 -16
2 -3 4 27 4 30 0 43 -2 28 -4z m175 0 c-13 -2 -35 -2 -50 0 -16 2 -5 4 22 4
28 0 40 -2 28 -4z m175 0 c-16 -2 -40 -2 -55 0 -16 2 -3 4 27 4 30 0 43 -2 28
-4z m180 0 c-16 -2 -40 -2 -55 0 -16 2 -3 4 27 4 30 0 43 -2 28 -4z m180 0
c-16 -2 -40 -2 -55 0 -16 2 -3 4 27 4 30 0 43 -2 28 -4z m170 0 c-16 -2 -40
-2 -55 0 -16 2 -3 4 27 4 30 0 43 -2 28 -4z m180 0 c-16 -2 -40 -2 -55 0 -16
2 -3 4 27 4 30 0 43 -2 28 -4z m200 1 c-8 -7 -88 -8 -95 0 -4 3 18 6 47 6 29
0 51 -3 48 -6z m155 -1 c-13 -2 -35 -2 -50 0 -16 2 -5 4 22 4 28 0 40 -2 28
-4z m175 0 c-16 -2 -40 -2 -55 0 -16 2 -3 4 27 4 30 0 43 -2 28 -4z m180 0
c-16 -2 -40 -2 -55 0 -16 2 -3 4 27 4 30 0 43 -2 28 -4z m170 0 c-16 -2 -40
-2 -55 0 -16 2 -3 4 27 4 30 0 43 -2 28 -4z m180 0 c-16 -2 -40 -2 -55 0 -16
2 -3 4 27 4 30 0 43 -2 28 -4z m180 0 c-16 -2 -40 -2 -55 0 -16 2 -3 4 27 4
30 0 43 -2 28 -4z m175 0 c-13 -2 -35 -2 -50 0 -16 2 -5 4 22 4 28 0 40 -2 28
-4z m175 0 c-16 -2 -40 -2 -55 0 -16 2 -3 4 27 4 30 0 43 -2 28 -4z m180 0
c-16 -2 -40 -2 -55 0 -16 2 -3 4 27 4 30 0 43 -2 28 -4z m175 0 c-13 -2 -35
-2 -50 0 -16 2 -5 4 22 4 28 0 40 -2 28 -4z m194 1 c-7 -8 -87 -7 -95 0 -3 3
19 6 48 6 29 0 51 -3 47 -6z m198 -4 c-16 -4 -34 -9 -40 -10 -5 -2 -17 0 -25
3 -8 3 -24 8 -35 10 -11 3 14 5 55 5 54 0 67 -2 45 -8z m170 -1 c-16 -4 -32
-9 -35 -10 -3 0 -21 4 -40 9 -32 9 -28 10 35 10 56 0 64 -2 40 -9z m-6390 -67
c7 -32 6 -32 -19 -21 -28 13 -32 29 -15 61 13 25 22 14 34 -40z m6864 -8 c-15
-18 -39 -18 -39 1 0 8 5 26 12 40 l12 26 14 -26 c10 -20 11 -30 1 -41z m-6619
29 c0 -5 -9 -19 -20 -33 -18 -23 -20 -24 -20 -4 0 20 17 44 32 44 4 0 8 -3 8
-7z m168 -23 c-12 -16 -23 -30 -24 -30 -2 0 -12 14 -24 30 l-21 30 46 0 46 0
-23 -30z m181 3 c-13 -16 -24 -29 -25 -30 0 -2 -13 11 -29 27 l-29 30 54 0 53
0 -24 -27z m181 12 c-10 -12 -16 -13 -26 -4 -20 16 -18 19 12 19 22 0 25 -2
14 -15z m180 0 c-10 -12 -16 -13 -26 -4 -20 16 -18 19 12 19 22 0 25 -2 14
-15z m177 -2 c-16 -16 -18 -16 -34 0 -16 16 -15 17 17 17 32 0 33 -1 17 -17z
m183 8 c0 -16 -28 -20 -40 -5 -10 12 -8 14 14 14 14 0 26 -4 26 -9z m170 -6
c-10 -12 -16 -13 -26 -4 -20 16 -18 19 12 19 22 0 25 -2 14 -15z m177 -2 c-16
-16 -18 -16 -34 0 -16 16 -15 17 17 17 32 0 33 -1 17 -17z m183 8 c0 -16 -28
-20 -40 -5 -10 12 -8 14 14 14 14 0 26 -4 26 -9z m170 -6 c-10 -12 -16 -13
-26 -4 -20 16 -18 19 12 19 22 0 25 -2 14 -15z m178 -1 c-9 -9 -21 -13 -27
-10 -20 13 -11 26 16 26 25 0 26 -1 11 -16z m182 7 c0 -16 -28 -20 -40 -5 -10
12 -8 14 14 14 14 0 26 -4 26 -9z m170 -6 c-10 -12 -16 -13 -26 -4 -20 16 -18
19 12 19 22 0 25 -2 14 -15z m177 -2 c-16 -16 -18 -16 -34 0 -16 16 -15 17 17
17 32 0 33 -1 17 -17z m183 8 c0 -19 -22 -23 -38 -7 -15 15 -14 16 11 16 15 0
27 -4 27 -9z m170 -6 c-10 -12 -16 -13 -26 -4 -20 16 -18 19 12 19 22 0 25 -2
14 -15z m180 1 c-6 -8 -18 -12 -26 -9 -23 9 -16 23 12 23 22 0 24 -2 14 -14z
m180 5 c0 -19 -22 -23 -38 -7 -15 15 -14 16 11 16 15 0 27 -4 27 -9z m170 -6
c-10 -12 -16 -13 -26 -4 -20 16 -18 19 12 19 22 0 25 -2 14 -15z m178 -1 c-9
-9 -21 -13 -27 -10 -20 13 -11 26 16 26 25 0 26 -1 11 -16z m182 7 c0 -19 -22
-23 -38 -7 -15 15 -14 16 11 16 15 0 27 -4 27 -9z m170 -6 c-10 -12 -16 -13
-26 -4 -20 16 -18 19 12 19 22 0 25 -2 14 -15z m178 -1 c-9 -9 -21 -13 -27
-10 -20 13 -11 26 16 26 25 0 26 -1 11 -16z m179 -1 c-16 -16 -18 -16 -34 0
-16 16 -15 17 17 17 32 0 33 -1 17 -17z m173 2 c-10 -12 -16 -13 -26 -4 -20
16 -18 19 12 19 22 0 25 -2 14 -15z m178 -1 c-9 -9 -21 -13 -27 -10 -20 13
-11 26 16 26 25 0 26 -1 11 -16z m182 7 c0 -19 -22 -23 -38 -7 -15 15 -14 16
11 16 15 0 27 -4 27 -9z m170 -6 c-10 -12 -16 -13 -26 -4 -20 16 -18 19 12 19
22 0 25 -2 14 -15z m180 1 c-6 -8 -18 -12 -26 -9 -23 9 -16 23 12 23 22 0 24
-2 14 -14z m177 -3 c-16 -16 -18 -16 -34 0 -16 16 -15 17 17 17 32 0 33 -1 17
-17z m183 8 c0 -19 -22 -23 -38 -7 -15 15 -14 16 11 16 15 0 27 -4 27 -9z
m170 -6 c-10 -12 -16 -13 -26 -4 -20 16 -18 19 12 19 22 0 25 -2 14 -15z m177
-2 c-16 -16 -18 -16 -34 0 -16 16 -15 17 17 17 32 0 33 -1 17 -17z m203 -14
c-12 -16 -23 -29 -24 -27 0 2 -12 15 -25 31 l-24 27 47 0 47 0 -21 -31z m178
1 c-12 -16 -23 -30 -24 -30 -2 0 -12 14 -24 30 l-21 30 46 0 46 0 -23 -30z
m148 13 c22 -29 18 -49 -6 -28 -19 17 -27 45 -14 45 4 0 13 -8 20 -17z m-6286
-28 c10 -13 9 -15 -9 -15 -12 0 -21 6 -21 15 0 8 4 15 9 15 5 0 14 -7 21 -15z
m180 0 c11 -13 7 -15 -30 -15 -37 0 -41 2 -30 15 7 8 20 15 30 15 10 0 23 -7
30 -15z m176 0 c18 -13 16 -14 -25 -15 -37 0 -42 2 -31 15 16 19 31 19 56 0z
m5514 0 c11 -13 7 -15 -25 -15 -32 0 -36 2 -25 15 7 8 18 15 25 15 7 0 18 -7
25 -15z m180 0 c11 -13 7 -15 -25 -15 -32 0 -36 2 -25 15 7 8 18 15 25 15 7 0
18 -7 25 -15z m160 0 c0 -10 -10 -15 -26 -15 -22 0 -25 2 -14 15 7 8 19 15 26
15 8 0 14 -7 14 -15z m-5675 -5 c3 -5 -1 -10 -10 -10 -9 0 -13 5 -10 10 3 6 8
10 10 10 2 0 7 -4 10 -10z m180 0 c3 -5 -1 -10 -10 -10 -9 0 -13 5 -10 10 3 6
8 10 10 10 2 0 7 -4 10 -10z m175 0 c0 -5 -7 -10 -16 -10 -8 0 -12 5 -9 10 3
6 10 10 16 10 5 0 9 -4 9 -10z m175 0 c3 -5 -1 -10 -10 -10 -9 0 -13 5 -10 10
3 6 8 10 10 10 2 0 7 -4 10 -10z m180 0 c3 -5 -1 -10 -10 -10 -9 0 -13 5 -10
10 3 6 8 10 10 10 2 0 7 -4 10 -10z m180 0 c3 -5 -3 -10 -15 -10 -12 0 -18 5
-15 10 3 6 10 10 15 10 5 0 12 -4 15 -10z m170 0 c3 -5 -1 -10 -10 -10 -9 0
-13 5 -10 10 3 6 8 10 10 10 2 0 7 -4 10 -10z m180 0 c3 -5 -1 -10 -10 -10 -9
0 -13 5 -10 10 3 6 8 10 10 10 2 0 7 -4 10 -10z m180 0 c3 -5 -3 -10 -15 -10
-12 0 -18 5 -15 10 3 6 10 10 15 10 5 0 12 -4 15 -10z m170 0 c3 -5 -1 -10
-10 -10 -9 0 -13 5 -10 10 3 6 8 10 10 10 2 0 7 -4 10 -10z m180 0 c3 -5 -1
-10 -9 -10 -9 0 -16 5 -16 10 0 6 4 10 9 10 6 0 13 -4 16 -10z m180 0 c3 -5
-3 -10 -15 -10 -12 0 -18 5 -15 10 3 6 10 10 15 10 5 0 12 -4 15 -10z m170 0
c3 -5 -1 -10 -10 -10 -9 0 -13 5 -10 10 3 6 8 10 10 10 2 0 7 -4 10 -10z m180
0 c3 -5 -1 -10 -10 -10 -9 0 -13 5 -10 10 3 6 8 10 10 10 2 0 7 -4 10 -10z
m180 0 c3 -5 -3 -10 -15 -10 -12 0 -18 5 -15 10 3 6 10 10 15 10 5 0 12 -4 15
-10z m170 0 c3 -5 -1 -10 -10 -10 -9 0 -13 5 -10 10 3 6 8 10 10 10 2 0 7 -4
10 -10z m180 0 c3 -5 -1 -10 -10 -10 -9 0 -13 5 -10 10 3 6 8 10 10 10 2 0 7
-4 10 -10z m180 0 c3 -5 -1 -10 -9 -10 -9 0 -16 5 -16 10 0 6 4 10 9 10 6 0
13 -4 16 -10z m170 0 c3 -5 -1 -10 -10 -10 -9 0 -13 5 -10 10 3 6 8 10 10 10
2 0 7 -4 10 -10z m180 0 c3 -5 -1 -10 -10 -10 -9 0 -13 5 -10 10 3 6 8 10 10
10 2 0 7 -4 10 -10z m180 0 c3 -5 -3 -10 -15 -10 -12 0 -18 5 -15 10 3 6 10
10 15 10 5 0 12 -4 15 -10z m185 -6 c0 -2 -9 -4 -21 -4 -11 0 -18 4 -14 10 5
8 35 3 35 -6z m165 6 c3 -5 -1 -10 -10 -10 -9 0 -13 5 -10 10 3 6 8 10 10 10
2 0 7 -4 10 -10z m180 0 c3 -5 -1 -10 -9 -10 -9 0 -16 5 -16 10 0 6 4 10 9 10
6 0 13 -4 16 -10z m170 0 c3 -5 -1 -10 -10 -10 -9 0 -13 5 -10 10 3 6 8 10 10
10 2 0 7 -4 10 -10z m180 0 c3 -5 -1 -10 -10 -10 -9 0 -13 5 -10 10 3 6 8 10
10 10 2 0 7 -4 10 -10z m180 0 c3 -5 -3 -10 -15 -10 -12 0 -18 5 -15 10 3 6
10 10 15 10 5 0 12 -4 15 -10z m170 0 c3 -5 -1 -10 -10 -10 -9 0 -13 5 -10 10
3 6 8 10 10 10 2 0 7 -4 10 -10z m180 0 c3 -5 -1 -10 -10 -10 -9 0 -13 5 -10
10 3 6 8 10 10 10 2 0 7 -4 10 -10z m180 0 c3 -5 -1 -10 -10 -10 -9 0 -13 5
-10 10 3 6 8 10 10 10 2 0 7 -4 10 -10z m873 -102 c-33 -59 -48 -60 -48 -4 0
41 3 48 33 66 32 20 32 20 35 0 2 -11 -7 -39 -20 -62z m-6864 51 c12 -11 18
-99 7 -99 -15 0 -41 36 -56 79 l-15 43 28 -7 c15 -3 31 -11 36 -16z m233 -181
c13 -12 23 -26 23 -31 0 -16 -97 -2 -127 19 l-28 18 30 7 c55 12 79 9 102 -13z
m102 19 c-2 -1 -11 -8 -20 -15 -13 -10 -19 -9 -29 3 -11 13 -8 15 20 15 19 0
31 -1 29 -3z m101 -49 c0 -4 -20 -8 -45 -8 -25 0 -45 3 -45 7 0 4 10 17 22 30
l22 23 23 -22 c13 -12 23 -25 23 -30z m57 35 c-16 -16 -18 -16 -34 0 -16 16
-15 17 17 17 32 0 33 -1 17 -17z m94 -5 c27 -33 24 -38 -21 -38 -45 0 -47 2
-22 35 21 30 20 30 43 3z m86 5 c-16 -16 -18 -16 -34 0 -16 16 -15 17 17 17
32 0 33 -1 17 -17z m5520 0 c-16 -16 -18 -16 -34 0 -16 16 -15 17 17 17 32 0
33 -1 17 -17z m113 -35 c0 -9 -73 -11 -83 -2 -3 3 4 17 16 30 l21 24 23 -22
c13 -12 23 -25 23 -30z m64 37 c-4 -8 -10 -15 -14 -15 -4 0 -13 7 -20 15 -11
13 -8 15 13 15 19 0 25 -4 21 -15z m106 -32 c0 -9 -13 -13 -40 -13 -46 0 -48
5 -18 37 20 21 23 22 40 6 10 -9 18 -22 18 -30z m67 30 c-16 -16 -18 -16 -34
0 -16 16 -15 17 17 17 32 0 33 -1 17 -17z m136 11 c20 -4 37 -10 37 -15 0 -14
-69 -39 -106 -39 -39 0 -40 3 -16 35 18 26 27 28 85 19z m-5893 -45 c0 -10
-34 -12 -43 -2 -4 3 -2 12 4 20 9 10 15 10 25 2 8 -6 14 -15 14 -20z m174 0
c-7 -11 -44 -12 -44 -1 0 4 5 13 12 20 13 13 42 -4 32 -19z m356 0 c0 -10 -34
-12 -43 -2 -4 3 -2 12 4 20 9 10 15 10 25 2 8 -6 14 -15 14 -20z m173 -1 c-6
-11 -43 -10 -43 0 0 19 22 31 35 19 7 -7 11 -15 8 -19z m357 1 c0 -10 -33 -12
-43 -3 -3 3 0 12 6 19 12 13 37 2 37 -16z m180 0 c0 -5 -11 -9 -25 -9 -27 0
-32 9 -13 28 12 12 38 -1 38 -19z m350 0 c0 -10 -33 -12 -43 -3 -3 3 0 12 6
19 12 13 37 2 37 -16z m180 0 c0 -5 -11 -9 -25 -9 -27 0 -32 9 -13 28 12 12
38 -1 38 -19z m350 0 c0 -10 -33 -12 -43 -3 -3 3 0 12 6 19 12 13 37 2 37 -16z
m180 0 c0 -5 -11 -9 -25 -9 -27 0 -32 9 -13 28 12 12 38 -1 38 -19z m350 0 c0
-5 -9 -9 -20 -9 -22 0 -23 1 -14 24 5 13 9 14 20 5 8 -6 14 -15 14 -20z m180
0 c0 -10 -34 -12 -43 -2 -4 3 -2 12 4 20 9 10 15 10 25 2 8 -6 14 -15 14 -20z
m530 0 c0 -5 -11 -9 -25 -9 -27 0 -32 9 -13 28 12 12 38 -1 38 -19z m530 0 c0
-5 -11 -9 -25 -9 -27 0 -32 9 -13 28 12 12 38 -1 38 -19z m173 -1 c-6 -11 -43
-10 -43 0 0 19 22 31 35 19 7 -7 11 -15 8 -19z m357 1 c0 -5 -11 -9 -25 -9
-28 0 -31 5 -12 24 12 14 37 4 37 -15z m170 -1 c0 -5 -9 -8 -20 -8 -23 0 -26
10 -8 28 9 9 14 9 20 -1 4 -6 8 -15 8 -19z m360 1 c0 -10 -33 -12 -43 -3 -3 3
0 12 6 19 12 13 37 2 37 -16z m180 -3 c0 -3 -11 -6 -25 -6 -27 0 -32 9 -14 27
9 9 15 8 25 -2 8 -7 14 -16 14 -19z m-4782 6 c2 -7 -6 -12 -17 -12 -21 0 -27
11 -14 24 9 9 26 2 31 -12z m530 0 c2 -7 -6 -12 -17 -12 -21 0 -27 11 -14 24
9 9 26 2 31 -12z m530 0 c2 -7 -6 -12 -17 -12 -21 0 -27 11 -14 24 9 9 26 2
31 -12z m530 0 c2 -7 -6 -12 -17 -12 -21 0 -27 11 -14 24 9 9 26 2 31 -12z
m526 12 c20 -8 11 -24 -15 -24 -19 0 -25 11 -12 23 8 8 8 8 27 1z m534 -12 c2
-7 -6 -12 -17 -12 -21 0 -27 11 -14 24 9 9 26 2 31 -12z m180 0 c2 -7 -6 -12
-17 -12 -21 0 -27 11 -14 24 9 9 26 2 31 -12z m350 0 c2 -7 -6 -12 -17 -12
-21 0 -27 11 -14 24 9 9 26 2 31 -12z m180 0 c2 -7 -6 -12 -17 -12 -21 0 -27
11 -14 24 9 9 26 2 31 -12z m530 0 c2 -7 -6 -12 -17 -12 -21 0 -27 11 -14 24
9 9 26 2 31 -12z m530 0 c2 -7 -6 -12 -17 -12 -21 0 -27 11 -14 24 9 9 26 2
31 -12z m530 0 c2 -7 -6 -12 -17 -12 -21 0 -27 11 -14 24 9 9 26 2 31 -12z"/>
<path d="M118 12769 c-10 -5 -18 -21 -18 -33 0 -13 -6 -26 -14 -29 -40 -16
-25 -150 24 -222 32 -47 29 -57 -23 -70 -38 -10 -42 -21 -12 -41 18 -12 23
-19 14 -25 -19 -11 -38 0 -55 32 -19 37 -34 37 -34 0 0 -30 38 -71 66 -71 7 0
22 -12 33 -26 l21 -26 -22 -18 c-25 -20 -19 -50 11 -50 36 0 54 65 31 113 -10
22 -10 22 6 0 20 -28 44 -30 44 -4 0 11 4 31 10 46 l10 26 32 -24 c61 -46 101
-60 166 -61 51 -1 66 3 77 18 8 10 18 15 23 12 16 -9 52 24 52 49 0 13 -9 30
-20 38 -20 14 -20 15 -3 21 16 7 15 10 -10 31 -15 14 -49 32 -75 41 l-48 17
57 29 c91 45 118 106 45 100 -36 -3 -37 -2 -31 20 12 38 34 68 52 68 15 0 15
-1 -1 -13 -18 -13 -14 -42 9 -50 22 -9 55 22 55 52 0 31 -27 61 -54 61 -23 0
-67 -24 -90 -49 -27 -30 -39 -26 -31 9 6 25 3 30 -12 30 -26 0 -67 -45 -92
-100 l-20 -44 -11 29 c-25 68 -33 84 -52 102 -18 16 -20 16 -29 1 -9 -16 -11
-16 -29 2 -23 23 -28 24 -52 9z m43 -88 c-8 -5 -20 -7 -28 -4 -21 8 -15 13 15
13 20 0 23 -3 13 -9z"/>
<path d="M7940 12758 c-26 -28 -25 -41 4 -75 24 -27 25 -27 44 -9 23 20 20 42
-6 49 -12 3 -10 5 5 6 22 1 33 -13 53 -64 10 -26 9 -26 -27 -23 -73 6 -47 -54
45 -99 l58 -30 -50 -17 c-63 -23 -96 -44 -96 -62 0 -8 8 -14 17 -14 14 0 13
-3 -5 -16 -40 -28 -23 -84 25 -84 13 0 23 -6 23 -14 0 -18 65 -30 116 -20 45
8 86 27 131 60 l31 24 11 -31 c6 -17 8 -35 5 -40 -13 -22 28 -19 47 2 l21 24
-16 -25 c-9 -13 -16 -34 -16 -45 0 -29 28 -65 49 -65 28 0 33 28 10 51 l-21
21 23 24 c12 13 29 24 36 24 23 0 63 47 63 75 0 34 -17 32 -38 -5 -12 -21 -24
-30 -42 -29 l-25 0 23 16 c30 21 28 39 -5 48 -52 13 -55 23 -23 70 16 23 34
64 40 89 12 54 3 125 -16 133 -8 3 -14 16 -14 29 0 16 -8 28 -25 36 -22 10
-29 8 -49 -11 -20 -19 -24 -20 -29 -7 -4 9 -12 13 -20 10 -16 -6 -52 -74 -63
-118 -7 -29 -7 -28 -26 22 -19 51 -66 102 -94 102 -9 0 -14 -11 -14 -32 l0
-32 -27 26 c-57 53 -100 61 -133 26z m445 -78 c-3 -5 -12 -7 -20 -3 -21 7 -19
13 6 13 11 0 18 -4 14 -10z m-327 -321 c-3 -8 -7 -3 -11 10 -4 17 -3 21 5 13
5 -5 8 -16 6 -23z"/>
<path d="M87 593 c-11 -11 -8 -21 12 -40 16 -15 17 -21 7 -35 -7 -10 -29 -25
-49 -33 -20 -8 -41 -24 -47 -34 -15 -29 -12 -61 5 -61 8 0 15 6 15 14 0 22 29
46 53 46 21 -1 21 -2 -5 -23 -29 -24 -35 -37 -18 -37 6 0 27 -7 47 -15 34 -15
35 -16 19 -37 -30 -42 -53 -93 -60 -130 -9 -49 3 -118 20 -118 8 0 14 -10 14
-24 0 -13 7 -29 15 -36 16 -13 65 -6 65 10 0 6 9 5 20 -2 18 -11 23 -10 40 12
11 14 27 48 36 75 l17 50 15 -43 c16 -48 71 -112 96 -112 11 0 16 9 16 30 l0
30 42 -30 c43 -31 76 -37 109 -20 39 21 15 100 -31 100 -22 0 -34 -28 -19 -46
8 -10 8 -14 0 -14 -16 0 -43 46 -39 67 3 14 12 17 36 15 62 -4 24 62 -61 105
l-52 26 45 14 c25 7 59 25 75 38 27 23 28 27 13 38 -15 12 -15 14 3 25 36 22
18 82 -24 82 -10 0 -26 7 -35 16 -34 35 -199 0 -241 -50 -23 -28 -40 -18 -47
24 -8 52 -17 57 -43 24 -12 -15 -21 -22 -21 -16 0 6 5 14 10 17 14 9 13 78 -2
93 -13 13 -41 16 -51 5z m384 -155 c-3 -21 -6 -26 -9 -15 -3 17 3 47 11 47 2
0 1 -15 -2 -32z"/>
<path d="M8372 580 c-16 -26 -15 -52 3 -76 24 -32 17 -41 -8 -10 -14 17 -28
26 -36 22 -6 -4 -9 -12 -5 -17 3 -5 0 -25 -6 -44 l-11 -34 -45 34 c-52 40 -99
55 -172 55 -44 0 -55 -3 -59 -19 -3 -13 -11 -17 -24 -14 -43 12 -68 -55 -30
-79 18 -11 18 -13 3 -25 -16 -12 -14 -15 13 -38 17 -14 49 -31 73 -37 23 -7
42 -15 42 -18 0 -3 -16 -12 -36 -19 -46 -17 -104 -68 -104 -92 0 -17 5 -19 35
-13 32 6 35 4 35 -18 0 -31 -26 -68 -48 -68 -13 0 -14 2 -4 9 8 5 12 17 10 27
-5 29 -49 25 -67 -7 -13 -24 -13 -29 2 -53 25 -37 71 -35 127 6 l43 32 -5 -27
c-7 -35 4 -41 40 -23 33 17 53 44 72 98 l14 37 22 -55 c12 -30 27 -61 34 -69
15 -18 40 -20 40 -3 0 6 7 4 18 -5 35 -32 82 -15 82 29 0 12 6 24 14 27 39 15
24 144 -24 217 -27 40 -28 45 -12 56 9 6 26 13 37 15 27 6 31 36 6 44 -27 8
-27 25 -1 25 13 0 28 -12 38 -30 20 -35 42 -39 42 -9 0 24 -51 79 -74 79 -8 0
-22 10 -30 22 -14 19 -13 23 4 46 11 13 17 28 14 33 -10 16 -49 9 -62 -11z
m-312 -150 c0 -10 -3 -21 -7 -23 -5 -3 -8 8 -8 23 0 15 3 26 8 23 4 -2 7 -13
7 -23z"/>
</g>
</svg>
