<?xml version="1.0" standalone="no"?>
<!DOCTYPE svg PUBLIC "-//W3C//DTD SVG 20010904//EN"
 "http://www.w3.org/TR/2001/REC-SVG-20010904/DTD/svg10.dtd">
<svg version="1.0" xmlns="http://www.w3.org/2000/svg"
 width="886.000000pt" height="1280.000000pt" viewBox="0 0 886.000000 1280.000000"
 preserveAspectRatio="xMidYMid meet">
<metadata>
Created by potrace 1.15, written by Peter Selinger 2001-2017
</metadata>
<g transform="translate(0.000000,1280.000000) scale(0.100000,-0.100000)"
fill="#000000" stroke="none">
<path d="M8635 12779 c-257 -26 -960 -85 -1300 -109 -1654 -115 -3119 -167
-6495 -230 -590 -11 -831 -17 -837 -23 -2 -2 3 -199 11 -438 20 -577 34 -1158
46 -1874 13 -751 13 -6565 0 -7690 -5 -467 -10 -985 -12 -1150 l-3 -300 51 -3
51 -3 7 168 c28 741 33 6486 7 7868 -23 1208 -56 2318 -91 3050 -5 110 -10
228 -10 261 l0 62 203 6 c111 4 434 11 717 16 4022 78 5688 152 7575 334 137
14 251 23 253 21 2 -1 -6 -171 -17 -376 -42 -767 -64 -1338 -93 -2389 -26
-914 -12 -5398 22 -7515 5 -330 14 -908 20 -1285 5 -377 12 -785 15 -907 l6
-222 -33 5 c-84 11 -986 76 -1593 114 -637 39 -1135 65 -1855 95 -327 14 -809
34 -1070 45 -932 39 -2292 75 -3113 82 l-307 3 0 -51 0 -52 143 -6 c78 -3 356
-8 617 -11 760 -9 1760 -37 2670 -75 256 -11 715 -27 1020 -35 1196 -33 2449
-90 3344 -151 120 -8 220 -13 222 -12 1 2 -1 555 -6 1228 -5 674 -10 2181 -10
3350 0 1169 -5 2364 -10 2655 -12 702 -13 2424 0 3116 12 689 35 1420 60 1996
11 243 20 444 20 447 0 8 -13 7 -225 -15z"/>
<path d="M8480 12695 c-1097 -112 -2716 -209 -4265 -255 -187 -5 -407 -12
-490 -15 -273 -10 -1671 -41 -2910 -65 -302 -6 -590 -12 -639 -13 l-90 -2 2
-60 c2 -33 9 -195 17 -360 56 -1154 92 -2344 115 -3795 26 -1574 22 -5171 -7
-6797 l-6 -373 105 0 106 0 6 262 c24 1000 35 5138 16 5738 -5 168 -14 469
-20 670 -40 1425 -118 3046 -204 4280 -13 179 -22 328 -20 332 2 3 77 7 167 7
89 1 360 6 602 11 242 6 757 17 1145 25 3052 66 4625 145 6397 321 95 10 175
15 178 12 3 -2 -8 -173 -25 -379 -181 -2285 -274 -5245 -217 -6959 45 -1353
65 -1899 136 -3660 32 -784 56 -1427 54 -1430 -2 -2 -70 3 -151 13 -682 78
-910 103 -1347 146 -752 76 -1563 146 -2315 201 -526 39 -2873 108 -3750 110
l-275 1 -3 -104 -3 -104 503 -7 c2467 -33 5383 -174 7333 -356 55 -5 101 -7
104 -5 3 4 -20 1186 -49 2530 -34 1568 -50 2953 -50 4497 0 1603 16 2575 60
3743 20 524 81 1711 94 1828 l4 37 -41 -1 c-23 -1 -143 -12 -267 -24z"/>
</g>
</svg>
