<?xml version="1.0" encoding="UTF-8" standalone="no"?>
<svg
   version="1.0"
   width="847.9939pt"
   height="1102.9777pt"
   viewBox="0 0 847.9939 1102.9777"
   preserveAspectRatio="xMidYMid"
   id="svg10"
   sodipodi:docname="1502906.svg"
   inkscape:version="1.2.2 (b0a8486541, 2022-12-01)"
   xmlns:inkscape="http://www.inkscape.org/namespaces/inkscape"
   xmlns:sodipodi="http://sodipodi.sourceforge.net/DTD/sodipodi-0.dtd"
   xmlns="http://www.w3.org/2000/svg"
   xmlns:svg="http://www.w3.org/2000/svg">
  <defs
     id="defs14" />
  <sodipodi:namedview
     id="namedview12"
     pagecolor="#ffffff"
     bordercolor="#000000"
     borderopacity="0.25"
     inkscape:showpageshadow="2"
     inkscape:pageopacity="0.0"
     inkscape:pagecheckerboard="0"
     inkscape:deskcolor="#d1d1d1"
     inkscape:document-units="pt"
     showgrid="false"
     inkscape:zoom="0.6"
     inkscape:cx="566.66667"
     inkscape:cy="800"
     inkscape:window-width="2560"
     inkscape:window-height="1368"
     inkscape:window-x="0"
     inkscape:window-y="40"
     inkscape:window-maximized="1"
     inkscape:current-layer="svg10" />
  <metadata
     id="metadata2">
Created by potrace 1.15, written by Peter Selinger 2001-2017
</metadata>
  <g
     transform="matrix(0.1,0,0,-0.1,-28.042047,1239.8717)"
     fill="#000000"
     stroke="none"
     id="g8">
    <path
       d="m 361,12382 c -52,-26 -74,-63 -79,-129 -6,-84 11,-105 182,-236 51,-39 48,-68 -14,-142 -98,-118 -132,-198 -115,-277 5,-24 32,-56 96,-118 119,-114 119,-128 4,-252 -92,-97 -127,-206 -90,-277 8,-16 51,-61 95,-101 73,-66 80,-76 80,-110 0,-33 -9,-48 -69,-114 -77,-85 -111,-146 -119,-212 -7,-64 11,-94 104,-183 73,-69 84,-83 84,-113 0,-40 -20,-71 -84,-135 -58,-56 -106,-151 -106,-207 0,-52 37,-113 97,-162 75,-61 93,-84 93,-118 0,-37 -16,-62 -85,-136 -63,-67 -94,-125 -102,-189 -8,-68 14,-106 108,-191 108,-98 108,-121 -1,-235 -69,-73 -100,-130 -107,-199 -7,-70 8,-98 107,-186 109,-99 109,-119 0,-236 -91,-98 -129,-203 -100,-274 7,-16 50,-65 96,-108 74,-69 84,-83 84,-114 0,-37 -19,-67 -90,-139 -55,-56 -92,-127 -98,-190 -5,-57 26,-119 80,-161 18,-15 50,-42 71,-61 49,-46 51,-88 4,-149 l -33,-43 33,-43 c 51,-67 47,-104 -19,-161 -119,-104 -138,-132 -138,-199 0,-52 50,-152 102,-203 68,-68 88,-99 88,-139 0,-33 -8,-44 -80,-109 -96,-87 -114,-117 -108,-181 7,-66 42,-133 108,-204 109,-117 109,-138 -1,-236 -44,-40 -87,-86 -95,-101 -36,-71 -1,-180 91,-277 114,-122 115,-144 9,-238 -101,-91 -118,-121 -111,-189 7,-68 37,-126 102,-195 70,-74 85,-99 85,-136 0,-36 -12,-51 -97,-123 -34,-29 -69,-69 -78,-88 -35,-74 3,-190 91,-277 64,-63 84,-94 84,-135 0,-30 -10,-44 -84,-113 -46,-43 -89,-92 -96,-108 -29,-71 9,-176 100,-274 109,-117 109,-137 0,-236 -44,-40 -87,-85 -95,-101 -37,-71 -3,-176 89,-276 115,-124 116,-145 10,-239 -87,-79 -114,-118 -114,-165 0,-75 29,-133 125,-249 68,-83 61,-110 -56,-188 -56,-38 -107,-94 -115,-128 -10,-40 2,-114 23,-143 49,-66 141,-79 238,-32 69,33 113,65 209,149 112,100 154,96 262,-25 76,-84 106,-103 164,-103 57,0 108,29 170,97 123,135 181,135 295,0 31,-37 69,-74 85,-82 75,-39 175,-2 261,97 105,120 169,119 268,-6 63,-79 104,-106 160,-106 66,0 109,25 192,110 80,82 118,101 171,85 12,-4 62,-48 109,-97 82,-87 87,-91 136,-95 73,-7 126,20 198,100 68,76 117,103 169,93 27,-5 51,-24 108,-87 40,-45 85,-87 100,-95 71,-37 187,5 250,90 18,24 51,56 73,70 73,48 125,31 204,-68 29,-36 67,-74 85,-85 43,-27 107,-27 163,0 48,23 133,112 133,139 0,16 -8,14 -51,-16 -77,-51 -90,-48 -184,50 -92,97 -111,109 -172,108 -64,-2 -140,-40 -214,-109 -117,-109 -133,-110 -226,-7 -37,41 -83,84 -101,96 -74,46 -186,11 -296,-91 -116,-108 -132,-107 -249,14 l -92,95 h -61 c -76,0 -143,-32 -210,-100 -61,-62 -121,-95 -156,-87 -14,4 -56,41 -93,82 -37,42 -81,83 -98,92 -75,38 -183,3 -288,-94 -117,-109 -133,-110 -226,-7 -37,41 -83,84 -101,96 -75,46 -184,12 -302,-96 -110,-101 -138,-101 -224,1 -77,93 -113,116 -177,114 -64,-1 -125,-28 -181,-79 -77,-70 -116,-92 -168,-92 -80,0 -99,44 -59,135 19,42 20,53 9,88 -6,22 -33,63 -59,91 -58,62 -86,103 -94,136 -10,39 27,99 95,155 86,70 102,95 101,153 -1,66 -33,123 -109,196 -118,113 -118,175 1,265 30,22 66,57 81,77 57,74 22,192 -84,282 -60,52 -84,90 -84,137 0,48 14,67 96,134 90,74 112,116 95,189 -14,63 -29,85 -109,163 -102,99 -109,159 -28,233 24,21 62,55 85,76 56,51 69,98 47,170 -13,43 -30,68 -95,133 -126,129 -125,164 9,285 89,80 108,117 93,182 -13,58 -38,95 -105,161 -119,114 -120,174 -4,264 32,26 70,62 85,82 56,73 20,191 -85,281 -60,52 -84,90 -84,137 0,48 15,68 93,131 90,71 115,119 99,190 -13,59 -37,93 -116,170 -96,94 -102,155 -22,228 24,21 62,55 85,76 84,76 76,172 -23,279 l -55,60 46,42 c 59,55 87,109 87,169 0,62 -8,75 -101,159 -95,86 -110,118 -85,180 10,26 38,60 75,92 77,67 111,124 112,189 1,61 -22,95 -112,170 -35,29 -69,67 -77,87 -20,47 -4,101 43,144 101,92 122,119 137,170 27,89 5,133 -111,228 -44,36 -65,61 -72,86 -17,62 12,124 80,171 81,56 128,157 107,232 -10,35 -34,62 -140,158 -82,73 -71,143 38,239 76,67 106,120 106,185 0,59 -15,82 -107,165 -120,107 -120,164 1,271 67,58 92,94 105,154 15,65 -4,102 -96,186 -51,46 -88,89 -95,108 -18,56 14,118 93,181 90,71 125,180 81,254 -10,18 -51,59 -91,91 -53,44 -74,69 -82,95 -17,62 12,124 80,171 81,56 128,157 107,232 -10,35 -26,54 -135,152 -86,78 -79,131 31,249 78,83 88,116 57,184 -39,85 -19,137 51,137 53,0 94,-21 165,-83 63,-55 116,-83 179,-93 58,-9 105,19 187,110 38,42 79,79 92,82 32,8 79,-19 151,-86 101,-94 198,-128 268,-95 20,10 69,53 108,97 39,43 81,81 93,84 34,8 74,-13 142,-76 101,-94 196,-134 267,-110 22,7 64,42 119,101 46,49 92,89 101,89 36,0 88,-31 151,-90 70,-65 124,-95 191,-106 57,-9 109,20 174,98 65,77 89,97 113,98 31,0 79,-30 143,-90 101,-94 198,-128 268,-95 20,10 69,53 108,97 39,43 81,81 93,84 34,8 74,-13 142,-76 101,-94 196,-134 266,-111 23,8 65,43 121,103 81,87 86,90 118,84 18,-3 52,-20 76,-36 39,-27 42,-28 42,-10 0,30 -75,105 -133,135 -97,48 -159,28 -244,-77 -60,-73 -95,-98 -140,-98 -37,0 -71,24 -142,98 -66,69 -125,101 -186,102 -53,0 -92,-26 -155,-102 -63,-75 -95,-98 -135,-98 -42,1 -64,15 -153,101 -77,75 -123,99 -186,99 -43,0 -65,-16 -156,-111 -75,-79 -89,-89 -120,-89 -45,0 -97,32 -154,97 -26,28 -70,63 -98,77 -98,49 -160,29 -244,-75 -58,-73 -95,-99 -141,-99 -37,0 -68,22 -141,97 -65,69 -126,102 -185,103 -55,0 -90,-22 -148,-93 -114,-140 -162,-142 -287,-14 -66,68 -109,95 -167,104 -61,10 -86,-5 -181,-103 -77,-81 -95,-94 -123,-94 -42,0 -78,19 -148,81 -167,147 -293,197 -382,151 z"
       id="path4" />
    <path
       d="m 8519,12381 c -60,-23 -143,-79 -219,-146 -72,-65 -108,-85 -152,-85 -28,0 -45,12 -118,89 -95,99 -112,111 -166,111 -57,0 -120,-36 -188,-107 -120,-126 -171,-126 -272,0 -66,81 -105,107 -159,107 -63,-1 -122,-34 -201,-115 -113,-116 -166,-114 -268,13 -60,74 -103,102 -158,102 -54,0 -129,-42 -182,-101 -59,-67 -110,-99 -156,-99 -31,0 -45,10 -120,89 -91,95 -113,111 -156,111 -63,0 -109,-24 -186,-99 -89,-86 -111,-100 -153,-101 -41,0 -72,23 -139,103 -65,76 -98,97 -153,97 -60,-1 -116,-33 -196,-114 -117,-117 -166,-115 -267,9 -89,109 -149,128 -247,80 -59,-30 -133,-105 -133,-135 0,-19 3,-19 38,10 21,17 55,33 75,37 36,5 40,3 129,-89 104,-107 127,-117 209,-98 51,12 162,86 173,115 8,23 96,75 125,75 20,0 46,-21 106,-84 94,-99 131,-121 189,-112 68,11 118,40 197,113 114,106 154,106 239,-1 65,-82 111,-111 174,-110 68,1 120,29 211,114 73,67 115,88 153,76 11,-4 54,-44 96,-90 90,-100 121,-115 202,-97 59,14 108,46 172,113 51,53 110,83 145,74 14,-3 56,-41 95,-84 90,-100 130,-120 206,-103 64,14 124,52 189,120 57,59 104,79 146,61 15,-6 54,-42 85,-80 71,-85 126,-115 188,-105 60,10 113,39 172,95 28,26 65,55 83,64 44,22 115,21 136,-2 21,-23 22,-74 1,-114 -35,-67 -18,-117 71,-213 70,-76 87,-122 60,-171 -10,-19 -47,-58 -82,-85 -79,-62 -103,-99 -103,-159 1,-67 29,-119 113,-202 116,-116 114,-161 -9,-260 -36,-29 -74,-67 -85,-84 -45,-74 -8,-189 88,-272 53,-45 93,-104 93,-137 0,-32 -32,-76 -93,-126 -87,-73 -107,-103 -107,-161 0,-66 36,-134 104,-194 124,-111 124,-158 5,-266 -92,-82 -109,-109 -109,-169 0,-62 31,-116 109,-192 120,-115 118,-167 -6,-267 -79,-63 -103,-101 -103,-160 1,-66 28,-116 113,-202 117,-118 115,-161 -13,-263 -38,-31 -77,-69 -85,-85 -39,-76 -1,-188 92,-267 52,-45 93,-105 93,-138 0,-33 -32,-76 -93,-126 -87,-71 -107,-102 -107,-164 0,-64 41,-139 106,-192 25,-21 57,-57 71,-81 40,-67 30,-91 -78,-192 -89,-83 -92,-87 -96,-137 -7,-71 10,-115 72,-182 l 54,-58 -45,-44 c -55,-54 -84,-112 -84,-168 0,-60 18,-88 109,-170 97,-88 108,-116 68,-183 -14,-24 -49,-62 -77,-86 -63,-54 -100,-124 -100,-190 0,-58 20,-88 108,-162 61,-51 92,-93 92,-125 0,-33 -41,-94 -90,-135 -69,-57 -110,-130 -110,-194 0,-64 24,-102 106,-167 121,-96 123,-142 7,-257 -84,-83 -112,-135 -113,-202 0,-59 24,-97 104,-161 122,-97 123,-152 5,-266 -78,-76 -109,-130 -109,-192 0,-60 17,-87 109,-169 119,-108 119,-155 -5,-266 -87,-77 -123,-173 -94,-250 5,-14 28,-42 51,-63 142,-127 154,-147 124,-214 -10,-21 -42,-60 -72,-85 -72,-61 -113,-134 -113,-198 0,-64 24,-102 106,-167 121,-96 123,-142 7,-257 -84,-83 -112,-135 -113,-202 0,-59 24,-97 104,-161 116,-93 121,-148 21,-254 -89,-95 -106,-146 -71,-213 22,-42 21,-95 -2,-115 -24,-22 -93,-22 -134,-1 -17,9 -52,36 -77,59 -96,90 -211,121 -283,77 -18,-11 -60,-53 -92,-91 -88,-106 -119,-107 -227,-5 -109,102 -219,140 -295,101 -16,-8 -62,-52 -103,-96 -97,-108 -112,-108 -228,-1 -65,61 -149,108 -198,110 -82,5 -85,4 -180,-95 -61,-63 -100,-95 -114,-95 -36,0 -82,29 -148,91 -70,67 -134,99 -204,101 -62,1 -100,-24 -174,-114 -85,-103 -115,-103 -225,-2 -113,103 -221,140 -296,101 -16,-8 -62,-52 -102,-96 -98,-108 -113,-108 -231,2 -74,69 -150,107 -214,109 -61,1 -80,-11 -172,-108 -94,-98 -107,-101 -184,-50 -46,31 -51,33 -51,15 0,-28 77,-107 132,-135 54,-28 115,-31 158,-9 16,8 52,43 81,78 114,139 160,140 290,7 77,-79 133,-105 206,-97 45,5 53,11 133,95 47,50 95,93 108,97 45,13 83,-6 168,-87 92,-86 131,-108 195,-108 56,0 94,25 157,105 99,123 156,124 270,4 75,-78 129,-109 193,-109 59,0 95,24 163,107 55,69 88,93 127,93 36,0 94,-37 137,-89 80,-95 187,-135 260,-97 15,8 60,50 100,95 109,121 151,120 272,-6 72,-74 124,-102 189,-103 58,0 95,24 159,105 93,116 148,120 258,22 210,-186 348,-225 443,-123 25,27 39,103 27,150 -8,34 -59,90 -115,128 -130,87 -132,114 -19,235 60,65 87,123 88,187 0,63 -20,95 -114,180 -64,57 -76,72 -76,99 0,41 28,86 93,150 62,61 89,113 95,183 6,68 -11,97 -103,180 -41,37 -77,76 -81,86 -14,45 6,88 73,155 74,75 113,147 113,211 0,60 -17,87 -109,173 -69,64 -81,81 -81,108 0,45 20,78 85,141 66,63 105,137 105,197 0,72 -12,91 -138,206 -41,37 -52,54 -52,78 0,42 13,64 86,141 75,77 103,134 104,202 0,63 -20,95 -114,180 -64,57 -76,72 -76,99 0,41 24,80 91,147 64,65 91,116 97,186 6,68 -11,97 -102,179 -41,37 -78,76 -82,87 -14,45 6,88 73,155 74,75 113,147 113,211 0,60 -10,76 -106,168 -74,71 -84,84 -84,116 0,40 32,89 100,153 52,49 90,126 90,182 0,72 -10,87 -133,200 -46,42 -57,58 -57,83 0,36 19,77 49,104 l 20,18 -30,38 c -18,22 -33,54 -36,77 -5,39 -4,41 71,108 102,91 120,121 114,189 -6,69 -40,137 -99,196 -77,77 -101,127 -83,174 3,8 37,41 75,72 95,77 113,109 106,185 -6,71 -38,130 -112,209 -104,110 -103,125 20,243 l 95,92 v 55 c 0,74 -35,146 -109,223 -110,116 -110,139 0,237 44,40 87,86 95,101 37,73 2,178 -96,284 -107,115 -107,139 4,239 94,86 111,115 104,184 -7,68 -40,128 -114,207 -64,67 -83,110 -70,153 4,10 36,43 72,72 93,76 118,116 112,183 -6,72 -36,130 -113,215 -99,110 -99,141 -2,223 96,82 117,112 117,173 0,71 -34,137 -113,223 -103,112 -102,139 4,233 39,35 80,78 90,94 40,65 12,178 -64,262 -52,58 -87,114 -87,139 0,25 19,43 112,108 84,59 108,97 108,169 0,127 -110,190 -241,139 z"
       id="path6" />
  </g>
</svg>
