<?xml version="1.0" standalone="no"?>
<!DOCTYPE svg PUBLIC "-//W3C//DTD SVG 20010904//EN"
 "http://www.w3.org/TR/2001/REC-SVG-20010904/DTD/svg10.dtd">
<svg version="1.0" xmlns="http://www.w3.org/2000/svg"
 width="1088.000000pt" height="1280.000000pt" viewBox="0 0 1088.000000 1280.000000"
 preserveAspectRatio="xMidYMid meet">
<metadata>
Created by potrace 1.15, written by Peter Selinger 2001-2017
</metadata>
<g transform="translate(0.000000,1280.000000) scale(0.100000,-0.100000)"
fill="#000000" stroke="none">
<path d="M337 12463 c-4 -3 -7 -858 -7 -1900 0 -1886 0 -1893 20 -1893 20 0
20 8 22 1878 l3 1877 1878 3 c1869 2 1877 2 1877 22 0 20 -7 20 -1893 20
-1042 0 -1897 -3 -1900 -7z"/>
<path d="M6760 12450 c0 -20 8 -20 1878 -22 l1877 -3 3 -1877 c2 -1870 2
-1878 22 -1878 20 0 20 6 18 1898 l-3 1897 -1897 3 c-1892 2 -1898 2 -1898
-18z"/>
<path d="M420 10525 c0 -1279 3 -1855 10 -1855 7 0 10 100 8 310 -2 229 0 306
8 295 14 -19 38 -20 31 -1 -3 8 -1 16 6 19 9 3 8 11 -3 33 -24 48 -24 50 -6
35 26 -22 32 -4 7 23 -13 13 -18 25 -12 27 7 3 3 20 -10 47 -20 39 -21 47 -9
85 8 23 19 47 25 52 7 6 15 19 19 30 3 11 16 31 27 45 20 24 20 24 9 2 -17
-35 -3 -40 15 -6 9 16 45 81 81 144 113 201 144 271 160 361 8 46 21 105 29
130 19 59 19 69 -1 69 -17 0 -17 9 2 94 6 25 4 28 -10 23 -15 -6 -17 0 -15 48
1 30 -1 58 -5 62 -14 14 -25 -22 -21 -71 3 -41 1 -35 -10 24 -20 103 -11 166
27 202 81 75 188 -19 116 -101 l-23 -26 28 24 c54 48 22 141 -49 141 -75 0
-124 -55 -124 -139 0 -23 -4 -41 -9 -41 -7 0 -91 162 -91 176 0 2 11 4 23 4
39 0 39 12 2 34 l-35 21 26 38 c15 23 31 36 39 33 46 -17 82 -16 125 6 45 23
90 77 90 107 -1 9 -7 2 -14 -14 -7 -17 -28 -43 -45 -58 -87 -73 -202 -23 -216
93 l-5 45 14 -50 c30 -105 128 -140 202 -72 28 26 37 42 41 78 4 39 2 49 -22
75 -22 24 -24 24 -11 4 20 -31 20 -63 1 -100 -43 -83 -156 -61 -172 33 -8 49
27 119 75 149 39 24 131 31 186 14 23 -7 27 -6 21 4 -5 9 -4 11 4 6 6 -4 9
-11 6 -16 -3 -5 5 -14 17 -21 22 -11 22 -11 9 7 -7 10 7 -3 33 -29 75 -79 94
-183 57 -317 -10 -36 -22 -74 -26 -85 -5 -11 -4 -17 1 -12 4 4 18 30 29 57
l21 49 34 -47 c121 -162 370 -120 425 72 70 242 -160 466 -478 466 l-89 0 30
34 c36 42 56 123 43 178 -29 125 -137 204 -276 202 -92 -1 -163 -34 -234 -109
-82 -86 -105 -146 -109 -286 -3 -99 0 -129 21 -210 14 -52 37 -121 51 -152 14
-31 23 -57 21 -57 -8 0 -29 46 -61 135 -18 50 -33 84 -34 78 0 -16 51 -174 73
-224 21 -48 10 -65 -34 -50 -42 15 -46 9 -19 -29 12 -17 21 -33 19 -34 -6 -5
-47 -26 -51 -26 -2 0 -3 349 -3 775 l0 775 778 0 c620 0 777 -3 771 -12 -21
-37 -26 -39 -62 -16 l-35 22 6 -26 c4 -15 9 -33 13 -41 10 -27 -25 -26 -93 2
-74 30 -192 65 -199 59 -2 -3 22 -12 54 -22 63 -20 174 -67 169 -72 -2 -2 -35
10 -74 26 -176 74 -378 90 -506 41 -76 -30 -167 -114 -204 -189 -24 -48 -28
-69 -28 -137 0 -67 5 -88 27 -131 72 -138 242 -186 346 -99 17 14 31 25 33 25
2 0 5 -37 5 -83 4 -206 102 -386 249 -457 66 -32 200 -35 255 -6 139 73 179
232 90 361 -15 22 -44 50 -64 60 -20 11 -36 22 -36 25 0 3 22 14 49 24 27 9
57 23 67 31 11 8 -12 2 -51 -11 -82 -30 -201 -41 -261 -25 -50 14 -115 56
-145 96 -15 18 -17 25 -6 16 15 -12 15 -9 -3 30 -45 100 -13 213 73 257 36 19
55 23 83 18 78 -15 110 -95 60 -149 -36 -39 -70 -45 -131 -22 -19 7 -19 7 -3
-10 10 -11 37 -20 66 -23 46 -4 53 -2 86 29 70 64 57 161 -27 200 -26 11 -35
19 -22 19 33 0 81 -35 99 -75 30 -63 3 -133 -68 -176 -17 -10 -26 -19 -21 -19
22 0 76 42 95 72 26 43 26 113 0 156 -29 47 -97 76 -166 70 -77 -7 -140 -49
-177 -118 -26 -50 -28 -62 -25 -130 5 -84 20 -120 76 -182 38 -43 120 -88 160
-88 28 0 28 -5 -3 -42 -34 -40 -47 -93 -34 -143 6 -22 10 -47 9 -55 -8 -72 -3
-100 19 -124 56 -60 -54 -3 -121 62 -27 25 -48 41 -48 35 0 -16 87 -91 132
-114 63 -32 132 -43 189 -29 28 7 48 15 44 18 -3 3 6 18 20 32 65 68 20 201
-65 188 l-22 -3 22 -28 c15 -19 28 -26 40 -22 13 4 22 -1 29 -14 16 -30 14
-46 -3 -31 -8 6 -25 10 -38 8 -31 -4 -34 -53 -3 -53 11 0 20 7 20 15 0 8 -8
14 -17 14 -10 -1 -15 2 -12 7 9 15 33 10 43 -9 12 -23 -6 -57 -45 -83 -44 -28
-58 -24 -33 10 17 24 19 32 9 50 -16 31 -35 20 -35 -20 0 -33 -2 -34 -40 -36
-22 -1 -35 0 -29 3 18 8 5 41 -22 59 -14 9 -24 25 -24 38 0 17 2 19 9 8 11
-17 45 -7 39 12 -3 6 -13 14 -24 16 -27 5 -34 19 -34 74 0 95 54 149 149 151
47 1 65 -4 97 -26 21 -15 45 -38 53 -50 12 -20 10 -20 -15 4 -34 32 -93 58
-129 58 -16 0 -35 -11 -50 -27 l-23 -28 26 -17 c20 -13 40 -15 91 -11 52 4 70
1 86 -12 11 -9 13 -13 5 -9 -8 5 -5 -4 8 -20 12 -16 22 -36 23 -45 0 -11 2
-12 6 -3 3 7 -2 24 -11 37 -9 14 -12 25 -7 25 35 0 42 -119 12 -179 -77 -149
-290 -162 -427 -25 -41 41 -77 93 -55 80 17 -11 13 0 -19 51 -65 102 -99 297
-65 372 27 61 18 167 -18 215 -48 63 -137 95 -210 75 -43 -11 -97 -46 -97 -63
0 -5 10 0 23 12 48 45 124 54 193 23 126 -57 138 -238 21 -325 -38 -28 -141
-34 -188 -11 -45 23 -78 53 -96 90 -11 21 -11 26 -2 18 7 -7 33 -13 59 -13 60
0 94 34 97 95 2 55 -35 94 -94 100 -34 3 -44 0 -64 -23 l-24 -27 -3 24 c-6 36
54 146 101 187 154 134 371 138 674 13 l71 -30 -14 -34 c-19 -47 -19 -47 19
-25 17 11 35 20 39 20 4 0 16 -17 26 -37 l19 -36 7 35 7 36 89 -41 c50 -23 90
-45 90 -49 0 -5 -13 -8 -29 -8 -54 0 -92 -13 -120 -41 -53 -53 -45 -130 16
-156 20 -8 37 -12 40 -9 2 2 -6 7 -19 11 -62 19 -79 89 -34 142 22 25 31 28
103 31 43 2 96 -1 118 -6 l40 -10 -53 -1 c-38 -1 -52 -5 -49 -13 3 -9 21 -12
60 -10 51 4 56 2 50 -14 -7 -18 3 -18 88 2 21 5 27 2 32 -15 5 -20 7 -20 41
-6 20 9 75 22 121 30 113 20 170 43 316 127 68 39 147 82 176 95 28 13 57 30
63 38 15 18 7 19 -21 5 -10 -6 -19 -8 -19 -6 0 3 19 15 43 27 23 12 45 26 48
32 4 5 12 6 19 2 9 -5 11 -4 6 3 -5 8 0 12 13 12 11 0 23 5 26 11 8 12 62 2
90 -17 24 -17 38 -18 29 -1 -4 6 4 2 18 -10 36 -34 67 -28 36 7 -8 8 -3 7 14
-3 30 -19 58 -22 58 -7 0 5 7 7 15 4 21 -8 19 13 -2 25 -13 7 77 10 295 11
201 0 312 4 312 10 0 7 -625 10 -1855 10 l-1855 0 0 -1855z m2737 1800 c-42
-18 -102 -48 -132 -65 -57 -32 -62 -32 -45 1 18 33 3 21 -20 -16 -12 -19 -30
-35 -39 -35 -14 0 -10 9 18 38 20 21 45 54 55 73 l19 34 -24 -21 c-40 -36 -70
-47 -152 -55 -104 -10 -139 -38 -100 -81 19 -21 91 -25 125 -7 15 8 19 8 14 0
-4 -6 0 -11 10 -11 15 0 14 -4 -6 -25 -33 -35 -129 -81 -197 -95 -83 -18 -279
-9 -322 14 -18 10 -30 13 -26 6 5 -7 -2 -9 -22 -4 -39 9 -67 27 -30 19 31 -6
35 2 10 21 -17 13 -17 15 1 29 19 14 19 15 -7 15 -23 0 -27 4 -27 27 l0 27
-16 -23 c-12 -16 -19 -20 -27 -12 -17 17 -27 13 -24 -10 4 -35 -31 -40 -88
-13 -27 13 -39 22 -26 20 23 -5 22 -3 -9 29 l-32 33 33 32 34 31 -47 -6 -48
-6 0 35 0 36 613 0 612 -1 -78 -34z m319 13 l19 -21 -30 18 c-41 26 -40 25
-23 25 8 0 23 -10 34 -22z m-1779 -174 c-3 -3 -12 -4 -19 -1 -8 3 -5 6 6 6 11
1 17 -2 13 -5z m-52 -16 c-65 -36 -96 -88 -105 -178 l-7 -65 -1 55 c-1 34 5
70 17 95 18 41 82 105 104 105 7 0 3 -6 -8 -12z m585 -78 c13 -8 13 -10 -2
-10 -9 0 -20 5 -23 10 -8 13 5 13 25 0z m107 -46 c-3 -3 -12 -4 -19 -1 -8 3
-5 6 6 6 11 1 17 -2 13 -5z m-1156 -31 c13 -15 12 -15 -8 -2 -20 12 -26 12
-45 0 -21 -13 -22 -13 -9 2 7 10 21 17 31 17 10 0 24 -7 31 -17z m-57 -49 c3
-8 2 -12 -4 -9 -6 3 -10 10 -10 16 0 14 7 11 14 -7z m57 -7 c-10 -9 -11 -8 -5
6 3 10 9 15 12 12 3 -3 0 -11 -7 -18z m-411 -205 c0 -5 -9 -17 -20 -27 -11
-10 -20 -21 -20 -25 0 -5 -13 -22 -30 -40 -36 -39 -54 -100 -45 -155 21 -132
143 -200 282 -157 189 59 465 -55 554 -229 23 -46 25 -72 4 -42 -21 30 -85 49
-113 34 -14 -8 -29 -8 -47 -1 -64 24 -147 7 -189 -39 l-20 -22 -13 53 c-25 97
-110 183 -206 209 -62 17 -149 6 -202 -26 -111 -64 -141 -230 -59 -316 l25
-26 -38 -16 c-21 -8 -41 -12 -45 -8 -15 13 -90 225 -104 290 -20 97 -18 226 6
302 24 78 79 153 144 197 60 40 136 65 136 44z m178 -37 c64 -43 87 -87 87
-170 0 -63 -3 -76 -29 -109 -53 -70 -161 -96 -235 -58 -19 9 -48 34 -65 55
-28 35 -31 46 -31 107 0 54 5 75 21 96 26 35 49 44 40 16 -5 -15 2 -29 23 -51
25 -25 39 -31 73 -31 61 0 96 38 96 103 0 33 -5 50 -16 57 -9 5 -14 10 -9 10
4 0 24 -11 45 -25z m-94 -11 c9 -3 16 -11 16 -17 0 -7 -4 -7 -12 1 -17 17 -45
15 -57 -5 -6 -10 -11 -13 -11 -7 0 26 32 40 64 28z m-22 -74 c6 0 9 -3 6 -6
-9 -8 -48 14 -48 27 0 6 7 3 16 -5 8 -9 20 -16 26 -16z m21 -347 c-13 -2 -33
-2 -45 0 -13 2 -3 4 22 4 25 0 35 -2 23 -4z m-108 -22 c-48 -22 -78 -53 -99
-101 -8 -19 -15 -29 -16 -22 -1 46 93 141 140 141 8 1 -3 -8 -25 -18z m720
-62 c101 -112 111 -264 24 -363 -40 -46 -95 -72 -130 -63 -12 3 -17 1 -13 -5
12 -19 -70 2 -94 25 -31 29 -43 81 -32 134 8 35 7 48 -6 68 -19 30 -22 30 -51
6 -42 -35 -24 -118 38 -180 19 -19 25 -29 14 -23 -52 27 -95 101 -95 164 0 81
66 148 145 148 64 0 85 -9 85 -36 0 -14 6 -24 14 -24 22 0 30 19 16 35 -10 12
-9 15 9 15 13 0 26 -10 32 -24 13 -28 49 -41 61 -23 5 7 8 0 8 -19 0 -16 -6
-39 -14 -49 -12 -17 -16 -17 -30 -6 -23 19 -45 -1 -26 -24 17 -20 32 -19 64 6
30 24 32 20 10 -27 -28 -59 -106 -82 -103 -30 1 16 2 17 6 4 5 -20 28 -24 38
-8 7 11 -12 40 -26 40 -10 0 -39 -29 -39 -40 0 -5 10 -19 23 -31 l22 -21 -25
7 c-36 11 -50 24 -50 50 0 13 -11 30 -25 39 -25 16 -25 16 -25 -17 0 -47 36
-79 98 -85 41 -4 52 0 80 23 20 17 30 21 26 11 -3 -9 -3 -16 0 -16 16 0 36 74
36 132 0 83 -34 155 -108 232 -37 38 -46 52 -26 38 17 -12 48 -40 69 -63z
m-980 -395 c17 -4 20 -12 17 -47 l-3 -42 30 33 31 32 30 -32 c26 -29 30 -30
30 -13 1 15 6 10 21 -18 11 -21 19 -50 17 -65 -3 -23 -7 -27 -32 -25 -27 2
-27 1 -11 -16 15 -18 15 -20 -7 -35 l-22 -16 28 0 c26 0 28 -2 21 -27 l-6 -27
21 19 c20 18 22 18 31 2 14 -24 28 -21 22 6 -4 18 -3 19 6 6 6 -9 13 -34 16
-55 3 -21 9 -57 15 -79 13 -55 12 -202 -1 -267 -15 -69 -49 -145 -83 -185 -22
-26 -30 -30 -41 -20 -8 8 -10 18 -4 29 17 31 10 97 -11 118 -25 25 -32 25 -54
1 -12 -13 -21 -48 -27 -101 -10 -86 -18 -110 -53 -149 l-21 -24 34 19 c19 10
52 35 73 55 31 29 38 32 38 17 0 -11 -19 -30 -47 -48 -51 -31 -52 -40 -3 -15
l29 15 -44 -83 c-24 -45 -51 -102 -61 -127 -9 -25 -20 -48 -23 -52 -3 -4 -5
268 -4 605 2 337 3 613 3 615 0 4 24 2 45 -4z m248 -204 c3 -11 1 -18 -4 -14
-5 3 -9 12 -9 20 0 20 7 17 13 -6z m-279 -1232 c9 -17 14 -33 12 -36 -4 -4
-36 51 -36 63 0 13 10 3 24 -27z"/>
<path d="M2340 12275 c-7 -8 -9 -23 -6 -32 3 -10 -3 -6 -15 10 -24 31 -49 36
-49 9 0 -26 34 -54 107 -91 76 -38 89 -39 45 -5 -32 25 -70 84 -55 84 5 0 30
-22 57 -50 62 -63 124 -93 201 -97 60 -4 60 -4 28 11 -17 8 -44 33 -59 55 -15
23 -30 41 -35 41 -16 0 -20 -20 -8 -42 23 -45 -13 0 -40 49 -31 57 -61 69 -61
26 0 -19 11 -41 33 -63 25 -26 27 -30 9 -21 -13 7 -44 39 -69 72 -48 61 -62
69 -83 44z"/>
<path d="M2560 12075 c0 -8 7 -15 15 -15 8 0 15 7 15 15 0 8 -7 15 -15 15 -8
0 -15 -7 -15 -15z"/>
<path d="M511 11517 c-23 -28 -43 -217 -23 -217 4 0 14 20 21 44 12 41 45 85
56 75 2 -3 -2 -17 -10 -33 -26 -50 -45 -128 -45 -186 0 -59 21 -143 42 -173
11 -15 13 -10 13 35 0 39 6 61 23 85 12 17 22 38 22 47 0 23 -26 20 -44 -6 -9
-12 -16 -19 -16 -15 0 14 28 61 59 101 24 30 29 42 20 52 -6 8 -17 14 -23 14
-18 0 -52 -40 -64 -75 -7 -21 -11 -24 -11 -10 -1 10 15 54 35 96 20 43 34 85
31 93 -8 19 -48 21 -66 4 -7 -7 -3 4 9 24 22 38 20 58 -4 58 -8 0 -19 -6 -25
-13z"/>
<path d="M1231 10834 c0 -11 3 -14 6 -6 3 7 2 16 -1 19 -3 4 -6 -2 -5 -13z"/>
<path d="M1464 10819 c-10 -12 -37 -30 -59 -40 -22 -10 -33 -19 -24 -19 20 0
109 57 109 70 0 15 -5 13 -26 -11z"/>
<path d="M1240 10800 c0 -14 47 -43 62 -37 8 4 6 6 -4 6 -10 1 -27 10 -38 21
-11 11 -20 16 -20 10z"/>
<path d="M520 10511 c0 -10 10 -26 23 -35 12 -9 16 -14 9 -11 -15 8 -42 -12
-42 -30 0 -7 23 -31 51 -54 28 -22 60 -53 72 -68 20 -26 19 -26 -16 5 -44 37
-87 43 -87 12 0 -15 12 -26 43 -39 23 -10 51 -29 62 -41 l20 -23 -27 17 c-39
26 -50 0 -12 -31 16 -12 33 -23 37 -23 4 0 17 -19 27 -42 l20 -43 0 47 c0 79
-35 155 -102 221 -39 38 -53 57 -41 57 9 0 37 -19 61 -42 l43 -43 -21 49 c-22
53 -55 104 -78 124 -23 18 -42 15 -42 -7z"/>
<path d="M706 10231 c-3 -5 1 -14 8 -20 16 -13 32 2 21 19 -8 12 -22 13 -29 1z"/>
<path d="M6760 12370 c0 -6 111 -10 313 -10 217 -1 307 -4 295 -11 -22 -12
-24 -33 -3 -25 8 3 15 1 15 -4 0 -14 37 -12 46 2 5 8 2 9 -11 4 -18 -7 -18 -6
0 14 10 11 25 20 33 20 13 0 12 -3 -4 -16 -18 -15 -18 -15 0 -10 15 5 17 4 7
-8 -22 -26 9 -30 36 -5 15 13 23 18 19 12 -10 -18 19 -17 33 1 6 7 25 16 41
19 32 7 95 -14 83 -28 -5 -4 -2 -5 6 0 7 4 16 3 20 -2 3 -6 25 -20 49 -32 23
-12 42 -24 42 -27 0 -2 -9 0 -19 6 -28 14 -36 13 -21 -5 6 -8 35 -25 63 -38
29 -13 108 -56 176 -95 146 -84 203 -107 316 -127 46 -8 101 -21 121 -30 34
-14 36 -14 41 6 5 17 11 20 32 15 82 -19 91 -19 91 -1 0 14 8 16 52 13 34 -2
52 1 55 10 3 8 -11 12 -49 13 l-53 1 40 10 c22 5 75 8 118 6 72 -3 81 -6 103
-31 45 -53 28 -123 -34 -142 -13 -4 -22 -9 -19 -11 11 -12 69 22 83 48 33 64
-20 142 -104 153 -81 11 -80 15 13 59 l90 43 10 -34 11 -34 17 35 c19 42 28
44 69 15 l30 -22 -8 24 c-18 57 -14 62 81 100 149 60 216 74 350 74 114 0 123
-2 186 -31 37 -18 85 -49 108 -69 46 -42 104 -151 99 -186 l-3 -24 -24 27
c-20 23 -30 26 -64 23 -59 -6 -96 -45 -94 -100 3 -61 37 -95 98 -95 25 0 51 6
58 13 9 8 9 3 -2 -18 -45 -89 -166 -131 -261 -91 -98 41 -135 202 -66 289 59
75 190 88 258 25 12 -12 22 -17 22 -10 0 33 -114 77 -171 66 -43 -9 -99 -37
-120 -60 -50 -57 -64 -156 -33 -235 30 -74 4 -242 -54 -354 -15 -27 -27 -57
-28 -66 -2 -26 -54 -88 -101 -120 -145 -100 -323 -69 -384 66 -26 57 -25 165
2 165 6 0 5 -9 -1 -21 -6 -11 -9 -28 -7 -37 4 -13 5 -12 6 4 0 12 10 33 21 46
10 14 17 28 13 31 -11 11 49 20 99 14 38 -5 58 -2 79 10 l27 16 -21 29 c-15
20 -29 28 -51 28 -45 -1 -109 -33 -140 -71 -15 -19 -23 -24 -17 -12 16 32 89
91 122 98 70 16 144 -17 175 -77 28 -54 18 -148 -16 -148 -25 0 -35 -18 -19
-36 12 -14 14 -14 26 2 12 16 13 16 13 -8 0 -18 -7 -29 -21 -33 -24 -8 -42
-46 -25 -58 6 -4 -7 -6 -29 -5 -38 3 -40 4 -40 37 0 40 -19 51 -35 22 -12 -24
-1 -54 28 -70 22 -13 1 -14 -32 -1 -37 14 -66 47 -66 75 0 28 25 44 42 27 7
-7 4 -10 -8 -9 -11 1 -19 -4 -19 -13 0 -8 9 -15 20 -15 15 0 20 7 20 25 0 32
-42 41 -62 14 -12 -17 -13 -17 -13 2 0 29 24 58 42 51 15 -5 58 29 58 46 0 20
-59 4 -84 -21 -47 -50 -43 -129 8 -171 9 -7 14 -17 11 -21 -3 -4 17 -13 45
-20 85 -20 189 13 271 87 22 20 45 46 51 57 6 12 -14 -2 -43 -31 -71 -68 -187
-130 -130 -69 25 26 38 86 24 111 -7 11 -5 31 4 59 18 53 5 110 -32 154 -31
37 -31 42 -2 42 69 0 179 88 218 174 29 65 26 161 -9 227 -90 173 -362 150
-362 -31 0 -54 27 -102 72 -130 45 -27 59 -25 18 3 -52 34 -73 70 -73 120 0
24 7 54 16 67 21 30 67 60 92 60 13 0 4 -8 -22 -19 -84 -39 -97 -136 -27 -200
33 -31 40 -33 86 -29 33 4 57 12 71 27 l22 22 -30 -15 c-16 -9 -40 -16 -53
-16 -82 0 -133 100 -78 155 59 59 168 31 213 -54 27 -53 30 -125 7 -179 -9
-20 -17 -46 -18 -57 -1 -25 -83 -81 -139 -96 -60 -16 -171 -6 -257 24 -41 14
-67 20 -56 12 10 -7 40 -22 67 -31 52 -19 60 -29 31 -38 -10 -4 -33 -21 -51
-38 -100 -98 -102 -259 -4 -349 54 -51 91 -64 183 -64 74 0 92 4 143 29 145
74 237 244 240 446 1 49 4 90 6 90 2 0 16 -11 33 -25 80 -67 221 -52 299 32
54 57 74 111 74 198 0 68 -4 89 -28 137 -37 75 -128 159 -204 189 -125 48
-326 33 -495 -36 -85 -36 -99 -40 -63 -19 17 10 71 33 120 50 50 18 85 33 78
33 -16 1 -164 -46 -219 -69 -47 -21 -79 -17 -70 7 4 8 9 26 13 41 l6 26 -35
-22 c-36 -23 -41 -21 -62 16 -6 9 152 12 774 12 l780 0 -2 -722 -3 -721 -43
-15 c-24 -8 -46 -11 -50 -8 -7 7 4 48 41 151 14 39 28 86 31 105 4 19 -7 -1
-22 -45 -28 -79 -59 -145 -67 -145 -2 0 7 24 20 53 88 200 103 406 40 544 -32
71 -115 157 -184 190 -46 23 -69 28 -131 27 -85 0 -145 -23 -199 -76 -56 -55
-74 -101 -69 -184 3 -64 7 -77 36 -113 l33 -41 -88 0 c-317 0 -548 -225 -478
-466 55 -192 304 -234 425 -72 l35 48 26 -58 c33 -70 36 -65 8 14 -16 42 -22
85 -23 149 -1 105 19 157 81 215 20 19 31 27 24 17 -11 -14 -4 -13 40 8 69 32
131 33 190 2 76 -40 112 -139 72 -197 -23 -34 -33 -40 -71 -40 -46 0 -80 26
-93 70 -10 31 -9 44 5 71 l17 34 -23 -23 c-18 -18 -23 -34 -23 -73 0 -46 4
-54 37 -85 31 -28 45 -34 82 -34 70 0 109 41 129 135 3 11 3 0 1 -25 -7 -80
-76 -139 -147 -126 -44 8 -95 49 -113 91 -7 16 -13 23 -14 14 -1 -59 108 -136
175 -123 44 8 98 52 115 94 20 49 9 151 -23 198 -52 79 -172 120 -273 93 -97
-26 -182 -113 -207 -211 l-13 -51 -20 22 c-10 11 -31 27 -46 35 -29 15 -110
18 -143 5 -11 -5 -32 -4 -47 1 -35 12 -92 -6 -114 -35 l-16 -22 7 25 c10 35
59 110 92 142 118 112 339 171 478 126 139 -45 262 27 281 164 8 57 -8 107
-47 149 -16 17 -29 34 -29 39 0 4 -9 15 -20 25 -29 26 -25 38 13 30 91 -20
184 -100 234 -204 23 -47 28 -72 31 -163 6 -145 -17 -247 -97 -431 l-20 -47
-36 14 c-41 17 -42 15 -15 -29 l20 -32 -35 -18 c-37 -21 -37 -35 1 -35 13 0
24 -2 24 -4 0 -14 -84 -176 -91 -176 -5 0 -9 18 -9 40 0 85 -47 140 -120 140
-73 0 -107 -92 -52 -141 l27 -24 -22 26 c-48 54 -17 129 53 129 47 0 89 -41
98 -97 7 -39 -11 -203 -21 -203 -3 0 -3 21 1 48 6 46 -5 84 -20 69 -4 -4 -6
-32 -5 -62 2 -48 0 -54 -15 -48 -14 5 -16 2 -10 -23 19 -85 19 -94 2 -94 -18
0 -21 -22 -6 -50 6 -11 17 -59 25 -107 22 -126 37 -166 116 -303 39 -68 86
-153 104 -191 36 -70 63 -101 51 -58 -5 16 2 10 19 -16 17 -27 25 -50 22 -72
-1 -17 1 -29 5 -27 4 3 8 15 8 27 1 15 6 9 15 -18 17 -44 11 -90 -13 -118 -12
-14 -13 -20 -4 -26 9 -5 7 -12 -8 -26 -26 -23 -26 -38 0 -30 19 6 19 6 2 -25
-14 -25 -15 -32 -3 -39 7 -5 10 -14 7 -20 -12 -18 16 -12 30 7 10 14 13 -37
14 -292 0 -171 3 -312 5 -315 3 -2 5 831 5 1852 l0 1857 -1855 0 c-1230 0
-1855 -3 -1855 -10z m2120 -46 l0 -35 -47 6 -48 6 35 -30 34 -31 -33 -34 c-32
-33 -32 -35 -10 -30 13 2 2 -7 -26 -20 -57 -27 -92 -22 -88 13 3 19 0 20 -16
11 -16 -8 -23 -6 -35 12 l-16 22 0 -27 c0 -21 -5 -27 -21 -27 -18 0 -19 -2 -9
-15 10 -13 9 -19 -6 -36 -18 -20 -18 -20 11 -14 39 8 12 -9 -28 -19 -20 -5
-27 -3 -22 4 4 7 -8 4 -26 -6 -43 -23 -239 -32 -322 -14 -68 14 -164 60 -197
95 -20 21 -21 25 -6 25 10 0 14 5 10 11 -5 8 -1 8 14 0 31 -17 103 -14 124 6
44 40 6 72 -99 82 -82 8 -111 19 -152 55 l-24 21 16 -25 c19 -28 22 -44 6 -34
-6 3 -4 -8 5 -24 9 -17 16 -34 16 -37 0 -4 -26 8 -57 26 -32 18 -91 48 -133
66 l-75 33 613 0 612 0 0 -36z m-908 -96 c20 -18 20 -18 0 -18 -12 0 -29 13
-41 34 -27 42 -27 59 0 26 11 -14 29 -33 41 -42z m1245 -64 c-3 -3 -12 -4 -19
-1 -8 3 -5 6 6 6 11 1 17 -2 13 -5z m68 -35 c33 -30 66 -77 65 -96 -1 -4 -8 6
-17 22 -21 41 -43 65 -78 86 -16 11 -25 19 -18 19 7 0 28 -14 48 -31z m-600
-59 c-3 -5 -14 -10 -23 -10 -15 0 -15 2 -2 10 20 13 33 13 25 0z m-108 -46
c-3 -3 -12 -4 -19 -1 -8 3 -5 6 6 6 11 1 17 -2 13 -5z m780 -86 c-2 -18 -4 -6
-4 27 0 33 2 48 4 33 2 -15 2 -42 0 -60z m414 55 c13 -15 12 -15 -8 -2 -20 12
-26 12 -45 0 -21 -13 -22 -13 -9 2 7 10 21 17 31 17 10 0 24 -7 31 -17z m-57
-49 c3 -8 2 -12 -4 -9 -6 3 -10 10 -10 16 0 14 7 11 14 -7z m57 -7 c-10 -9
-11 -8 -5 6 3 10 9 15 12 12 3 -3 0 -11 -7 -18z m-440 -90 c-10 -9 -11 -8 -5
6 3 10 9 15 12 12 3 -3 0 -11 -7 -18z m646 -142 c-8 -8 -15 -33 -15 -56 -1
-92 99 -134 168 -70 25 22 30 34 25 51 -10 33 15 21 43 -20 24 -36 30 -108 11
-157 -35 -93 -149 -138 -246 -98 -72 30 -113 92 -113 171 0 61 23 106 78 154
42 37 81 57 49 25z m114 -32 c13 -15 12 -15 -8 -2 -20 12 -26 12 -45 0 -21
-13 -22 -13 -9 2 7 10 21 17 31 17 10 0 24 -7 31 -17z m-57 -49 c3 -8 2 -12
-4 -9 -6 3 -10 10 -10 16 0 14 7 11 14 -7z m52 -10 c-11 -8 -25 -14 -30 -13
-6 0 -1 5 12 11 12 6 22 16 22 21 0 6 3 7 7 3 5 -4 -1 -14 -11 -22z m-3 -351
c-13 -2 -33 -2 -45 0 -13 2 -3 4 22 4 25 0 35 -2 23 -4z m-617 -63 c-81 -84
-109 -151 -104 -244 3 -60 8 -80 31 -113 27 -38 91 -83 118 -83 8 1 -2 8 -21
16 -39 17 -76 49 -92 79 -8 14 -3 12 23 -9 29 -24 39 -28 81 -24 66 7 118 59
102 103 -9 22 -54 -11 -54 -40 0 -26 -14 -39 -50 -50 l-25 -7 23 21 c12 12 22
26 22 31 0 11 -29 40 -39 40 -14 0 -33 -29 -26 -40 10 -16 33 -12 38 8 4 13 5
12 6 -4 3 -52 -75 -29 -103 30 -23 48 -20 59 9 31 28 -29 47 -31 65 -10 19 23
-3 43 -26 24 -14 -11 -18 -11 -30 6 -16 22 -19 71 -4 80 6 3 10 0 10 -8 0 -23
36 -9 49 19 6 14 19 24 32 24 18 0 19 -3 9 -15 -14 -16 -6 -35 16 -35 13 0 18
11 15 36 -3 29 111 32 157 4 88 -54 96 -173 18 -258 -11 -13 -30 -28 -41 -33
-14 -7 -12 -3 6 13 69 60 92 160 44 192 -32 21 -32 21 -49 -13 -12 -22 -13
-36 -5 -67 13 -47 0 -101 -33 -131 -24 -22 -106 -44 -95 -26 4 6 -3 8 -17 6
-62 -12 -156 73 -176 159 -25 103 14 213 106 297 31 28 58 51 61 51 3 0 -20
-27 -51 -60z m687 49 c46 -24 108 -97 107 -126 -1 -4 -8 6 -17 22 -24 46 -54
76 -98 96 -22 10 -34 19 -27 19 7 0 23 -5 35 -11z m307 -389 c0 -54 -6 -59
-39 -32 l-21 17 26 33 c14 17 27 32 30 32 2 0 4 -22 4 -50z m-3 -689 c2 -338
-1 -610 -6 -605 -4 5 -20 39 -34 75 -14 36 -41 92 -60 125 -36 60 -40 77 -12
54 9 -7 18 -10 21 -8 3 3 -11 16 -30 28 -20 12 -36 30 -36 39 0 14 9 10 39
-18 22 -20 54 -45 73 -55 l33 -20 -28 33 c-31 37 -34 47 -46 149 -9 68 -29
112 -53 112 -4 0 -17 -9 -28 -20 -21 -21 -28 -87 -11 -118 6 -11 4 -21 -4 -29
-27 -25 -91 79 -121 197 -22 86 -16 269 10 319 10 18 13 30 7 27 -14 -9 -13 0
4 44 12 30 14 32 14 11 1 -23 2 -23 19 -8 17 15 19 15 35 -1 17 -16 17 -16 15
8 -2 20 2 26 21 28 l23 4 -22 15 c-20 14 -21 16 -3 35 17 19 17 19 -9 13 -21
-5 -27 -3 -33 15 -9 28 25 123 34 97 6 -16 10 -14 36 13 l29 30 28 -33 29 -32
-3 42 c-4 44 4 53 47 50 20 -2 20 -10 22 -616z m-295 397 c-8 -8 -9 -4 -5 13
4 13 8 18 11 10 2 -7 -1 -18 -6 -23z m283 -1228 c-9 -18 -19 -30 -21 -27 -3 2
3 18 13 35 10 17 19 29 21 27 2 -2 -4 -17 -13 -35z"/>
<path d="M8493 12259 c-15 -18 -43 -49 -62 -68 -32 -35 -33 -35 -12 -4 12 17
21 43 21 58 0 41 -30 28 -60 -27 -14 -26 -31 -53 -39 -60 -11 -11 -12 -10 -2
9 28 55 -5 59 -40 6 -13 -21 -40 -46 -59 -56 l-35 -18 60 3 c77 5 143 37 204
99 27 27 51 49 55 49 14 0 -26 -60 -56 -84 -44 -34 -31 -33 45 5 73 37 107 65
107 91 0 24 -27 23 -42 -1 -12 -19 -12 -19 -22 1 -17 33 -32 32 -63 -3z"/>
<path d="M8300 12075 c0 -8 7 -15 15 -15 8 0 15 7 15 15 0 8 -7 15 -15 15 -8
0 -15 -7 -15 -15z"/>
<path d="M9652 10830 c0 -14 2 -19 5 -12 2 6 2 18 0 25 -3 6 -5 1 -5 -13z"/>
<path d="M9610 10779 c-19 -11 -28 -19 -19 -19 9 0 27 9 40 20 29 23 25 23
-21 -1z"/>
<path d="M10328 10518 c-22 -19 -52 -67 -77 -123 l-22 -50 43 43 c24 23 52 42
61 42 12 0 0 -17 -38 -54 -66 -65 -95 -126 -102 -210 l-5 -61 22 43 c12 23 25
42 29 42 3 0 19 11 35 23 38 31 27 57 -12 31 l-27 -17 20 23 c11 12 39 31 63
41 30 13 42 24 42 39 0 29 -41 26 -82 -6 -18 -14 -1 4 37 40 60 56 68 68 59
83 -7 10 -20 17 -29 16 -14 -1 -11 5 10 21 16 13 25 28 21 34 -9 15 -28 15
-48 0z"/>
<path d="M10154 10229 c-10 -17 13 -36 27 -22 12 12 4 33 -11 33 -5 0 -12 -5
-16 -11z"/>
<path d="M996 12332 c-6 -10 9 -25 34 -35 8 -3 3 -6 -13 -6 -15 -1 -45 8 -67
19 -47 24 -69 25 -77 4 -8 -23 17 -43 73 -59 69 -19 20 -18 -76 1 -64 13 -83
14 -95 4 -20 -16 -19 -29 2 -53 17 -18 17 -18 -9 -7 -31 15 -58 7 -58 -15 0
-38 103 -38 207 0 l38 14 -43 0 c-36 1 -112 23 -112 33 0 2 55 3 122 3 121 0
124 1 185 34 34 18 70 42 79 52 17 18 16 19 -15 8 -30 -11 -79 -8 -142 7 -15
3 -29 1 -33 -4z"/>
<path d="M9704 12321 c9 -10 45 -34 79 -52 61 -33 64 -34 185 -34 67 0 122 -1
122 -3 0 -10 -76 -32 -112 -33 l-43 -1 60 -20 c110 -35 213 -24 185 21 -7 12
-15 13 -45 4 -35 -11 -36 -11 -21 6 20 22 20 35 1 51 -12 10 -31 9 -95 -4 -96
-19 -145 -20 -76 -1 56 16 81 36 73 59 -8 21 -30 20 -77 -4 -22 -11 -52 -20
-67 -20 l-28 0 24 13 c13 6 22 17 20 22 -4 11 -16 11 -91 -1 -27 -4 -60 -2
-79 5 -31 11 -32 10 -15 -8z"/>
<path d="M1370 12310 c-64 -8 -100 -24 -100 -46 0 -23 28 -28 56 -9 25 16 26
16 16 -1 -12 -21 1 -54 22 -54 7 0 47 16 89 35 42 19 84 35 94 35 10 0 0 -9
-22 -19 -47 -21 -68 -43 -63 -67 5 -29 22 -26 71 11 25 19 59 40 74 45 l28 10
-27 -21 c-16 -11 -28 -25 -28 -30 0 -17 42 -9 73 13 22 16 46 22 85 23 l54 0
-54 25 c-44 20 -68 25 -143 25 -77 0 -98 -4 -149 -28 -32 -15 -63 -27 -69 -27
-26 0 35 44 84 61 48 16 50 18 22 19 -17 0 -37 2 -45 4 -7 2 -38 0 -68 -4z"/>
<path d="M9429 12291 c49 -17 110 -61 84 -61 -6 0 -37 12 -69 27 -79 37 -213
39 -286 6 -27 -12 -48 -23 -48 -25 0 -2 22 -3 49 -4 33 -1 59 -8 79 -22 31
-22 72 -29 72 -13 0 5 -12 19 -27 30 l-28 21 30 -11 c17 -6 50 -26 74 -45 47
-36 64 -39 69 -10 5 24 -16 46 -63 67 -26 12 -33 19 -20 19 11 0 53 -16 94
-35 81 -39 93 -41 110 -21 9 11 10 20 1 36 -11 21 -11 21 14 5 29 -19 56 -14
56 10 0 27 -63 45 -157 45 l-88 -1 54 -18z"/>
<path d="M635 12160 c15 -19 99 -110 186 -202 87 -92 176 -191 198 -220 53
-71 108 -184 124 -255 l14 -58 47 -8 c62 -10 140 -45 217 -98 131 -89 316
-290 363 -396 l19 -43 59 0 58 0 0 60 c0 55 -2 60 -25 66 -86 21 -329 241
-420 379 -56 85 -95 177 -95 224 0 27 -4 30 -52 41 -67 16 -182 68 -244 111
-41 28 -129 107 -423 383 -40 38 -47 42 -26 16z"/>
<path d="M10095 12019 c-93 -89 -199 -185 -235 -216 -71 -60 -216 -134 -296
-153 l-51 -11 -6 -50 c-13 -106 -95 -234 -244 -382 -104 -103 -192 -171 -250
-193 l-43 -17 0 -58 0 -59 59 0 59 0 27 56 c57 117 233 303 373 395 67 44 163
84 221 91 20 2 26 12 37 58 19 74 85 207 134 269 22 28 113 128 203 222 144
153 195 210 185 209 -2 -1 -79 -73 -173 -161z"/>
<path d="M2900 12096 c-47 -25 -90 -76 -90 -108 0 -11 5 -16 10 -13 6 3 10 17
10 30 0 36 80 92 150 106 l35 7 -35 1 c-20 0 -55 -9 -80 -23z"/>
<path d="M7885 12115 c6 -2 26 -6 46 -9 51 -9 129 -70 129 -101 0 -13 5 -27
10 -30 19 -11 10 32 -12 65 -29 41 -102 80 -148 79 -19 0 -30 -2 -25 -4z"/>
<path d="M593 12056 c5 -32 4 -35 -12 -26 -13 6 -24 5 -37 -4 -19 -14 -17 -31
12 -173 2 -13 0 -23 -6 -23 -5 0 -10 11 -10 24 0 30 -42 82 -58 72 -18 -11
-15 -42 8 -86 11 -22 20 -52 19 -67 l-1 -28 -7 25 c-8 28 -41 41 -41 16 0 -9
5 -36 12 -61 9 -33 9 -56 1 -85 -10 -40 -10 -40 9 -24 10 10 33 47 51 83 31
63 32 71 32 183 -1 64 2 115 7 112 11 -7 28 -74 29 -114 l0 -35 16 40 c8 22
16 76 16 120 2 77 1 80 -22 83 -22 4 -24 1 -18 -32z"/>
<path d="M10256 12074 c-11 -28 -6 -94 11 -162 10 -37 19 -58 20 -47 9 58 25
125 32 129 4 3 7 -48 6 -112 0 -112 1 -120 32 -183 18 -36 42 -74 54 -85 22
-19 22 -19 14 1 -11 24 -11 97 0 148 6 30 5 37 -8 37 -8 0 -20 -12 -25 -27
l-10 -28 -1 28 c-1 15 8 45 19 67 22 44 26 75 9 86 -21 13 -53 -34 -61 -89 -5
-42 -6 -38 -3 23 2 41 7 96 11 121 5 38 3 47 -11 52 -9 4 -25 2 -35 -3 -17 -9
-18 -7 -13 25 5 30 3 35 -15 35 -11 0 -23 -7 -26 -16z"/>
<path d="M2965 12052 c0 -21 -5 -28 -23 -30 -13 -2 -30 2 -39 10 -14 11 -13 8
1 -15 15 -22 16 -30 6 -42 -20 -24 -39 -17 -49 18 l-9 32 -1 -37 c-1 -45 7
-68 24 -68 16 0 55 52 55 72 0 7 10 18 22 23 24 11 36 41 21 56 -5 5 -9 -3 -8
-19z"/>
<path d="M7914 12065 c-9 -22 3 -46 26 -52 11 -3 20 -12 20 -20 0 -21 39 -73
55 -73 17 0 25 23 24 68 l-1 37 -9 -32 c-10 -35 -29 -42 -49 -18 -10 12 -9 20
6 42 14 23 15 26 1 15 -9 -8 -26 -12 -39 -10 -18 2 -23 9 -23 31 1 30 -3 34
-11 12z"/>
<path d="M1683 12059 c-40 -15 -42 -78 -1 -100 26 -14 81 -4 101 19 8 9 18 31
22 47 7 30 7 30 -12 -5 -33 -63 -108 -66 -108 -4 0 22 6 29 25 34 18 4 21 8
10 12 -8 3 -25 2 -37 -3z"/>
<path d="M9169 12060 c-8 -6 -5 -9 12 -12 19 -2 24 -9 24 -32 0 -62 -76 -60
-107 4 -10 19 -18 29 -18 22 0 -28 30 -70 59 -82 40 -16 79 -6 93 25 20 45
-24 98 -63 75z"/>
<path d="M2598 11982 c-25 -29 -28 -60 -7 -86 33 -42 109 -17 109 37 0 54 -69
87 -102 49z"/>
<path d="M8205 11974 c-31 -47 -7 -96 50 -100 32 -3 66 34 58 65 -14 61 -78
81 -108 35z"/>
<path d="M2720 11980 c0 -5 5 -10 10 -10 6 0 10 5 10 10 0 6 -4 10 -10 10 -5
0 -10 -4 -10 -10z"/>
<path d="M8150 11980 c0 -5 5 -10 10 -10 6 0 10 5 10 10 0 6 -4 10 -10 10 -5
0 -10 -4 -10 -10z"/>
<path d="M2137 11895 c-15 -14 -24 -25 -19 -25 5 0 19 11 32 25 30 32 23 32
-13 0z"/>
<path d="M8747 11889 c12 -12 24 -21 27 -18 2 2 -8 13 -22 23 l-27 19 22 -24z"/>
<path d="M1927 11870 c-14 -16 -32 -30 -40 -30 -22 0 -42 -29 -30 -41 8 -8 11
-6 10 7 -2 15 4 19 29 18 25 -1 31 2 27 16 -3 10 2 20 12 24 21 8 35 0 36 -22
0 -9 5 -4 9 12 17 54 -14 63 -53 16z"/>
<path d="M8911 11863 c0 -33 1 -35 9 -15 10 24 18 26 39 13 8 -5 11 -16 6 -30
-6 -20 -5 -21 13 -10 26 16 56 4 47 -19 -5 -13 -4 -14 6 -5 14 14 -4 43 -28
43 -8 0 -26 14 -40 30 -35 42 -53 39 -52 -7z"/>
<path d="M1999 11853 c-1 -10 -1 -21 0 -25 1 -13 -51 -48 -86 -57 -20 -6 -49
-8 -67 -6 l-31 5 33 -10 c67 -21 162 28 162 85 0 28 -9 35 -11 8z"/>
<path d="M8881 11847 c-2 -57 96 -110 163 -89 29 9 29 9 -15 9 -65 0 -120 29
-135 73 -12 34 -12 34 -13 7z"/>
<path d="M10335 11520 c-4 -6 3 -27 15 -48 12 -20 16 -31 9 -24 -18 17 -58 15
-66 -4 -3 -8 11 -50 31 -93 20 -42 36 -83 36 -91 -1 -8 -7 -1 -14 15 -17 39
-51 69 -71 62 -17 -7 -20 -43 -4 -53 14 -8 69 -95 69 -108 0 -6 -7 0 -16 12
-15 22 -44 30 -44 13 0 -6 11 -31 25 -57 14 -26 25 -65 26 -88 l1 -41 21 45
c33 69 31 213 -4 298 -15 34 -23 62 -19 62 16 0 50 -52 56 -86 3 -19 11 -37
17 -41 15 -9 3 167 -14 203 -15 30 -42 43 -54 24z"/>
<path d="M8852 11430 c0 -14 2 -19 5 -12 2 6 2 18 0 25 -3 6 -5 1 -5 -13z"/>
<path d="M2027 11411 c-4 -20 -24 -51 -51 -77 -47 -48 -49 -53 -10 -28 31 21
77 98 72 121 -2 11 -7 5 -11 -16z"/>
<path d="M8860 11396 c0 -17 41 -74 65 -90 38 -25 40 -19 4 11 -17 15 -40 41
-50 58 -11 16 -19 26 -19 21z"/>
<path d="M763 11140 c-26 -11 -38 -43 -24 -67 9 -16 10 -14 11 9 0 21 6 29 27
34 33 9 57 -19 48 -56 -9 -35 -23 -49 -59 -59 -26 -8 -27 -9 -8 -10 33 -1 60
15 77 49 21 40 19 57 -10 85 -26 27 -30 28 -62 15z"/>
<path d="M10078 11139 c-31 -18 -40 -46 -28 -84 13 -41 44 -65 80 -64 22 0 21
2 -10 12 -43 15 -65 54 -50 92 8 21 16 26 38 23 19 -2 28 -9 30 -25 4 -27 22
-31 22 -5 0 40 -49 70 -82 51z"/>
<path d="M1031 10930 c-1 -56 -28 -111 -61 -127 -23 -12 -23 -13 -4 -13 11 0
29 9 38 19 25 27 44 101 35 136 -6 27 -7 25 -8 -15z"/>
<path d="M9854 10914 c2 -70 33 -124 69 -123 l22 0 -22 9 c-33 13 -55 54 -64
118 l-8 57 3 -61z"/>
<path d="M967 10933 c-4 -3 -7 -13 -7 -20 0 -8 -13 -26 -30 -40 -53 -44 -36
-74 30 -53 l25 8 -27 1 c-28 1 -35 15 -19 40 7 10 13 11 32 1 20 -10 22 -10
12 1 -7 7 -13 24 -13 37 0 20 4 24 25 20 13 -3 22 -1 19 3 -6 11 -38 12 -47 2z"/>
<path d="M9918 10915 c2 -14 -2 -33 -9 -42 -13 -15 -12 -15 9 -4 27 14 42 7
42 -20 0 -14 -7 -19 -27 -20 l-28 -1 25 -8 c66 -21 83 9 30 53 -16 14 -30 32
-30 41 0 8 -4 17 -9 20 -4 3 -6 -6 -3 -19z"/>
<path d="M817 10202 c-38 -42 -8 -102 49 -102 51 0 76 76 36 107 -25 18 -66
16 -85 -5z"/>
<path d="M9988 10207 c-22 -17 -25 -57 -8 -84 30 -47 110 -19 110 39 0 48 -62
75 -102 45z"/>
<path d="M805 10071 c-6 -11 9 -23 19 -14 9 9 7 23 -3 23 -6 0 -12 -4 -16 -9z"/>
<path d="M10066 10071 c-4 -5 -2 -12 3 -15 5 -4 12 -2 15 3 4 5 2 12 -3 15 -5
4 -12 2 -15 -3z"/>
<path d="M752 9965 c-36 -26 -72 -97 -71 -141 l1 -39 9 45 c12 61 56 122 99
137 31 10 32 12 10 12 -14 1 -35 -6 -48 -14z"/>
<path d="M10100 9967 c43 -15 91 -81 101 -139 l6 -43 2 41 c1 29 -7 53 -28 86
-32 50 -57 68 -93 67 -18 0 -16 -3 12 -12z"/>
<path d="M808 9934 c35 -15 38 -30 9 -48 -12 -8 -21 -5 -38 9 l-22 20 12 -22
c14 -28 14 -35 -3 -58 -14 -19 -14 -19 -36 0 -16 15 -20 16 -15 3 4 -9 14 -19
22 -22 18 -7 53 20 53 41 0 7 8 13 18 13 9 0 31 11 47 25 29 24 29 25 11 40
-11 8 -36 15 -55 14 l-36 -1 33 -14z"/>
<path d="M10025 9936 c-18 -13 -18 -15 10 -40 15 -14 36 -26 46 -26 11 0 19
-6 19 -13 0 -21 35 -48 53 -41 8 3 18 13 22 22 5 13 1 12 -15 -3 -22 -19 -22
-19 -36 0 -17 23 -17 30 -3 58 l12 22 -22 -20 c-17 -14 -26 -17 -38 -9 -29 18
-26 33 9 48 l33 14 -36 1 c-19 1 -44 -5 -54 -13z"/>
<path d="M470 9571 c0 -11 4 -22 9 -25 4 -3 6 6 3 19 -5 30 -12 33 -12 6z"/>
<path d="M330 2340 l0 -1900 1900 0 c1893 0 1900 0 1900 20 0 20 -7 20 -1880
20 l-1880 0 0 1880 c0 1873 0 1880 -20 1880 -20 0 -20 -7 -20 -1900z"/>
<path d="M420 2387 l0 -1857 1858 2 c1021 2 1715 5 1542 8 -250 4 -311 7 -295
17 16 9 18 14 8 24 -7 7 -13 9 -13 5 0 -5 -7 -3 -15 4 -12 10 -20 9 -40 -4
-30 -20 -41 -21 -26 -2 19 23 -4 28 -24 6 -11 -12 -21 -16 -25 -10 -4 6 -22 1
-48 -12 -41 -20 -45 -20 -90 -5 -28 9 -38 16 -25 16 12 1 24 5 27 9 3 5 -8 7
-23 4 -16 -2 -46 5 -70 17 -45 24 -53 32 -19 23 37 -9 10 18 -39 39 -24 10
-102 53 -174 94 -151 89 -224 118 -342 139 -48 8 -95 20 -106 25 -29 16 -51
13 -51 -5 0 -17 -22 -16 -92 1 -22 6 -28 4 -28 -9 0 -13 -11 -16 -56 -16 -40
0 -54 -3 -51 -12 3 -9 22 -12 61 -10 31 2 56 1 56 -1 0 -11 -166 -28 -203 -21
-55 9 -97 51 -97 96 0 46 19 69 66 78 38 7 38 8 7 9 -46 2 -87 -36 -87 -81 0
-76 56 -117 161 -120 38 -1 60 -3 50 -5 -9 -3 -58 -24 -107 -49 -50 -24 -92
-44 -95 -44 -2 0 -7 14 -10 32 l-7 32 -22 -37 -22 -36 -33 20 c-41 25 -47 20
-26 -20 l16 -31 -48 -21 c-170 -75 -295 -103 -435 -97 -93 3 -111 7 -170 36
-86 42 -161 122 -184 197 -10 30 -15 58 -11 61 4 4 31 -14 61 -40 60 -51 110
-76 153 -76 78 0 163 52 189 117 19 44 18 134 -2 183 -21 53 -12 175 20 270
46 136 150 252 254 285 23 7 23 6 -2 -18 -30 -30 -41 -67 -30 -104 4 -16 6
-32 4 -38 -24 -86 -16 -136 31 -190 28 -31 29 -35 11 -35 -11 0 -39 -7 -62
-15 -155 -55 -234 -244 -162 -386 38 -76 92 -112 177 -117 78 -5 114 8 155 55
25 28 30 42 30 84 0 27 -7 63 -15 79 -16 32 -80 80 -105 80 -8 0 0 -8 18 -17
78 -38 111 -138 66 -200 -27 -37 -80 -63 -124 -62 -27 1 -29 3 -10 6 87 14
129 48 137 110 9 69 -51 143 -115 143 -30 0 -92 -26 -92 -39 0 -5 14 -3 30 6
40 20 83 9 115 -29 36 -43 34 -89 -7 -123 -27 -23 -39 -26 -79 -23 -26 3 -60
15 -79 28 -67 48 -90 163 -48 250 12 25 22 49 22 54 1 6 20 24 43 42 51 39
135 59 209 50 45 -5 75 -13 189 -50 11 -4 -7 7 -40 24 -33 16 -67 30 -74 30
-8 0 6 13 32 29 185 118 135 397 -79 441 -236 49 -443 -173 -448 -482 -1 -86
-1 -86 -21 -68 -39 35 -83 50 -147 50 -81 0 -151 -38 -196 -105 -136 -206 19
-476 295 -516 113 -16 278 14 420 76 29 13 53 22 53 19 0 -7 -79 -42 -160 -71
-37 -13 -50 -20 -30 -17 19 4 78 22 130 40 131 47 142 46 120 -12 -14 -36 -7
-40 28 -15 l30 21 16 -25 c9 -13 16 -27 16 -30 0 -3 -349 -4 -775 -3 l-775 3
-2 716 c-1 394 2 721 6 727 4 7 4 12 -1 12 -4 0 -8 23 -8 50 0 28 2 50 5 50 3
0 15 -8 28 -18 l23 -18 -22 -27 c-26 -34 -20 -43 22 -28 18 6 34 9 36 7 11
-10 2 -49 -30 -131 -19 -49 -38 -106 -41 -125 -4 -22 3 -10 18 30 29 80 64
160 69 160 2 0 -11 -39 -29 -87 -52 -138 -67 -218 -62 -341 3 -95 7 -115 35
-174 37 -79 100 -146 175 -185 46 -24 64 -28 138 -28 77 0 90 3 140 31 120 68
167 197 112 309 -8 17 -21 37 -28 46 -13 14 -5 17 81 22 213 14 375 107 442
254 74 161 9 335 -141 378 -104 30 -220 -13 -272 -101 l-27 -45 -21 53 c-12
29 -28 62 -35 73 l-13 20 7 -20 c4 -11 16 -44 26 -74 29 -84 35 -176 15 -246
-14 -45 -29 -70 -68 -109 -28 -28 -45 -43 -38 -33 11 15 8 15 -31 -3 -58 -26
-138 -26 -189 0 -58 29 -85 74 -85 138 0 46 4 57 28 78 36 31 78 31 116 -2 38
-32 49 -80 27 -123 -22 -41 -11 -40 14 2 36 59 18 130 -43 167 -41 25 -83 25
-124 0 -37 -22 -51 -45 -63 -103 -6 -31 -8 -35 -9 -15 -3 66 47 136 107 151
54 13 162 -53 162 -100 0 -9 3 -13 6 -10 14 13 -21 71 -59 98 -75 55 -178 30
-219 -51 -21 -42 -23 -128 -5 -173 38 -89 117 -137 224 -137 80 0 132 21 191
75 46 41 92 125 92 168 l0 29 35 -31 c51 -45 103 -57 159 -39 30 10 50 12 61
5 25 -14 85 -1 111 24 54 51 -2 -56 -63 -122 -25 -27 -41 -49 -35 -49 17 0 89
88 114 138 27 56 36 167 18 213 -7 16 -15 28 -17 25 -3 -2 -21 7 -40 20 -38
26 -67 30 -107 14 -42 -16 -66 -47 -66 -85 l0 -35 25 22 c14 12 25 32 25 44 0
22 25 44 51 44 8 0 6 -7 -5 -19 -14 -15 -15 -24 -6 -40 13 -25 48 -28 57 -5 3
8 0 21 -6 27 -10 9 -16 7 -28 -8 l-15 -20 4 20 c8 46 73 23 104 -37 18 -36 18
-58 -1 -31 -18 26 -49 34 -71 18 -22 -16 -8 -38 19 -31 12 3 27 0 34 -6 16
-13 17 -64 1 -74 -7 -4 -8 -3 -4 4 15 24 -32 11 -48 -13 -10 -14 -26 -25 -39
-25 -15 0 -18 3 -9 8 15 10 5 45 -12 39 -6 -2 -12 -13 -14 -25 -5 -30 -64 -45
-117 -31 -69 19 -115 77 -115 145 0 51 35 119 73 146 l32 21 -32 -34 c-59 -63
-71 -139 -28 -179 14 -13 26 -22 28 -19 33 45 37 60 27 101 -9 39 -1 111 11
98 2 -3 17 5 33 18 55 42 158 23 211 -40 14 -16 25 -26 25 -21 0 15 -63 71
-93 82 -46 18 -111 13 -140 -9 -23 -18 -25 -19 -31 -3 -4 10 -4 14 0 11 4 -4
16 -1 28 7 27 19 107 19 154 0 85 -36 127 -106 127 -215 -1 -62 -5 -84 -28
-128 -27 -52 -92 -123 -130 -144 -14 -7 -17 -7 -13 1 11 17 0 13 -51 -19 -102
-65 -292 -99 -372 -66 -92 36 -203 12 -254 -56 -70 -95 -62 -178 29 -284 26
-30 44 -57 40 -61 -3 -4 -31 1 -61 11 -75 23 -155 98 -197 184 -30 60 -33 77
-36 172 -4 119 15 221 68 358 42 109 51 119 85 104 37 -17 40 -11 16 29 l-21
34 43 22 c32 17 37 22 20 23 -53 1 -54 6 -7 106 24 53 44 102 44 109 0 8 4 16
9 19 5 4 6 -5 2 -21 -10 -37 4 -129 24 -159 16 -25 70 -54 99 -54 8 0 28 12
45 26 25 21 31 33 29 62 l-1 37 -4 -36 c-5 -44 -30 -70 -70 -71 -37 -1 -69 16
-90 49 -20 30 -22 149 -4 213 9 33 10 32 8 -20 -2 -43 1 -55 13 -55 12 0 14
11 12 53 -3 44 -1 52 13 52 14 0 16 6 11 28 -19 82 -19 92 -2 92 18 0 21 22 6
51 -6 10 -18 60 -26 111 -20 118 -43 174 -136 334 -41 71 -84 150 -95 175 -22
49 -51 80 -38 40 11 -35 -3 -24 -27 22 -12 23 -21 51 -20 62 1 18 1 18 -6 2
-6 -14 -10 -8 -20 26 -14 45 -12 52 26 131 3 5 0 6 -7 2 -20 -12 -12 5 11 23
12 11 18 23 14 30 -6 9 -11 9 -22 0 -19 -16 -18 0 2 22 11 12 14 25 9 36 -8
18 -11 27 -14 40 0 3 -9 -1 -18 -10 -17 -15 -18 -1 -15 285 2 197 -1 305 -8
312 -7 7 -10 -574 -10 -1847z m35 1172 c-9 -17 -19 -28 -22 -25 -6 6 23 56 32
56 3 0 -2 -14 -10 -31z m15 -287 c14 -37 43 -95 63 -129 38 -66 39 -70 4 -51
-12 6 -37 12 -57 13 -19 2 -30 1 -23 -2 26 -10 53 -72 59 -134 8 -89 21 -127
46 -135 45 -14 77 81 47 138 -8 15 -8 19 0 14 6 -4 11 0 11 11 0 14 5 12 26
-12 36 -41 81 -138 95 -204 16 -80 7 -267 -15 -310 -10 -18 -13 -30 -8 -27 6
3 5 -11 -2 -37 -10 -39 -11 -40 -14 -14 -3 27 -4 27 -17 11 -13 -18 -14 -18
-35 1 l-21 19 6 -27 c7 -25 5 -27 -21 -27 l-29 0 24 -19 c16 -12 20 -21 12
-25 -17 -11 -13 -29 6 -22 18 7 33 -9 33 -35 0 -26 -32 -96 -38 -81 -3 10 -13
5 -34 -15 l-30 -28 -30 35 -29 35 3 -45 c3 -44 2 -45 -30 -48 l-32 -3 0 488
c0 268 -1 545 -3 615 -1 69 0 124 2 122 3 -2 16 -34 31 -72z m76 -199 c27 -17
44 -36 44 -47 0 -15 -10 -10 -47 24 -27 24 -50 45 -52 47 -2 2 -1 3 4 3 4 0
27 -12 51 -27z m178 -1398 c13 -9 43 -20 67 -25 l44 -9 -43 3 c-49 5 -115 44
-133 78 -10 20 -7 19 15 -5 15 -15 37 -34 50 -42z m231 -5 c-3 -5 -12 -10 -18
-10 -7 0 -6 4 3 10 19 12 23 12 15 0z m981 -38 c75 -38 114 -104 114 -189 0
-51 -10 -75 -32 -79 -35 -7 -71 -22 -55 -23 10 -1 27 4 37 9 31 17 34 -8 5
-46 -74 -97 -216 -98 -275 -2 -30 49 -26 163 6 157 21 -4 34 2 34 15 0 19 -25
27 -39 13 -8 -8 -11 -6 -11 7 0 10 15 32 33 49 27 26 29 32 14 35 -26 5 -10
22 22 22 35 0 66 -31 49 -48 -19 -19 6 -39 27 -22 22 18 19 37 -10 66 -25 25
-25 25 -3 19 75 -22 129 -117 64 -114 -17 1 -18 2 -3 6 22 6 18 36 -5 41 -21
4 -34 -34 -18 -53 16 -19 35 -19 54 1 15 14 16 14 16 -3 0 -24 -19 -43 -43
-43 -11 0 -30 -11 -42 -24 l-22 -24 20 -6 c12 -3 35 3 52 12 58 35 72 105 31
165 -13 19 -22 37 -20 40 10 10 -62 27 -115 27 -75 0 -161 -41 -231 -111 -58
-57 -51 -41 9 24 94 100 232 133 337 79z m-1053 11 c-7 -2 -19 -2 -25 0 -7 3
-2 5 12 5 14 0 19 -2 13 -5z m71 -106 c60 -33 88 -87 83 -164 -3 -72 -37 -130
-97 -166 -21 -13 -30 -15 -24 -7 21 26 15 92 -11 124 -17 22 -33 29 -66 32
-38 3 -49 -1 -77 -27 -22 -21 -32 -38 -29 -50 9 -35 -9 -28 -36 14 -45 69 -31
174 31 230 55 50 150 56 226 14z m-141 -255 c-10 -10 -20 -17 -22 -16 -6 5 20
34 30 34 5 0 1 -8 -8 -18z m52 7 c11 -16 1 -19 -13 -3 -7 8 -8 14 -3 14 5 0
13 -5 16 -11z m-50 -68 c-6 -5 -25 10 -25 20 0 5 6 4 14 -3 8 -7 12 -15 11
-17z m50 10 c-3 -6 -11 -11 -16 -11 -5 0 -4 6 3 14 14 16 24 13 13 -3z m495
-103 c60 -30 94 -92 95 -168 0 -66 -17 -103 -68 -144 -31 -25 -49 -31 -100
-34 -52 -3 -67 0 -96 20 -40 27 -52 49 -23 41 13 -3 29 6 50 28 24 25 30 42
30 74 0 35 -5 46 -32 67 -42 34 -103 36 -129 5 -18 -22 -18 -21 -3 9 20 41 72
93 111 110 47 20 115 17 165 -8z m240 -22 c0 -2 -8 -10 -17 -17 -16 -13 -17
-12 -4 4 13 16 21 21 21 13z m-63 -193 c-2 -16 -4 -3 -4 27 0 30 2 43 4 28 2
-16 2 -40 0 -55z m-409 53 c-7 -8 -15 -12 -17 -11 -5 6 10 25 20 25 5 0 4 -6
-3 -14z m57 3 c11 -16 1 -19 -13 -3 -7 8 -8 14 -3 14 5 0 13 -5 16 -11z m-50
-68 c-6 -5 -25 10 -25 20 0 5 6 4 14 -3 8 -7 12 -15 11 -17z m50 10 c-3 -6
-11 -11 -16 -11 -5 0 -4 6 3 14 14 16 24 13 13 -3z m1503 -66 c71 -17 143 -51
187 -89 24 -21 26 -26 12 -26 -11 0 -15 -5 -11 -11 5 -8 1 -8 -14 0 -57 30
-152 -2 -138 -47 8 -24 45 -37 130 -47 72 -8 99 -18 125 -44 19 -19 19 -19 17
13 -2 17 -8 41 -14 53 -19 34 -15 35 38 2 28 -17 88 -47 133 -66 45 -19 84
-36 86 -39 2 -2 -273 -4 -612 -4 l-617 0 0 35 0 35 47 0 47 0 -34 30 -35 30
33 30 c25 23 28 30 15 31 -10 0 0 9 23 21 28 14 50 19 68 14 23 -6 25 -10 20
-34 -7 -26 -7 -27 13 -9 19 17 21 17 36 -5 l16 -23 0 28 c1 25 4 27 29 21 l27
-7 -19 22 c-19 21 -19 22 0 36 18 14 17 14 -11 16 -29 1 -29 2 10 14 22 6 41
8 43 4 2 -5 13 -4 25 3 57 30 223 37 325 13z m-1064 -73 c17 -12 25 -22 18
-22 -16 0 -92 76 -92 92 0 7 10 -1 22 -18 12 -17 35 -40 52 -52z m1342 -117
c14 -25 25 -47 23 -49 -2 -2 -23 18 -47 45 -37 42 -41 49 -23 49 13 0 29 -15
47 -45z m524 -80 c0 -6 -56 -35 -67 -35 -9 0 48 38 60 39 4 1 7 -1 7 -4z"/>
<path d="M681 2759 c-7 -16 -31 -42 -52 -56 -39 -26 -52 -53 -25 -53 8 0 18 5
21 10 3 6 11 10 17 10 21 0 -15 -30 -63 -51 -33 -15 -49 -29 -49 -41 0 -31 49
-23 88 15 28 26 32 27 23 9 -7 -13 -39 -44 -72 -69 -65 -51 -75 -82 -29 -93
24 -6 24 -7 3 -14 -11 -4 -24 -14 -27 -22 -7 -19 21 -31 43 -17 19 12 76 103
90 147 l11 31 -32 -37 c-31 -34 -66 -58 -85 -58 -4 0 18 26 49 58 69 70 99
128 105 204 3 32 4 58 2 58 -2 0 -10 -14 -18 -31z"/>
<path d="M707 2694 c-9 -10 2 -24 19 -24 8 0 14 7 14 15 0 15 -21 21 -33 9z"/>
<path d="M1953 1599 c10 -6 31 -29 47 -51 17 -23 30 -36 30 -30 0 16 -70 92
-84 92 -6 0 -3 -5 7 -11z"/>
<path d="M2031 1484 c0 -11 3 -14 6 -6 3 7 2 16 -1 19 -3 4 -6 -2 -5 -13z"/>
<path d="M2031 1414 c0 -11 3 -14 6 -6 3 7 2 16 -1 19 -3 4 -6 -2 -5 -13z"/>
<path d="M1980 1333 c-26 -12 -46 -13 -84 -5 -40 8 -54 7 -73 -5 -28 -18 -29
-34 -5 -56 23 -21 71 -22 115 -3 31 13 95 72 86 79 -2 2 -20 -2 -39 -10z"/>
<path d="M2565 840 c-8 -13 4 -32 16 -25 12 8 12 35 0 35 -6 0 -13 -4 -16 -10z"/>
<path d="M2563 796 c-59 -19 -106 -51 -151 -102 -22 -24 -42 -44 -46 -44 -16
0 -2 25 40 71 l47 49 -49 -21 c-102 -45 -153 -94 -126 -121 7 -7 17 -3 30 10
20 20 20 20 25 1 10 -36 44 -21 91 39 25 31 56 63 68 71 18 11 16 6 -10 -23
-36 -41 -43 -86 -14 -86 12 0 25 14 37 40 10 22 27 47 39 57 11 10 15 11 9 3
-18 -19 -16 -40 2 -40 9 0 25 16 37 36 13 22 37 44 62 55 l41 19 -45 -1 c-25
0 -64 -6 -87 -13z"/>
<path d="M10444 4227 c-2 -7 -3 -146 -2 -309 3 -282 2 -296 -14 -281 -10 9
-19 13 -19 10 -3 -13 -6 -22 -14 -40 -5 -11 -2 -24 9 -36 20 -22 21 -38 2 -22
-11 9 -16 9 -22 0 -4 -7 2 -19 14 -30 23 -18 31 -35 11 -23 -7 4 -10 3 -7 -2
38 -79 40 -86 26 -131 -10 -34 -14 -40 -20 -26 -7 16 -7 16 -6 -2 1 -11 -8
-39 -20 -62 -24 -46 -38 -57 -27 -22 13 40 -16 9 -38 -40 -11 -25 -54 -104
-95 -175 -93 -160 -116 -216 -136 -334 -8 -51 -20 -101 -26 -111 -15 -29 -12
-51 6 -51 17 0 17 -10 -2 -92 -5 -22 -3 -28 11 -28 14 0 16 -8 13 -52 -2 -42
0 -53 12 -53 12 0 15 12 13 55 -2 52 -1 53 8 20 18 -64 16 -183 -4 -213 -21
-33 -53 -50 -90 -49 -40 1 -65 27 -70 71 l-4 36 -1 -37 c-2 -29 4 -41 29 -62
17 -14 37 -26 45 -26 29 0 83 29 99 54 20 30 34 122 24 159 -4 16 -3 25 2 21
5 -3 9 -11 9 -19 0 -7 20 -56 44 -109 47 -100 46 -105 -7 -106 -17 -1 -12 -6
20 -23 l43 -22 -21 -34 c-24 -40 -21 -46 16 -29 34 15 43 5 85 -104 53 -137
72 -239 68 -358 -3 -95 -6 -112 -36 -172 -42 -86 -122 -161 -197 -184 -30 -10
-58 -15 -61 -11 -4 4 14 31 40 61 91 106 99 189 29 284 -51 68 -162 92 -254
56 -80 -33 -270 1 -372 66 -51 32 -62 36 -51 19 4 -8 1 -8 -13 -1 -38 21 -103
92 -130 144 -23 44 -27 66 -28 128 0 109 42 179 127 215 47 19 127 19 154 0
12 -8 24 -11 28 -7 4 3 4 -1 0 -11 -6 -16 -8 -15 -31 3 -29 22 -94 27 -140 9
-30 -11 -93 -67 -93 -82 0 -5 11 5 25 21 53 63 156 82 211 40 16 -13 31 -21
33 -18 12 13 20 -59 11 -98 -10 -41 -6 -56 27 -101 2 -3 14 6 28 19 43 40 31
116 -28 179 l-32 34 32 -21 c38 -27 73 -95 73 -146 0 -69 -46 -127 -115 -145
-54 -14 -112 1 -117 31 -2 12 -8 23 -14 25 -17 6 -27 -29 -12 -39 9 -5 6 -8
-9 -8 -13 0 -29 11 -39 25 -16 24 -63 37 -48 13 4 -7 3 -8 -4 -4 -16 10 -15
61 1 74 7 6 22 9 34 6 27 -7 41 15 19 31 -22 16 -53 8 -71 -18 -19 -27 -19 -5
-1 31 31 60 96 83 104 37 l4 -20 -15 20 c-12 15 -18 17 -28 8 -6 -6 -9 -19 -6
-27 9 -23 44 -20 57 5 9 16 8 25 -6 40 -11 12 -13 19 -5 19 26 0 51 -22 51
-44 0 -12 11 -32 25 -44 l25 -22 0 35 c0 38 -24 69 -66 85 -40 16 -69 12 -107
-14 -19 -13 -37 -22 -40 -20 -2 3 -10 -9 -17 -25 -18 -46 -9 -157 18 -213 25
-50 97 -138 114 -138 6 0 -10 22 -35 49 -61 66 -117 173 -63 122 26 -25 86
-38 111 -24 11 7 31 5 61 -5 56 -18 108 -6 159 39 l35 31 0 -29 c0 -43 46
-127 92 -168 59 -54 111 -75 191 -75 107 0 186 48 224 137 18 45 16 131 -5
173 -41 81 -144 106 -219 51 -38 -27 -73 -85 -59 -98 3 -3 6 1 6 10 0 47 108
113 162 100 60 -15 110 -85 107 -151 -1 -20 -3 -16 -9 15 -12 58 -26 81 -63
103 -41 25 -83 25 -124 0 -61 -37 -79 -108 -43 -167 25 -42 36 -43 14 -2 -22
43 -11 91 27 123 38 33 80 33 116 2 24 -21 28 -32 28 -78 0 -64 -27 -109 -85
-138 -51 -26 -131 -26 -189 0 -39 18 -42 18 -31 3 7 -10 -10 5 -38 33 -39 39
-54 64 -68 109 -20 70 -14 162 15 246 10 30 22 63 26 74 l7 20 -13 -20 c-7
-11 -23 -44 -35 -73 l-21 -53 -27 45 c-52 88 -168 131 -272 101 -150 -43 -215
-217 -141 -378 67 -147 229 -240 442 -254 86 -5 94 -8 81 -22 -66 -75 -67
-199 -3 -283 18 -22 57 -55 87 -72 50 -28 63 -31 140 -31 74 0 92 4 138 28 75
39 138 106 175 185 28 59 32 79 35 174 5 123 -10 203 -62 341 -18 48 -31 87
-29 87 5 0 40 -80 69 -160 15 -40 22 -52 18 -30 -3 19 -22 76 -41 125 -32 82
-41 121 -30 131 2 2 18 -1 36 -7 42 -15 48 -6 22 28 l-22 27 23 18 c13 10 25
18 28 18 3 0 5 -22 5 -50 0 -27 -4 -50 -8 -50 -5 0 -5 -5 -1 -12 4 -6 7 -333
6 -727 l-2 -716 -775 -3 c-426 -1 -775 0 -775 3 0 3 7 17 16 30 l16 25 30 -21
c35 -25 42 -21 28 15 -22 58 -11 59 120 12 52 -18 111 -36 130 -40 20 -3 7 4
-30 17 -81 29 -160 64 -160 71 0 3 24 -6 53 -19 142 -62 307 -92 420 -76 276
40 431 310 295 516 -76 115 -246 142 -343 55 -20 -18 -20 -18 -21 68 -5 309
-212 531 -448 482 -214 -44 -264 -323 -79 -441 26 -16 40 -29 32 -29 -7 0 -41
-14 -74 -30 -33 -17 -51 -28 -40 -24 114 37 144 45 189 50 74 9 158 -11 209
-50 23 -18 42 -36 43 -42 0 -5 10 -29 22 -54 42 -87 19 -202 -48 -250 -19 -13
-53 -25 -79 -28 -40 -3 -52 0 -79 23 -41 34 -43 80 -7 123 32 38 75 49 115 29
16 -9 30 -11 30 -6 0 13 -62 39 -92 39 -64 0 -124 -74 -115 -143 8 -62 50 -96
137 -110 19 -3 17 -5 -10 -6 -44 -1 -97 25 -124 62 -45 62 -12 162 66 200 18
9 26 17 18 17 -25 0 -89 -48 -105 -80 -8 -16 -15 -52 -15 -79 0 -42 5 -56 30
-84 41 -47 77 -60 155 -55 85 5 139 41 178 117 71 142 -8 331 -163 386 -23 8
-51 15 -62 15 -18 0 -17 4 11 35 47 54 55 104 31 190 -2 6 0 22 4 38 11 37 0
74 -30 104 -25 24 -25 25 -2 18 104 -33 208 -149 254 -285 32 -95 41 -217 20
-270 -20 -49 -21 -139 -2 -183 26 -65 111 -117 189 -117 43 0 93 25 153 76 30
26 57 44 61 40 4 -3 -1 -31 -11 -61 -23 -75 -98 -155 -184 -197 -59 -29 -77
-33 -170 -36 -140 -6 -265 22 -435 97 l-48 21 16 31 c21 40 15 45 -26 20 l-33
-20 -22 36 -22 37 -7 -32 c-3 -18 -8 -32 -10 -32 -3 0 -45 20 -95 44 -49 25
-98 46 -107 49 -10 2 12 4 50 5 105 3 161 44 161 120 0 45 -41 83 -87 81 -31
-1 -31 -2 7 -9 47 -9 66 -32 66 -78 0 -45 -42 -87 -97 -96 -37 -7 -203 10
-203 21 0 2 25 3 56 1 39 -2 58 1 61 10 3 9 -11 12 -51 12 -45 0 -56 3 -56 16
0 13 -6 15 -27 9 -71 -17 -93 -18 -93 -1 0 18 -22 21 -51 5 -11 -5 -58 -17
-106 -25 -118 -21 -191 -50 -342 -139 -72 -41 -150 -84 -174 -94 -49 -21 -76
-48 -39 -39 34 9 26 1 -19 -23 -24 -12 -54 -19 -70 -17 -15 3 -26 1 -23 -4 3
-4 15 -8 27 -9 13 0 3 -7 -25 -16 -45 -15 -49 -15 -90 5 -26 13 -44 18 -48 12
-4 -6 -14 -2 -25 10 -20 22 -43 17 -24 -6 15 -19 4 -18 -26 2 -20 13 -28 14
-40 4 -8 -7 -15 -9 -15 -4 0 4 -6 2 -12 -5 -11 -10 -9 -15 7 -24 16 -10 -45
-13 -295 -17 -173 -3 521 -6 1543 -8 l1857 -2 0 1855 c0 1020 -2 1855 -5 1855
-3 0 -8 -6 -11 -13z m6 -688 c0 -18 -10 -8 -25 24 l-16 32 21 -24 c11 -13 20
-27 20 -32z m-7 -316 c-2 -71 -3 -348 -3 -616 l0 -488 -32 3 c-32 3 -33 4 -30
48 l3 45 -29 -35 -30 -35 -30 28 c-21 20 -31 25 -34 15 -6 -15 -38 55 -38 81
0 26 15 42 33 35 19 -7 23 11 6 22 -8 4 -4 13 12 25 l24 19 -29 0 c-26 0 -28
2 -21 27 l6 27 -21 -19 c-21 -19 -22 -19 -35 -1 -13 16 -14 16 -17 -11 -3 -26
-4 -25 -14 14 -7 26 -8 40 -2 37 5 -3 2 9 -8 27 -22 43 -31 230 -15 310 14 66
59 163 95 204 21 24 26 26 26 12 0 -11 5 -15 11 -11 8 5 8 1 0 -14 -30 -57 2
-152 47 -138 25 8 38 46 46 135 6 62 33 124 59 134 7 3 -4 4 -23 2 -20 -1 -45
-7 -57 -13 -35 -19 -34 -15 4 49 30 53 62 122 86 192 4 9 8 17 9 17 2 0 2 -57
1 -127z m-54 -126 c-2 -2 -25 -23 -51 -47 -38 -34 -48 -39 -48 -24 0 18 72 73
94 74 5 0 7 -1 5 -3z m-169 -1377 c-18 -33 -85 -71 -132 -76 l-43 -3 45 9 c46
10 95 40 118 72 18 24 25 23 12 -2z m-275 -58 c-3 -3 -11 0 -18 7 -9 10 -8 11
6 5 10 -3 15 -9 12 -12z m-773 -30 c50 -22 117 -78 150 -126 13 -19 1 -10 -32
23 -70 70 -155 111 -231 111 -53 0 -125 -17 -115 -27 2 -3 -7 -21 -20 -40 -41
-60 -27 -130 31 -165 17 -9 40 -15 52 -12 l20 6 -22 24 c-12 13 -31 24 -42 24
-24 0 -43 19 -43 43 0 17 1 17 16 3 19 -20 38 -20 54 -1 16 19 3 57 -18 53
-23 -5 -27 -35 -5 -41 15 -4 14 -5 -3 -6 -65 -3 -11 92 64 114 22 6 22 6 -3
-19 -29 -29 -32 -48 -10 -66 21 -17 46 3 27 22 -17 17 14 48 49 48 32 0 48
-17 22 -22 -15 -3 -13 -9 15 -35 17 -17 32 -39 32 -49 0 -13 -3 -15 -11 -7
-14 14 -39 6 -39 -13 0 -13 13 -19 34 -15 32 6 36 -108 6 -157 -59 -96 -201
-95 -275 2 -29 38 -26 63 5 46 10 -5 27 -10 37 -9 16 1 -20 16 -55 23 -22 4
-32 28 -32 79 0 101 55 174 160 208 39 13 133 3 182 -19z m851 11 c-7 -2 -19
-2 -25 0 -7 3 -2 5 12 5 14 0 19 -2 13 -5z m70 -87 c48 -18 74 -41 98 -88 28
-55 25 -125 -8 -175 -27 -42 -45 -49 -36 -14 3 12 -7 29 -29 50 -28 26 -39 30
-77 27 -33 -3 -49 -10 -66 -32 -26 -32 -32 -98 -11 -124 6 -8 -3 -6 -24 7 -89
54 -126 173 -81 261 23 45 50 67 109 88 47 17 77 17 125 0z m-65 -270 c-7 -8
-15 -12 -17 -11 -5 6 10 25 20 25 5 0 4 -6 -3 -14z m52 -1 c19 -22 8 -25 -12
-3 -10 10 -14 18 -9 18 5 0 14 -7 21 -15z m-45 -64 c-6 -5 -25 10 -25 20 0 5
6 4 14 -3 8 -7 12 -15 11 -17z m50 10 c-3 -6 -11 -11 -16 -11 -5 0 -4 6 3 14
14 16 24 13 13 -3z m-402 -95 c40 -16 92 -67 113 -110 15 -30 15 -31 -3 -9
-26 31 -87 29 -129 -5 -27 -21 -32 -32 -32 -67 0 -32 6 -49 30 -74 21 -22 37
-31 50 -28 29 8 17 -14 -23 -41 -29 -20 -44 -23 -96 -20 -51 3 -69 9 -100 34
-51 41 -68 78 -68 144 1 76 35 138 95 168 50 25 115 29 163 8z m-382 -43 c13
-16 12 -17 -3 -4 -17 13 -22 21 -14 21 2 0 10 -8 17 -17z m46 -180 c-2 -16 -4
-3 -4 27 0 30 2 43 4 28 2 -16 2 -40 0 -55z m361 53 c-7 -8 -15 -12 -17 -11
-5 6 10 25 20 25 5 0 4 -6 -3 -14z m57 3 c11 -16 1 -19 -13 -3 -7 8 -8 14 -3
14 5 0 13 -5 16 -11z m-50 -68 c-6 -5 -25 10 -25 20 0 5 6 4 14 -3 8 -7 12
-15 11 -17z m50 10 c-3 -6 -11 -11 -16 -11 -5 0 -4 6 3 14 14 16 24 13 13 -3z
m-1258 -74 c17 -9 33 -13 35 -8 2 4 21 2 43 -4 39 -12 39 -13 10 -14 -28 -2
-29 -2 -11 -16 19 -14 19 -15 0 -36 l-19 -22 28 7 c24 6 27 4 28 -21 l0 -28
16 23 c15 22 17 22 36 5 20 -18 20 -17 13 9 -5 24 -3 28 20 34 18 5 40 0 68
-14 23 -12 33 -21 23 -21 -13 -1 -10 -8 15 -31 l33 -30 -35 -30 -34 -30 47 0
47 0 0 -35 0 -35 -617 0 c-339 0 -614 2 -612 4 2 3 41 20 86 39 45 19 105 49
133 66 53 33 57 32 38 -2 -6 -12 -12 -36 -14 -53 -2 -32 -2 -32 17 -13 26 26
53 36 125 44 85 10 122 23 130 47 14 45 -81 77 -138 47 -15 -8 -19 -8 -14 0 4
6 0 11 -11 11 -14 0 -12 5 12 26 42 36 115 72 183 89 79 20 275 15 319 -8z
m807 -21 c-17 -27 -72 -71 -79 -64 -2 2 9 12 24 22 15 11 36 32 47 47 10 15
20 26 22 24 2 -2 -4 -15 -14 -29z m-1376 -165 c-24 -27 -45 -47 -47 -45 -2 2
9 24 23 49 18 30 34 45 47 45 18 0 14 -7 -23 -49z m-506 -91 c18 -11 29 -20
25 -20 -11 0 -67 29 -67 35 0 9 9 5 42 -15z"/>
<path d="M10183 2734 c6 -78 35 -134 105 -206 31 -32 53 -58 49 -58 -19 0 -54
24 -85 58 l-32 37 11 -31 c14 -44 71 -135 90 -147 22 -14 50 -2 43 17 -3 8
-16 18 -27 22 -21 7 -21 8 3 14 46 11 36 42 -29 93 -33 25 -65 56 -72 69 -9
18 -5 17 23 -9 39 -38 88 -46 88 -15 0 12 -16 26 -49 41 -48 21 -84 51 -63 51
6 0 14 -4 17 -10 3 -5 13 -10 21 -10 26 0 14 27 -24 53 -21 14 -46 40 -56 58
l-17 34 4 -61z"/>
<path d="M10140 2685 c0 -10 7 -15 18 -13 21 4 19 22 -2 26 -10 2 -16 -3 -16
-13z"/>
<path d="M8886 1570 c-20 -22 -36 -45 -36 -52 0 -6 13 7 30 30 16 22 37 45 47
51 10 6 13 11 7 11 -7 0 -28 -18 -48 -40z"/>
<path d="M8841 1484 c0 -11 3 -14 6 -6 3 7 2 16 -1 19 -3 4 -6 -2 -5 -13z"/>
<path d="M8841 1414 c0 -11 3 -14 6 -6 3 7 2 16 -1 19 -3 4 -6 -2 -5 -13z"/>
<path d="M8860 1341 c0 -13 65 -70 93 -80 43 -17 92 -13 110 7 23 25 21 37 -6
55 -19 12 -33 13 -73 5 -40 -8 -58 -7 -87 6 -20 8 -37 12 -37 7z"/>
<path d="M8292 836 c1 -10 8 -17 13 -17 15 1 12 24 -3 29 -9 3 -13 -2 -10 -12z"/>
<path d="M8226 792 c24 -12 49 -34 62 -56 12 -20 28 -36 37 -36 18 0 20 21 3
40 -7 8 -3 7 8 -3 12 -10 29 -35 39 -57 12 -26 25 -40 37 -40 29 0 22 45 -14
86 -26 29 -28 34 -10 23 12 -8 43 -40 68 -71 47 -60 81 -75 91 -39 5 19 5 19
25 -1 13 -13 23 -17 30 -10 27 27 -24 76 -126 121 l-49 21 47 -49 c42 -45 56
-71 40 -71 -3 0 -26 22 -50 49 -57 64 -133 101 -216 108 l-63 4 41 -19z"/>
<path d="M10510 2360 l0 -1880 -1880 0 c-1873 0 -1880 0 -1880 -20 0 -20 7
-20 1900 -20 l1900 0 0 1900 c0 1893 0 1900 -20 1900 -20 0 -20 -7 -20 -1880z"/>
<path d="M681 3087 c-2 -71 70 -167 125 -167 14 0 22 4 19 10 -3 6 -16 10 -29
10 -39 0 -96 77 -107 144 l-6 41 -2 -38z"/>
<path d="M10192 3090 c-3 -60 -68 -150 -108 -150 -13 0 -26 -4 -29 -10 -3 -6
5 -10 19 -10 57 0 130 100 123 168 l-4 37 -1 -35z"/>
<path d="M719 3073 c-11 -15 -11 -16 1 -5 36 31 73 -5 50 -48 -11 -21 -11 -21
15 -4 24 16 28 16 42 1 20 -19 5 -43 -30 -50 -12 -2 -4 -5 18 -5 22 -1 47 3
55 8 12 8 10 14 -15 40 -16 16 -36 30 -45 30 -9 0 -22 11 -28 25 -13 29 -44
33 -63 8z"/>
<path d="M10098 3065 c-6 -14 -19 -25 -28 -25 -9 0 -29 -14 -45 -30 -25 -26
-27 -32 -15 -40 8 -5 33 -9 55 -8 22 0 30 3 18 5 -35 7 -50 31 -30 50 14 15
18 15 42 -1 26 -17 26 -17 15 4 -23 43 14 79 50 48 12 -11 12 -10 1 5 -19 25
-50 21 -63 -8z"/>
<path d="M810 2840 c0 -5 5 -10 10 -10 6 0 10 5 10 10 0 6 -4 10 -10 10 -5 0
-10 -4 -10 -10z"/>
<path d="M10050 2840 c0 -5 5 -10 10 -10 6 0 10 5 10 10 0 6 -4 10 -10 10 -5
0 -10 -4 -10 -10z"/>
<path d="M818 2791 c-36 -36 -15 -90 39 -103 29 -8 59 15 66 49 11 57 -64 96
-105 54z"/>
<path d="M9973 2788 c-39 -42 -2 -113 50 -100 55 13 76 71 37 105 -28 23 -62
21 -87 -5z"/>
<path d="M890 2266 c0 -2 8 -10 18 -17 15 -13 16 -12 3 4 -13 16 -21 21 -21
13z"/>
<path d="M9969 2253 c-13 -16 -12 -17 4 -4 16 13 21 21 13 21 -2 0 -10 -8 -17
-17z"/>
<path d="M960 2106 c43 -15 69 -62 70 -125 0 -54 11 -49 12 6 0 44 -33 117
-57 127 -9 3 -26 6 -38 5 -16 0 -13 -4 13 -13z"/>
<path d="M9892 2113 c-22 -9 -54 -85 -54 -126 1 -55 12 -60 12 -6 1 63 27 110
70 125 30 11 31 12 10 12 -14 0 -31 -2 -38 -5z"/>
<path d="M900 2080 c0 -19 32 -60 46 -60 8 0 14 -10 14 -24 0 -25 27 -43 43
-27 6 6 2 9 -9 8 -15 -2 -19 5 -19 29 0 24 -4 30 -20 30 -14 -1 -20 5 -20 19
0 14 6 20 22 19 12 0 20 3 17 8 -8 12 -74 10 -74 -2z"/>
<path d="M1231 2074 c0 -11 3 -14 6 -6 3 7 2 16 -1 19 -3 4 -6 -2 -5 -13z"/>
<path d="M9641 2074 c0 -11 3 -14 6 -6 3 7 2 16 -1 19 -3 4 -6 -2 -5 -13z"/>
<path d="M9906 2082 c-3 -5 5 -8 17 -8 16 1 22 -5 22 -19 0 -14 -6 -20 -20
-19 -16 0 -20 -6 -20 -30 0 -24 -4 -31 -19 -29 -11 1 -15 -2 -9 -8 16 -16 43
2 43 27 0 14 6 24 14 24 14 0 46 41 46 60 0 12 -66 14 -74 2z"/>
<path d="M1790 1999 c-42 -100 -223 -307 -346 -395 -77 -55 -168 -100 -219
-109 -70 -12 -75 -15 -75 -43 0 -41 -60 -180 -109 -250 -24 -35 -111 -137
-194 -225 -83 -89 -171 -184 -196 -211 l-46 -50 40 33 c22 19 110 100 195 181
85 81 184 169 220 196 73 55 190 112 265 129 50 11 50 12 57 59 8 60 58 166
110 236 100 133 277 292 376 337 l52 24 0 60 0 59 -59 0 c-56 0 -59 -1 -71
-31z"/>
<path d="M8960 1971 l0 -60 53 -24 c98 -45 275 -204 375 -337 52 -70 102 -176
110 -236 7 -47 7 -48 57 -59 75 -17 192 -74 265 -129 36 -27 135 -115 220
-196 85 -81 173 -162 195 -181 l40 -33 -46 50 c-25 27 -113 122 -196 211 -83
88 -170 190 -194 225 -49 70 -109 209 -109 250 0 28 -5 31 -75 43 -51 9 -142
54 -219 109 -123 88 -304 295 -346 395 -12 30 -15 31 -71 31 l-59 0 0 -59z"/>
<path d="M777 1903 c40 -20 60 -62 43 -93 -16 -30 -62 -24 -70 10 -4 17 -8 21
-14 12 -20 -33 26 -79 68 -68 59 15 52 116 -10 142 -45 19 -57 17 -17 -3z"/>
<path d="M10084 1906 c-60 -27 -66 -128 -8 -142 42 -11 88 35 68 68 -6 9 -10
5 -14 -12 -8 -34 -54 -40 -70 -10 -17 31 3 73 43 93 39 19 24 21 -19 3z"/>
<path d="M532 1831 c-34 -99 -26 -217 21 -308 10 -18 13 -34 8 -37 -12 -8 -49
53 -57 93 -4 17 -11 31 -17 31 -12 0 -3 -153 12 -193 12 -31 37 -45 53 -29 7
7 4 22 -13 49 -22 37 -22 37 -1 19 23 -20 49 -16 59 9 3 9 -11 52 -32 95 -20
44 -34 85 -32 92 4 8 6 7 6 -4 1 -25 50 -78 72 -78 28 0 25 41 -5 69 -28 26
-61 89 -52 98 3 4 6 1 6 -5 0 -13 28 -42 41 -42 16 0 10 31 -12 67 -12 19 -24
57 -28 86 l-7 52 -22 -64z"/>
<path d="M10320 1851 c0 -21 -11 -58 -25 -85 -26 -49 -32 -76 -16 -76 13 0 41
29 41 42 0 6 3 9 6 5 9 -9 -24 -72 -52 -98 -30 -28 -33 -69 -5 -69 22 0 71 53
72 78 0 11 2 12 6 4 2 -7 -12 -48 -32 -92 -21 -43 -35 -86 -32 -95 10 -25 36
-29 59 -9 21 18 21 18 -1 -19 -17 -27 -20 -42 -13 -49 16 -16 41 -2 53 29 15
40 24 193 12 193 -6 0 -13 -14 -17 -31 -8 -40 -45 -101 -57 -93 -5 3 -2 19 8
37 46 90 55 208 22 305 -11 34 -23 62 -25 62 -2 0 -4 -17 -4 -39z"/>
<path d="M466 1295 c8 -19 9 -84 2 -152 -4 -39 12 -45 29 -12 l13 24 0 -23 c0
-12 -9 -41 -21 -63 -23 -46 -22 -82 3 -87 19 -4 48 44 48 78 0 11 4 20 9 20
10 0 5 -50 -10 -110 -5 -19 -9 -47 -9 -62 0 -35 33 -47 62 -21 21 18 21 18 9
-4 -15 -29 -14 -60 3 -66 23 -9 36 15 36 65 0 49 -32 197 -36 168 -2 -8 -5
-36 -9 -61 -3 -26 -11 -54 -18 -64 -11 -14 -13 4 -13 102 1 109 -1 122 -26
173 -28 55 -88 135 -72 95z"/>
<path d="M10372 1251 c-53 -80 -66 -141 -59 -255 6 -80 5 -89 -8 -72 -8 10
-17 39 -20 65 -4 25 -7 53 -9 61 -4 29 -36 -119 -36 -168 0 -50 13 -74 36 -65
17 6 18 37 3 66 -12 22 -12 22 9 4 29 -26 62 -14 62 21 0 15 -4 43 -9 62 -15
60 -20 110 -10 110 5 0 9 -9 9 -20 0 -34 29 -82 48 -78 25 5 26 41 3 87 -12
22 -21 51 -21 63 l0 23 13 -24 c6 -13 17 -22 22 -20 10 4 10 18 -1 100 -3 29
-1 56 6 69 6 12 9 24 6 27 -3 3 -23 -22 -44 -56z"/>
<path d="M1875 1141 c71 -9 106 -30 121 -71 9 -26 13 -29 13 -13 2 36 -10 53
-50 73 -24 13 -56 19 -86 19 l-48 -2 50 -6z"/>
<path d="M8925 1134 c-40 -21 -55 -42 -54 -73 0 -23 2 -22 13 9 15 41 50 62
121 71 l50 6 -50 1 c-28 1 -63 -6 -80 -14z"/>
<path d="M1855 1088 c4 -10 17 -18 30 -18 13 0 25 -7 27 -17 6 -23 55 -50 68
-37 5 5 6 22 2 39 -8 28 -9 28 -14 7 -6 -22 -32 -30 -43 -12 -3 5 -1 20 6 32
9 19 9 21 -2 11 -7 -7 -22 -13 -34 -13 -12 0 -27 6 -34 13 -10 10 -11 9 -6 -5z"/>
<path d="M8949 1082 c7 -12 9 -27 6 -32 -11 -18 -37 -10 -43 12 -5 21 -6 21
-14 -7 -4 -17 -3 -34 2 -39 13 -13 62 14 68 37 2 10 14 17 27 17 13 0 26 8 30
18 5 14 4 15 -6 5 -7 -7 -22 -13 -34 -13 -12 0 -27 6 -34 13 -11 10 -11 8 -2
-11z"/>
<path d="M2130 1026 c0 -2 8 -10 18 -17 15 -13 16 -12 3 4 -13 16 -21 21 -21
13z"/>
<path d="M2590 1008 c-7 -13 -13 -34 -11 -48 9 -73 121 -62 121 12 0 54 -81
81 -110 36z"/>
<path d="M8197 1012 c-36 -40 -9 -102 44 -102 52 1 77 52 49 98 -18 28 -70 30
-93 4z"/>
<path d="M8729 1013 c-13 -16 -12 -17 4 -4 9 7 17 15 17 17 0 8 -8 3 -21 -13z"/>
<path d="M2862 978 c-7 -7 -12 -30 -12 -52 l1 -41 14 33 c13 29 17 32 35 22
25 -13 25 -27 3 -53 -17 -19 -17 -20 5 -8 45 24 82 -13 50 -49 -11 -12 -10
-12 5 -1 25 19 21 50 -8 63 -14 6 -25 19 -25 28 0 9 -13 28 -28 43 -22 21 -31
24 -40 15z"/>
<path d="M7977 962 c-15 -16 -27 -35 -27 -43 0 -9 -11 -21 -25 -27 -29 -13
-33 -44 -7 -63 14 -11 15 -11 5 1 -33 36 4 73 49 49 22 -12 22 -11 6 8 -23 26
-23 40 2 53 18 10 22 7 35 -22 l14 -33 1 41 c0 58 -19 71 -53 36z"/>
<path d="M1695 950 c-33 -13 -48 -37 -41 -65 7 -29 41 -50 64 -39 14 6 13 8
-8 13 -35 9 -41 58 -8 70 34 12 74 -6 92 -42 18 -36 22 -21 5 17 -9 20 -65 58
-81 55 -1 0 -12 -4 -23 -9z"/>
<path d="M9124 944 c-17 -8 -36 -26 -43 -40 -17 -38 -13 -53 5 -17 18 36 58
54 92 42 33 -12 27 -61 -8 -70 -21 -5 -22 -7 -8 -13 44 -19 87 50 52 84 -28
27 -55 31 -90 14z"/>
<path d="M2720 931 c0 -6 5 -13 10 -16 6 -3 10 1 10 9 0 9 -4 16 -10 16 -5 0
-10 -4 -10 -9z"/>
<path d="M8140 924 c0 -8 5 -12 10 -9 6 3 10 10 10 16 0 5 -4 9 -10 9 -5 0
-10 -7 -10 -16z"/>
<path d="M2815 903 c14 -58 95 -114 162 -112 l38 2 -40 6 c-73 13 -145 66
-145 108 0 13 -5 23 -11 23 -7 0 -9 -10 -4 -27z"/>
<path d="M8050 907 c0 -42 -72 -95 -145 -108 l-40 -6 38 -2 c42 -1 101 25 134
61 25 27 41 78 24 78 -6 0 -11 -10 -11 -23z"/>
<path d="M723 743 c-7 -2 -13 -14 -13 -25 0 -18 4 -20 36 -15 30 5 34 4 24 -8
-7 -8 -9 -24 -5 -36 6 -19 12 -21 54 -15 25 4 80 9 121 11 62 3 66 2 25 -4
-27 -4 -58 -11 -67 -15 -23 -10 -31 -37 -16 -53 11 -10 23 -8 67 12 29 14 65
24 79 24 23 -2 24 -2 5 -6 -12 -2 -27 -11 -33 -18 -19 -23 13 -30 65 -15 42
12 74 10 120 -5 36 -13 -37 43 -95 72 -51 26 -64 28 -173 28 -97 -1 -115 2
-101 12 9 7 44 15 78 19 l61 7 -65 19 c-61 17 -140 22 -167 11z"/>
<path d="M9985 731 l-60 -18 61 -7 c34 -4 69 -12 78 -19 14 -10 -4 -13 -101
-12 -109 0 -122 -2 -173 -28 -58 -29 -131 -85 -95 -72 46 15 78 17 120 5 52
-15 84 -8 65 15 -6 7 -21 16 -33 18 -19 4 -18 4 5 6 14 0 50 -10 79 -24 44
-20 56 -22 67 -12 15 16 7 43 -16 53 -9 4 -39 11 -67 15 -41 6 -37 7 25 4 41
-2 96 -7 121 -11 42 -6 48 -4 54 15 4 12 2 28 -5 36 -10 12 -6 13 24 8 31 -5
36 -3 36 15 0 11 -7 23 -16 26 -28 11 -108 5 -169 -13z"/>
<path d="M1463 725 c-7 -20 23 -54 62 -71 17 -7 23 -13 13 -14 -9 0 -49 16
-89 35 -86 41 -95 42 -109 14 -9 -17 -8 -25 7 -42 17 -20 17 -20 -19 2 -38 23
-58 21 -58 -4 0 -30 47 -46 147 -52 102 -6 115 3 36 25 -22 7 -52 21 -65 33
l-23 20 25 -5 c14 -2 52 -15 85 -26 77 -28 196 -25 265 7 l45 21 -44 1 c-28 1
-60 10 -88 27 -45 26 -77 26 -67 1 3 -8 15 -19 27 -25 16 -8 18 -11 6 -11 -10
-1 -41 17 -70 39 -58 43 -76 49 -86 25z"/>
<path d="M9331 700 c-29 -22 -60 -40 -70 -39 -12 0 -10 3 6 11 12 6 24 17 27
25 10 25 -22 25 -67 -1 -28 -17 -60 -26 -88 -27 l-44 -1 45 -21 c69 -32 188
-35 265 -7 33 11 71 24 85 26 l25 5 -23 -20 c-13 -12 -43 -26 -65 -33 -79 -22
-66 -31 36 -25 100 6 147 22 147 52 0 25 -20 27 -58 4 -36 -22 -36 -22 -19 -2
15 17 16 25 7 42 -14 28 -23 27 -109 -14 -40 -19 -80 -35 -89 -35 -10 1 -4 7
13 14 39 17 69 51 62 71 -10 24 -28 18 -86 -25z"/>
</g>
</svg>
