<?xml version="1.0" encoding="UTF-8" standalone="no"?>
<svg
   version="1.0"
   width="1033.3806pt"
   height="1203.1975pt"
   viewBox="0 0 1033.3806 1203.1975"
   preserveAspectRatio="xMidYMid"
   id="svg294"
   sodipodi:docname="2465482.svg"
   inkscape:version="1.2.2 (b0a8486541, 2022-12-01)"
   xmlns:inkscape="http://www.inkscape.org/namespaces/inkscape"
   xmlns:sodipodi="http://sodipodi.sourceforge.net/DTD/sodipodi-0.dtd"
   xmlns="http://www.w3.org/2000/svg"
   xmlns:svg="http://www.w3.org/2000/svg">
  <defs
     id="defs298" />
  <sodipodi:namedview
     id="namedview296"
     pagecolor="#ffffff"
     bordercolor="#000000"
     borderopacity="0.25"
     inkscape:showpageshadow="2"
     inkscape:pageopacity="0.0"
     inkscape:pagecheckerboard="0"
     inkscape:deskcolor="#d1d1d1"
     inkscape:document-units="pt"
     showgrid="false"
     inkscape:zoom="0.6"
     inkscape:cx="688.33333"
     inkscape:cy="800"
     inkscape:window-width="2560"
     inkscape:window-height="1368"
     inkscape:window-x="0"
     inkscape:window-y="40"
     inkscape:window-maximized="1"
     inkscape:current-layer="svg294" />
  <metadata
     id="metadata2">
Created by potrace 1.15, written by Peter Selinger 2001-2017
</metadata>
  <g
     transform="matrix(0.1,0,0,-0.1,-28.119356,1239.3944)"
     fill="#000000"
     stroke="none"
     id="g292">
    <path
       d="m 3447,12393 c -30,-7 -47,-59 -57,-166 -5,-56 -13,-122 -19,-147 -22,-97 -75,-223 -124,-295 l -21,-30 28,25 c 53,47 179,225 218,306 50,104 67,196 47,249 -15,41 -44,64 -72,58 z"
       id="path4" />
    <path
       d="m 7397,12392 c -45,-10 -60,-113 -31,-213 31,-106 122,-250 243,-385 35,-40 39,-42 22,-14 -83,131 -135,293 -147,455 -9,121 -36,169 -87,157 z"
       id="path6" />
    <path
       d="m 4165,12363 c -210,-29 -384,-138 -735,-462 -251,-232 -366,-321 -506,-393 -111,-57 -189,-84 -300,-103 -111,-19 -134,-18 -63,4 136,43 274,147 351,265 130,201 93,484 -80,611 -205,150 -461,30 -439,-207 10,-113 89,-190 200,-194 l 62,-3 -55,8 c -122,17 -190,92 -190,208 0,55 34,136 71,170 111,102 313,54 407,-95 49,-78 65,-141 60,-246 -3,-81 -8,-101 -41,-170 -102,-214 -348,-349 -584,-320 l -68,8 90,6 c 65,5 102,13 135,30 29,15 45,19 48,11 7,-21 99,38 118,78 11,20 25,40 32,44 24,16 33,59 26,134 -7,73 -7,73 -27,56 -28,-25 -47,-75 -47,-123 0,-22 -7,-57 -15,-77 -19,-46 -62,-103 -77,-103 -7,0 0,12 14,28 80,85 84,203 9,282 -100,105 -291,52 -291,-81 0,-54 47,-88 78,-57 34,34 -6,90 -48,68 -25,-13 -25,-4 0,37 29,48 65,67 124,67 169,0 226,-212 85,-313 -58,-43 -109,-54 -209,-48 -185,12 -391,119 -597,311 -71,66 -95,101 -50,72 36,-23 127,-46 182,-46 171,0 295,114 295,269 -1,148 -90,246 -226,245 -77,0 -124,-27 -153,-88 -21,-43 -28,-120 -12,-144 4,-7 6,11 3,41 -5,66 23,128 71,158 50,31 152,23 209,-16 115,-81 126,-270 21,-366 -34,-32 -74,-59 -86,-59 -5,0 13,15 39,33 33,23 58,51 77,88 25,48 28,62 25,126 -3,60 -8,79 -33,115 -54,77 -154,108 -231,72 -47,-22 -51,-34 -23,-57 20,-16 33,-18 95,-12 81,7 116,-5 153,-51 26,-33 30,-64 5,-40 -19,19 -26,20 -42,4 -16,-16 -15,-44 3,-97 18,-50 13,-75 -24,-114 l -26,-28 -5,28 c -8,44 -41,42 -89,-5 -66,-64 -144,-76 -226,-35 -62,31 -97,67 -194,196 -134,179 -213,247 -289,247 -45,0 -82,-35 -82,-76 0,-35 28,-74 54,-74 18,0 39,27 31,40 -9,15 -35,12 -41,-5 -10,-24 -34,2 -34,35 0,61 83,82 139,35 111,-94 28,-299 -139,-345 -40,-11 -162,-12 -200,-1 -21,6 -17,8 25,14 63,9 119,46 145,97 25,50 25,83 0,136 -52,106 -200,88 -200,-23 0,-31 -2,-34 -22,-27 -13,3 -36,14 -53,22 -17,9 -56,16 -92,16 -52,1 -66,-3 -85,-22 l -23,-23 26,6 c 14,3 60,-3 104,-14 43,-12 94,-21 112,-21 24,0 41,-8 57,-27 15,-17 29,-24 39,-20 27,10 20,44 -13,69 -51,37 -50,77 2,104 67,35 138,-20 138,-107 0,-42 -5,-54 -36,-89 -41,-46 -97,-65 -157,-56 -22,4 -80,31 -131,60 -155,92 -286,151 -286,131 0,-17 62,-125 129,-223 110,-163 113,-169 108,-229 -9,-128 -146,-196 -229,-113 -35,35 -37,78 -5,116 19,22 29,26 50,20 17,-4 27,-13 27,-25 0,-10 6,-18 13,-19 6,0 22,-4 34,-7 36,-11 43,23 11,50 -17,15 -30,40 -37,76 -7,30 -21,80 -33,111 -11,32 -18,67 -15,78 4,17 3,19 -9,9 -7,-6 -18,-28 -24,-49 -11,-40 5,-108 36,-157 21,-33 18,-39 -26,-52 -75,-22 -93,-106 -37,-167 28,-31 42,-37 84,-41 95,-10 166,51 182,154 l 7,48 12,-66 c 15,-82 3,-152 -37,-223 -82,-147 -304,-156 -328,-13 -4,27 -1,39 16,56 22,22 56,27 81,11 13,-8 12,-11 -5,-24 -15,-11 -17,-17 -8,-27 16,-16 43,-4 43,19 0,48 -82,70 -120,32 -28,-28 -26,-90 4,-138 32,-51 136,-147 235,-216 102,-72 143,-114 176,-179 42,-85 28,-172 -40,-236 -19,-18 -35,-38 -35,-45 0,-18 22,-36 44,-36 18,0 17,-3 -10,-31 -31,-33 -41,-34 -166,-13 -30,5 -39,3 -44,-11 -4,-10 -2,-26 5,-36 14,-23 9,-24 -28,-5 -52,28 -66,61 -63,157 1,61 -2,91 -12,104 -14,19 -15,19 -35,1 -48,-43 -50,-125 -5,-203 50,-86 184,-119 289,-69 56,26 73,42 109,106 28,50 35,48 10,-3 -23,-46 -73,-95 -119,-119 -50,-26 -144,-28 -200,-4 -113,48 -166,176 -115,276 24,48 66,72 140,81 l 55,7 -63,-2 c -103,-4 -162,-65 -162,-168 0,-134 103,-228 249,-228 100,1 179,51 229,145 24,44 27,61 27,150 0,89 -3,107 -28,160 l -28,60 71,-70 c 101,-99 192,-223 250,-340 104,-211 113,-390 24,-494 -108,-126 -304,-67 -304,91 0,60 21,103 63,128 42,26 44,25 39,-8 -5,-35 18,-57 53,-48 20,5 25,13 25,36 0,35 -23,50 -74,50 -39,0 -88,-35 -111,-81 -19,-36 -19,-122 -1,-157 16,-31 61,-74 93,-91 35,-18 129,-13 171,8 92,47 136,133 136,266 0,55 3,78 7,60 12,-56 9,-200 -6,-260 -23,-91 -72,-179 -139,-252 -116,-126 -231,-178 -381,-171 -70,3 -103,10 -147,30 -118,55 -197,159 -205,273 -9,124 79,224 207,233 32,2 73,-1 92,-7 44,-15 106,-78 123,-127 8,-22 14,-31 15,-22 1,50 -62,131 -125,159 -46,22 -120,24 -179,7 -59,-18 -138,-99 -155,-161 -42,-148 49,-311 217,-390 56,-26 82,-32 158,-35 154,-7 277,42 392,159 77,77 123,149 158,246 l 24,68 -6,-65 C 1256,9867 1164,9664 1012,9472 982,9435 880,9318 783,9213 587,8998 531,8931 458,8822 354,8667 310,8539 310,8383 c 0,-122 13,-180 65,-289 36,-73 57,-103 113,-156 161,-152 381,-189 569,-97 122,59 209,175 234,313 30,162 -62,351 -205,421 -58,28 -193,58 -202,44 -3,-5 -18,-9 -33,-9 -15,0 -49,-11 -76,-25 -46,-23 -50,-23 -75,-8 -39,22 -77,87 -90,149 -14,67 -1,140 39,219 22,44 24,52 9,38 -10,-9 -35,-50 -55,-91 -32,-64 -37,-85 -41,-161 -4,-74 -1,-95 18,-138 12,-29 30,-59 41,-69 18,-16 19,-16 19,17 v 34 l 18,-29 c 17,-28 17,-30 -11,-85 -33,-68 -38,-144 -11,-223 35,-106 161,-196 261,-185 l 38,4 -41,1 c -102,4 -187,60 -233,154 -44,88 -41,202 8,266 16,22 17,22 58,6 79,-31 154,5 169,81 l 7,38 58,-6 c 162,-14 301,-166 316,-345 11,-139 -59,-282 -178,-361 -88,-59 -150,-74 -275,-69 -91,4 -109,8 -178,41 -175,83 -286,254 -303,465 -17,231 91,440 403,776 293,316 383,429 463,584 207,404 134,804 -215,1171 -111,117 -210,199 -375,311 -132,90 -233,177 -186,160 78,-28 176,-1 240,65 56,58 80,132 75,233 l -4,82 28,-27 c 21,-20 27,-34 23,-50 -3,-14 1,-30 12,-41 23,-24 27,-41 13,-57 -11,-14 -4,-21 42,-44 21,-11 36,-11 70,-3 53,14 64,7 11,-7 -49,-14 -83,-14 -83,0 0,20 -20,-3 -40,-46 -11,-24 -20,-46 -20,-49 0,-3 17,-6 38,-8 27,-2 40,-9 47,-26 8,-19 16,-22 37,-18 20,4 26,2 22,-8 -3,-7 1,-20 8,-27 7,-8 13,-20 14,-26 3,-38 5,-43 17,-43 8,0 22,9 32,20 10,11 22,17 26,14 5,-3 12,2 16,12 6,15 7,14 15,-5 10,-27 23,-20 44,24 10,21 14,46 10,67 -4,25 -4,28 3,13 13,-28 13,-75 0,-75 -20,0 3,-20 46,-40 24,-11 46,-20 49,-20 3,0 6,17 8,38 2,27 9,40 25,47 24,10 31,39 12,50 -6,4 -8,13 -5,20 5,15 -15,35 -59,58 -16,9 -26,16 -22,17 25,1 100,-57 92,-71 -9,-14 16,-21 31,-8 9,7 24,13 35,14 35,3 45,22 24,45 -22,25 -28,50 -14,66 11,14 -10,34 -40,37 -11,0 -17,5 -15,9 14,22 -97,-4 -121,-28 -8,-9 -15,-12 -15,-7 0,4 -6,-1 -12,-11 -9,-15 -7,-22 8,-33 18,-13 17,-14 -6,-9 -40,10 -57,-7 -42,-40 7,-14 11,-29 8,-31 -2,-2 -7,5 -11,16 -3,12 -11,21 -16,21 -6,0 -8,4 -5,9 5,7 -15,21 -30,21 -2,0 -13,-22 -25,-49 -11,-27 -33,-60 -47,-73 l -27,-23 22,25 c 25,28 67,119 60,127 -7,6 -97,-34 -118,-53 -17,-16 -20,-49 -5,-72 4,-7 2,-12 -3,-12 -6,0 -11,3 -12,8 0,4 -2,18 -4,32 -4,33 19,58 80,86 45,21 49,27 51,58 1,31 -3,36 -45,56 -74,34 -83,45 -87,94 l -4,46 39,-3 c 50,-3 69,-20 97,-84 13,-29 27,-53 31,-53 12,0 39,20 28,20 -6,0 -6,3 1,8 6,4 16,16 23,27 11,18 11,18 5,-5 -4,-14 -9,-31 -11,-37 -3,-7 0,-13 6,-13 6,0 20,22 32,49 19,45 69,106 69,85 0,-5 4,-2 10,6 6,9 5,19 -3,28 -6,8 -12,21 -13,29 -7,46 -22,54 -50,26 -10,-10 -21,-19 -26,-19 -4,-1 -13,-2 -19,-3 -5,0 -7,-7 -3,-13 4,-8 3,-10 -2,-5 -5,5 -9,13 -9,17 0,5 -36,37 -80,71 -44,33 -81,62 -82,62 -1,1 38,2 85,2 71,1 96,5 136,25 122,59 181,182 142,293 -8,20 -11,37 -7,37 12,0 92,-100 172,-216 110,-160 177,-242 279,-345 147,-147 316,-258 480,-314 268,-91 577,-40 845,140 37,24 71,42 76,39 5,-3 8,-1 7,5 -2,5 30,37 71,71 41,33 152,133 247,222 379,352 533,444 764,455 307,15 535,-159 580,-442 34,-211 -92,-412 -294,-470 -221,-64 -464,85 -483,295 l -5,56 39,12 c 77,23 114,103 79,172 -19,40 -15,47 43,73 61,27 151,27 212,0 99,-44 157,-122 169,-228 l 7,-60 2,50 c 2,95 -67,197 -167,246 -70,35 -169,33 -243,-4 -53,-25 -58,-26 -85,-12 l -29,15 h 38 c 46,0 42,11 -17,45 -117,69 -295,45 -421,-55 -43,-34 -38,-41 7,-9 40,29 139,59 193,59 77,0 178,-50 206,-102 9,-17 7,-28 -9,-57 -46,-82 -53,-164 -21,-266 60,-196 292,-310 498,-246 234,73 355,298 296,550 -34,141 -137,273 -270,343 -38,21 -63,38 -55,38 33,0 148,-79 242,-167 152,-141 222,-167 324,-119 28,13 66,27 83,31 25,5 30,10 21,20 -25,30 -75,37 -138,20 -33,-8 -79,-15 -102,-15 -41,0 -41,0 -26,22 20,28 20,33 0,52 -11,12 -35,16 -89,16 -58,0 -78,4 -96,20 -23,19 -23,19 -3,20 23,0 44,18 44,36 0,28 -32,44 -88,44 -31,0 -77,6 -102,12 -25,6 -61,12 -80,14 -19,1 -71,9 -115,18 -77,15 -146,18 -210,9 z M 765,11993 c 97,-64 260,-188 284,-217 10,-11 9,-19 -1,-35 -12,-20 -10,-34 16,-126 4,-11 -1,-4 -10,15 -22,47 -31,120 -14,120 10,0 10,3 0,15 -7,8 -19,15 -27,15 -7,0 -25,8 -39,17 -22,14 -27,14 -34,3 -7,-12 -12,-12 -27,2 -10,8 -49,33 -88,56 -71,41 -236,187 -277,245 l -22,31 69,-38 c 39,-21 115,-67 170,-103 z m -137,-9 c 132,-125 261,-304 236,-325 -12,-10 -20,-7 -40,12 -66,61 -268,319 -318,407 -20,34 22,2 122,-94 z m 3438,-143 c -9,-16 -21,-33 -27,-37 -15,-9 -5,33 19,85 16,36 16,36 19,9 3,-15 -3,-40 -11,-57 z m -2929,-107 c 3,-8 1,-29 -5,-47 -11,-32 -11,-32 -5,7 4,27 1,41 -8,47 -11,7 -11,9 -1,9 7,0 15,-7 19,-16 z m -202,-164 c 14,-7 9,-8 -19,-3 -27,4 -41,2 -47,-8 -7,-11 -9,-10 -9,4 0,19 39,23 75,7 z m 56,-20 c 10,-6 19,-16 19,-23 0,-8 -3,-9 -8,-1 -4,6 -16,16 -27,22 -25,14 -11,16 16,2 z m -151,-15 c -10,-12 -10,-15 0,-15 8,0 11,-3 7,-6 -3,-3 -11,-3 -17,1 -8,5 -8,11 1,21 6,8 14,14 16,14 3,0 0,-7 -7,-15 z m 505,-5 c 3,-6 -1,-7 -9,-4 -18,7 -21,14 -7,14 6,0 13,-4 16,-10 z m -135,-35 c 19,-7 28,-14 20,-14 -8,0 -28,6 -45,14 -39,17 -21,18 25,0 z m 113,8 c -7,-2 -13,-11 -13,-19 0,-9 -10,-14 -32,-13 -28,2 -29,2 -8,6 14,3 29,11 33,19 4,8 13,14 20,13 9,0 9,-2 0,-6 z m -136,-145 c 15,-16 48,-19 71,-4 7,4 12,2 12,-3 0,-6 -3,-11 -7,-12 -5,0 -20,-2 -35,-4 -16,-2 -35,3 -43,12 -17,16 -65,107 -65,120 1,4 12,-14 27,-42 14,-27 32,-58 40,-67 z m -131,46 c -8,-21 -15,-34 -15,-28 -1,15 20,76 25,71 2,-2 -2,-21 -10,-43 z m -2,-96 c 7,-5 5,-8 -6,-8 -14,0 -18,8 -17,33 2,27 2,28 6,7 3,-14 10,-28 17,-32 z m 37,-41 c -10,-9 -11,-8 -5,6 3,10 9,15 12,12 3,-3 0,-11 -7,-18 z M 864,8589 c -9,-15 -68,-39 -96,-39 -30,0 -13,16 37,34 49,18 68,20 59,5 z"
       id="path8" />
    <path
       d="m 6513,12360 c -216,-39 -394,-187 -453,-378 -27,-87 -27,-217 0,-305 38,-122 137,-224 265,-273 37,-14 76,-19 145,-19 87,0 101,3 168,34 129,61 222,189 222,306 0,29 4,45 13,45 8,0 9,3 1,8 -6,4 -14,25 -18,47 -4,21 -16,56 -27,77 -26,50 -24,59 14,95 56,54 94,68 183,68 72,0 88,-4 152,-36 48,-24 66,-29 55,-17 -30,33 -155,88 -225,99 -82,13 -172,-7 -227,-49 l -36,-27 35,-5 34,-5 -27,-12 c -24,-11 -34,-10 -78,13 -99,50 -212,39 -301,-29 -50,-38 -108,-129 -107,-167 1,-23 2,-23 8,5 26,104 123,190 236,209 49,8 128,-8 172,-35 32,-20 32,-21 18,-49 -8,-16 -15,-49 -15,-73 0,-59 28,-94 86,-108 39,-10 44,-15 44,-39 0,-61 -39,-157 -85,-208 -238,-264 -672,-110 -702,250 -12,145 40,283 146,388 78,77 142,113 247,140 148,38 316,19 455,-51 134,-67 245,-153 479,-370 298,-276 400,-354 564,-434 163,-79 248,-99 426,-100 122,0 158,4 224,23 180,52 337,147 501,304 121,115 202,213 309,373 41,60 99,137 130,170 l 56,60 -16,-40 c -24,-59 -15,-152 19,-204 58,-87 166,-137 283,-129 35,2 62,3 61,2 -28,-24 -154,-114 -159,-114 -5,0 -8,-11 -8,-25 0,-14 -7,-28 -15,-31 -19,-8 -19,-54 0,-101 8,-20 14,-38 11,-40 -8,-8 -36,79 -36,112 0,25 4,35 16,35 10,0 14,7 12,18 -2,9 -9,16 -15,15 -6,-1 -19,7 -28,17 -25,28 -43,25 -51,-7 -4,-16 -11,-33 -16,-40 -5,-7 -7,-21 -3,-32 3,-11 1,-23 -6,-27 -7,-4 -9,-3 -6,3 4,6 0,14 -9,17 -26,10 -34,7 -33,-11 0,-11 3,-13 6,-5 2,6 9,12 14,12 6,0 7,-5 3,-12 -4,-7 -9,-25 -11,-40 -3,-25 3,-31 58,-58 33,-17 65,-30 70,-28 6,2 -5,34 -24,70 -18,37 -28,63 -22,58 6,-5 22,-33 35,-62 13,-29 25,-55 26,-56 2,-2 12,-1 23,3 12,3 19,11 16,16 -4,5 -2,9 4,9 6,0 17,21 25,48 8,26 15,39 15,29 1,-10 -6,-34 -14,-54 -17,-41 -19,-53 -6,-53 5,0 13,9 16,21 4,11 9,18 12,16 2,-3 0,-14 -6,-25 -13,-24 -5,-34 18,-22 42,23 81,40 81,35 0,-4 -20,-15 -45,-26 -25,-11 -45,-24 -45,-29 0,-13 1,-13 43,5 20,8 42,15 49,14 7,0 -7,-8 -31,-17 -24,-9 -46,-22 -48,-28 -2,-5 21,-18 50,-27 57,-18 101,-22 93,-9 -2,4 4,9 15,9 44,4 61,43 19,43 -10,0 -23,6 -27,14 -4,8 -19,16 -33,19 -24,4 -24,4 3,6 16,0 30,-5 33,-14 7,-17 34,-20 34,-4 0,6 9,22 20,36 13,16 17,30 11,37 -6,7 3,25 25,50 l 34,40 -7,-35 c -13,-55 -8,-140 11,-195 44,-133 183,-205 311,-160 37,14 -69,-75 -195,-161 -313,-215 -501,-413 -616,-648 -150,-309 -115,-648 100,-969 47,-71 53,-81 36,-71 -5,3 -2,-11 6,-31 20,-49 20,-114 -1,-154 -32,-61 11,-112 49,-58 23,32 21,0 -2,-33 -9,-15 -32,-40 -49,-57 -53,-48 -41,-102 22,-102 34,0 67,27 84,70 10,25 10,25 10,2 2,-41 -26,-80 -66,-92 -49,-16 -73,-38 -73,-65 0,-51 67,-71 114,-34 30,23 32,20 12,-19 -35,-67 -89,-93 -191,-94 -84,-1 -108,-9 -131,-43 -14,-21 -14,-30 -5,-54 33,-79 175,-66 266,24 40,41 61,78 87,155 l 19,55 -6,-45 c -14,-107 -104,-228 -203,-273 -68,-30 -171,-30 -235,2 -113,55 -141,191 -59,284 28,32 31,38 12,26 -36,-23 -70,-94 -70,-146 0,-121 115,-212 254,-201 236,19 374,273 312,569 -15,71 -55,173 -64,164 -3,-3 -23,27 -44,67 -20,39 -36,73 -35,75 2,1 30,-30 63,-70 32,-39 122,-139 199,-222 257,-276 340,-383 406,-520 53,-109 70,-182 70,-295 0,-320 -213,-550 -507,-550 -179,0 -315,83 -392,240 -24,49 -27,66 -27,160 0,93 3,112 27,162 55,118 167,203 280,215 l 55,6 14,-44 c 25,-77 100,-108 175,-73 33,16 36,16 49,-2 26,-34 48,-124 42,-175 -12,-96 -79,-188 -167,-228 -25,-11 -38,-21 -30,-21 28,0 116,58 145,95 75,99 85,240 24,326 -17,25 -18,30 -4,60 l 14,34 7,-32 c 8,-40 18,-35 49,28 60,118 31,291 -70,414 -19,24 -17,14 13,-44 48,-96 56,-190 22,-269 -23,-54 -84,-117 -104,-108 -134,57 -163,64 -238,50 -153,-29 -264,-128 -309,-276 -93,-305 171,-588 502,-540 205,30 360,163 432,370 58,169 45,344 -37,517 -71,148 -169,274 -475,606 -153,167 -260,311 -321,434 -53,108 -100,267 -100,339 1,41 1,40 24,-27 60,-178 239,-348 406,-386 263,-61 521,106 522,337 1,76 -16,123 -61,174 -71,81 -221,103 -309,45 -55,-36 -94,-105 -98,-171 l -3,-51 8,52 c 11,68 44,119 100,154 37,24 56,29 105,29 209,-1 300,-216 168,-397 -89,-121 -279,-174 -443,-123 -243,75 -420,359 -380,610 l 9,55 1,-61 c 2,-124 54,-224 137,-264 36,-18 58,-21 108,-18 77,5 128,38 157,102 49,109 -16,236 -122,236 -55,0 -90,-50 -55,-80 36,-29 92,12 68,50 -16,25 -1,26 40,3 36,-22 68,-80 68,-125 0,-57 -39,-120 -90,-146 -91,-47 -190,-11 -245,89 -28,50 -30,61 -30,154 1,86 5,113 32,187 34,97 92,204 158,292 55,74 184,216 195,216 5,0 -3,-26 -18,-57 -38,-82 -38,-203 -1,-283 66,-141 219,-200 355,-136 197,92 166,376 -41,376 -27,0 -57,-4 -64,-9 -10,-6 -1,-8 26,-4 97,13 172,-31 192,-112 48,-191 -188,-333 -362,-219 -36,24 -97,105 -97,128 1,6 8,-2 17,-19 8,-16 29,-45 47,-64 93,-101 265,-95 350,12 40,51 48,144 16,195 -39,63 -74,14 -64,-89 5,-50 2,-74 -10,-101 -16,-33 -61,-68 -88,-68 -8,1 -7,4 5,11 9,5 17,19 17,29 0,26 -41,36 -90,21 -55,-16 -94,-14 -124,10 -32,25 -33,37 -3,41 37,5 34,45 -6,87 -48,50 -58,74 -58,136 0,96 50,165 195,268 168,119 266,229 266,300 0,38 -36,77 -71,77 -47,0 -69,-17 -69,-50 0,-23 4,-30 20,-30 13,0 20,7 20,20 0,12 -7,20 -16,20 -14,0 -14,3 -4,15 17,21 63,19 83,-3 22,-24 22,-81 1,-111 -33,-47 -130,-65 -198,-37 -114,48 -184,212 -145,346 l 13,45 7,-53 c 12,-92 76,-152 161,-152 110,0 174,114 106,187 -12,13 -36,25 -54,29 l -32,6 29,64 c 33,73 37,121 12,167 l -17,32 -7,-45 c -4,-25 -16,-74 -28,-108 -12,-35 -21,-77 -21,-93 0,-16 -4,-29 -10,-29 -18,0 -50,-39 -44,-55 7,-17 40,-20 49,-4 4,6 13,8 20,5 7,-2 12,2 11,11 -2,27 31,40 61,23 60,-34 47,-121 -22,-154 -48,-23 -94,-15 -139,24 -45,40 -60,79 -54,143 5,45 17,69 99,192 113,168 145,229 125,233 -15,3 -177,-75 -297,-144 -97,-56 -151,-65 -213,-34 -81,39 -114,114 -81,184 18,37 58,66 93,66 27,0 72,-38 72,-60 0,-28 -11,-50 -24,-50 -17,0 -40,-45 -33,-64 9,-22 24,-20 50,7 16,18 38,26 82,31 33,3 82,14 108,22 27,9 62,14 78,10 38,-7 37,0 -3,24 -44,26 -94,25 -173,-5 l -65,-24 v 24 c 0,57 -47,105 -102,105 -33,0 -85,-35 -103,-69 -19,-38 -19,-103 0,-140 30,-59 117,-109 172,-98 18,3 22,2 13,-7 -6,-6 -51,-13 -100,-14 -79,-4 -95,-1 -147,23 -70,32 -109,67 -134,120 -20,44 -25,119 -9,160 22,59 88,90 145,69 24,-10 36,-49 24,-80 -9,-25 -10,-26 -23,-9 -8,11 -20,16 -30,12 -23,-9 -20,-34 6,-43 16,-5 27,0 45,20 61,72 -13,149 -112,116 -55,-18 -155,-119 -253,-253 -66,-90 -101,-128 -144,-157 -99,-66 -183,-62 -263,11 -23,21 -49,39 -57,39 -22,0 -41,-27 -34,-46 6,-15 4,-15 -11,-3 -55,42 -64,75 -37,152 12,35 13,51 4,66 -13,26 -27,26 -53,4 -19,-18 -19,-17 -5,16 25,61 57,76 162,76 100,0 138,14 114,42 -33,40 -115,55 -175,32 -50,-18 -103,-79 -120,-138 -33,-114 16,-229 122,-284 17,-9 25,-16 19,-17 -7,0 -33,15 -60,33 -117,78 -140,248 -48,356 43,50 89,71 154,71 86,0 126,-27 157,-105 9,-22 12,-25 12,-10 1,30 -34,83 -71,104 -114,70 -271,0 -312,-140 -20,-66 -20,-92 0,-158 20,-67 78,-131 147,-162 42,-19 69,-24 142,-24 77,0 99,4 150,28 l 60,28 -70,-71 c -146,-149 -333,-265 -499,-311 -216,-59 -398,24 -398,181 0,111 102,191 204,161 66,-20 138,-111 75,-96 -16,4 -29,0 -42,-14 -24,-28 -7,-71 29,-71 32,0 51,25 51,70 0,90 -104,157 -203,131 -110,-30 -170,-153 -127,-259 40,-95 139,-151 273,-153 75,-1 76,-1 32,-11 -68,-14 -199,-2 -278,25 -189,66 -341,234 -374,415 -32,175 74,378 223,427 149,50 281,-21 310,-166 15,-71 0,-127 -48,-180 -46,-51 -65,-60 -133,-69 l -55,-7 45,-1 c 59,-2 116,25 162,75 94,105 64,276 -64,360 -38,25 -50,28 -132,28 -82,0 -96,-3 -144,-29 -151,-84 -235,-268 -204,-448 34,-198 189,-372 402,-450 l 75,-28 -55,6 c -180,19 -357,92 -530,217 -69,51 -214,176 -350,302 -281,262 -464,386 -635,430 -76,20 -214,27 -282,15 z m 3717,-354 c -123,-120 -285,-231 -300,-206 -6,10 -14,9 -36,-3 -16,-8 -37,-18 -48,-21 -11,-4 -16,-12 -13,-21 8,-20 -16,-9 -31,15 -7,11 -8,20 -3,20 5,0 11,-5 13,-11 2,-6 39,19 83,56 128,106 430,302 445,288 3,-3 -47,-55 -110,-117 z m 87,-9 c -74,-105 -149,-199 -231,-288 -48,-52 -58,-58 -75,-49 -19,10 -18,14 27,75 26,35 63,87 82,115 34,50 249,255 258,246 2,-3 -25,-47 -61,-99 z m -3481,-154 c 7,-24 10,-43 6,-43 -15,0 -42,59 -42,92 1,29 2,31 12,14 6,-11 17,-39 24,-63 z m 3154,-138 c 0,-7 -5,-17 -10,-20 -6,-3 -8,-16 -4,-29 3,-15 -1,-27 -13,-37 -16,-13 -17,-12 -5,3 8,9 11,26 7,37 -3,10 -1,22 5,26 23,14 8,24 -31,20 -23,-2 -42,-5 -44,-7 -1,-2 -12,-19 -24,-38 -11,-19 -21,-30 -21,-25 0,13 28,56 45,70 20,17 95,17 95,0 z M 9890,9285 c 0,-5 -5,-3 -10,5 -5,8 -10,20 -10,25 0,6 5,3 10,-5 5,-8 10,-19 10,-25 z m 47,-302 c -3,-10 -5,-2 -5,17 0,19 2,27 5,18 2,-10 2,-26 0,-35 z m 156,-410 c 16,-8 26,-17 23,-20 -10,-10 -71,7 -96,28 l -25,20 35,-7 c 19,-3 48,-13 63,-21 z"
       id="path10" />
    <path
       d="m 6315,12324 c -27,-7 -74,-14 -103,-14 -66,0 -92,-13 -92,-45 0,-19 7,-26 33,-33 l 32,-9 -32,-16 c -21,-11 -56,-17 -101,-17 -39,0 -73,-5 -80,-12 -17,-17 -15,-44 4,-62 14,-15 11,-16 -30,-16 -25,0 -70,7 -101,15 -63,16 -99,12 -135,-16 -21,-16 -22,-19 -7,-19 10,0 49,-13 87,-30 38,-16 82,-30 98,-30 68,0 138,41 239,138 78,76 117,106 195,148 69,37 68,39 -7,18 z"
       id="path12" />
    <path
       d="m 2623,12290 c 21,-12 46,-35 55,-51 12,-20 25,-29 42,-29 76,-1 170,-85 190,-172 20,-83 9,-193 -29,-274 -18,-37 -43,-84 -57,-104 l -25,-35 31,35 c 80,91 122,234 102,351 -30,172 -138,283 -288,295 l -59,5 z"
       id="path14" />
    <path
       d="m 8175,12296 c -95,-30 -158,-86 -202,-181 -25,-54 -28,-70 -28,-171 0,-107 1,-112 37,-185 21,-41 47,-84 58,-94 14,-13 10,-1 -14,39 -52,86 -70,149 -70,241 -1,131 54,220 153,254 19,6 43,11 55,11 14,0 26,10 34,29 8,18 30,38 55,50 l 42,21 -40,-1 c -22,0 -58,-6 -80,-13 z"
       id="path16" />
    <path
       d="m 3271,12181 c -20,-20 -36,-60 -76,-196 -48,-159 -119,-279 -230,-390 -38,-38 -63,-65 -55,-60 130,76 280,216 345,320 77,124 108,268 69,323 -19,27 -28,28 -53,3 z"
       id="path18" />
    <path
       d="m 7544,12164 c -11,-26 -13,-52 -9,-88 25,-178 159,-361 373,-504 90,-61 91,-60 15,12 -120,112 -207,262 -256,442 -45,166 -90,216 -123,138 z"
       id="path20" />
    <path
       d="m 9142,12155 c 0,-16 2,-22 5,-12 2,9 2,23 0,30 -3,6 -5,-1 -5,-18 z"
       id="path22" />
    <path
       d="m 4826,12058 c 86,-103 192,-148 228,-96 22,31 4,50 -40,42 -42,-8 -120,18 -175,58 l -43,31 z"
       id="path24" />
    <path
       d="m 6047,12070 c -14,-11 -51,-32 -83,-47 -44,-20 -65,-24 -100,-19 -24,3 -46,1 -49,-4 -12,-19 6,-50 32,-56 46,-12 101,14 171,81 66,63 80,85 29,45 z"
       id="path26" />
    <path
       d="m 3047,12058 c -8,-13 -20,-71 -26,-129 -16,-164 -66,-274 -174,-388 -44,-46 -47,-51 -17,-30 64,43 170,151 210,213 73,110 99,243 62,315 -21,44 -37,49 -55,19 z"
       id="path28" />
    <path
       d="m 7785,12064 c -22,-23 -28,-57 -23,-138 8,-124 94,-263 230,-372 92,-74 98,-75 29,-5 -99,101 -170,273 -171,412 0,86 -32,136 -65,103 z"
       id="path30" />
    <path
       d="m 1760,12056 c 0,-2 8,-10 18,-17 15,-13 16,-12 3,4 -13,16 -21,21 -21,13 z"
       id="path32" />
    <path
       d="m 4831,11977 c 12,-34 21,-95 23,-145 2,-48 4,-93 5,-99 2,-24 31,-13 37,13 16,65 -19,204 -69,269 -12,15 -11,7 4,-38 z"
       id="path34" />
    <path
       d="m 6020,11964 c -39,-80 -57,-176 -41,-217 21,-54 36,-26 43,84 3,57 14,124 22,148 24,66 13,60 -24,-15 z"
       id="path36" />
    <path
       d="m 4288,11899 c -26,-19 -68,-78 -68,-94 0,-5 10,1 23,13 12,12 42,28 66,37 55,19 71,32 64,51 -8,20 -53,17 -85,-7 z"
       id="path38" />
    <path
       d="m 6505,11909 c -10,-15 23,-47 56,-54 15,-4 45,-17 64,-31 l 37,-24 -23,40 c -34,61 -114,102 -134,69 z"
       id="path40" />
    <path
       d="m 1735,11804 c 79,-63 228,-93 291,-59 34,18 48,40 38,57 -6,10 -20,9 -132,-11 -55,-10 -145,-1 -181,18 -29,16 -39,13 -16,-5 z"
       id="path42" />
    <path
       d="m 8172,11734 c -3,-80 -2,-88 21,-113 14,-14 28,-35 31,-47 9,-29 44,-60 91,-79 l 40,-17 -36,39 c -50,52 -65,86 -74,165 -6,64 -34,126 -60,135 -6,2 -11,-32 -13,-83 z"
       id="path44" />
    <path
       d="m 9105,11803 c -51,-18 -146,-20 -211,-3 -83,21 -116,-11 -51,-50 64,-39 173,-23 277,42 49,30 46,33 -15,11 z"
       id="path46" />
    <path
       d="m 6291,11784 c 0,-11 3,-14 6,-6 3,7 2,16 -1,19 -3,4 -6,-2 -5,-13 z"
       id="path48" />
    <path
       d="m 3464,11735 c -73,-16 -211,-72 -222,-90 -4,-7 -24,-23 -45,-35 -42,-25 -44,-36 -3,-20 40,15 108,12 134,-6 12,-8 35,-14 50,-12 36,4 42,40 10,62 -14,10 -17,16 -8,16 19,0 57,-26 97,-67 22,-23 41,-33 62,-33 35,0 44,12 43,52 -1,35 -25,65 -67,83 -36,16 -11,19 33,4 27,-9 62,-58 62,-86 0,-18 37,-43 63,-43 48,0 63,67 26,114 -22,28 -19,32 14,15 73,-38 98,-87 103,-203 3,-83 6,-93 29,-113 34,-30 60,-29 90,2 21,20 25,34 25,80 0,116 -88,213 -233,257 -57,17 -59,18 -17,13 60,-8 158,-54 208,-100 23,-20 54,-62 69,-93 23,-47 28,-70 28,-132 -1,-131 -64,-210 -174,-218 -64,-5 -105,11 -149,56 -26,27 -26,27 -10,2 41,-66 152,-89 234,-49 145,70 153,300 17,437 -104,103 -291,146 -469,107 z m -164,-75 c -19,-11 -39,-19 -45,-19 -5,0 6,8 25,19 19,11 40,19 45,19 6,0 -6,-8 -25,-19 z"
       id="path50" />
    <path
       d="m 6301,11734 c 0,-11 3,-14 6,-6 3,7 2,16 -1,19 -3,4 -6,-2 -5,-13 z"
       id="path52" />
    <path
       d="m 7145,11736 c -161,-40 -264,-139 -295,-284 -38,-175 113,-329 267,-271 30,11 93,67 93,82 0,5 -12,-6 -27,-24 -33,-38 -79,-59 -132,-59 -112,0 -190,88 -191,216 0,93 24,149 94,220 64,64 133,98 219,109 40,5 40,5 -10,-10 -116,-32 -188,-86 -229,-171 -21,-43 -25,-64 -21,-100 9,-80 67,-117 118,-75 21,17 25,30 30,118 8,132 38,185 119,207 20,6 22,5 8,-4 -9,-5 -22,-26 -28,-45 -16,-47 6,-85 49,-85 33,0 44,11 60,61 15,48 40,69 87,75 l 39,6 -45,-23 c -36,-19 -47,-31 -54,-61 -19,-77 51,-95 111,-29 33,38 88,70 99,58 3,-3 -3,-8 -14,-11 -43,-14 -33,-66 12,-66 11,1 32,7 46,15 33,19 101,19 145,1 50,-21 43,-11 -15,22 -27,16 -47,32 -42,37 4,4 2,5 -5,2 -14,-9 -45,2 -38,13 7,12 -111,58 -190,75 -84,18 -191,18 -260,1 z m 405,-56 c 8,-5 11,-10 5,-10 -5,0 -17,5 -25,10 -8,5 -10,10 -5,10 6,0 17,-5 25,-10 z"
       id="path54" />
    <path
       d="m 4552,11696 c -7,-19 -31,-50 -52,-70 -22,-20 -36,-36 -31,-36 14,0 88,85 96,109 11,37 0,33 -13,-3 z"
       id="path56" />
    <path
       d="m 1228,11709 c -10,-5 -18,-7 -18,-3 0,3 -7,0 -16,-7 -19,-16 -74,-126 -67,-133 6,-6 100,40 128,63 20,16 20,16 2,-5 -9,-11 -40,-31 -67,-44 -28,-13 -50,-27 -50,-32 0,-11 -3,-11 63,12 63,22 107,26 107,9 0,-19 30,11 30,30 0,9 7,25 15,35 22,29 19,34 -22,38 -28,2 -41,9 -48,26 -10,24 -29,28 -57,11 z m 43,-6 c 0,-5 2,-18 3,-30 4,-34 -11,-28 -16,7 -3,17 -1,30 4,30 4,0 8,-3 9,-7 z"
       id="path58" />
    <path
       d="m 903,11676 c 1,-19 8,-40 14,-48 15,-18 111,-63 118,-56 8,8 -40,114 -56,124 -8,5 -28,9 -46,11 -30,2 -32,0 -30,-31 z"
       id="path60" />
    <path
       d="m 6310,11704 c 0,-6 7,-19 16,-30 14,-18 14,-18 3,6 -14,31 -19,36 -19,24 z"
       id="path62" />
    <path
       d="m 1890,11679 c 49,-42 162,-91 221,-96 70,-7 127,11 141,43 19,42 -2,50 -71,29 -80,-24 -177,-17 -257,19 -52,23 -56,24 -34,5 z"
       id="path64" />
    <path
       d="m 8945,11672 c -79,-33 -177,-40 -244,-18 -78,25 -103,18 -81,-24 34,-63 153,-67 271,-7 41,20 85,46 99,57 31,24 30,24 -45,-8 z"
       id="path66" />
    <path
       d="m 9575,11681 c -3,-6 -19,-11 -36,-11 -33,0 -36,-9 -13,-53 34,-65 34,-64 8,-76 -29,-13 -23,-30 9,-32 15,-1 17,-3 6,-6 -10,-2 -19,-12 -23,-21 -3,-9 -13,-27 -22,-39 -16,-22 -15,-23 11,-33 15,-6 31,-8 36,-4 5,3 9,1 9,-4 0,-6 7,-13 15,-16 11,-4 19,3 25,20 7,17 30,34 72,54 57,27 62,32 63,63 2,32 -2,36 -64,68 -58,30 -66,37 -66,63 0,30 -18,46 -30,27 z m 88,-117 c 26,-9 49,-20 52,-25 3,-4 -11,-1 -31,7 -21,9 -56,19 -78,24 -28,5 -33,8 -15,9 14,1 46,-6 72,-15 z m -103,-28 c 0,-2 -7,-7 -16,-10 -8,-3 -12,-2 -9,4 6,10 25,14 25,6 z m 159,-30 c -2,-2 -15,-7 -29,-10 l -25,-7 25,15 c 21,12 42,14 29,2 z m -74,-27 c -26,-10 -73,-11 -78,-1 -3,4 18,7 47,8 34,1 44,-1 31,-7 z"
       id="path68" />
    <path
       d="m 6355,11632 c 11,-13 29,-28 40,-34 21,-11 18,-8 -30,32 -29,24 -29,24 -10,2 z"
       id="path70" />
    <path
       d="m 9841,11492 c -7,-13 -1,-35 20,-80 17,-34 33,-62 37,-63 4,0 14,-2 22,-5 60,-16 65,-15 75,8 7,16 21,25 45,28 37,6 41,20 16,50 -8,8 -12,20 -9,26 5,16 -23,38 -32,24 -9,-15 -45,-12 -108,9 -54,19 -57,19 -66,3 z m 58,-28 c 14,-12 -19,-1 -35,12 -18,14 -18,14 6,3 14,-6 27,-13 29,-15 z m 52,-24 c 21,-16 28,-28 26,-49 -1,-16 -5,-27 -10,-24 -4,2 -4,15 -1,27 4,18 -1,28 -28,44 -18,12 -29,22 -25,22 5,0 22,-9 38,-20 z m 20,-98 c -7,-2 -18,1 -23,6 -8,8 -4,9 13,5 13,-4 18,-8 10,-11 z"
       id="path72" />
    <path
       d="m 9673,11450 c -35,-16 -63,-36 -63,-43 0,-8 -3,-29 -6,-46 -4,-21 -3,-31 5,-31 20,0 36,-23 38,-53 1,-38 7,-41 40,-24 15,9 35,18 45,21 13,4 15,13 11,45 -5,37 22,140 33,128 2,-2 -3,-20 -11,-40 -17,-41 -20,-107 -5,-107 6,0 10,-9 10,-19 0,-25 18,-37 33,-21 9,9 9,11 -2,8 -7,-2 -16,4 -18,12 -4,13 -3,13 6,0 9,-13 11,-12 11,5 1,18 2,18 11,-3 5,-13 14,-22 21,-20 6,2 20,-4 31,-14 23,-24 41,-19 45,13 2,13 8,28 13,34 12,12 12,48 -1,40 -15,-9 -57,41 -76,91 -18,47 -40,61 -30,18 6,-22 5,-24 -8,-12 -7,7 -12,16 -10,20 3,4 -48,28 -60,28 -1,0 -29,-13 -63,-30 z m 53,-48 c -14,-28 -30,-53 -34,-56 -5,-3 5,21 22,54 17,32 32,57 34,55 2,-2 -8,-26 -22,-53 z m 114,-36 c 0,-26 -6,-18 -14,19 -5,22 -4,26 4,15 5,-8 10,-24 10,-34 z m -200,-16 c 10,0 21,-4 24,-8 3,-5 -8,-6 -25,-4 -19,3 -29,10 -28,21 0,10 2,11 6,4 2,-7 13,-13 23,-13 z"
       id="path74" />
    <path
       d="m 3684,11398 -19,-23 23,19 c 21,18 27,26 19,26 -2,0 -12,-10 -23,-22 z"
       id="path76" />
    <path
       d="m 7213,11315 c 0,-22 2,-30 4,-17 2,12 2,30 0,40 -3,9 -5,-1 -4,-23 z"
       id="path78" />
    <path
       d="m 855,10905 c 38,-100 42,-160 19,-253 -15,-58 -15,-66 -1,-79 14,-14 18,-13 41,12 37,40 43,99 17,182 -11,37 -35,88 -52,113 -17,25 -28,36 -24,25 z"
       id="path80" />
    <path
       d="m 9987,10868 c -72,-124 -75,-261 -7,-298 26,-14 35,6 25,53 -16,78 -17,192 -1,237 8,24 14,46 12,48 -2,1 -15,-16 -29,-40 z"
       id="path82" />
    <path
       d="m 571,10887 c 2,-2 18,-11 34,-21 l 30,-17 -24,20 c -13,12 -28,21 -34,21 -6,0 -8,-1 -6,-3 z"
       id="path84" />
    <path
       d="m 995,10719 c 47,-104 52,-187 19,-282 -16,-45 -9,-69 19,-65 35,5 62,64 60,132 -1,47 -9,75 -42,140 -22,45 -50,92 -61,106 -17,22 -17,17 5,-31 z"
       id="path86" />
    <path
       d="m 9862,10712 c -57,-87 -76,-142 -77,-214 0,-70 23,-119 59,-126 26,-5 30,25 11,88 -22,74 -17,153 18,238 13,34 23,62 22,62 -2,0 -17,-21 -33,-48 z"
       id="path88" />
    <path
       d="m 9694,10075 c 21,-50 42,-72 89,-96 20,-11 37,-23 37,-28 0,-20 53,-30 125,-24 68,5 73,7 64,24 -15,28 -41,39 -124,49 -89,11 -106,19 -163,74 l -44,41 z"
       id="path90" />
    <path
       d="m 1159,10074 c -34,-38 -116,-74 -167,-74 -50,0 -100,-19 -125,-47 -17,-20 -16,-20 58,-26 78,-7 112,0 135,28 7,9 28,22 46,30 20,8 42,30 59,60 32,53 29,66 -6,29 z"
       id="path92" />
    <path
       d="m 366,9988 c 10,-83 41,-143 100,-197 93,-85 230,-119 353,-87 72,18 171,68 198,99 17,20 16,20 -14,-1 -76,-53 -161,-84 -247,-89 -164,-11 -266,56 -291,190 -5,27 -15,42 -35,52 -15,8 -35,30 -44,50 -9,19 -19,35 -22,35 -2,0 -2,-24 2,-52 z"
       id="path94" />
    <path
       d="m 10490,10006 c -8,-17 -29,-40 -47,-51 -24,-15 -32,-27 -33,-49 0,-43 -48,-122 -90,-150 -105,-69 -282,-59 -415,25 -34,21 -44,25 -32,11 28,-31 140,-82 208,-94 125,-22 281,29 355,116 42,49 76,137 72,187 l -3,37 z"
       id="path96" />
    <path
       d="m 9820,9836 c 0,-2 8,-10 18,-17 15,-13 16,-12 3,4 -13,16 -21,21 -21,13 z"
       id="path98" />
    <path
       d="m 1130,9784 c -104,-105 -225,-160 -387,-174 -110,-10 -143,-21 -143,-48 0,-48 113,-65 217,-34 93,29 173,83 265,179 65,69 107,123 95,123 -1,0 -23,-21 -47,-46 z"
       id="path100" />
    <path
       d="m 9720,9790 c 13,-19 59,-70 102,-112 100,-99 208,-156 313,-164 56,-4 77,-2 104,13 75,39 37,69 -106,83 -158,15 -263,60 -378,162 -52,47 -57,49 -35,18 z"
       id="path102" />
    <path
       d="M 1111,9699 C 1025,9592 851,9485 685,9435 544,9393 515,9381 491,9356 l -23,-24 22,-22 c 20,-20 30,-22 94,-18 191,13 386,162 551,421 25,40 13,33 -24,-14 z"
       id="path104" />
    <path
       d="m 9730,9734 c 0,-21 120,-176 189,-244 95,-94 171,-143 270,-177 103,-35 211,-26 211,17 0,36 -41,57 -180,95 -172,47 -309,126 -422,243 -38,39 -68,68 -68,66 z"
       id="path106" />
    <path
       d="m 1062,9430 c -16,-27 -32,-47 -36,-43 -4,4 -4,-1 0,-11 5,-12 4,-17 -3,-13 -13,8 -55,-85 -79,-173 -25,-95 -23,-247 5,-328 28,-83 58,-129 116,-180 98,-86 240,-106 339,-48 116,68 138,207 46,298 -21,21 -44,38 -51,38 -8,0 1,-9 19,-20 117,-71 100,-243 -32,-313 -58,-30 -162,-30 -232,1 -113,51 -216,210 -213,332 0,14 7,-3 14,-36 34,-158 139,-264 262,-264 60,0 103,28 103,66 0,61 -37,81 -153,83 -89,1 -142,28 -176,91 l -25,45 28,-23 c 36,-27 80,-28 106,-2 36,36 23,65 -46,95 -54,24 -74,47 -74,87 1,20 2,19 15,-9 16,-37 42,-53 84,-53 29,0 51,21 51,49 0,6 -22,36 -50,66 -27,30 -50,59 -50,64 0,5 -3,18 -6,28 -3,10 2,6 11,-9 18,-33 50,-36 65,-8 8,15 6,30 -10,64 -24,53 -25,80 -5,135 8,22 12,41 10,41 -3,0 -17,-22 -33,-50 z m -61,-127 c -12,-20 -14,-14 -5,12 4,9 9,14 11,11 3,-2 0,-13 -6,-23 z"
       id="path108" />
    <path
       d="m 10000,9361 c 79,-72 213,-167 286,-202 83,-39 183,-63 228,-55 51,10 91,46 82,74 -13,39 -48,52 -162,62 -178,16 -302,54 -430,134 l -59,37 z"
       id="path110" />
    <path
       d="m 885,9384 c -88,-68 -279,-131 -439,-143 -117,-10 -158,-27 -164,-70 -5,-31 13,-49 61,-62 113,-30 336,72 513,236 57,52 71,71 29,39 z"
       id="path112" />
    <path
       d="m 1348,8973 c 7,-3 16,-2 19,1 4,3 -2,6 -13,5 -11,0 -14,-3 -6,-6 z"
       id="path114" />
    <path
       d="m 1269,8943 c -13,-16 -12,-17 4,-4 9,7 17,15 17,17 0,8 -8,3 -21,-13 z"
       id="path116" />
    <path
       d="m 813,8381 c -58,-42 -84,-121 -39,-121 18,0 46,38 46,61 0,9 11,33 25,53 29,44 21,46 -32,7 z"
       id="path118" />
    <path
       d="m 10013,8398 c 9,-7 27,-40 40,-73 17,-45 29,-61 45,-63 18,-3 22,1 22,27 0,34 -38,84 -81,106 -34,18 -49,19 -26,3 z"
       id="path120" />
    <path
       d="m 330,8143 c 0,-6 5,-24 11,-40 6,-15 14,-68 19,-116 8,-97 26,-131 58,-111 9,6 19,24 22,40 l 5,28 20,-29 c 15,-23 20,-47 20,-100 0,-38 4,-76 8,-82 10,-15 53,-17 62,-3 12,19 25,10 25,-17 0,-16 -7,-53 -15,-83 -19,-70 -19,-114 0,-150 19,-36 35,-39 35,-6 0,13 11,48 25,78 30,64 32,127 6,185 -11,23 -58,83 -106,134 -97,104 -135,155 -170,231 -14,29 -25,48 -25,41 z"
       id="path122" />
    <path
       d="m 9820,8127 c 14,-16 34,-33 45,-39 21,-11 20,-10 -35,37 l -35,30 z"
       id="path124" />
    <path
       d="m 1035,8114 c -11,-9 -38,-25 -60,-35 -22,-10 -33,-19 -24,-19 15,0 109,55 109,65 0,7 -3,6 -25,-11 z"
       id="path126" />
    <path
       d="m 10501,8064 c -20,-39 -71,-104 -131,-169 -137,-147 -168,-217 -135,-305 9,-25 25,-67 35,-94 l 18,-50 21,35 c 25,40 26,56 6,129 -17,65 -20,155 -4,128 6,-11 22,-18 39,-18 35,0 44,22 41,97 -1,31 4,64 13,82 19,35 36,49 29,23 -4,-18 20,-52 37,-52 24,0 37,34 43,107 3,43 11,93 18,111 19,55 5,44 -30,-24 z"
       id="path128" />
    <path
       d="m 9963,8053 c 15,-2 37,-2 50,0 12,2 0,4 -28,4 -27,0 -38,-2 -22,-4 z"
       id="path130" />
    <path
       d="m 590,7826 c 0,-4 11,-22 24,-39 37,-49 56,-104 56,-163 0,-45 3,-54 18,-54 50,0 57,73 13,141 -28,44 -111,130 -111,115 z"
       id="path132" />
    <path
       d="m 10223,7767 c -69,-72 -94,-129 -75,-172 8,-18 20,-25 38,-25 25,0 26,2 20,38 -7,49 6,94 48,165 19,31 33,57 32,57 -2,0 -30,-28 -63,-63 z"
       id="path134" />
    <path
       d="m 657,7806 c 78,-58 231,-94 283,-66 23,12 23,13 5,26 -12,9 -47,14 -100,14 -72,0 -119,9 -190,35 -17,6 -17,5 2,-9 z"
       id="path136" />
    <path
       d="m 10190,7803 c -20,-9 -83,-18 -147,-22 -62,-4 -116,-11 -120,-15 -4,-4 1,-14 12,-23 41,-30 208,4 275,57 29,23 27,24 -20,3 z"
       id="path138" />
    <path
       d="m 572,5280 c -26,-41 -27,-57 -7,-130 8,-30 15,-74 15,-98 0,-39 -1,-42 -16,-28 -8,9 -24,16 -33,16 -33,0 -44,-27 -42,-98 1,-47 -3,-73 -13,-87 -35,-46 -12,-35 44,20 32,32 67,60 77,61 42,6 142,146 143,200 0,27 -34,58 -56,50 -12,-5 -15,-14 -10,-39 3,-19 0,-54 -8,-81 -15,-49 -64,-132 -72,-123 -3,3 6,21 20,42 26,38 46,94 46,130 0,11 -12,45 -26,75 -14,30 -29,71 -33,90 l -7,35 z"
       id="path140" />
    <path
       d="m 10300,5252 c 0,-13 -14,-56 -31,-95 -30,-67 -31,-73 -20,-123 14,-63 48,-111 155,-225 46,-48 98,-115 119,-155 24,-42 36,-58 31,-39 -18,78 -23,114 -24,157 0,44 -18,78 -40,78 -17,0 -41,-34 -37,-52 7,-26 -10,-12 -29,24 -11,22 -15,47 -11,82 6,66 -8,96 -44,96 -16,0 -32,-7 -38,-17 -17,-29 -13,58 5,132 18,71 14,100 -16,136 l -19,24 z"
       id="path142" />
    <path
       d="m 10168,5125 c -22,-49 26,-141 112,-211 l 35,-29 -21,30 c -48,69 -67,119 -66,177 1,55 0,58 -24,58 -16,0 -28,-8 -36,-25 z"
       id="path144" />
    <path
       d="m 808,5019 c -42,-10 -163,-68 -156,-75 3,-2 22,3 44,12 24,10 82,19 148,23 74,4 111,10 114,18 9,28 -74,40 -150,22 z"
       id="path146" />
    <path
       d="m 9954,4975 c -31,-23 -1,-35 93,-35 51,0 104,-7 142,-19 34,-10 61,-18 61,-16 0,8 -79,48 -131,65 -69,24 -138,26 -165,5 z"
       id="path148" />
    <path
       d="m 769,4960 c -169,-27 -310,-132 -389,-292 -68,-139 -85,-275 -54,-425 41,-200 133,-339 473,-710 184,-202 299,-348 353,-447 73,-136 114,-257 123,-366 l 5,-65 -13,40 c -85,250 -304,425 -532,425 -157,0 -314,-89 -373,-211 -61,-126 -44,-251 44,-329 52,-45 99,-62 169,-62 129,-1 228,98 224,222 -1,29 -3,27 -9,-15 -10,-66 -31,-106 -76,-143 -73,-60 -165,-63 -256,-8 -150,90 -131,316 36,431 99,68 229,91 342,61 253,-67 451,-371 405,-621 l -9,-50 -1,61 c -3,165 -100,284 -231,284 -121,0 -208,-105 -186,-225 15,-76 102,-136 166,-113 49,16 51,72 4,84 -34,9 -57,-13 -50,-48 7,-33 1,-34 -40,-9 -61,37 -80,122 -43,197 63,131 247,114 320,-29 70,-135 1,-398 -160,-615 -59,-80 -201,-236 -207,-229 -2,2 5,22 16,45 98,203 -3,436 -200,459 -159,19 -292,-99 -277,-245 9,-84 58,-139 132,-147 39,-5 40,-5 6,4 -87,23 -124,71 -124,162 0,215 306,290 431,105 17,-27 32,-53 32,-60 0,-6 -10,5 -21,24 -31,51 -59,80 -102,102 -109,55 -248,20 -305,-77 -31,-54 -28,-154 7,-188 l 22,-22 20,24 c 17,21 19,33 13,96 -8,84 8,124 59,155 41,25 55,25 32,0 -10,-11 -15,-26 -11,-36 6,-16 26,-16 129,2 45,7 79,-7 103,-44 9,-13 11,-21 5,-18 -6,4 -20,4 -31,1 -30,-9 -25,-47 11,-81 45,-42 60,-79 60,-139 0,-102 -43,-158 -227,-295 -73,-55 -148,-119 -167,-142 -83,-103 -90,-178 -18,-208 44,-18 85,4 89,48 3,27 0,32 -17,32 -22,0 -30,-33 -11,-45 17,-11 0,-25 -30,-25 -38,0 -60,24 -60,66 0,50 15,73 63,95 58,26 104,24 166,-7 111,-55 168,-207 129,-339 l -12,-40 -6,45 c -15,111 -94,175 -194,156 -42,-8 -92,-55 -101,-95 -13,-58 37,-121 95,-121 11,0 20,-2 20,-4 0,-2 -13,-33 -30,-68 -34,-72 -38,-115 -13,-161 l 17,-32 7,45 c 4,25 16,74 28,108 12,35 21,77 21,93 0,19 5,29 14,29 23,0 48,41 34,57 -16,20 -34,16 -65,-17 -33,-35 -62,-38 -88,-10 -44,48 -10,129 62,149 90,25 173,-52 173,-160 0,-49 -5,-60 -94,-193 C 495,685 445,594 458,586 c 10,-6 161,66 277,133 105,61 153,74 212,59 48,-12 108,-70 119,-114 15,-61 -38,-144 -92,-144 -38,0 -74,22 -81,48 -6,26 5,55 20,52 14,-2 36,33 37,57 0,34 -18,37 -49,6 -22,-22 -38,-28 -75,-30 -25,-1 -73,-10 -106,-19 -32,-9 -74,-14 -91,-12 l -33,5 28,-23 c 35,-31 105,-32 176,-4 28,11 54,20 59,20 5,0 11,-17 15,-38 7,-48 33,-72 83,-78 72,-9 133,52 133,133 0,57 -21,96 -72,133 -33,24 -51,30 -92,30 -83,0 -39,21 56,27 96,6 166,-15 230,-67 104,-86 105,-263 3,-306 -43,-18 -81,-9 -102,22 -13,20 -13,29 -3,54 12,29 33,42 27,18 -1,-7 8,-14 21,-16 17,-3 22,1 22,17 0,17 -6,21 -29,21 -58,0 -80,-72 -36,-115 38,-39 89,-34 161,14 65,44 111,94 203,223 102,142 178,198 270,198 64,0 93,-12 136,-55 52,-51 107,-43 89,13 -3,9 10,0 30,-20 40,-42 43,-63 20,-131 -12,-35 -13,-51 -4,-66 13,-26 27,-26 53,-4 19,18 19,17 5,-17 -8,-19 -30,-46 -49,-59 -31,-21 -41,-22 -106,-17 -74,6 -117,-4 -127,-30 -9,-22 46,-48 109,-51 48,-3 68,1 100,19 131,76 135,287 6,385 -23,18 -38,33 -32,33 6,0 36,-24 65,-52 63,-61 81,-111 73,-199 -11,-121 -93,-202 -207,-203 -95,0 -142,38 -166,137 -7,29 -13,43 -13,32 -2,-37 20,-94 46,-126 55,-65 146,-77 234,-31 133,69 168,265 69,385 -88,106 -270,136 -406,67 -21,-11 -39,-18 -41,-16 -9,8 188,182 262,231 152,101 322,165 440,165 106,0 204,-50 241,-122 20,-38 20,-118 0,-155 -50,-99 -178,-123 -253,-48 -39,39 -44,64 -10,58 25,-5 57,19 57,42 0,17 -27,45 -44,45 -30,0 -51,-28 -51,-69 0,-71 62,-131 144,-139 101,-9 189,64 199,167 13,137 -93,235 -268,250 l -75,7 63,7 c 175,20 355,-52 485,-193 169,-182 180,-441 25,-599 -157,-160 -388,-111 -429,90 -26,123 48,225 180,250 l 46,8 -54,-4 c -138,-11 -228,-149 -187,-288 33,-112 122,-180 236,-180 145,1 264,89 328,245 35,86 37,222 4,318 -55,160 -209,308 -381,367 -61,21 -63,23 -29,23 86,0 240,-45 364,-108 133,-67 233,-145 502,-389 310,-283 443,-378 608,-435 286,-99 615,12 741,248 51,97 66,163 61,278 -3,88 -8,110 -35,169 -106,225 -359,316 -579,207 -116,-57 -204,-184 -204,-295 0,-25 -5,-45 -10,-45 -7,0 -7,-6 -1,-18 5,-9 16,-37 24,-62 8,-25 20,-59 27,-76 11,-26 10,-34 -5,-58 -65,-99 -258,-114 -390,-29 -29,19 -35,21 -23,7 50,-56 193,-114 283,-114 56,0 133,24 175,55 33,24 33,25 9,25 -37,0 -43,11 -14,26 22,11 30,10 72,-14 41,-23 59,-27 128,-27 67,0 88,5 131,27 79,42 155,138 154,195 -1,10 -7,2 -14,-18 -32,-91 -86,-146 -176,-180 -80,-30 -164,-21 -235,25 -24,16 -25,18 -10,39 19,27 19,99 0,136 -13,27 -46,46 -90,53 -17,3 -20,11 -19,55 2,63 38,145 89,202 76,84 236,136 354,114 343,-64 456,-492 200,-758 -107,-112 -240,-165 -414,-165 -247,0 -398,87 -805,465 -91,85 -199,181 -240,215 -41,34 -74,66 -72,71 1,6 -2,8 -7,5 -5,-3 -39,15 -76,39 -97,66 -223,123 -334,152 -81,22 -118,26 -231,26 -167,0 -249,-20 -405,-97 -237,-118 -427,-303 -653,-636 -39,-58 -92,-125 -117,-150 l -46,-45 16,37 c 39,95 0,215 -89,276 -64,43 -145,65 -212,60 -30,-3 -54,-4 -54,-2 0,1 32,25 70,54 72,54 75,57 62,77 -5,8 -28,-5 -72,-43 C 871,825 556,620 541,636 c -3,3 44,54 104,112 118,115 284,229 304,209 7,-7 18,-5 35,7 14,9 32,16 39,16 8,0 20,7 28,16 11,14 14,12 28,-13 l 15,-28 7,25 c 4,14 7,19 8,12 1,-7 11,-17 24,-22 12,-5 32,-17 44,-26 21,-15 22,-15 29,20 3,20 10,39 15,42 14,9 10,34 -5,34 -19,0 -60,55 -77,103 -7,20 -16,37 -20,37 -18,0 -38,-13 -33,-21 3,-5 1,-9 -4,-9 -13,0 -45,-117 -36,-133 5,-9 4,-9 -6,0 -10,9 -8,25 9,81 24,79 24,82 12,82 -4,0 -16,-20 -25,-44 -28,-74 -48,-93 -100,-94 -49,0 -60,15 -28,39 14,11 15,11 5,-1 -21,-23 -15,-28 30,-27 41,2 42,3 73,66 l 32,64 -19,32 c -14,24 -31,36 -65,45 -24,7 -42,15 -40,18 3,2 27,-3 53,-12 44,-15 49,-15 60,0 10,13 9,23 -3,46 -9,17 -13,32 -11,34 2,3 10,-9 17,-26 7,-16 16,-30 21,-30 12,0 11,12 -5,51 -7,19 -17,50 -20,69 -3,19 5,4 17,-34 37,-106 59,-111 102,-23 29,61 31,62 72,64 32,1 43,-2 45,-15 3,-13 5,-12 10,6 4,15 2,22 -9,22 -16,0 -45,25 -37,33 3,2 2,16 -1,30 -7,26 -23,27 -54,3 -7,-6 -21,-11 -30,-11 -13,0 -15,-9 -13,-45 2,-29 -4,-64 -17,-95 -11,-28 -20,-45 -20,-39 -1,6 6,28 14,47 16,38 20,107 7,107 -4,0 -12,10 -17,23 -12,26 -30,21 -28,-8 1,-16 1,-16 -3,-2 -3,9 -12,17 -20,17 -8,0 -23,9 -34,20 -28,28 -39,25 -47,-10 -3,-17 -10,-33 -14,-36 -17,-10 -9,-39 13,-49 11,-6 28,-21 36,-35 12,-21 11,-20 -10,4 -18,21 -31,28 -46,24 -13,-4 -20,-2 -19,5 1,6 -8,13 -20,15 -18,3 -23,-1 -23,-17 0,-14 -8,-22 -27,-27 -16,-3 -36,-9 -46,-12 -18,-7 -18,-9 2,-33 11,-15 18,-29 14,-32 -3,-4 0,-13 7,-22 9,-11 16,-12 26,-4 7,6 21,9 31,6 14,-4 13,-5 -5,-6 -15,-1 -21,-5 -16,-13 4,-7 3,-8 -4,-4 -7,4 -12,2 -12,-5 0,-7 -3,-9 -6,-6 -10,9 -46,-12 -39,-24 4,-5 15,-9 25,-9 10,0 23,-6 27,-14 4,-8 22,-16 38,-19 27,-4 26,-4 -7,-6 -28,-1 -38,3 -38,14 0,8 -7,15 -15,15 -8,0 -15,-9 -15,-20 0,-11 -4,-20 -10,-20 -15,0 -34,-41 -22,-49 7,-4 -3,-22 -24,-46 -34,-40 -34,-40 -27,-10 5,17 8,60 7,98 0,56 -6,78 -35,135 -55,108 -156,160 -262,134 l -42,-11 52,48 c 28,26 106,85 173,131 353,239 568,496 656,786 24,79 27,105 27,234 0,160 -14,231 -73,374 -70,167 -169,301 -453,609 -362,392 -449,547 -448,792 0,108 19,185 68,277 137,262 485,351 707,181 231,-177 198,-546 -59,-664 -33,-15 -81,-30 -107,-34 l -47,-6 -10,38 c -15,56 -37,81 -79,93 -39,10 -105,-1 -117,-21 -10,-14 -23,-2 -47,44 -17,32 -22,60 -22,117 0,64 4,83 29,129 35,64 94,117 148,133 22,7 35,14 28,16 -23,8 -102,-41 -146,-90 -80,-89 -96,-213 -42,-317 24,-46 25,-53 12,-78 -14,-27 -19,-23 -27,22 -3,16 -9,11 -30,-25 -63,-106 -62,-220 3,-349 21,-42 47,-85 57,-94 12,-11 6,7 -17,55 -33,65 -36,79 -36,157 0,76 3,91 28,134 16,27 42,57 59,67 29,17 31,17 62,0 17,-10 51,-24 76,-30 25,-7 51,-17 58,-22 7,-7 12,-7 12,-1 0,6 26,13 58,17 122,14 237,101 295,224 30,62 32,75 32,172 0,99 -2,110 -32,170 -43,87 -85,135 -157,182 -95,62 -218,86 -337,68 z m 42,-760 c 20,-6 43,-18 50,-27 13,-15 11,-16 -16,-9 -47,11 -85,28 -85,37 0,11 7,11 51,-1 z m 286,-2732 c -3,-8 -6,-5 -6,6 -1,11 2,17 5,13 3,-3 4,-12 1,-19 z M 914,1363 c 1,-23 10,-33 55,-55 67,-34 79,-46 26,-24 -66,27 -90,49 -92,85 -1,18 1,30 4,27 3,-3 6,-18 7,-33 z m 1353,-59 c -3,-3 -12,-4 -19,-1 -8,3 -5,6 6,6 11,1 17,-2 13,-5 z M 991,1205 c -18,-8 -38,-15 -45,-15 -15,1 46,28 64,29 8,0 0,-6 -19,-14 z m 39,-10 c 0,-3 -27,-18 -59,-35 -33,-16 -61,-35 -64,-42 -2,-8 -4,-7 -3,2 1,8 28,29 61,47 65,35 65,35 65,28 z m 90,-70 c 0,-5 -5,-3 -10,5 -5,8 -10,20 -10,25 0,6 5,3 10,-5 5,-8 10,-19 10,-25 z M 852,1039 C 832,1013 799,966 780,935 747,881 593,725 527,678 c -34,-24 -33,-23 34,78 61,91 151,204 229,287 53,58 64,65 80,55 17,-11 16,-15 -18,-59 z m 287,2 c 1,-48 -5,-35 -12,24 -4,32 -3,43 3,30 5,-11 9,-35 9,-54 z M 4080,872 c -1,-32 -2,-35 -12,-18 -6,11 -17,40 -24,65 l -14,46 25,-28 c 17,-19 25,-40 25,-65 z"
       id="path150" />
    <path
       d="m 9950,4919 c -220,-43 -378,-269 -340,-486 31,-182 157,-308 330,-331 68,-10 153,8 206,43 24,16 27,15 61,-11 21,-16 46,-50 60,-82 22,-47 25,-64 21,-131 -4,-64 -10,-88 -41,-145 -25,-48 -30,-63 -16,-50 11,10 39,56 62,103 40,81 42,89 42,175 0,80 -3,97 -27,143 -32,61 -48,74 -48,40 0,-36 -12,-41 -25,-10 -10,24 -8,35 14,77 53,103 33,241 -49,325 -38,39 -107,81 -132,81 -7,0 7,-10 32,-21 58,-26 105,-72 138,-134 36,-68 38,-179 4,-242 -12,-24 -26,-43 -29,-43 -4,0 -27,7 -50,16 -79,30 -145,-6 -162,-89 -7,-31 -8,-32 -54,-29 -133,9 -251,103 -303,242 -26,67 -24,210 3,277 46,117 151,214 267,248 64,19 186,19 261,0 295,-77 450,-413 344,-747 -45,-143 -155,-294 -424,-583 -323,-348 -432,-513 -497,-753 -31,-115 -31,-317 0,-431 81,-299 312,-580 677,-821 44,-29 114,-80 155,-113 56,-46 66,-51 40,-23 -19,21 -94,82 -165,135 -170,128 -215,186 -215,280 0,65 13,98 56,142 44,45 45,84 2,84 l -26,-1 20,28 c 23,33 56,43 106,33 20,-4 55,-8 77,-9 32,-1 40,3 43,18 2,11 -4,26 -14,34 -18,13 -17,14 6,7 14,-4 39,-20 55,-36 29,-29 30,-32 30,-124 1,-76 4,-98 18,-112 16,-16 18,-16 40,5 19,19 22,33 22,96 0,68 -3,77 -31,112 -78,96 -229,111 -330,32 -15,-12 -40,-42 -55,-67 -16,-25 -29,-40 -29,-35 0,6 13,31 29,57 44,68 116,107 202,107 142,0 233,-82 233,-210 1,-99 -60,-158 -165,-162 l -54,-1 45,-5 c 99,-8 172,45 186,135 20,136 -75,249 -221,261 -116,9 -219,-53 -266,-161 -34,-78 -33,-201 3,-279 15,-32 23,-58 18,-58 -11,0 -140,142 -195,216 -200,267 -251,551 -122,680 93,92 229,78 277,-29 36,-77 17,-161 -44,-198 -41,-25 -48,-24 -40,6 13,52 -56,79 -78,30 -9,-21 -8,-28 8,-46 16,-17 27,-20 67,-16 101,9 156,119 112,224 -31,73 -92,113 -174,113 -64,0 -91,-11 -140,-55 -55,-50 -82,-113 -89,-210 l -6,-80 -7,60 c -24,198 69,406 236,530 92,68 160,90 281,90 96,0 103,-2 177,-38 81,-40 132,-89 165,-161 79,-169 -22,-335 -203,-336 -105,0 -186,69 -205,176 l -9,49 3,-47 c 4,-61 46,-131 98,-165 53,-36 148,-43 214,-18 104,39 158,122 157,237 -1,153 -118,288 -288,332 -174,46 -349,-7 -490,-149 -70,-71 -134,-174 -161,-260 -13,-40 -13,-40 -13,-8 -2,79 43,233 104,353 74,147 162,261 405,525 219,237 319,368 387,506 54,109 68,178 67,319 0,114 -3,132 -31,206 -74,197 -210,319 -398,359 -77,16 -137,17 -205,4 z m 190,-758 c 0,-11 -95,-44 -112,-39 -14,5 70,48 95,48 9,0 17,-4 17,-9 z M 9677,2328 c -3,-8 -6,-5 -6,6 -1,11 2,17 5,13 3,-3 4,-12 1,-19 z"
       id="path152" />
    <path
       d="m 382,4868 c -7,-7 -12,-35 -12,-62 0,-45 -16,-129 -35,-191 -3,-11 7,7 23,40 16,33 46,82 66,110 20,27 32,51 26,53 -6,2 -8,8 -4,13 3,5 2,18 -1,29 -7,22 -44,27 -63,8 z"
       id="path154" />
    <path
       d="m 873,4703 c 9,-2 25,-2 35,0 9,3 1,5 -18,5 -19,0 -27,-2 -17,-5 z"
       id="path156" />
    <path
       d="m 938,4693 c 7,-3 16,-2 19,1 4,3 -2,6 -13,5 -11,0 -14,-3 -6,-6 z"
       id="path158" />
    <path
       d="m 971,4686 c 2,-2 15,-9 29,-15 24,-11 24,-11 6,3 -16,13 -49,24 -35,12 z"
       id="path160" />
    <path
       d="m 9988,4663 c 12,-2 32,-2 45,0 12,2 2,4 -23,4 -25,0 -35,-2 -22,-4 z"
       id="path162" />
    <path
       d="m 1045,4640 c 10,-11 20,-20 23,-20 3,0 -3,9 -13,20 -10,11 -20,20 -23,20 -3,0 3,-9 13,-20 z"
       id="path164" />
    <path
       d="m 9908,4644 c -16,-8 -28,-17 -28,-20 0,-2 12,2 28,9 15,8 34,17 42,20 13,5 13,5 0,6 -8,0 -27,-7 -42,-15 z"
       id="path166" />
    <path
       d="m 9844,4598 -19,-23 23,19 c 21,18 27,26 19,26 -2,0 -12,-10 -23,-22 z"
       id="path168" />
    <path
       d="m 760,4473 c 0,-41 31,-85 80,-112 l 43,-24 -25,34 c -14,19 -29,45 -33,59 -19,66 -65,96 -65,43 z"
       id="path170" />
    <path
       d="m 10084,4413 c -10,-27 -26,-60 -36,-75 -23,-34 -15,-35 28,-6 58,40 89,128 45,128 -14,0 -24,-13 -37,-47 z"
       id="path172" />
    <path
       d="m 1183,4141 c -97,-33 -155,-85 -205,-186 -69,-137 -63,-340 15,-517 14,-32 29,-58 32,-58 3,0 -1,13 -10,30 -8,16 -15,33 -15,37 1,4 10,-9 21,-30 11,-21 17,-43 13,-49 -4,-6 -3,-8 3,-5 6,4 18,-11 28,-33 10,-22 25,-46 33,-53 12,-9 12,-5 -2,21 -22,43 -23,125 -1,158 20,30 16,63 -8,78 -15,9 -22,7 -38,-13 -14,-17 -19,-19 -19,-7 0,9 23,41 50,71 29,32 50,65 50,78 0,76 -116,54 -139,-26 l -9,-32 -1,33 c -1,24 7,42 28,63 16,16 36,29 44,29 26,0 67,40 67,65 0,52 -77,69 -122,28 -25,-22 -22,-2 5,38 35,54 96,79 190,79 73,0 80,2 108,29 35,35 36,52 6,86 -16,20 -35,28 -69,32 -61,7 -107,-9 -162,-58 -54,-48 -82,-92 -108,-167 -16,-49 -18,-52 -14,-18 7,51 56,153 95,199 18,20 61,51 97,68 205,101 419,-51 334,-238 -11,-25 -33,-51 -52,-63 -18,-11 -28,-20 -22,-20 21,0 64,42 84,81 56,108 -8,236 -136,275 -62,18 -108,17 -171,-5 z M 947,3743 c -3,-10 -5,-4 -5,12 0,17 2,24 5,18 2,-7 2,-21 0,-30 z"
       id="path174" />
    <path
       d="m 9550,4111 c -134,-44 -194,-164 -139,-278 22,-45 71,-88 92,-80 8,4 7,6 -4,6 -20,1 -75,59 -88,94 -43,114 41,231 180,252 98,15 225,-47 289,-140 35,-51 70,-141 69,-177 0,-13 -8,1 -18,32 -24,76 -43,109 -87,154 -48,49 -106,76 -167,76 -40,0 -53,-5 -78,-29 -35,-36 -36,-52 -5,-87 22,-26 30,-28 125,-34 111,-7 136,-18 179,-80 29,-44 28,-56 -4,-31 -32,25 -61,27 -92,5 -41,-29 -21,-84 38,-99 48,-12 81,-52 79,-97 0,-23 0,-23 -10,2 -17,43 -50,70 -84,70 -63,0 -74,-53 -22,-103 17,-18 40,-43 49,-57 24,-34 23,-59 0,-29 -12,14 -25,20 -36,16 -27,-10 -30,-35 -10,-80 23,-49 22,-113 -2,-158 -13,-27 -14,-31 -2,-22 8,7 23,31 33,53 10,22 22,37 28,33 6,-3 7,-1 3,5 -4,6 2,28 13,49 11,21 20,34 21,30 0,-4 -7,-21 -15,-37 -9,-17 -13,-30 -10,-30 11,0 57,114 76,189 23,91 25,224 3,306 -42,163 -166,274 -313,281 -36,2 -77,0 -91,-5 z m 407,-398 c -3,-10 -5,-2 -5,17 0,19 2,27 5,18 2,-10 2,-26 0,-35 z"
       id="path176" />
    <path
       d="m 1343,3783 c 9,-2 25,-2 35,0 9,3 1,5 -18,5 -19,0 -27,-2 -17,-5 z"
       id="path178" />
    <path
       d="m 9590,3760 c -9,-6 -10,-10 -3,-10 6,0 15,5 18,10 8,12 4,12 -15,0 z"
       id="path180" />
    <path
       d="m 9528,3743 c 6,-2 18,-2 25,0 6,3 1,5 -13,5 -14,0 -19,-2 -12,-5 z"
       id="path182" />
    <path
       d="m 305,3626 c -57,-57 -8,-95 137,-107 170,-15 324,-65 458,-150 28,-17 26,-13 -14,22 -97,87 -203,161 -295,206 -84,42 -104,47 -177,51 -79,4 -84,3 -109,-22 z"
       id="path184" />
    <path
       d="m 10432,3605 c -78,-17 -207,-85 -304,-159 -79,-61 -178,-148 -138,-122 133,86 295,140 461,155 123,10 164,28 164,71 0,53 -82,77 -183,55 z"
       id="path186" />
    <path
       d="m 510,3457 c -64,-32 -10,-80 137,-121 188,-52 337,-138 448,-258 57,-61 58,-62 35,-20 -42,75 -150,202 -224,263 -141,116 -316,177 -396,136 z"
       id="path188" />
    <path
       d="m 10230,3414 c -127,-34 -280,-150 -390,-295 -89,-119 -106,-157 -34,-80 68,73 151,135 249,183 65,33 114,50 256,92 189,55 111,151 -81,100 z"
       id="path190" />
    <path
       d="m 663,3240 c -110,-26 -64,-90 64,-90 138,0 300,-70 404,-172 70,-69 64,-50 -13,39 -103,122 -225,201 -338,223 -59,11 -71,11 -117,0 z"
       id="path192" />
    <path
       d="m 10093,3195 c -108,-30 -220,-108 -309,-213 -74,-90 -89,-119 -27,-55 107,110 238,170 399,183 105,8 144,20 144,45 0,43 -117,65 -207,40 z"
       id="path194" />
    <path
       d="M 672,3058 C 506,3039 386,2924 374,2772 l -5,-57 21,37 c 11,21 34,45 50,53 22,11 30,23 30,43 1,42 33,104 73,139 100,88 287,80 442,-18 38,-24 45,-26 31,-10 -32,35 -155,90 -221,99 -33,4 -88,4 -123,0 z"
       id="path196" />
    <path
       d="m 10090,3020 c -57,-12 -180,-72 -206,-101 -13,-15 -5,-12 29,11 81,54 150,74 257,75 86,0 100,-3 147,-29 62,-34 104,-92 111,-154 4,-32 10,-46 26,-52 26,-10 52,-38 65,-70 9,-23 10,-22 10,15 2,123 -82,235 -213,284 -63,23 -166,33 -226,21 z"
       id="path198" />
    <path
       d="m 922,2832 c -70,-3 -76,-13 -24,-48 19,-13 55,-24 98,-28 78,-8 114,-24 167,-75 l 39,-36 -13,30 c -20,48 -57,93 -81,100 -13,4 -34,17 -48,30 -30,27 -54,32 -138,27 z"
       id="path200" />
    <path
       d="m 9875,2790 c -12,-4 -27,-15 -35,-24 -7,-10 -28,-23 -45,-30 -34,-14 -67,-54 -80,-96 -7,-21 -2,-19 39,17 46,41 105,63 166,63 38,0 90,21 109,44 8,9 12,18 10,20 -10,8 -146,14 -164,6 z"
       id="path202" />
    <path
       d="m 1013,2374 c -3,-8 2,-42 12,-74 22,-74 17,-153 -18,-239 -34,-85 -7,-59 42,40 61,121 66,215 16,265 -28,28 -43,30 -52,8 z"
       id="path204" />
    <path
       d="m 9831,2324 c -46,-58 -39,-148 20,-262 52,-100 75,-123 42,-42 -34,86 -41,165 -18,240 10,32 15,66 12,74 -9,24 -33,19 -56,-10 z"
       id="path206" />
    <path
       d="m 874,2148 c 17,-120 18,-204 2,-248 -8,-24 -13,-46 -11,-48 7,-7 57,88 71,135 29,97 5,203 -47,203 -19,0 -21,-4 -15,-42 z"
       id="path208" />
    <path
       d="m 9973,2123 c -13,-20 -18,-47 -18,-98 0,-59 6,-80 34,-137 43,-86 67,-108 39,-36 -20,53 -21,122 -2,256 6,38 4,42 -15,42 -11,0 -28,-12 -38,-27 z"
       id="path210" />
    <path
       d="m 629,1903 c -13,-16 -12,-17 4,-4 9,7 17,15 17,17 0,8 -8,3 -21,-13 z"
       id="path212" />
    <path
       d="m 570,1874 c -24,-9 -29,-13 -14,-13 11,-1 29,6 40,14 22,17 20,17 -26,-1 z"
       id="path214" />
    <path
       d="m 10250,1876 c 0,-2 8,-10 18,-17 15,-13 16,-12 3,4 -13,16 -21,21 -21,13 z"
       id="path216" />
    <path
       d="m 3750,1568 c -58,-30 -90,-78 -89,-132 l 2,-41 6,46 c 9,61 34,97 84,120 75,34 158,17 214,-43 83,-89 67,-270 -33,-373 -49,-50 -149,-103 -210,-111 -34,-4 -31,-2 18,14 31,11 71,29 90,40 130,81 182,250 93,308 -21,14 -30,14 -54,5 -39,-17 -51,-49 -51,-134 0,-87 -27,-150 -79,-184 -40,-27 -60,-30 -39,-5 23,26 30,56 18,86 -21,58 -80,47 -106,-19 -21,-55 -56,-85 -98,-84 l -31,1 32,9 c 57,16 87,74 63,120 -19,34 -58,24 -116,-31 -29,-27 -61,-50 -71,-49 -11,0 -13,3 -5,6 7,2 17,14 23,25 23,42 -34,64 -81,31 -28,-20 -106,-21 -139,-3 -39,20 -34,3 6,-21 21,-13 41,-28 45,-34 11,-19 119,-64 204,-85 87,-22 205,-26 286,-9 120,26 235,115 280,217 32,71 30,172 -5,239 -52,101 -162,140 -257,91 z m -440,-473 c 14,-8 21,-14 15,-14 -5,0 -21,6 -35,14 -14,8 -20,14 -15,14 6,0 21,-6 35,-14 z m 60,-25 c 8,-5 11,-10 5,-10 -5,0 -17,5 -25,10 -8,5 -10,10 -5,10 6,0 17,-5 25,-10 z m 293,-47 c -7,-2 -21,-2 -30,0 -10,3 -4,5 12,5 17,0 24,-2 18,-5 z"
       id="path218" />
    <path
       d="m 6950,1579 c -35,-14 -78,-57 -103,-104 -30,-55 -30,-171 0,-237 98,-216 397,-289 685,-166 26,11 45,24 42,29 -3,5 3,6 12,2 12,-4 15,-3 10,5 -5,8 -1,10 11,5 10,-3 15,-2 11,2 -5,5 15,21 42,37 28,16 50,30 50,33 0,2 -19,-2 -41,-10 -52,-19 -107,-19 -139,0 -14,8 -37,14 -51,15 -45,0 -49,-47 -6,-68 12,-6 16,-11 9,-11 -22,-1 -65,26 -101,63 -53,55 -111,46 -111,-16 0,-31 39,-78 64,-78 8,0 18,-5 22,-11 8,-14 -55,-2 -75,14 -7,6 -23,34 -36,63 -28,62 -56,74 -91,39 -13,-13 -24,-31 -24,-40 0,-22 27,-72 42,-78 7,-3 9,-6 3,-6 -5,0 -28,9 -50,22 -58,32 -85,91 -85,183 0,86 -11,120 -44,135 -86,39 -135,-73 -82,-186 37,-80 115,-138 229,-170 50,-15 50,-15 10,-10 -131,16 -262,115 -298,225 -56,168 27,320 176,320 89,0 146,-48 160,-134 l 6,-41 2,36 c 1,43 -30,94 -78,126 -37,25 -123,31 -171,12 z m 600,-489 c -8,-5 -19,-10 -25,-10 -5,0 -3,5 5,10 8,5 20,10 25,10 6,0 3,-5 -5,-10 z"
       id="path220" />
    <path
       d="m 9636,1454 c -3,-9 -6,-24 -6,-35 0,-10 -4,-19 -10,-19 -18,0 -10,-38 9,-43 22,-5 43,-34 67,-92 22,-54 10,-41 -24,26 -23,45 -31,54 -54,54 -14,-1 -25,2 -22,6 4,7 -19,19 -37,19 -5,0 -9,-9 -9,-20 0,-13 -9,-22 -27,-26 -64,-14 -63,-13 -51,-40 6,-13 15,-24 20,-24 5,0 6,-5 3,-10 -8,-13 14,-42 25,-35 5,3 12,0 16,-6 4,-8 3,-9 -4,-5 -7,4 -12,2 -12,-5 0,-7 -3,-9 -6,-6 -10,9 -46,-12 -39,-24 4,-5 15,-9 26,-9 11,0 22,-7 25,-15 8,-19 50,-19 104,0 24,8 45,13 47,11 8,-7 -91,-36 -124,-36 -23,0 -33,5 -33,15 0,8 -7,15 -15,15 -8,0 -15,-7 -15,-15 0,-8 -9,-24 -20,-35 -27,-27 -25,-39 8,-45 15,-4 35,-10 44,-16 27,-14 36,-11 40,14 2,16 20,30 64,52 58,28 61,32 61,66 0,34 -3,38 -48,60 -27,12 -55,30 -63,38 -14,17 -21,91 -8,91 4,0 7,-19 7,-42 0,-42 1,-43 61,-75 50,-27 64,-30 78,-20 15,11 15,15 0,60 -9,26 -14,50 -12,53 3,2 11,-16 18,-41 12,-43 43,-75 58,-60 4,3 20,32 37,63 27,51 34,57 62,58 18,1 30,-2 28,-6 -3,-4 -16,-5 -29,-3 -22,5 -28,-2 -56,-57 -28,-55 -30,-66 -20,-90 7,-16 9,-37 6,-48 -5,-15 1,-21 34,-32 23,-7 43,-17 46,-22 3,-4 -16,0 -43,10 -55,22 -94,15 -111,-21 -11,-20 -11,-20 -6,6 10,43 -12,31 -30,-18 -10,-25 -22,-47 -26,-50 -5,-3 0,15 11,40 11,25 19,50 17,55 -2,6 -32,-4 -67,-20 -59,-28 -63,-32 -59,-59 3,-18 0,-29 -6,-28 -6,1 -12,-9 -14,-22 -2,-15 0,-21 8,-16 17,11 40,-15 40,-46 0,-36 15,-45 45,-25 13,9 30,16 36,16 7,0 20,7 30,16 15,14 17,14 15,-3 0,-10 4,-17 11,-16 8,2 10,-4 6,-14 -4,-11 -3,-14 5,-9 7,4 13,17 13,29 1,17 2,18 6,5 2,-10 13,-18 24,-18 10,0 19,-3 19,-8 0,-4 10,-13 21,-21 18,-11 23,-11 30,1 6,10 17,4 46,-24 l 38,-38 -35,10 c -125,36 -281,-24 -339,-130 -26,-46 -34,-129 -18,-180 14,-44 -74,59 -163,191 -248,366 -513,586 -806,671 -68,20 -101,23 -234,22 -139,-1 -165,-4 -245,-28 -168,-51 -341,-152 -512,-300 -37,-32 -142,-128 -233,-212 -353,-327 -510,-419 -735,-431 -179,-9 -321,42 -436,156 -110,110 -155,228 -147,383 4,69 12,100 36,152 96,205 328,296 525,208 125,-57 201,-158 221,-292 l 6,-45 -47,-15 c -60,-19 -88,-56 -87,-115 0,-24 8,-55 18,-69 16,-25 16,-26 -23,-46 -69,-35 -126,-42 -192,-26 -102,26 -171,88 -205,183 -7,21 -13,30 -14,20 0,-10 11,-39 24,-66 70,-137 241,-195 378,-128 54,26 59,27 85,13 l 28,-15 -34,-1 c -33,0 -34,-1 -17,-19 45,-49 152,-75 248,-60 69,10 166,53 213,94 l 30,26 -45,-25 c -147,-80 -292,-69 -379,29 l -32,36 20,32 c 11,18 25,55 32,82 7,28 17,53 23,57 8,6 8,8 0,8 -6,0 -14,25 -17,57 -21,207 -235,363 -455,332 -280,-40 -441,-345 -333,-630 62,-163 206,-286 392,-336 84,-22 242,-22 329,1 150,39 340,160 546,348 287,261 346,312 418,366 182,138 368,217 551,235 l 60,6 -57,-18 c -196,-64 -365,-235 -413,-416 -64,-249 92,-507 317,-523 113,-8 197,36 242,127 30,60 38,112 25,171 -18,86 -115,171 -191,169 -37,-1 -30,-4 25,-14 43,-7 109,-61 134,-109 10,-19 16,-55 16,-91 0,-213 -243,-301 -412,-149 -213,191 -159,530 113,712 122,82 251,113 392,96 l 69,-8 -96,-6 c -81,-5 -104,-11 -149,-36 -72,-41 -112,-98 -118,-168 -6,-71 11,-117 58,-160 92,-83 225,-64 270,37 27,62 11,117 -35,117 -30,0 -49,-24 -41,-54 7,-29 31,-40 57,-26 36,20 12,-44 -31,-77 -54,-44 -151,-34 -206,21 -96,96 -45,254 96,301 76,25 210,16 310,-20 155,-56 314,-161 445,-295 l 70,-71 -60,28 c -52,24 -72,28 -155,28 -106,0 -163,-20 -221,-77 -54,-54 -74,-104 -74,-188 0,-88 21,-136 83,-192 111,-100 293,-53 307,79 5,37 5,37 -4,6 -36,-138 -207,-168 -313,-56 -54,57 -74,162 -47,244 23,69 94,137 159,153 14,4 4,-5 -21,-18 -95,-51 -148,-146 -136,-246 17,-140 144,-225 262,-175 44,18 55,43 29,62 -14,11 -36,13 -91,8 -87,-7 -133,9 -163,57 -25,41 -26,56 -1,34 11,-10 25,-14 36,-10 18,7 18,21 -1,137 -7,41 11,78 46,97 16,9 18,8 14,-5 -8,-19 13,-45 35,-45 10,0 32,16 51,35 75,77 167,82 267,15 44,-29 79,-67 144,-157 173,-236 292,-311 359,-226 26,33 25,54 -1,87 -24,30 -62,32 -67,3 -5,-24 28,-35 43,-14 16,22 25,11 25,-28 0,-99 -140,-78 -171,25 -32,105 35,215 159,263 43,17 154,22 202,8 23,-7 21,-8 -16,-14 -80,-13 -143,-75 -151,-149 -13,-117 111,-195 188,-119 18,18 29,40 29,56 0,18 4,25 13,22 145,-65 179,-68 237,-27 l 30,22 56,-32 c 87,-49 92,-40 39,70 -26,52 -72,139 -102,193 -49,85 -56,105 -56,152 0,64 27,114 79,146 102,63 233,-45 163,-135 -23,-29 -60,-34 -79,-11 -7,8 -9,15 -4,15 5,0 -6,10 -24,22 -30,19 -35,19 -49,5 -14,-14 -13,-18 13,-44 22,-22 29,-39 31,-78 2,-27 10,-75 19,-105 9,-30 13,-69 11,-87 -7,-41 -2,-41 23,0 26,42 25,102 -1,172 -12,31 -19,58 -17,59 1,1 22,8 45,15 99,28 98,153 -2,201 -58,28 -112,20 -161,-22 -46,-41 -57,-63 -64,-128 l -6,-55 -13,45 c -19,64 -10,174 19,230 72,144 235,194 325,100 36,-38 42,-103 10,-126 -25,-18 -69,-18 -85,1 -10,12 -10,15 3,15 16,0 30,24 20,34 -4,3 -15,6 -25,6 -13,0 -18,-8 -18,-30 0,-41 48,-67 91,-49 36,14 49,36 49,81 0,34 -30,102 -46,104 -5,0 -20,5 -34,11 -53,22 -90,24 -143,9 -69,-20 -129,-73 -163,-144 -23,-47 -28,-71 -28,-139 -1,-45 -2,-81 -3,-80 0,1 -29,38 -63,82 -34,44 -65,79 -70,78 -8,-3 -1,13 40,79 9,15 6,18 -17,24 -16,3 -38,10 -50,16 -13,6 -24,9 -25,7 -2,-2 -8,-13 -14,-24 -12,-21 -73,-59 -114,-69 -14,-4 3,7 36,22 70,34 69,33 78,87 6,35 4,41 -16,50 -13,6 -23,19 -24,30 -2,50 -4,54 -21,48 -10,-3 -25,-12 -33,-19 -14,-12 -20,-14 -39,-14 -5,0 -6,-19 -4,-42 3,-29 -2,-59 -16,-93 -11,-27 -20,-45 -20,-39 -1,6 6,28 14,47 17,41 20,107 5,107 -5,0 -10,6 -10,14 0,19 -26,40 -35,26 -10,-16 -40,-12 -60,10 -22,24 -31,25 -39,4 z m 123,-42 c 0,-14 -2,-13 -9,3 -5,12 -9,14 -9,6 -1,-8 -4,-12 -7,-8 -9,9 6,28 17,22 5,-4 9,-14 8,-23 z m -46,-19 c -7,-2 -13,-14 -14,-26 0,-12 -3,-16 -6,-9 -7,18 4,42 19,41 10,0 10,-2 1,-6 z m 214,-55 c -3,-8 -6,-5 -6,6 -1,11 2,17 5,13 3,-3 4,-12 1,-19 z m -284,-135 c 62,-25 37,-23 -38,3 -38,13 -54,21 -35,18 19,-4 52,-13 73,-21 z m 321,18 c 4,-5 -3,-7 -14,-4 -23,6 -26,13 -6,13 8,0 17,-4 20,-9 z m -45,-5 c -2,-2 -26,-10 -53,-19 -53,-18 -55,-10 -3,10 31,11 65,17 56,9 z m 87,-61 c -3,-9 22,-48 65,-102 113,-141 288,-417 274,-431 -9,-9 -217,210 -245,257 -14,24 -40,66 -58,93 -23,35 -29,54 -21,58 13,8 3,50 -12,50 -5,0 -9,8 -9,18 0,10 -5,23 -11,29 -8,8 -8,15 2,27 18,20 23,20 15,1 z m -149,-6 c 15,-6 48,-15 73,-20 l 45,-8 -45,3 c -25,2 -61,10 -80,19 -40,18 -35,22 7,6 z m -6,-145 c 8,-5 28,-9 46,-11 30,-2 32,0 30,31 -1,19 -9,42 -17,52 -14,18 -14,18 6,2 13,-11 20,-31 21,-57 l 2,-41 -38,3 c -21,1 -46,9 -56,17 -19,16 -55,83 -55,102 0,7 11,-10 24,-38 13,-28 30,-55 37,-60 z m -54,-10 c 3,-23 1,-44 -4,-47 -5,-3 -8,7 -5,23 2,16 -3,50 -12,76 -20,59 -19,70 1,24 9,-19 18,-54 20,-76 z m -88,22 c -6,-21 -8,-44 -5,-52 3,-9 1,-12 -4,-9 -6,3 -10,12 -10,18 0,19 21,89 25,85 3,-2 0,-21 -6,-42 z m -59,-21 c -12,-14 -74,-15 -88,0 -3,3 13,3 36,0 22,-3 44,-1 47,5 3,5 9,10 12,10 3,0 0,-7 -7,-15 z m 548,-269 c 135,-140 145,-162 45,-95 -95,63 -192,140 -295,232 -66,58 -76,71 -66,86 18,29 190,-92 316,-223 z M 6805,890 c -9,-28 -21,-48 -26,-44 -11,6 -2,47 19,89 22,43 27,14 7,-45 z m 3245,-146 c 19,-14 72,-51 118,-81 114,-75 90,-99 -50,-48 -38,14 -84,25 -102,25 -24,0 -38,7 -54,30 -37,49 -75,34 -52,-21 7,-16 18,-29 25,-29 31,0 33,-63 3,-84 -76,-54 -174,31 -147,127 11,39 65,94 105,107 45,15 115,3 154,-26 z"
       id="path222" />
    <path
       d="m 1170,1369 c -12,-22 -25,-51 -31,-65 -9,-25 -8,-26 18,-20 26,5 27,5 6,-6 -17,-8 -21,-17 -17,-34 3,-12 1,-31 -4,-40 -7,-13 -6,-30 6,-59 26,-66 48,-92 88,-100 43,-8 53,-1 36,26 -7,11 -10,24 -6,30 9,16 -17,40 -71,65 -27,13 -44,24 -37,24 18,0 86,-36 106,-56 10,-9 14,-24 11,-34 -7,-21 9,-35 28,-23 12,7 17,9 50,11 21,2 22,25 2,46 -8,8 -15,24 -15,35 0,12 -4,21 -10,21 -5,0 -10,5 -10,10 0,6 6,10 14,10 7,0 19,6 25,14 9,10 8,15 -4,19 -8,4 -14,1 -12,-5 1,-6 -5,-13 -13,-15 -12,-4 -12,-3 -2,5 8,5 13,11 12,13 -3,8 14,45 32,68 21,27 11,41 -29,41 -13,0 -23,5 -23,10 0,6 -9,10 -20,10 -11,0 -20,-6 -20,-14 0,-7 -7,-20 -17,-27 -15,-13 -15,-12 -3,7 7,12 10,32 7,46 -5,20 -13,25 -42,26 -31,1 -37,-3 -55,-39 z m 56,-64 c -11,-8 -25,-15 -30,-15 -6,1 0,7 14,15 32,19 40,18 16,0 z m 78,-21 c 9,-3 16,-11 16,-16 0,-6 -6,-5 -15,2 -11,9 -25,10 -57,2 -51,-13 -65,-7 -17,7 43,12 53,12 73,5 z m -114,-28 c 0,-2 -7,-7 -16,-10 -8,-3 -12,-2 -9,4 6,10 25,14 25,6 z m 85,-67 40,-6 -35,-1 c -19,-1 -48,5 -65,13 -24,12 -25,13 -5,8 14,-4 43,-10 65,-14 z"
       id="path224" />
    <path
       d="m 7176,1383 c -6,-14 -5,-15 5,-6 7,7 10,15 7,18 -3,3 -9,-2 -12,-12 z"
       id="path226" />
    <path
       d="m 3680,1366 c 0,-2 8,-10 18,-17 15,-13 16,-12 3,4 -13,16 -21,21 -21,13 z"
       id="path228" />
    <path
       d="m 8278,1260 c -36,-19 -78,-64 -78,-83 0,-5 -12,-20 -26,-33 -24,-23 -25,-29 -22,-113 2,-81 4,-88 20,-80 27,15 38,42 53,135 14,86 37,131 90,176 27,23 9,22 -37,-2 z"
       id="path230" />
    <path
       d="m 2562,1243 c 46,-50 58,-79 73,-168 10,-63 20,-94 36,-111 12,-13 25,-24 28,-24 3,0 7,38 9,85 3,77 2,86 -20,108 -13,13 -31,40 -40,60 -11,23 -31,43 -57,57 -54,27 -60,25 -29,-7 z"
       id="path232" />
    <path
       d="m 2862,1203 c 106,-114 167,-264 168,-413 0,-30 6,-66 13,-80 33,-65 79,-10 78,95 -1,116 -66,241 -187,355 -107,102 -153,129 -72,43 z"
       id="path234" />
    <path
       d="m 7972,1210 c -127,-106 -212,-235 -233,-356 -16,-90 15,-183 56,-168 20,8 26,29 35,136 15,162 69,283 178,400 24,26 43,48 41,48 -2,0 -37,-27 -77,-60 z"
       id="path236" />
    <path
       d="m 7887,1190 c -160,-107 -297,-264 -347,-396 -41,-112 -34,-229 14,-229 31,0 56,46 92,170 58,194 132,324 253,438 39,37 69,67 67,67 -2,0 -38,-23 -79,-50 z"
       id="path238" />
    <path
       d="m 2967,1164 c 123,-121 188,-237 244,-431 34,-119 54,-160 82,-169 43,-14 65,53 47,146 -31,163 -172,345 -370,477 -75,50 -75,48 -3,-23 z"
       id="path240" />
    <path
       d="m 2047,1159 c -52,-18 -187,-94 -187,-105 0,-2 17,4 38,15 96,49 202,63 277,36 73,-26 107,-16 85,26 -27,49 -117,61 -213,28 z"
       id="path242" />
    <path
       d="m 8650,1173 c -24,-9 -60,-45 -60,-60 0,-23 27,-26 80,-8 72,24 176,17 260,-18 54,-22 61,-23 40,-7 -14,11 -58,37 -99,57 -60,30 -87,38 -140,40 -36,1 -73,0 -81,-4 z"
       id="path244" />
    <path
       d="m 4461,1167 c 2,-2 20,-14 39,-26 l 35,-23 -30,26 c -16,14 -34,26 -39,26 -5,0 -7,-1 -5,-3 z"
       id="path246" />
    <path
       d="m 6331,1125 c -17,-20 -31,-39 -31,-42 0,-4 3,-3 8,3 4,5 20,24 36,42 17,17 27,32 24,32 -3,0 -20,-16 -37,-35 z"
       id="path248" />
    <path
       d="m 8039,1123 c -13,-16 -12,-17 4,-4 9,7 17,15 17,17 0,8 -8,3 -21,-13 z"
       id="path250" />
    <path
       d="m 2832,1090 c 88,-119 120,-294 74,-405 -31,-72 -112,-134 -178,-135 -20,0 -32,-8 -43,-30 -8,-16 -32,-39 -53,-49 l -37,-20 36,-1 c 85,-1 181,50 239,126 67,88 90,254 50,369 -21,61 -70,144 -98,167 -9,7 -4,-3 10,-22 z"
       id="path252" />
    <path
       d="m 7990,1053 c -51,-80 -70,-145 -70,-237 0,-204 117,-346 298,-363 l 57,-5 -42,22 c -24,12 -47,34 -54,50 -10,22 -21,29 -51,33 -194,26 -259,282 -127,500 37,61 28,62 -11,0 z"
       id="path254" />
    <path
       d="m 6286,1055 c -3,-9 -6,-22 -5,-28 0,-7 5,-1 10,12 5,13 8,26 5,28 -2,2 -6,-3 -10,-12 z"
       id="path256" />
    <path
       d="m 4566,1035 c 8,-37 14,-45 14,-19 0,10 -5,26 -10,34 -8,11 -9,7 -4,-15 z"
       id="path258" />
    <path
       d="m 4866,1028 c -2,-7 -7,-56 -9,-108 -3,-52 -13,-115 -21,-139 -24,-66 -12,-61 23,11 38,78 56,161 44,207 -9,36 -30,52 -37,29 z"
       id="path260" />
    <path
       d="m 5960,1015 c -5,-14 -10,-39 -10,-55 0,-42 36,-150 66,-195 14,-22 22,-31 19,-20 -4,11 -11,34 -17,50 -5,17 -13,77 -16,134 -7,108 -22,139 -42,86 z"
       id="path262" />
    <path
       d="m 8867,1029 c -46,-7 -83,-40 -73,-64 4,-13 14,-16 34,-12 149,28 157,29 217,14 33,-8 69,-18 80,-22 18,-7 18,-6 -2,9 -75,56 -183,88 -256,75 z"
       id="path264" />
    <path
       d="m 1863,1015 c -44,-13 -137,-64 -131,-70 2,-2 24,3 48,11 44,16 128,15 248,-2 44,-6 51,1 32,36 -20,38 -116,51 -197,25 z"
       id="path266" />
    <path
       d="M 7572,952 C 7426,783 7340,623 7332,505 c -6,-91 13,-135 58,-135 46,0 62,34 72,153 4,56 17,138 28,182 20,80 82,222 121,276 33,46 16,34 -39,-29 z"
       id="path268" />
    <path
       d="m 3264,950 c 72,-109 118,-261 134,-438 8,-92 12,-107 35,-130 23,-23 29,-24 52,-14 71,33 57,190 -31,348 -37,67 -155,224 -199,264 -24,22 -23,19 9,-30 z"
       id="path270" />
    <path
       d="m 6272,975 c 0,-16 2,-22 5,-12 2,9 2,23 0,30 -3,6 -5,-1 -5,-18 z"
       id="path272" />
    <path
       d="m 4581,974 c 0,-11 3,-14 6,-6 3,7 2,16 -1,19 -3,4 -6,-2 -5,-13 z"
       id="path274" />
    <path
       d="m 6623,951 c -7,-10 -40,-30 -75,-43 -48,-18 -63,-29 -63,-43 0,-31 46,-31 83,0 31,26 78,93 70,100 -2,2 -9,-4 -15,-14 z"
       id="path276" />
    <path
       d="m 4239,923 c 24,-48 68,-83 104,-83 60,0 41,40 -31,64 -25,9 -57,26 -70,39 l -24,22 z"
       id="path278" />
    <path
       d="m 4953,800 c -42,-19 -143,-105 -143,-121 0,-5 19,4 42,21 51,38 127,61 173,53 45,-7 60,21 26,49 -29,23 -45,22 -98,-2 z"
       id="path280" />
    <path
       d="m 5806,807 c -10,-7 -16,-22 -14,-33 3,-16 11,-19 50,-16 49,4 154,-35 179,-64 6,-8 16,-14 22,-14 17,0 -63,79 -112,111 -48,31 -96,37 -125,16 z"
       id="path282" />
    <path
       d="m 4940,731 c -54,-17 -92,-44 -179,-126 -102,-94 -157,-135 -234,-171 -29,-14 -44,-23 -35,-20 72,21 109,28 175,34 56,5 79,12 87,24 16,26 -5,54 -38,51 -34,-2 -33,1 8,27 27,16 48,20 99,18 89,-3 122,27 80,74 -15,17 -14,18 23,18 21,0 64,-7 94,-15 74,-20 99,-19 140,7 l 35,22 -38,8 c -20,4 -55,17 -76,28 -46,23 -106,32 -141,21 z"
       id="path284" />
    <path
       d="m 5780,714 c -30,-14 -67,-26 -82,-27 -40,-3 -35,-15 15,-37 41,-18 44,-18 130,0 52,11 98,15 110,11 17,-7 18,-8 4,-14 -21,-8 -22,-50 -3,-66 8,-7 41,-11 77,-10 47,2 73,-3 99,-16 l 35,-19 -30,-6 c -22,-4 -31,-11 -33,-30 -5,-34 22,-50 87,-50 31,0 81,-7 111,-15 30,-8 57,-15 60,-15 3,0 -23,16 -58,34 -78,43 -109,66 -216,165 -134,125 -199,145 -306,95 z"
       id="path286" />
    <path
       d="m 1774,708 -19,-23 23,19 c 21,18 27,26 19,26 -2,0 -12,-10 -23,-22 z"
       id="path288" />
    <path
       d="m 9111,644 c 0,-11 3,-14 6,-6 3,7 2,16 -1,19 -3,4 -6,-2 -5,-13 z"
       id="path290" />
  </g>
</svg>
