<?xml version="1.0" standalone="no"?>
<!DOCTYPE svg PUBLIC "-//W3C//DTD SVG 20010904//EN"
 "http://www.w3.org/TR/2001/REC-SVG-20010904/DTD/svg10.dtd">
<svg version="1.0" xmlns="http://www.w3.org/2000/svg"
 width="964.000000pt" height="1280.000000pt" viewBox="0 0 964.000000 1280.000000"
 preserveAspectRatio="xMidYMid meet">
<metadata>
Created by potrace 1.15, written by Peter Selinger 2001-2017
</metadata>
<g transform="translate(0.000000,1280.000000) scale(0.100000,-0.100000)"
fill="#000000" stroke="none">
<path d="M9030 12786 c0 -9 3 -16 8 -16 4 0 8 -34 10 -75 l3 -75 -313 0 c-172
0 -330 -3 -350 -6 -33 -6 -39 -4 -47 17 l-9 24 -7 -29 -8 -29 -12 29 -11 29
-8 -25 -9 -25 -4 23 c-5 28 -28 39 -48 22 -11 -9 -16 -5 -24 27 -6 21 -13 55
-16 76 -11 68 -22 30 -12 -44 6 -51 6 -74 -3 -83 -7 -7 -111 -13 -338 -16
-311 -5 -328 -4 -343 14 -16 18 -16 18 -23 -5 -7 -23 -8 -23 -22 9 -16 37 -33
38 -51 1 l-13 -24 0 25 c0 18 -3 21 -9 11 -11 -17 -18 -6 -37 60 -20 66 -27
58 -13 -16 8 -42 7 -61 -1 -69 -8 -8 -113 -11 -353 -11 -329 0 -343 1 -360 20
-15 16 -20 17 -24 6 -4 -11 -10 -8 -23 9 -20 26 -40 20 -41 -13 l0 -22 -11 23
c-12 24 -28 29 -29 10 -1 -25 -28 48 -34 94 -4 27 -12 51 -17 55 -8 4 -9 -6
-5 -33 4 -21 10 -62 13 -90 l6 -52 -118 -6 c-66 -4 -225 -5 -354 -2 -207 3
-235 6 -238 20 -5 23 -22 10 -22 -17 -1 -20 -2 -20 -16 5 -18 35 -62 48 -80
24 -16 -23 -23 -10 -35 66 -6 34 -12 64 -15 67 -10 10 -11 -8 -3 -74 8 -61 7
-72 -8 -82 -12 -10 -85 -13 -279 -13 -143 0 -282 -3 -308 -6 -43 -6 -48 -5
-53 16 l-6 22 -13 -23 c-12 -23 -13 -23 -20 -4 -18 50 -53 54 -55 6 0 -26 0
-26 -10 -3 -5 13 -13 21 -18 18 -5 -4 -19 20 -30 51 l-21 58 6 -55 c3 -30 7
-59 8 -64 3 -21 -97 -27 -397 -23 -297 4 -319 6 -332 23 -14 18 -14 18 -15 -3
0 -30 -18 -30 -22 -1 -5 34 -34 34 -46 1 -9 -24 -11 -25 -11 -6 -1 21 -21 44
-21 24 0 -6 -4 -11 -9 -11 -8 0 -18 34 -37 128 -2 12 -8 22 -13 22 -4 0 -2
-37 6 -81 8 -45 11 -84 8 -88 -4 -3 -163 -7 -355 -7 -345 -1 -348 -1 -358 20
-11 21 -11 21 -11 -1 -1 -25 -21 -32 -21 -8 0 8 -4 15 -10 15 -5 0 -10 -10
-10 -22 -1 -19 -3 -18 -15 10 -16 35 -29 41 -43 15 -9 -15 -11 -14 -20 4 -6
11 -14 40 -18 64 -12 80 -24 77 -18 -5 8 -94 7 -96 -92 -96 -128 0 -223 -11
-217 -26 4 -10 -6 -10 -49 2 -61 16 -126 18 -183 4 -36 -8 -42 -7 -57 13 -16
20 -18 20 -18 4 0 -26 -24 -16 -28 11 -5 32 -38 28 -50 -5 -9 -25 -11 -26 -11
-6 -1 15 -6 21 -15 17 -10 -4 -19 11 -31 53 -9 32 -18 63 -21 68 -5 11 3 -60
12 -112 5 -28 3 -33 -17 -38 -34 -7 -261 -11 -474 -6 -99 2 -188 0 -197 -4
-12 -5 -21 1 -31 22 -13 24 -16 25 -22 11 -10 -24 -25 -23 -25 2 0 13 -7 20
-20 20 -11 0 -20 -7 -20 -15 0 -8 -4 -15 -10 -15 -5 0 -10 7 -10 15 0 18 -16
20 -23 3 -6 -18 -24 29 -32 86 -4 25 -12 49 -18 53 -7 4 -8 -7 -4 -33 4 -21
10 -62 13 -90 l6 -52 -208 -7 c-147 -5 -232 -4 -287 4 -59 9 -91 9 -133 1 -52
-11 -57 -10 -80 11 l-24 22 0 -24 -1 -24 -13 23 -12 23 -12 -23 c-10 -22 -11
-22 -11 -3 -2 38 -51 65 -51 28 0 -37 -21 6 -32 65 -6 34 -15 62 -20 62 -5 0
-6 -10 -3 -22 3 -13 6 -48 7 -78 l3 -55 -86 -7 c-48 -3 -96 -11 -107 -17 -23
-12 -27 -30 -41 -198 -5 -56 -12 -107 -15 -112 -4 -5 -26 1 -51 16 -25 13 -45
21 -45 16 0 -9 65 -53 79 -53 17 0 22 -19 11 -39 -7 -14 -7 -22 0 -26 8 -5 8
-11 0 -20 -8 -10 -8 -15 1 -20 8 -6 7 -10 -2 -17 -10 -7 -11 -11 -3 -14 9 -4
9 -11 0 -29 -8 -17 -22 -26 -51 -31 -59 -9 -81 -27 -25 -19 25 3 55 8 67 12
46 11 47 -7 46 -482 0 -49 -6 -109 -12 -133 l-12 -43 -44 25 c-24 14 -47 26
-51 26 -15 0 22 -33 57 -51 45 -22 54 -35 40 -53 -6 -7 -9 -27 -7 -44 2 -18
-1 -32 -7 -32 -5 0 -4 -6 3 -14 19 -24 -3 -49 -62 -68 l-53 -18 66 5 66 5 12
-88 c14 -109 14 -147 1 -192 -7 -24 -7 -58 2 -112 12 -80 -1 -231 -22 -252 -6
-6 -24 -3 -50 9 -53 24 -62 14 -13 -16 65 -39 74 -48 60 -70 -10 -16 -9 -21 2
-28 11 -7 11 -9 0 -14 -12 -5 -12 -7 0 -15 11 -8 11 -10 0 -14 -12 -4 -12 -7
0 -21 7 -10 9 -17 3 -17 -5 0 -12 -9 -15 -20 -3 -13 -14 -20 -29 -20 -32 0
-68 -11 -68 -20 0 -4 24 -3 52 1 43 7 55 6 64 -6 19 -26 36 -162 28 -218 -5
-29 -7 -97 -5 -152 2 -89 -11 -230 -22 -241 -3 -3 -21 5 -41 16 -19 12 -41 20
-47 18 -6 -2 12 -16 40 -31 49 -27 63 -48 41 -62 -8 -5 -8 -11 -1 -19 7 -9 7
-16 -1 -24 -9 -9 -7 -12 8 -12 18 -1 18 -2 2 -14 -14 -10 -15 -15 -5 -25 9 -9
9 -14 -1 -20 -8 -5 -12 -12 -10 -17 1 -5 -18 -13 -44 -19 -61 -13 -76 -29 -18
-20 25 3 53 9 62 11 12 4 21 -3 28 -18 16 -36 26 -159 18 -203 -4 -22 -5 -96
-2 -165 5 -111 -5 -235 -23 -263 -2 -4 -25 3 -49 17 -24 13 -44 21 -44 16 0
-11 49 -45 78 -54 25 -8 28 -25 10 -45 -11 -11 -10 -14 0 -18 9 -4 10 -8 2
-18 -8 -10 -8 -15 0 -20 8 -5 8 -10 0 -20 -8 -10 -8 -15 0 -20 19 -12 -35 -52
-78 -59 -23 -3 -44 -11 -48 -17 -7 -12 3 -11 98 8 23 5 29 1 39 -23 17 -40 17
-558 1 -596 -13 -31 -37 -35 -66 -13 -11 8 -25 15 -30 15 -11 -1 21 -30 68
-63 23 -15 24 -20 13 -39 -10 -16 -9 -22 1 -25 10 -4 10 -8 1 -19 -9 -11 -9
-14 1 -14 10 0 10 -3 1 -14 -8 -9 -8 -16 -2 -20 18 -12 -21 -45 -72 -62 -63
-21 -54 -28 19 -15 39 8 60 8 64 1 15 -24 32 -173 26 -222 -4 -29 -8 -123 -10
-208 -1 -85 -6 -163 -11 -173 -7 -17 -9 -16 -42 3 -19 11 -39 20 -44 20 -19 0
2 -20 40 -40 l39 -19 -3 -66 c-2 -36 1 -65 6 -65 5 0 2 -11 -7 -25 -10 -15
-29 -27 -52 -31 -58 -10 -75 -26 -22 -20 25 3 55 8 67 12 15 4 23 1 27 -14 12
-36 26 -185 18 -196 -4 -6 -7 -117 -7 -248 0 -130 -3 -240 -8 -244 -4 -4 -28
2 -53 14 -59 29 -53 6 7 -26 24 -13 42 -29 40 -35 -9 -29 -8 -77 1 -77 6 0 6
-6 -2 -15 -6 -8 -9 -19 -5 -24 14 -23 -15 -50 -60 -57 -25 -3 -48 -11 -51 -16
-4 -7 9 -7 37 -2 96 17 92 20 108 -79 12 -70 13 -99 3 -145 -7 -35 -9 -99 -5
-168 6 -113 -1 -208 -17 -234 -8 -13 -16 -12 -54 10 -25 13 -48 21 -52 18 -3
-4 19 -21 50 -38 65 -37 72 -46 55 -66 -6 -8 -9 -17 -6 -21 4 -3 2 -13 -5 -20
-7 -9 -8 -17 -2 -21 13 -10 11 -46 -4 -64 -7 -9 -33 -21 -57 -27 -25 -6 -45
-14 -45 -17 0 -2 28 -3 62 -2 l62 3 8 -50 c8 -52 9 -91 9 -335 0 -151 -6 -226
-21 -250 -7 -11 -15 -11 -49 5 -60 26 -60 12 -2 -24 56 -34 56 -34 41 -61 -8
-15 -6 -21 7 -29 17 -10 17 -10 0 -11 -12 0 -16 -4 -11 -12 28 -45 3 -85 -64
-104 -67 -20 -61 -30 8 -15 28 6 57 11 64 11 14 0 38 -118 37 -180 -1 -19 -1
-87 -1 -150 0 -114 -14 -278 -25 -288 -3 -3 -26 4 -50 16 -61 30 -57 12 5 -22
53 -29 57 -35 38 -54 -8 -8 -8 -15 2 -27 7 -9 8 -15 2 -15 -11 0 -10 -45 1
-56 3 -4 -1 -17 -9 -30 -11 -16 -29 -25 -60 -30 -24 -3 -47 -10 -50 -15 -7
-12 4 -11 66 2 31 7 56 7 61 2 20 -20 33 -173 21 -243 -8 -47 -8 -85 -1 -129
11 -69 -3 -247 -20 -264 -8 -8 -23 -4 -50 11 -21 12 -42 22 -46 22 -16 0 20
-32 56 -51 44 -22 54 -35 41 -52 -14 -17 -24 -67 -14 -67 10 0 9 -51 -1 -67
-4 -6 -24 -14 -45 -18 -71 -12 -72 -26 -1 -19 l66 6 13 -109 c9 -83 10 -123 1
-162 -7 -35 -8 -73 -1 -119 10 -74 -2 -238 -19 -255 -7 -7 -23 -4 -51 8 -56
25 -61 12 -7 -20 54 -31 72 -50 57 -60 -5 -3 -10 -13 -10 -21 0 -8 5 -12 10
-9 6 3 10 1 10 -4 0 -6 -4 -11 -10 -11 -5 0 -8 -15 -6 -32 6 -44 -17 -78 -52
-79 -15 0 -36 -5 -47 -10 -14 -6 -1 -8 45 -6 l65 2 13 -50 c7 -27 13 -79 13
-115 1 -294 -8 -450 -25 -467 -3 -3 -20 4 -39 16 -19 11 -40 21 -47 21 -17 0
31 -37 64 -50 26 -10 35 -34 16 -45 -8 -5 -8 -11 0 -20 8 -10 8 -15 0 -20 -8
-5 -8 -10 0 -20 8 -10 7 -14 -2 -18 -10 -4 -10 -8 2 -17 11 -9 12 -13 3 -17
-7 -2 -13 -11 -13 -18 0 -13 -30 -25 -67 -25 -12 0 -25 -5 -29 -11 -5 -9 6
-10 41 -5 26 4 54 10 61 13 8 3 18 -6 24 -23 16 -40 28 -229 19 -272 -5 -20
-11 -58 -14 -83 -6 -45 -7 -47 -48 -57 -78 -20 -130 -23 -184 -11 -29 7 -56 9
-61 4 -4 -4 -1 -10 6 -12 10 -4 10 -8 1 -19 -9 -11 -8 -14 7 -14 70 0 256 -23
289 -36 36 -14 40 -14 51 1 8 10 14 12 19 6 11 -19 25 -12 25 12 1 21 2 20 16
-5 18 -34 27 -35 47 -5 l16 22 0 -29 c1 -23 4 -26 15 -17 12 10 16 6 25 -21 5
-18 13 -50 17 -71 3 -20 11 -40 17 -44 6 -4 8 4 4 23 -3 16 -9 56 -12 90 l-7
61 77 6 c118 10 375 8 436 -3 38 -7 70 -7 113 2 l59 11 24 -29 23 -29 0 30 1
30 13 -24 14 -24 7 24 8 24 8 -23 c10 -27 38 -40 49 -22 11 18 19 0 30 -66 9
-54 16 -72 24 -63 2 2 -1 35 -6 73 -6 49 -6 72 2 80 7 7 95 12 263 14 157 2
254 7 258 13 6 11 70 28 103 29 31 0 11 -11 -46 -26 l-53 -13 77 4 c72 4 77 3
84 -18 l7 -22 9 25 10 25 11 -25 c6 -14 16 -28 21 -32 15 -10 36 11 37 36 1
20 1 20 7 -2 4 -13 12 -22 17 -20 6 2 20 -26 32 -62 l23 -65 -7 55 c-11 98
-13 94 42 102 28 5 188 7 358 6 282 -3 308 -4 313 -20 6 -19 24 -25 24 -8 0 6
5 10 10 10 6 0 10 -7 10 -15 0 -22 25 -18 43 7 l16 23 0 -22 c1 -22 21 -34 21
-12 0 5 4 8 9 4 5 -3 15 -31 21 -63 6 -31 15 -66 21 -77 10 -20 8 14 -7 119
l-6 44 103 7 c57 4 213 5 346 3 217 -4 245 -6 263 -23 20 -18 20 -18 20 11 1
27 2 27 12 9 24 -44 88 -64 88 -28 0 36 20 -4 31 -62 7 -33 16 -64 22 -70 9
-10 8 5 -9 114 -6 37 -5 38 27 44 19 3 166 7 328 9 285 2 294 2 301 -17 7 -19
7 -19 14 3 9 28 24 28 28 0 2 -15 11 -24 26 -26 18 -3 22 1 23 25 0 27 1 27
10 5 5 -13 13 -21 18 -18 8 5 18 -17 45 -94 3 -8 2 15 -1 52 l-6 67 35 6 c20
4 180 5 358 3 290 -4 323 -6 332 -21 13 -24 31 -21 23 3 -4 11 -2 20 4 20 6 0
11 -6 11 -14 0 -7 6 -19 14 -25 11 -10 17 -8 29 9 l14 21 6 -22 c5 -18 9 -20
21 -10 13 11 16 7 24 -26 6 -21 13 -55 17 -76 3 -20 10 -37 14 -37 5 0 2 37
-5 82 -7 45 -11 84 -9 86 11 11 416 20 480 11 39 -5 102 -7 142 -3 66 6 73 4
85 -15 17 -27 28 -27 29 2 1 16 2 18 6 5 6 -23 23 -23 23 0 1 15 2 14 12 -3
17 -31 32 -36 46 -17 11 15 14 15 22 2 5 -8 12 -41 16 -73 11 -92 27 -82 19
11 -6 73 -5 81 12 85 10 3 84 9 166 13 132 6 146 8 135 22 -11 13 -10 15 12 8
84 -24 140 -29 197 -17 55 11 59 10 76 -10 13 -17 17 -18 17 -5 0 25 19 19 30
-10 13 -32 41 -29 51 6 7 23 7 24 8 3 1 -15 6 -21 15 -17 10 4 20 -12 35 -53
l20 -58 -6 50 c-12 95 -16 89 62 97 39 3 198 4 355 2 278 -5 285 -5 302 -27
l16 -21 4 29 4 30 12 -27 c14 -34 37 -36 47 -6 6 23 7 22 21 -22 4 -12 6 -13
14 0 13 21 19 10 32 -56 14 -78 17 -88 25 -81 3 4 0 43 -7 87 -7 44 -10 83 -7
86 3 3 161 6 351 7 330 0 347 0 361 -19 14 -18 14 -18 15 3 l0 22 25 -24 c25
-26 75 -34 75 -12 1 32 29 -30 35 -78 3 -30 11 -58 17 -61 6 -4 8 14 3 52 -12
114 -13 109 20 112 121 10 155 15 171 26 14 11 20 40 29 155 7 78 15 144 18
148 4 3 25 -2 47 -12 22 -10 43 -16 46 -13 6 7 -58 48 -74 48 -18 0 -24 18
-12 39 7 14 7 22 0 26 -8 5 -8 11 0 20 8 10 7 14 -2 18 -10 4 -10 8 2 17 10 8
11 13 4 16 -9 4 -9 11 0 29 7 17 22 27 46 31 19 3 44 9 55 14 18 8 18 9 -5 9
-14 0 -43 -4 -65 -9 -22 -5 -43 -6 -48 -1 -17 17 -30 178 -20 243 7 43 8 93 2
144 -8 75 2 231 16 255 4 6 24 0 52 -16 24 -15 48 -24 51 -20 8 8 -34 42 -63
51 -40 13 -43 22 -28 66 9 26 10 43 4 47 -15 10 -5 63 15 78 10 7 29 13 43 13
29 0 59 16 50 25 -4 3 -26 1 -50 -4 -79 -19 -75 -23 -89 99 -9 87 -9 122 0
162 10 40 10 66 1 117 -9 50 -9 89 -1 156 6 49 13 92 16 97 8 12 32 10 65 -8
53 -27 43 -7 -15 30 -52 33 -55 38 -44 56 11 17 10 22 -1 29 -8 5 -9 11 -3 15
6 3 9 18 7 34 -5 41 10 59 66 77 64 21 57 30 -12 16 -29 -6 -56 -8 -61 -3 -17
17 -40 174 -33 221 4 25 9 111 10 191 1 80 6 159 10 177 l7 32 49 -25 c27 -13
49 -20 49 -14 0 5 -22 21 -50 35 -48 24 -62 46 -40 60 8 5 8 11 1 19 -7 9 -7
16 1 24 9 9 7 12 -7 12 -20 1 -20 1 0 16 17 13 18 16 5 25 -11 8 -12 12 -2 16
6 2 12 11 12 18 0 8 16 17 38 21 57 10 76 26 22 19 -89 -12 -84 -14 -97 35
-13 52 -16 167 -4 225 4 22 3 78 -3 123 -9 79 2 224 20 253 3 6 24 -1 51 -16
24 -15 47 -25 49 -22 7 7 -55 57 -71 57 -25 0 -37 26 -23 55 9 20 9 31 1 44
-8 13 -8 22 -1 29 6 6 6 12 -2 17 -19 12 35 52 79 60 23 4 44 12 47 17 7 11
-21 9 -102 -8 -30 -6 -31 -4 -37 33 -13 81 -18 200 -10 243 5 25 5 76 0 114
-10 77 5 229 24 252 10 12 17 11 47 -6 19 -12 37 -18 40 -15 6 6 9 4 -50 44
-43 29 -47 34 -35 53 10 17 9 22 -1 25 -10 4 -9 9 4 24 13 15 14 22 5 33 -24
29 3 54 83 80 37 12 8 16 -40 6 -41 -9 -50 -9 -60 5 -18 25 -37 169 -29 222 4
26 8 120 9 208 0 88 5 166 9 172 6 10 17 8 47 -7 22 -11 45 -20 52 -20 15 0
-36 37 -69 50 -24 10 -31 34 -13 45 8 5 7 12 -1 22 -10 12 -10 16 2 24 11 7
10 9 -5 9 -15 0 -16 3 -6 15 6 8 9 19 5 24 -12 21 15 50 53 57 46 8 77 23 47
23 -11 0 -39 -4 -63 -8 -39 -8 -44 -6 -53 13 -15 35 -26 167 -18 211 4 23 7
137 6 253 -1 115 1 214 6 218 4 4 28 -2 53 -15 51 -24 71 -22 30 3 -14 9 -37
23 -51 31 -22 13 -24 21 -20 60 2 28 0 45 -7 45 -7 0 -7 5 1 14 6 7 9 20 6 28
-9 24 19 49 63 55 23 3 45 10 48 14 7 12 -20 11 -75 -2 -55 -12 -56 -11 -71
97 -9 61 -9 96 -1 134 7 31 9 94 5 164 -7 115 0 210 16 236 8 13 15 12 51 -8
23 -12 45 -19 48 -16 8 7 -25 32 -66 50 -30 13 -31 15 -28 68 2 30 6 59 9 65
3 5 0 11 -6 14 -24 8 22 45 73 58 27 7 49 17 49 22 0 5 -10 7 -22 4 -13 -4
-42 -9 -65 -13 -38 -6 -42 -4 -48 17 -12 50 -20 186 -13 229 3 25 4 99 1 165
-6 134 8 235 33 235 8 0 29 -7 45 -16 52 -26 44 -7 -10 26 -50 31 -62 52 -39
66 8 5 6 11 -6 19 -14 11 -15 13 -1 19 18 7 20 42 3 49 -19 8 38 57 73 64 16
3 32 10 36 16 4 6 -3 8 -18 4 -90 -22 -96 -21 -109 15 -7 18 -15 84 -17 146
-3 61 -9 112 -14 112 -5 0 -9 7 -9 16 0 8 4 13 9 10 5 -4 12 42 15 102 9 149
16 202 27 202 6 0 28 -9 50 -21 27 -13 40 -16 37 -8 -2 7 -24 23 -48 36 -55
29 -55 30 -40 48 9 11 10 19 1 28 -8 10 -7 17 1 25 9 9 9 12 -1 12 -11 0 -11
3 -1 15 6 8 9 19 5 24 -12 21 15 50 53 57 60 11 74 26 17 18 -96 -13 -88 -19
-104 76 -11 68 -11 100 -2 160 9 54 9 95 2 146 -10 67 0 231 15 256 3 5 26 -3
51 -17 24 -15 47 -24 50 -21 9 9 -39 44 -69 51 -31 7 -34 20 -18 75 5 18 6 36
2 39 -11 9 -12 43 -1 63 5 10 26 21 48 24 21 3 44 10 52 15 24 15 2 21 -38 10
-80 -23 -79 -25 -92 107 -9 85 -10 125 -2 145 14 36 14 91 0 140 -10 37 1 190
17 232 8 19 28 19 59 -1 13 -9 29 -14 36 -12 6 2 -14 20 -45 41 -51 34 -55 39
-44 57 11 17 10 22 -2 30 -10 6 -11 10 -3 10 9 0 11 11 9 33 -6 41 9 61 59 78
57 19 68 32 20 23 -82 -16 -87 -14 -102 41 -7 28 -14 79 -14 115 -2 128 7 396
15 432 l8 37 39 -19 c21 -11 44 -20 51 -20 17 1 -18 28 -59 46 -33 14 -43 37
-23 49 8 5 8 11 0 20 -8 10 -8 15 1 20 8 6 7 10 -2 16 -12 8 -11 11 1 19 13 9
13 11 0 21 -11 8 -12 12 -2 16 6 2 12 11 12 18 0 8 16 17 38 21 63 11 73 25
12 18 -30 -3 -59 -7 -64 -8 -20 -3 -28 68 -30 244 -1 115 -6 201 -14 228 -13
42 -32 57 -33 25 0 -15 -3 -14 -16 5 -8 12 -19 22 -24 22 -5 0 -9 -10 -10 -22
-1 -18 -3 -16 -10 10 -11 38 -22 40 -44 10 l-15 -23 -6 23 c-7 26 -24 30 -24
5 -1 -36 -17 11 -24 69 -4 31 -14 62 -22 69 -11 9 -14 8 -14 -5z m-520 -181
c0 -4 -36 -14 -105 -30 -23 -5 -27 -4 -18 5 17 18 123 40 123 25z m-2620 -13
c0 -8 -86 -32 -113 -32 -26 0 12 21 54 29 61 12 59 12 59 3z m915 -1 c7 -12
-67 -23 -125 -19 l-45 3 35 12 c43 14 127 16 135 4z m834 -1 c-19 -11 -126
-25 -117 -15 9 10 65 23 103 24 23 0 26 -2 14 -9z m1111 0 c0 -5 -12 -10 -27
-9 -25 0 -26 1 -8 9 27 12 35 12 35 0z m292 -2 c-14 -14 -81 -13 -96 2 -7 7 9
10 49 10 45 0 56 -3 47 -12z m-4814 -7 c17 -10 -6 -17 -95 -27 -44 -4 -63 -3
-63 5 0 6 12 13 28 17 15 3 32 7 37 9 20 7 80 4 93 -4z m827 -6 c-16 -8 -48
-14 -70 -14 l-40 1 40 13 c22 8 54 13 70 13 l30 0 -30 -13z m1373 3 c-3 -7
-12 -13 -21 -12 -9 0 -30 1 -47 2 -51 3 -33 22 21 22 36 0 49 -4 47 -12z
m1437 2 c-3 -5 -15 -10 -26 -10 -11 0 -17 5 -14 10 3 6 15 10 26 10 11 0 17
-4 14 -10z m300 0 c-7 -12 -49 -12 -85 0 -19 6 -11 8 33 9 36 1 56 -3 52 -9z
m-5825 -21 c0 -6 -4 -7 -10 -4 -5 3 -10 11 -10 16 0 6 5 7 10 4 6 -3 10 -11
10 -16z m937 5 c-27 -8 -56 -13 -65 -11 -28 7 27 26 73 26 l40 0 -48 -15z
m578 7 c10 -17 -15 -23 -62 -16 -33 5 -42 9 -32 16 19 12 86 12 94 0z m1552
-22 c75 -5 141 -13 146 -18 6 -6 1 -23 -12 -44 -23 -38 -26 -47 -12 -47 5 0
19 20 31 45 21 44 22 45 66 41 25 -2 45 1 48 8 3 7 8 6 14 -3 5 -7 15 -11 21
-7 21 13 49 -14 60 -59 6 -25 14 -45 17 -45 2 0 3 28 2 62 l-3 63 85 13 c69
11 98 11 152 1 52 -9 83 -9 138 0 54 9 92 9 163 0 51 -7 96 -16 101 -20 5 -4
-3 -28 -19 -54 -35 -60 -25 -70 14 -13 55 78 60 84 68 72 13 -18 61 -26 67
-11 5 9 7 9 12 -1 4 -9 10 -10 18 -3 20 16 53 -22 61 -68 4 -23 11 -44 17 -47
7 -5 9 5 5 27 -3 19 -9 50 -12 70 l-7 36 84 8 c46 4 101 7 123 6 22 0 110 -1
194 -1 136 1 261 -12 261 -26 0 -3 -9 -23 -21 -45 -24 -48 -19 -62 8 -24 47
67 61 80 74 68 18 -18 29 -16 29 5 1 15 2 15 15 -2 10 -14 15 -15 15 -6 0 11
3 11 12 2 7 -7 16 -8 22 -3 18 15 46 -13 66 -66 20 -52 24 -44 11 24 -6 30 -5
46 3 53 24 19 179 39 226 29 25 -6 79 -8 120 -4 71 6 267 -9 279 -21 3 -3 -4
-23 -17 -44 -12 -21 -22 -42 -22 -46 0 -15 33 22 51 58 20 39 33 47 44 27 4
-6 14 -8 22 -5 9 4 22 1 29 -5 11 -9 14 -8 14 6 0 14 3 15 14 6 11 -10 15 -9
18 4 6 29 54 -29 62 -74 3 -22 11 -43 17 -47 7 -4 9 0 6 12 -14 45 -18 112 -9
118 6 3 47 11 92 18 62 9 96 8 147 -1 51 -9 82 -9 138 0 56 9 92 9 158 -1 106
-15 118 -26 83 -76 -14 -21 -23 -40 -20 -43 7 -7 54 50 54 66 0 6 7 18 15 27
14 13 19 13 52 0 23 -10 38 -12 42 -5 8 13 59 7 74 -8 11 -11 13 -125 4 -308
-1 -27 2 -63 6 -80 7 -28 5 -36 -19 -58 l-27 -25 28 0 28 0 -27 -21 c-31 -24
-37 -79 -9 -79 36 0 -4 -20 -62 -31 -76 -15 -101 -35 -30 -24 28 4 64 8 80 9
l30 1 8 -95 c4 -52 6 -173 5 -268 -2 -132 0 -171 9 -168 8 3 14 -9 18 -32 3
-20 8 -47 11 -59 2 -13 0 -23 -5 -23 -5 0 -13 20 -17 45 -3 25 -10 48 -15 50
-7 5 -6 -22 6 -97 3 -20 -2 -32 -17 -42 -21 -15 -21 -15 8 -22 l29 -7 -35 -12
c-42 -14 -48 -46 -10 -56 23 -7 24 -7 3 -8 -16 -1 -21 -6 -17 -16 4 -8 5 -15
3 -15 -2 0 -29 -9 -59 -20 l-55 -20 50 5 c28 4 58 8 67 11 11 3 19 -3 24 -18
5 -13 9 -175 9 -360 l0 -337 -25 -12 -25 -12 30 -7 30 -7 -27 -11 c-34 -14
-36 -35 -5 -50 l22 -11 -22 0 c-21 -1 -44 -21 -24 -21 6 0 11 -4 11 -9 0 -5
-26 -15 -57 -21 -86 -18 -110 -32 -43 -25 30 3 71 8 91 11 l36 6 6 -138 c10
-190 9 -309 -3 -377 -6 -38 -6 -77 1 -115 10 -54 10 -57 -15 -79 l-26 -22 33
-3 32 -4 -26 -11 c-39 -17 -57 -83 -22 -83 36 0 -5 -21 -65 -33 -33 -7 -64
-16 -69 -21 -7 -8 33 -5 118 10 l36 6 6 -103 c4 -57 8 -209 8 -338 2 -216 0
-235 -17 -248 -16 -11 -16 -13 -1 -13 9 0 21 -9 27 -20 10 -18 8 -20 -22 -18
-27 3 -33 -1 -33 -17 0 -15 6 -19 23 -18 12 2 22 -2 22 -7 0 -6 -10 -10 -21
-10 -18 0 -19 -3 -9 -14 10 -12 1 -18 -52 -35 l-63 -20 50 5 c28 3 59 6 70 7
30 3 35 -62 33 -406 -3 -282 -4 -308 -20 -313 -24 -7 -23 -24 2 -24 27 0 25
-18 -2 -22 -34 -5 -34 -34 -1 -46 l28 -10 -27 -1 c-29 -1 -46 -16 -26 -24 21
-9 -12 -26 -62 -32 -75 -10 -95 -26 -25 -21 33 3 74 8 91 12 l32 6 6 -113 c4
-63 5 -223 4 -356 -3 -231 -4 -243 -23 -252 -19 -9 -19 -10 3 -10 24 -1 31
-21 7 -21 -15 0 -35 -37 -35 -66 0 -8 8 -14 18 -14 34 -1 -18 -29 -67 -36 -83
-12 -79 -24 5 -18 73 6 82 5 88 -12 4 -11 9 -178 11 -373 3 -353 3 -354 -18
-372 l-22 -18 28 -1 29 0 -31 -26 c-35 -29 -40 -58 -13 -73 15 -9 14 -11 -9
-19 -14 -6 -47 -13 -72 -17 -26 -4 -47 -11 -47 -16 0 -9 59 -4 117 11 l31 8 7
-72 c3 -39 7 -194 8 -344 2 -264 2 -272 -18 -279 -19 -6 -19 -6 3 -14 26 -10
21 -29 -9 -29 -12 0 -19 -7 -19 -20 0 -15 7 -20 25 -20 14 0 25 -4 25 -10 0
-5 -12 -10 -26 -10 -22 0 -24 -2 -14 -14 10 -13 2 -18 -47 -31 -32 -9 -62 -18
-68 -21 -12 -5 77 4 116 12 24 5 27 1 34 -32 3 -20 5 -182 3 -358 -3 -307 -4
-322 -23 -338 -20 -17 -20 -17 8 -18 16 0 26 -4 22 -10 -3 -5 -14 -10 -25 -10
-30 0 -32 -28 -2 -44 l27 -15 -27 -1 c-29 0 -38 -15 -15 -23 17 -6 -37 -27
-90 -34 -24 -3 -46 -10 -49 -14 -7 -12 17 -11 94 2 53 9 66 9 73 -2 5 -8 9
-158 8 -334 0 -176 0 -325 1 -330 5 -22 -1 -35 -15 -35 -8 0 -15 -4 -15 -10 0
-5 10 -10 21 -10 21 0 20 -1 -5 -21 -28 -22 -37 -79 -13 -79 30 -1 -29 -29
-74 -35 -27 -4 -51 -11 -54 -16 -5 -7 69 -4 117 6 38 7 41 -16 43 -328 2 -166
6 -310 10 -319 4 -11 0 -21 -14 -30 l-21 -13 23 -12 c24 -12 25 -11 -29 -28
-23 -7 -13 -38 16 -46 23 -7 24 -7 3 -8 -15 -1 -21 -6 -17 -15 4 -11 -9 -19
-51 -31 -31 -9 -55 -19 -53 -21 2 -2 31 1 63 6 32 5 61 7 64 5 12 -13 19 -243
12 -416 -4 -104 -4 -211 0 -237 7 -43 5 -49 -18 -69 l-26 -21 29 -4 29 -4 -27
-12 c-34 -14 -36 -35 -5 -50 l22 -11 -22 0 c-25 -1 -39 -17 -21 -24 23 -8 2
-18 -63 -29 -35 -6 -68 -16 -74 -21 -10 -9 6 -8 129 9 l44 6 7 -198 c6 -137 4
-229 -4 -296 -9 -74 -9 -107 0 -144 12 -46 11 -48 -15 -71 l-27 -23 33 0 33 0
-32 -20 c-26 -15 -33 -27 -33 -50 0 -22 5 -30 17 -30 36 0 -4 -20 -62 -31 -79
-15 -98 -33 -25 -23 114 16 104 27 114 -118 5 -70 6 -135 2 -144 -6 -15 -17
-16 -82 -11 -42 4 -80 9 -85 13 -5 3 0 23 13 45 12 21 19 41 16 45 -6 5 -13
-5 -55 -74 -8 -14 -19 -20 -26 -15 -7 4 -39 8 -72 9 -33 1 -65 2 -72 3 -7 0
-15 18 -18 39 -4 20 -10 46 -15 57 -8 18 -9 18 -9 -5 0 -14 4 -44 8 -67 l8
-43 -36 -9 c-73 -19 -151 -23 -216 -11 -51 10 -82 10 -143 0 -59 -9 -97 -9
-162 0 -47 6 -89 15 -94 20 -4 4 4 29 19 54 15 26 25 49 22 53 -6 5 -67 -84
-67 -98 0 -13 -33 -20 -41 -8 -4 6 -12 8 -18 4 -7 -4 -18 -1 -26 5 -10 8 -15
9 -15 2 0 -13 -58 -8 -72 6 -5 5 -16 31 -23 58 l-14 49 2 -65 2 -65 -95 -13
c-52 -7 -115 -9 -140 -6 -25 4 -122 7 -216 8 -204 1 -215 5 -183 68 31 61 15
57 -26 -7 -30 -46 -39 -54 -51 -45 -7 7 -20 10 -28 7 -7 -3 -19 0 -25 6 -7 7
-11 8 -11 0 0 -15 -71 -7 -81 9 -4 7 -11 30 -14 50 -4 21 -11 41 -17 44 -10 7
-7 -28 9 -93 7 -31 -25 -42 -166 -55 -120 -11 -347 -3 -372 13 -12 7 -10 15 9
48 12 22 22 43 22 47 0 17 -41 -32 -52 -62 -12 -34 -40 -46 -54 -23 -4 8 -9 8
-17 0 -7 -7 -14 -7 -24 0 -10 9 -13 8 -13 -1 0 -10 -3 -10 -14 -1 -10 9 -16 9
-21 1 -5 -8 -11 -8 -19 -1 -7 6 -16 8 -19 5 -3 -3 -11 14 -17 37 -15 61 -20
73 -25 67 -3 -2 0 -31 6 -62 6 -32 9 -60 6 -62 -20 -21 -583 -29 -629 -9 -24
10 -23 30 3 66 11 16 19 35 16 42 -2 6 -20 -14 -41 -45 -34 -53 -66 -75 -66
-46 0 9 -3 9 -12 0 -9 -9 -16 -8 -30 5 -17 15 -18 15 -18 -3 0 -16 -2 -16 -10
-4 -7 11 -12 12 -21 3 -18 -18 -46 15 -58 65 -15 69 -24 63 -17 -9 l7 -67 -78
-10 c-101 -14 -509 -9 -545 6 -33 14 -35 26 -8 70 11 17 15 32 10 32 -6 0 -24
-22 -41 -50 -31 -50 -42 -59 -54 -40 -4 6 -15 8 -26 5 -11 -4 -19 -2 -19 4 0
6 -4 11 -10 11 -5 0 -10 -8 -10 -17 0 -16 -2 -16 -11 -3 -7 10 -12 11 -15 4
-10 -24 -54 9 -60 46 -12 66 -25 68 -19 3 l6 -62 -43 -12 c-24 -6 -87 -12
-141 -13 -73 -1 -96 -4 -92 -13 2 -7 -2 -13 -10 -13 -8 0 -12 6 -9 13 4 11
-24 15 -140 20 -80 3 -150 8 -156 12 -6 4 -2 21 10 45 11 22 20 45 20 52 -1
17 -28 -18 -46 -58 -12 -29 -16 -31 -66 -30 -29 1 -58 5 -65 9 -6 4 -13 2 -15
-4 -6 -19 -47 24 -62 66 -16 45 -20 21 -7 -38 7 -31 6 -39 -8 -47 -24 -13
-181 -31 -194 -23 -6 4 -105 7 -219 7 -145 1 -211 5 -219 13 -9 9 -6 22 15 57
14 24 26 48 26 52 0 18 -51 -42 -62 -73 -13 -36 -19 -39 -49 -23 -14 8 -19 7
-19 -1 0 -7 -8 -5 -20 6 -19 17 -20 17 -20 0 0 -15 -3 -16 -12 -7 -7 7 -16 8
-23 2 -18 -15 -52 24 -60 69 -4 23 -12 44 -17 48 -8 4 -9 -4 -5 -23 21 -111
23 -102 -20 -111 -65 -14 -575 -9 -601 5 l-22 13 21 40 c32 64 16 69 -20 6
-37 -65 -50 -76 -63 -53 -12 21 -28 21 -28 -1 -1 -16 -2 -16 -15 1 -11 14 -15
16 -15 5 -1 -10 -5 -9 -15 5 -13 17 -15 17 -21 3 -10 -28 -42 3 -61 58 -19 58
-28 48 -14 -16 13 -56 5 -65 -73 -78 -77 -14 -141 -14 -185 -1 -22 6 -50 6
-83 -1 -54 -12 -265 4 -282 21 -5 5 1 24 14 44 12 20 20 42 17 49 -2 6 -16
-11 -30 -40 l-27 -52 -86 3 c-92 3 -103 10 -105 56 0 14 -4 34 -9 45 -7 14 -9
-2 -7 -50 l2 -70 -80 -14 c-64 -10 -95 -11 -153 -1 -57 9 -92 9 -160 -1 -74
-10 -98 -10 -166 4 -43 9 -81 18 -83 21 -3 3 6 25 21 50 14 24 26 48 26 52 0
15 -33 -22 -57 -65 -15 -25 -28 -48 -30 -50 -1 -2 -8 1 -15 6 -20 16 -67 21
-73 9 -3 -7 -7 -7 -11 2 -4 10 -9 10 -19 2 -11 -9 -18 -3 -35 30 -12 23 -19
48 -16 56 4 9 2 12 -5 8 -8 -4 -9 3 -5 22 16 84 25 224 17 272 -7 48 -6 56 12
73 l21 19 -23 0 -24 0 27 21 c28 22 37 79 14 79 -31 1 28 29 73 35 27 4 52 12
56 17 4 8 -4 9 -24 5 -17 -3 -53 -9 -80 -13 l-50 -6 -7 168 c-3 93 -4 247 -3
341 3 151 6 175 22 193 18 19 18 20 -3 20 -29 0 -28 18 1 22 31 4 30 40 -3 48
l-25 6 24 6 c12 4 20 11 17 17 -4 6 17 17 51 26 80 23 86 25 81 30 -2 3 -31 0
-64 -5 -32 -6 -69 -10 -82 -10 l-23 0 2 338 c1 187 -1 344 -5 350 -4 6 5 19
20 28 23 16 24 19 10 30 -15 10 -14 12 5 17 26 7 21 28 -12 44 -22 12 -22 13
-3 13 27 0 36 10 24 26 -8 9 7 16 65 29 41 9 75 19 75 22 0 2 -38 2 -84 -2
-70 -6 -84 -5 -89 8 -3 9 -7 165 -8 348 -1 295 0 335 14 343 14 9 12 12 -11
22 -25 11 -25 12 -5 13 38 2 63 81 26 81 -35 1 17 29 66 36 63 9 91 27 31 20
-25 -3 -64 -8 -87 -12 l-42 -6 -1 311 c0 171 -3 324 -6 339 -5 23 -1 30 18 39
l23 11 -28 7 -27 7 32 17 c39 19 43 42 8 52 -24 7 -24 7 -2 8 16 1 22 6 20 18
-2 13 11 21 61 35 61 16 102 37 51 25 -14 -3 -53 -9 -87 -13 l-63 -7 0 334 c0
184 -3 344 -6 357 -5 18 -2 24 15 29 25 6 28 30 3 36 -13 4 -12 5 5 6 12 0 25
6 28 11 10 15 -14 40 -39 41 -20 1 -20 2 -1 6 46 10 51 13 35 24 -22 13 1 25
73 38 58 10 75 17 66 25 -2 2 -42 -2 -88 -10 -47 -7 -87 -12 -89 -9 -5 4 -5
502 -1 560 2 22 0 59 -5 82 -6 36 -5 44 13 60 27 23 27 33 -1 34 -22 0 -22 1
2 11 l25 11 -24 6 -24 6 27 12 c30 14 35 39 8 46 -23 6 48 37 85 37 15 0 35 5
43 11 11 7 -8 8 -62 3 -70 -6 -77 -5 -87 14 -7 14 -12 144 -15 379 -3 320 -2
359 13 370 14 11 13 12 -6 13 -30 0 -29 16 1 24 31 8 45 55 21 72 -15 11 -15
13 2 22 10 6 44 13 76 17 31 4 57 12 57 17 0 6 -15 8 -37 5 -21 -3 -59 -9 -85
-13 l-48 -6 0 288 c0 159 -3 313 -7 342 -6 50 -4 54 17 59 l24 6 -23 9 c-26 9
-19 28 10 28 14 0 19 7 19 25 0 22 -3 25 -25 19 -15 -4 -25 -2 -25 5 0 6 9 11
21 11 14 0 19 5 16 14 -4 11 9 19 48 30 29 9 60 16 69 16 9 0 16 5 16 11 0 6
-7 9 -15 5 -8 -3 -44 -8 -79 -12 -59 -6 -64 -5 -70 14 -4 11 -5 172 -2 357 4
310 6 338 23 350 17 13 17 14 -1 21 -18 7 -18 8 3 16 27 10 23 29 -10 45 l-24
13 28 0 c28 0 37 15 15 23 -22 8 -3 17 58 29 81 15 93 19 75 25 -8 3 -45 0
-83 -7 -38 -6 -71 -10 -74 -7 -13 12 -23 397 -13 481 10 83 8 141 -7 180 -3 9
5 25 20 41 23 23 23 25 6 25 -11 0 -20 5 -20 10 0 6 7 10 15 10 21 0 19 20 -2
21 -14 0 -14 2 3 9 32 13 40 31 20 46 -17 12 -17 13 1 22 10 5 38 13 63 17 81
13 77 24 -6 18 -78 -5 -82 -5 -89 16 -3 12 -7 164 -9 337 -2 309 -1 316 19
324 16 7 17 9 3 9 -29 1 -31 21 -3 31 33 12 30 41 -5 51 -23 7 -24 7 -3 8 15
1 21 6 17 15 -4 11 10 19 53 31 79 22 86 25 82 29 -2 3 -24 0 -49 -4 -25 -5
-62 -9 -83 -10 l-38 0 2 338 c2 185 0 342 -4 349 -5 7 2 19 18 29 23 15 24 18
9 29 -15 11 -15 12 6 18 27 7 22 28 -11 44 -23 12 -23 13 -2 13 12 0 25 5 28
10 3 6 1 10 -4 10 -6 0 -11 4 -11 9 0 4 28 14 62 21 86 18 108 33 37 26 -30
-3 -69 -8 -86 -12 -28 -6 -31 -4 -36 28 -4 18 -7 176 -8 351 -1 299 0 319 17
332 18 14 18 14 -6 15 l-25 1 27 20 c20 14 28 30 28 50 0 16 -4 29 -10 29 -5
0 -10 4 -10 9 0 5 26 15 58 21 88 18 108 31 37 25 -33 -3 -70 -7 -81 -11 -29
-8 -33 5 -40 149 -8 150 -7 151 87 136 96 -16 92 -13 69 -58 -11 -22 -20 -43
-20 -47 0 -16 29 19 45 56 19 42 32 49 53 28 10 -10 15 -10 21 1 7 10 10 10
16 1 6 -9 9 -9 15 1 7 10 12 10 23 0 11 -9 17 -9 22 -1 12 19 42 -17 54 -66
16 -63 24 -54 16 20 l-7 63 33 7 c75 15 168 18 219 7 40 -9 72 -9 130 0 59 9
98 9 171 0 51 -7 96 -14 99 -17 3 -3 -7 -28 -23 -55 -34 -61 -18 -66 18 -5 31
53 54 74 63 59 10 -14 62 -26 62 -14 0 16 63 4 77 -14 6 -9 15 -34 18 -56 4
-21 11 -39 17 -39 5 0 7 8 4 18 -3 9 -6 37 -8 62 l-3 45 45 8 c39 7 134 9 275
6 22 -1 78 0 125 1 89 3 177 -6 199 -19 10 -7 8 -17 -9 -51 -32 -62 -17 -60
26 4 34 51 39 55 54 41 21 -19 30 -19 30 1 0 14 3 14 15 4 12 -10 15 -10 15 0
0 10 3 10 14 1 10 -9 16 -9 21 -1 10 16 51 -32 65 -77 13 -40 37 -75 26 -38
-12 42 -27 118 -23 121 1 2 46 10 97 18 98 16 407 17 443 1 17 -7 17 -9 -1
-39 -10 -17 -21 -40 -26 -50 -7 -19 -6 -19 13 -2 12 11 26 34 33 52 12 34 40
46 54 23 4 -8 9 -8 17 0 7 7 14 7 24 0 10 -9 13 -7 13 6 0 14 3 15 14 6 7 -6
21 -9 30 -5 9 3 16 1 16 -5 0 -6 5 -10 12 -9 7 2 16 -17 22 -44 6 -25 15 -50
20 -55 8 -7 5 16 -11 99 -5 25 -2 27 48 36 70 14 468 14 537 1 29 -6 56 -17
58 -24 3 -7 -4 -28 -15 -46 -12 -19 -21 -38 -21 -43 0 -18 38 26 55 64 19 42
32 48 54 28 11 -11 14 -10 18 0 4 10 9 9 24 -4 18 -16 19 -16 19 1 0 14 3 15
14 6 10 -8 16 -9 21 -2 11 19 43 -22 55 -71 17 -67 28 -52 16 21 -5 33 -7 64
-3 67 9 10 565 11 610 1 41 -9 45 -22 21 -68 -26 -52 -7 -45 27 10 35 55 40
59 59 36 13 -15 35 -11 25 6 -9 13 9 11 23 -3 9 -9 12 -9 12 3 0 12 2 12 10
-1 9 -13 11 -13 21 0 7 11 12 12 15 3 3 -7 11 -10 18 -7 8 3 18 -13 29 -48
l16 -53 -6 57 -5 56 38 12 c22 6 85 14 142 17 56 3 102 10 102 16 0 5 7 4 15
-3 8 -7 72 -16 152 -21z m153 21 c0 -12 -64 -12 -100 0 -19 6 -9 8 38 9 35 1
62 -3 62 -9z m565 0 c-27 -12 -35 -12 -35 0 0 6 12 10 28 9 24 0 25 -1 7 -9z
m878 3 c-7 -2 -19 -2 -25 0 -7 3 -2 5 12 5 14 0 19 -2 13 -5z m317 -3 c0 -7
-14 -8 -37 -4 -52 9 -54 14 -5 14 23 0 42 -5 42 -10z m-4770 -9 c0 -12 -37
-21 -80 -20 -33 1 -32 2 15 14 64 17 65 17 65 6z m435 -1 c8 -13 -85 -13 -105
0 -11 7 1 10 42 10 31 0 60 -4 63 -10z m565 0 c-19 -13 -30 -13 -30 0 0 6 10
10 23 10 18 0 19 -2 7 -10z m873 3 c-7 -2 -19 -2 -25 0 -7 3 -2 5 12 5 14 0
19 -2 13 -5z m322 -3 c7 -12 -29 -12 -65 0 -21 7 -19 8 17 9 23 1 45 -3 48 -9z
m-3946 -5 c-11 -10 -129 -33 -129 -24 0 5 12 11 28 15 15 3 32 7 37 9 16 5 69
6 64 0z m531 -16 c0 -11 -55 -12 -90 -2 -22 7 -21 8 15 13 45 6 75 2 75 -11z
m370 12 c0 -11 -51 -21 -111 -21 -52 0 -67 16 -21 23 53 8 132 7 132 -2z
m-1260 -10 c23 -6 23 -8 5 -12 -28 -8 -95 1 -95 12 0 10 53 10 90 0z m595 -1
c-3 -5 -16 -10 -28 -10 -18 0 -19 2 -7 10 20 13 43 13 35 0z m868 3 c-7 -2
-19 -2 -25 0 -7 3 -2 5 12 5 14 0 19 -2 13 -5z m302 -3 c16 -7 13 -9 -17 -9
-20 -1 -40 4 -43 9 -7 12 32 12 60 0z m7075 -76 c0 -8 -4 -14 -10 -14 -5 0
-10 9 -10 21 0 11 5 17 10 14 6 -3 10 -13 10 -21z m-9019 -221 c-8 -14 -10 -5
-11 38 0 31 3 59 8 63 11 12 14 -82 3 -101z m9013 -78 c6 -49 6 -50 -9 -20
-15 33 -21 111 -6 85 5 -8 12 -37 15 -65z m-8967 -41 c-3 -3 -12 -4 -19 -1 -8
3 -5 6 6 6 11 1 17 -2 13 -5z m-38 -141 c12 -42 15 -90 5 -80 -4 3 -12 31 -19
62 -15 61 -2 77 14 18z m8978 31 c-3 -3 -12 -4 -19 -1 -8 3 -5 6 6 6 11 1 17
-2 13 -5z m35 -181 c-2 -18 -8 -33 -13 -33 -11 0 -12 54 -2 90 l7 25 6 -24 c3
-14 4 -40 2 -58z m-9012 -159 c0 -14 -4 -22 -10 -19 -5 3 -10 17 -10 31 0 14
4 22 10 19 6 -3 10 -17 10 -31z m9020 -105 c0 -10 -4 -19 -10 -19 -5 0 -10 12
-10 26 0 14 4 23 10 19 6 -3 10 -15 10 -26z m-9017 -187 c-11 -45 -26 -6 -18
45 l8 48 8 -35 c4 -19 5 -45 2 -58z m2 -279 c8 -55 9 -69 6 -103 -3 -46 -20 2
-27 79 -8 82 10 102 21 24z m9006 -126 c-13 -13 -14 5 -3 54 l7 34 3 -39 c2
-21 -1 -43 -7 -49z m-9014 -184 c-3 -10 -5 -4 -5 12 0 17 2 24 5 18 2 -7 2
-21 0 -30z m-6 -310 c-9 -15 -10 -13 -11 14 0 17 3 40 8 50 5 14 8 11 10 -14
2 -18 -1 -41 -7 -50z m9024 4 c4 -35 5 -74 3 -88 l-4 -24 -12 28 c-14 33 -16
147 -3 147 5 0 12 -28 16 -63z m-9000 -307 c6 -36 5 -43 -5 -33 -7 6 -15 36
-17 65 -4 61 10 41 22 -32z m9005 -60 c0 -27 -4 -50 -10 -50 -5 0 -10 23 -10
50 0 28 5 50 10 50 6 0 10 -22 10 -50z m-9023 -172 c-3 -7 -5 -2 -5 12 0 14 2
19 5 13 2 -7 2 -19 0 -25z m9023 -94 c0 -14 -4 -23 -10 -19 -5 3 -10 15 -10
26 0 10 5 19 10 19 6 0 10 -12 10 -26z m-9019 -217 c-8 -8 -11 4 -11 40 0 77
14 100 18 29 2 -32 -2 -64 -7 -69z m9014 -72 c7 -30 10 -55 5 -55 -11 0 -17
19 -25 76 -10 64 4 50 20 -21z m-8996 -235 c0 -28 -2 -31 -8 -15 -5 11 -11 40
-15 65 -6 45 -6 45 9 15 8 -16 14 -46 14 -65z m8968 74 c-3 -3 -12 -4 -19 -1
-8 3 -5 6 6 6 11 1 17 -2 13 -5z m37 -182 c-6 -40 -8 -43 -14 -22 -4 14 -5 43
-2 64 4 31 7 35 14 22 5 -9 6 -38 2 -64z m-9015 -149 c0 -25 -1 -26 -9 -8 -12
27 -12 35 0 35 6 0 10 -12 9 -27z m11 -257 c0 -46 -15 -70 -26 -42 -8 21 4 86
16 86 6 0 10 -20 10 -44z m9005 -101 c5 -37 4 -47 -4 -39 -7 6 -14 35 -17 65
-7 68 10 46 21 -26z m-9012 -182 c19 -70 17 -168 -3 -146 -13 13 -24 163 -12
163 6 0 13 -8 15 -17z m9018 -128 c-6 -36 -8 -37 -15 -17 -9 28 1 79 14 66 4
-5 5 -27 1 -49z m-9024 -212 c-3 -10 -5 -4 -5 12 0 17 2 24 5 18 2 -7 2 -21 0
-30z m9020 -85 c-3 -7 -5 -2 -5 12 0 14 2 19 5 13 2 -7 2 -19 0 -25z m-9021
-226 c-13 -12 -18 9 -10 45 l8 38 4 -39 c2 -21 1 -41 -2 -44z m9018 46 c3 -13
6 -52 6 -87 0 -49 -3 -62 -11 -54 -15 15 -25 163 -11 163 5 0 12 -10 16 -22z
m-8995 -367 c2 -49 -19 -5 -24 50 l-5 54 14 -40 c8 -22 15 -51 15 -64z m9001
-40 c0 -28 -4 -53 -10 -56 -6 -4 -10 15 -10 49 0 31 5 56 10 56 6 0 10 -22 10
-49z m-9018 -173 c-9 -9 -12 -7 -12 12 0 19 3 21 12 12 9 -9 9 -15 0 -24z
m9028 -110 c0 -5 -4 -8 -10 -8 -5 0 -10 10 -10 23 0 18 2 19 10 7 5 -8 10 -18
10 -22z m-9020 -148 c0 -33 -4 -60 -10 -60 -11 0 -13 62 -4 98 10 36 14 26 14
-38z m9004 -107 c4 -21 9 -46 12 -55 3 -10 1 -18 -5 -18 -5 0 -12 14 -15 30
-3 17 -9 44 -12 61 -4 20 -2 29 4 25 5 -3 13 -23 16 -43z m-8967 -59 c-3 -3
-12 -4 -19 -1 -8 3 -5 6 6 6 11 1 17 -2 13 -5z m-31 -176 c4 -57 -6 -38 -20
37 -6 31 -5 37 5 28 6 -6 13 -36 15 -65z m8981 56 c-3 -3 -12 -4 -19 -1 -8 3
-5 6 6 6 11 1 17 -2 13 -5z m32 -152 c-1 -70 -18 -82 -18 -14 -1 40 3 61 9 57
6 -3 10 -23 9 -43z m-9022 -204 c-2 -13 -4 -5 -4 17 -1 22 1 32 4 23 2 -10 2
-28 0 -40z m9020 -85 c-3 -10 -5 -4 -5 12 0 17 2 24 5 18 2 -7 2 -21 0 -30z
m-9007 -204 c0 -37 -4 -58 -10 -54 -11 7 -13 57 -4 93 10 36 14 26 14 -39z
m9017 -169 c-6 -26 -27 38 -26 78 l1 37 14 -50 c8 -27 12 -57 11 -65z m-9008
-153 c5 -26 5 -49 1 -52 -4 -3 -11 12 -15 33 -3 20 -9 48 -12 62 -4 18 -3 22
6 15 6 -6 15 -32 20 -58z m9002 -174 c-8 -14 -10 -5 -11 38 0 31 3 59 8 63 11
12 14 -82 3 -101z m-9011 -137 c-7 -7 -10 1 -9 25 0 32 1 33 10 10 6 -16 6
-28 -1 -35z m9020 -82 c0 -8 -5 -12 -10 -9 -6 4 -8 11 -5 16 9 14 15 11 15 -7z
m-9010 -158 c0 -25 -4 -48 -10 -51 -6 -4 -10 13 -10 44 0 28 5 51 10 51 6 0
10 -20 10 -44z m9009 -111 c0 -32 -2 -36 -9 -19 -5 12 -11 43 -14 70 -6 49 -6
49 9 19 8 -16 14 -48 14 -70z m-9002 -227 c6 -74 -4 -122 -17 -78 -5 14 -8 56
-9 95 -1 88 17 76 26 -17z m9012 -45 c0 -16 -4 -37 -9 -48 -6 -15 -9 -8 -9 28
-1 26 4 47 9 47 6 0 10 -12 9 -27z m-12 -325 c-3 -7 -5 -2 -5 12 0 14 2 19 5
13 2 -7 2 -19 0 -25z m-9008 -165 c-1 -10 -5 -29 -9 -43 -7 -21 -8 -19 -9 18
-1 23 4 42 9 42 6 0 10 -8 9 -17z m9016 -74 c7 -73 3 -101 -10 -87 -10 10 -26
122 -21 144 12 46 24 23 31 -57z m-9009 -281 c6 -67 -11 -34 -21 38 -5 38 -4
45 5 32 6 -10 13 -42 16 -70z m9009 -85 c-6 -38 -9 -44 -16 -28 -10 25 -11 79
-2 89 16 15 25 -15 18 -61z m-9015 -144 c0 -11 -4 -17 -10 -14 -5 3 -10 13
-10 21 0 8 5 14 10 14 6 0 10 -9 10 -21z m9020 -110 c0 -10 -4 -19 -10 -19 -5
0 -10 12 -10 26 0 14 4 23 10 19 6 -3 10 -15 10 -26z m-9016 -176 c-6 -38 -8
-43 -15 -26 -11 29 1 111 13 89 5 -9 6 -37 2 -63z m9016 -147 c0 -14 -3 -17
-11 -9 -5 5 -12 37 -15 69 l-4 59 15 -50 c8 -27 15 -59 15 -69z m-8973 -2 c-3
-3 -12 -4 -19 -1 -8 3 -5 6 6 6 11 1 17 -2 13 -5z m-37 -142 c5 -20 10 -45 10
-55 0 -31 -17 -9 -24 30 -4 21 -10 46 -13 57 -3 12 -1 16 6 12 5 -4 15 -23 21
-44z m8977 22 c-3 -3 -12 -4 -19 -1 -8 3 -5 6 6 6 11 1 17 -2 13 -5z m24 -217
c-8 -8 -11 5 -11 44 0 72 14 86 18 18 2 -28 -2 -57 -7 -62z m-9009 -129 c-9
-9 -12 -4 -11 23 0 32 1 33 11 11 8 -17 8 -26 0 -34z m9018 -84 c0 -8 -4 -12
-10 -9 -5 3 -10 10 -10 16 0 5 5 9 10 9 6 0 10 -7 10 -16z m-9007 -195 c-3
-11 -9 -16 -14 -13 -11 6 -12 49 -2 84 7 23 8 22 14 -14 3 -21 4 -47 2 -57z
m9001 -11 c3 -13 6 -41 5 -63 0 -47 -12 -26 -24 43 -7 44 8 60 19 20z m-8996
-310 c6 -113 -16 -93 -24 23 -5 68 -4 82 6 72 8 -7 15 -46 18 -95z m9003 -75
c-9 -16 -10 -15 -11 7 0 14 4 36 8 50 7 24 7 24 10 -7 2 -18 -1 -41 -7 -50z
m-9014 -185 c-3 -8 -6 -5 -6 6 -1 11 2 17 5 13 3 -3 4 -12 1 -19z m-6 -305
c-9 -15 -10 -12 -11 18 0 20 3 39 8 43 11 12 14 -42 3 -61z m9025 -38 c6 -67
4 -78 -7 -67 -8 8 -15 42 -17 90 -5 105 16 85 24 -23z m-9002 -275 c6 -42 6
-44 -9 -26 -9 12 -15 38 -14 65 0 54 12 34 23 -39z m9006 -54 c0 -53 -16 -70
-22 -23 -4 40 1 67 13 67 5 0 9 -20 9 -44z m-9017 -176 c3 -11 1 -20 -4 -20
-5 0 -9 9 -9 20 0 11 2 20 4 20 2 0 6 -9 9 -20z m9017 -96 c0 -14 -4 -23 -10
-19 -5 3 -10 15 -10 26 0 10 5 19 10 19 6 0 10 -12 10 -26z m-9019 -227 c-8
-8 -11 5 -11 44 0 72 14 86 18 18 2 -28 -2 -57 -7 -62z m9014 -74 c5 -48 5
-48 -9 -18 -17 35 -22 111 -6 83 6 -9 12 -38 15 -65z m-8968 -39 c-3 -3 -12
-4 -19 -1 -8 3 -5 6 6 6 11 1 17 -2 13 -5z m-28 -194 l-1 -35 -13 40 c-8 22
-13 51 -13 65 0 24 0 24 13 -5 8 -16 14 -46 14 -65z m9004 -101 c-5 -37 -7
-40 -15 -20 -4 12 -5 41 -1 64 5 33 8 37 14 20 4 -11 5 -40 2 -64z m-423 -218
c0 -9 -84 -31 -117 -31 -29 0 -5 12 49 26 67 16 68 16 68 5z m305 -1 c23 -6
16 -8 -35 -9 -45 0 -60 2 -50 9 17 11 42 11 85 0z m-2065 -9 c-46 -25 -139
-37 -118 -15 6 5 86 21 118 23 13 0 13 -1 0 -8z m285 -1 c-3 -5 -19 -10 -35
-10 -16 0 -32 5 -35 10 -4 6 10 10 35 10 25 0 39 -4 35 -10z m605 1 c0 -11
-51 -21 -111 -21 -50 0 -67 15 -26 23 42 8 137 7 137 -2z m304 0 c3 -5 -5 -12
-19 -15 -29 -7 -75 2 -75 15 0 12 87 12 94 0z m236 -1 c-20 -13 -40 -13 -40 0
0 6 12 10 28 10 21 0 24 -2 12 -10z m-3675 -20 c15 -7 10 -9 -22 -9 -24 -1
-43 4 -43 9 0 12 37 12 65 0z m609 1 c7 -10 -77 -31 -124 -31 -36 0 -49 18
-18 24 73 16 135 19 142 7z m283 3 c13 -4 20 -10 17 -15 -6 -11 -55 -12 -80
-2 -16 6 -16 7 2 14 24 10 34 10 61 3z m263 -4 c0 -5 -12 -10 -27 -9 -25 0
-26 1 -8 9 27 12 35 12 35 0z m305 -5 c-16 -8 -48 -14 -70 -14 l-40 1 40 13
c22 8 54 13 70 13 l30 0 -30 -13z m350 5 c4 -6 -16 -10 -54 -10 -33 0 -63 5
-66 10 -4 6 16 10 54 10 33 0 63 -4 66 -10z m-4366 -16 c2 -2 -17 -4 -43 -4
-30 0 -45 4 -41 10 6 9 72 4 84 -6z m1454 5 c-6 -6 -33 -13 -60 -15 l-48 -4
40 14 c51 18 83 20 68 5z m322 1 c14 -6 2 -9 -42 -9 -36 -1 -63 3 -63 9 0 12
77 12 105 0z m470 -5 c-48 -16 -85 -18 -85 -6 0 13 26 19 80 19 l45 0 -40 -13z
m598 8 c-7 -2 -21 -2 -30 0 -10 3 -4 5 12 5 17 0 24 -2 18 -5z m-3997 -12 c-7
-11 -106 -34 -114 -26 -5 5 5 9 58 24 47 12 62 13 56 2z m314 -1 c19 -6 9 -8
-37 -9 -36 -1 -63 3 -63 9 0 12 64 12 100 0z m245 0 c-3 -5 -15 -10 -26 -10
-11 0 -17 5 -14 10 3 6 15 10 26 10 11 0 17 -4 14 -10z m858 3 c-7 -2 -21 -2
-30 0 -10 3 -4 5 12 5 17 0 24 -2 18 -5z m317 -3 c-20 -13 -136 -24 -151 -14
-21 13 19 23 96 23 47 1 65 -2 55 -9z m320 0 c0 -5 -22 -10 -50 -10 -27 0 -50
5 -50 10 0 6 23 10 50 10 28 0 50 -4 50 -10z m233 3 c-7 -2 -21 -2 -30 0 -10
3 -4 5 12 5 17 0 24 -2 18 -5z m-3205 -12 c10 -6 8 -10 -10 -14 -35 -10 -108
-8 -108 2 0 17 95 27 118 12z m356 0 c7 -10 -37 -18 -71 -13 -13 2 -23 8 -23
13 0 12 87 12 94 0z m239 2 c-7 -2 -21 -2 -30 0 -10 3 -4 5 12 5 17 0 24 -2
18 -5z"/>
<path d="M9305 12620 c-4 -6 18 -10 60 -10 81 0 78 -15 -5 -25 -109 -13 -70
-20 106 -20 96 0 174 3 174 8 0 4 -13 7 -30 7 -38 0 -40 19 -2 21 28 2 -210
27 -265 28 -17 1 -35 -3 -38 -9z"/>
</g>
</svg>
