<?xml version="1.0" standalone="no"?>
<!DOCTYPE svg PUBLIC "-//W3C//DTD SVG 20010904//EN"
 "http://www.w3.org/TR/2001/REC-SVG-20010904/DTD/svg10.dtd">
<svg version="1.0" xmlns="http://www.w3.org/2000/svg"
 width="1280.000000pt" height="1216.000000pt" viewBox="0 0 1280.000000 1216.000000"
 preserveAspectRatio="xMidYMid meet">
<metadata>
Created by potrace 1.15, written by Peter Selinger 2001-2017
</metadata>
<g transform="translate(0.000000,1216.000000) scale(0.100000,-0.100000)"
fill="#000000" stroke="none">
<path d="M263 12107 c0 -63 -29 -125 -75 -161 -40 -30 -117 -51 -158 -42 l-30
6 0 -133 0 -132 60 -1 c115 -2 202 -89 202 -201 0 -121 -87 -206 -210 -205
l-52 0 0 -129 0 -129 50 0 c140 0 238 -117 209 -250 -20 -94 -105 -159 -206
-160 l-53 0 0 -130 0 -130 56 0 c68 0 112 -20 158 -70 90 -100 55 -260 -71
-317 -42 -19 -66 -24 -99 -20 l-44 5 0 -132 0 -131 58 0 c182 0 274 -221 146
-349 -40 -40 -89 -59 -152 -58 l-52 0 0 -129 0 -129 50 0 c123 0 213 -87 213
-205 0 -118 -90 -205 -213 -205 l-50 0 0 -130 0 -130 55 0 c71 0 111 -17 156
-67 119 -132 26 -337 -153 -338 l-58 0 0 -131 0 -132 44 5 c33 4 57 -1 99 -20
126 -57 161 -217 71 -317 -46 -50 -90 -70 -158 -70 l-56 0 0 -130 0 -130 53 0
c163 -1 260 -161 185 -305 -35 -66 -104 -105 -188 -105 l-50 0 0 -129 0 -129
53 0 c122 1 209 -84 209 -205 0 -112 -87 -199 -202 -201 l-60 -1 0 -130 0
-131 41 4 c44 5 113 -18 154 -49 82 -65 92 -208 19 -289 -46 -50 -90 -70 -158
-70 l-56 0 0 -130 0 -130 53 0 c163 -1 260 -161 185 -305 -35 -66 -104 -105
-188 -105 l-50 0 0 -129 0 -129 53 0 c122 1 209 -84 209 -205 0 -113 -88 -200
-202 -200 l-60 0 0 -131 0 -132 39 4 c182 18 296 -204 175 -338 -46 -50 -90
-70 -158 -70 l-56 0 0 -130 0 -130 53 0 c208 -1 289 -255 119 -374 -34 -24
-56 -31 -107 -34 l-65 -4 0 -128 0 -127 58 0 c119 -1 204 -87 204 -203 0 -116
-87 -203 -204 -203 l-58 0 0 -128 0 -127 65 -4 c51 -3 73 -10 107 -34 102 -71
122 -206 46 -299 -40 -48 -98 -75 -165 -75 l-53 0 0 -130 0 -130 53 0 c101 -1
186 -65 205 -157 30 -137 -69 -253 -214 -253 l-44 0 0 -151 0 -151 24 6 c14 3
48 1 77 -5 99 -21 165 -113 158 -218 l-4 -51 135 0 135 0 -3 45 c-6 70 5 108
44 154 48 55 87 74 154 74 127 0 223 -107 206 -229 l-6 -44 133 0 133 0 0 63
c0 123 85 210 203 210 121 0 204 -88 203 -216 l0 -57 133 0 132 0 -5 50 c-14
144 116 253 258 216 95 -25 156 -112 149 -215 l-4 -51 135 0 135 0 -3 45 c-6
70 5 108 44 154 48 55 87 74 154 74 127 0 223 -107 206 -229 l-6 -44 133 0
133 0 0 62 c-1 83 30 140 97 182 95 59 215 32 277 -63 30 -44 36 -72 31 -144
l-2 -37 134 0 134 0 -5 50 c-14 144 116 253 258 216 95 -25 156 -112 149 -215
l-4 -51 135 0 135 0 -3 45 c-6 70 5 108 44 154 48 55 87 74 154 74 127 0 223
-107 206 -229 l-6 -44 133 0 133 0 0 63 c0 123 85 210 204 210 120 0 202 -85
203 -209 l0 -64 132 0 132 0 -5 50 c-14 144 116 253 258 216 95 -25 156 -112
149 -215 l-4 -51 133 0 132 0 0 59 c0 72 9 98 51 145 44 51 84 69 149 69 127
0 223 -107 206 -229 l-6 -44 133 0 133 0 0 63 c0 124 85 210 205 210 119 0
203 -89 201 -213 l-1 -60 133 0 133 0 -5 50 c-14 144 116 253 258 216 95 -25
156 -112 149 -215 l-4 -51 135 0 135 0 -3 45 c-6 70 5 108 44 154 48 55 87 74
154 74 127 0 223 -107 206 -229 l-6 -44 133 0 133 0 0 63 c0 123 85 210 203
210 121 0 204 -88 203 -216 l0 -57 133 0 132 0 -5 50 c-14 144 116 253 258
216 95 -25 156 -112 149 -215 l-4 -51 135 0 135 0 -3 45 c-6 70 5 108 44 154
48 55 87 74 154 74 127 0 223 -107 206 -229 l-6 -44 133 0 133 0 0 62 c-2 122
84 211 204 211 120 0 202 -85 203 -209 l0 -64 132 0 132 0 -5 50 c-10 105 59
198 162 220 137 28 254 -78 244 -220 l-3 -50 151 0 151 0 -1 63 c-1 54 3 71
29 113 36 58 89 91 162 100 l53 6 0 124 0 124 -42 0 c-58 1 -118 29 -155 75
-108 131 -29 321 140 333 l57 4 0 128 0 128 -57 4 c-169 12 -248 202 -140 333
37 46 97 74 155 75 l42 0 0 128 0 127 -50 2 c-92 3 -166 63 -191 156 -32 119
65 246 190 249 l51 1 0 129 0 128 -40 0 c-158 0 -263 185 -177 311 42 61 89
90 156 96 l61 6 0 127 0 128 -59 4 c-70 5 -117 33 -154 91 -87 134 11 316 171
317 l42 0 0 124 0 123 -49 6 c-54 6 -116 34 -143 64 -10 10 -27 41 -39 67 -55
126 42 275 180 278 l51 1 0 129 0 128 -42 0 c-52 0 -114 28 -150 66 -28 30
-58 101 -58 138 0 107 99 205 208 206 l42 0 0 129 0 129 -59 4 c-97 7 -168 72
-186 171 -22 117 86 237 214 237 l31 0 0 124 0 123 -49 6 c-169 20 -250 180
-162 319 35 55 97 88 164 88 l47 0 0 130 0 130 -42 0 c-85 1 -164 57 -193 139
-19 55 -19 77 0 132 29 82 108 138 193 139 l42 0 0 128 0 129 -45 1 c-137 2
-238 143 -191 267 10 24 27 56 38 71 28 34 113 74 161 74 l37 0 0 125 0 125
-32 0 c-128 0 -235 119 -213 237 18 99 89 164 186 171 l59 4 0 129 0 129 -42
0 c-109 1 -208 99 -208 206 0 37 30 108 58 138 36 38 98 66 150 66 l42 0 0
128 0 129 -45 1 c-137 2 -238 143 -191 267 33 86 92 131 187 142 l49 6 0 123
0 124 -32 0 c-62 0 -112 21 -154 64 -123 128 -48 331 127 344 l59 4 0 129 0
129 -45 0 c-106 0 -205 100 -205 206 0 37 30 108 58 138 36 38 98 66 150 66
l42 0 0 128 0 127 -51 2 c-125 4 -222 131 -190 250 25 90 94 148 190 160 l51
6 0 143 0 144 -37 0 c-21 0 -61 11 -89 24 -76 35 -116 100 -115 189 l0 47
-130 0 -129 0 0 -39 c0 -66 -11 -99 -48 -142 -62 -72 -150 -97 -230 -63 -79
33 -131 111 -132 197 l0 47 -129 0 -130 0 0 -54 c0 -57 -23 -117 -58 -148 -28
-26 -104 -58 -138 -58 -123 0 -230 115 -212 227 l6 33 -133 0 -132 0 4 -33
c13 -116 -90 -227 -213 -227 -16 0 -53 11 -82 24 -71 34 -106 87 -111 172 l-4
64 -129 0 -129 0 0 -47 c-1 -86 -53 -164 -132 -197 -129 -54 -277 50 -278 197
l0 47 -129 0 -130 0 0 -54 c0 -57 -23 -117 -58 -148 -28 -26 -104 -58 -138
-58 -123 0 -230 115 -212 227 l6 33 -133 0 -132 0 4 -33 c13 -117 -90 -227
-214 -227 -16 0 -54 12 -83 26 -72 36 -104 86 -109 170 l-4 64 -129 0 -129 0
0 -39 c0 -66 -11 -99 -48 -142 -39 -46 -100 -78 -147 -79 -118 0 -214 95 -215
213 l0 47 -130 0 -130 0 0 -58 c0 -81 -40 -143 -113 -177 -89 -42 -168 -28
-233 40 -45 46 -72 123 -60 170 l6 25 -133 0 -133 0 4 -34 c6 -55 -24 -130
-68 -170 -67 -61 -146 -71 -229 -30 -72 36 -104 86 -109 170 l-4 64 -129 0
-129 0 0 -39 c0 -66 -11 -99 -48 -142 -39 -46 -100 -78 -147 -79 -118 0 -214
95 -215 213 l0 47 -130 0 -130 0 0 -58 c0 -47 -6 -67 -30 -106 -64 -101 -210
-125 -299 -50 -51 43 -74 89 -75 155 l-1 59 -130 0 -131 0 4 -33 c13 -116 -90
-227 -213 -227 -16 0 -53 11 -81 24 -76 35 -116 100 -115 189 l0 47 -130 0
-129 0 0 -47 c-1 -86 -53 -164 -132 -197 -130 -55 -277 50 -278 197 l0 47
-129 0 -130 0 0 -56 c0 -80 -37 -139 -110 -176 -30 -16 -68 -28 -85 -28 -124
0 -231 114 -213 227 l6 33 -133 0 -132 0 4 -33 c13 -116 -90 -227 -213 -227
-16 0 -53 11 -82 24 -71 34 -106 87 -111 172 l-4 64 -129 0 -129 0 0 -45 c0
-85 -48 -160 -125 -196 -131 -61 -284 44 -285 194 l0 47 -130 0 -130 0 0 -58
c0 -81 -40 -143 -113 -177 -28 -14 -65 -25 -82 -25 -123 0 -230 115 -212 227
l6 33 -133 0 -132 0 4 -34 c6 -55 -24 -130 -68 -170 -66 -60 -143 -71 -227
-32 -71 34 -106 87 -111 172 l-4 64 -148 0 -147 0 0 -53z m262 -24 c9 -63 35
-112 83 -155 50 -45 99 -61 172 -56 113 8 207 98 218 208 l5 50 92 0 92 0 5
-50 c15 -149 181 -250 323 -196 82 32 155 138 155 225 0 20 6 21 95 21 l95 0
0 -40 c0 -116 111 -220 235 -220 124 0 235 104 235 220 l0 40 94 0 94 0 7 -47
c9 -63 35 -112 83 -155 50 -45 99 -61 172 -56 113 8 207 98 218 208 l5 50 92
0 92 0 5 -50 c19 -191 265 -280 401 -144 43 44 65 87 73 148 l7 46 93 0 94 0
0 -40 c0 -116 111 -220 235 -220 124 0 235 104 235 220 l0 40 94 0 94 0 7 -47
c9 -63 35 -112 83 -155 50 -45 99 -61 172 -56 113 8 207 98 218 208 l5 50 92
0 92 0 5 -50 c14 -144 174 -246 313 -200 79 26 149 115 162 205 l6 45 93 0 94
0 0 -40 c0 -116 111 -220 235 -220 124 0 235 104 235 220 l0 40 94 0 94 0 7
-47 c9 -63 35 -112 83 -155 50 -45 99 -61 172 -56 113 8 207 98 218 208 l5 50
92 0 92 0 5 -50 c14 -144 174 -246 313 -200 79 26 149 115 162 205 l6 45 92 0
92 0 1 -40 c7 -162 187 -267 337 -196 85 40 133 110 137 196 l1 40 93 0 92 0
7 -47 c9 -63 35 -112 83 -155 50 -45 99 -61 172 -56 113 8 207 98 218 208 l5
50 92 0 92 0 5 -50 c15 -149 181 -250 323 -196 82 32 155 138 155 225 0 20 6
21 95 21 l95 0 0 -40 c0 -116 111 -220 235 -220 124 0 235 104 235 220 l0 40
94 0 94 0 7 -47 c9 -63 35 -112 83 -155 50 -45 99 -61 172 -56 113 8 207 98
218 208 l5 50 92 0 92 0 5 -50 c19 -191 265 -280 401 -144 43 44 65 87 73 148
l7 46 93 0 94 0 0 -40 c0 -116 111 -220 235 -220 124 0 235 104 235 220 l0 40
94 0 94 0 7 -47 c17 -115 116 -213 215 -213 l30 0 0 -114 0 -113 -49 -7 c-27
-4 -66 -18 -89 -34 -95 -63 -132 -164 -101 -277 21 -77 137 -165 218 -165 20
0 21 -5 21 -94 l0 -93 -45 -6 c-151 -16 -245 -184 -185 -326 36 -82 92 -123
203 -146 l27 -5 0 -89 0 -89 -50 -11 c-67 -14 -101 -33 -137 -74 -71 -81 -81
-196 -26 -286 35 -55 105 -101 168 -108 l45 -6 0 -92 0 -92 -49 -7 c-56 -7
-119 -46 -156 -96 -105 -142 -15 -347 164 -376 l42 -7 -3 -91 -3 -90 -42 -8
c-157 -26 -246 -187 -182 -328 36 -80 96 -127 177 -138 l47 -7 3 -92 3 -91
-43 -7 c-233 -39 -284 -346 -75 -450 28 -14 66 -25 84 -25 l33 0 0 -94 0 -93
-49 -7 c-56 -7 -119 -46 -156 -96 -105 -142 -17 -345 163 -375 l43 -7 -3 -91
-3 -92 -46 -6 c-47 -7 -110 -41 -141 -75 -9 -11 -26 -40 -37 -64 -63 -139 27
-307 177 -328 l47 -7 3 -91 3 -91 -42 -7 c-128 -20 -219 -135 -206 -260 3 -30
12 -67 21 -84 36 -70 126 -131 194 -132 l32 0 0 -94 0 -93 -49 -7 c-84 -11
-169 -84 -191 -166 -39 -141 51 -280 198 -305 l43 -7 -3 -91 -3 -92 -47 -7
c-150 -21 -240 -189 -177 -328 11 -24 28 -53 37 -64 31 -34 90 -65 139 -73
l48 -8 3 -91 3 -91 -42 -7 c-130 -21 -221 -138 -206 -266 7 -61 27 -99 73
-144 36 -35 107 -66 151 -66 22 0 23 -2 23 -94 l0 -93 -45 -6 c-144 -16 -242
-178 -190 -313 33 -88 103 -143 198 -159 l38 -6 -3 -92 -3 -92 -47 -7 c-224
-31 -270 -348 -64 -444 28 -13 66 -24 84 -24 l32 0 0 -94 0 -93 -41 -7 c-90
-14 -178 -88 -200 -168 -13 -51 -7 -134 14 -175 36 -70 133 -133 204 -133 22
0 23 -2 23 -94 l0 -93 -45 -6 c-63 -7 -133 -53 -168 -108 -55 -90 -45 -205 26
-286 36 -41 70 -60 137 -74 l50 -11 0 -89 0 -89 -27 -5 c-113 -23 -166 -62
-203 -147 -60 -141 35 -309 185 -325 l45 -6 0 -91 0 -92 -55 -11 c-117 -25
-195 -119 -195 -235 l0 -38 -113 0 -114 0 -1 49 c-2 92 -52 168 -137 207 -81
38 -175 27 -251 -31 -45 -34 -84 -117 -84 -177 l0 -48 -95 0 -95 0 0 43 c0 50
-30 120 -68 161 -36 38 -118 76 -166 76 -69 0 -118 -21 -171 -75 -53 -52 -75
-102 -75 -169 l0 -36 -95 0 -95 0 0 48 c-1 166 -184 280 -335 208 -86 -40
-132 -108 -139 -204 l-4 -47 -94 -3 -95 -3 -1 50 c-2 92 -52 168 -137 207 -81
38 -175 27 -251 -31 -45 -34 -84 -117 -84 -177 l0 -48 -95 0 -95 0 0 43 c0 50
-30 120 -68 161 -36 38 -118 76 -166 76 -69 0 -118 -21 -171 -75 -53 -52 -75
-102 -75 -169 l0 -36 -95 0 -95 0 0 48 c-1 166 -184 280 -335 208 -86 -40
-132 -108 -139 -204 l-4 -47 -94 -3 -95 -3 -1 51 c-2 93 -55 169 -147 211 -72
33 -170 18 -241 -36 -45 -34 -84 -117 -84 -177 l0 -48 -94 0 -93 0 -6 54 c-10
95 -60 166 -147 205 -90 41 -180 22 -255 -54 -53 -52 -75 -102 -75 -169 l0
-36 -95 0 -95 0 0 48 c-1 166 -184 280 -335 208 -86 -40 -127 -100 -141 -204
l-7 -52 -92 0 -92 0 -1 51 c-2 92 -55 169 -147 210 -72 33 -170 18 -241 -36
-45 -34 -84 -117 -84 -177 l0 -48 -95 0 -95 0 0 43 c0 51 -37 132 -76 169 -99
92 -233 90 -329 -7 -53 -52 -75 -102 -75 -169 l0 -36 -95 0 -95 0 0 48 c-1
166 -184 280 -335 208 -86 -40 -132 -108 -139 -204 l-4 -47 -94 -3 -95 -3 -1
50 c-2 92 -52 168 -137 207 -81 38 -175 27 -251 -31 -45 -34 -84 -117 -84
-177 l0 -48 -95 0 -95 0 0 43 c0 50 -30 120 -68 161 -36 38 -118 76 -166 76
-69 0 -118 -21 -171 -75 -53 -52 -75 -102 -75 -169 l0 -36 -95 0 -95 0 0 48
c-1 166 -184 280 -335 208 -86 -40 -132 -108 -139 -204 l-4 -47 -94 -3 -95 -3
-1 50 c-2 92 -52 168 -137 207 -81 38 -175 27 -251 -31 -45 -34 -84 -117 -84
-177 l0 -48 -94 0 -93 0 -6 54 c-10 95 -60 166 -147 205 -90 41 -180 22 -255
-54 -53 -52 -75 -102 -75 -169 l0 -36 -95 0 -95 0 0 48 c-1 166 -184 280 -335
208 -86 -40 -132 -108 -139 -204 l-4 -47 -94 -3 -95 -3 -1 51 c-2 120 -110
229 -224 230 l-38 0 0 115 0 115 43 0 c80 1 164 57 203 137 27 55 25 155 -3
209 -39 73 -111 120 -195 128 l-43 4 0 92 0 93 30 3 c98 10 157 44 199 117 90
152 -20 356 -191 357 l-43 0 0 95 0 95 38 0 c76 1 164 58 205 135 29 55 29
155 0 210 -41 77 -129 134 -205 135 l-38 0 0 95 0 95 43 0 c128 1 239 131 224
262 -8 64 -47 131 -99 168 -38 28 -66 37 -133 44 l-30 3 0 93 0 92 43 4 c84 8
156 55 195 128 28 54 30 154 3 209 -39 80 -123 136 -203 137 l-43 0 0 95 0 95
38 0 c76 1 164 58 205 135 28 52 29 155 3 205 -41 79 -110 127 -197 137 l-49
6 0 93 0 94 43 0 c56 0 138 41 172 86 39 52 59 117 52 176 -6 51 -40 120 -73
150 -34 29 -98 57 -144 61 l-45 4 -3 90 -3 89 63 12 c199 37 274 259 136 401
-43 44 -80 62 -144 68 l-54 6 0 93 0 94 31 0 c83 0 170 56 211 134 29 54 31
155 4 206 -41 79 -110 127 -197 137 l-49 6 0 93 0 94 43 0 c90 0 180 68 212
161 26 72 13 152 -36 220 -33 46 -115 89 -171 89 l-48 0 0 95 c0 93 1 95 23
95 46 0 128 31 163 62 55 48 78 102 78 178 0 134 -102 240 -231 240 l-33 0 0
95 0 95 34 0 c82 0 166 54 209 135 28 52 29 155 3 205 -41 79 -136 140 -216
140 l-30 0 0 95 0 95 43 0 c55 0 139 41 172 84 30 40 55 108 55 151 0 43 -25
111 -55 151 -33 43 -117 84 -172 84 l-43 0 0 94 0 93 49 6 c86 10 154 57 194
132 30 56 29 155 -1 211 -41 80 -126 134 -209 134 l-33 0 0 95 0 95 43 0 c59
1 116 29 164 84 88 100 79 246 -21 334 -35 31 -117 62 -163 62 -22 0 -23 2
-23 96 0 77 3 95 13 91 23 -9 109 14 148 39 62 39 109 125 109 199 0 44 -24
108 -55 150 -35 44 -116 85 -172 85 l-43 0 0 94 0 93 49 6 c87 10 156 58 197
137 26 50 25 153 -3 205 -41 77 -129 134 -205 135 l-38 0 0 95 0 95 39 0 c115
0 231 116 231 232 l0 28 109 0 109 0 7 -47z"/>
</g>
</svg>
